# Blender v2.90.0 OBJ File: 'Barrel.blend'
# www.blender.org
mtllib Barrel.mtl
o Barrel_Cylinder.002
v 0.000000 0.749479 -0.604580
v 0.427503 0.749479 -0.427503
v 0.604580 0.749479 0.000000
v 0.427503 0.749479 0.427503
v -0.000000 0.749479 0.604580
v -0.427503 0.749479 0.427503
v -0.604580 0.749479 -0.000000
v -0.427503 0.749479 -0.427503
v 0.000000 0.625682 -0.604580
v 0.427503 0.625682 -0.427503
v 0.604580 0.625682 0.000000
v 0.427503 0.625682 0.427503
v -0.000000 0.625682 0.604580
v -0.427503 0.625682 0.427503
v -0.604580 0.625682 -0.000000
v -0.427503 0.625682 -0.427503
v 0.000000 -0.760727 -0.604580
v 0.427503 -0.760727 -0.427503
v 0.604580 -0.760727 0.000000
v 0.427503 -0.760727 0.427503
v -0.000000 -0.760727 0.604580
v -0.427503 -0.760727 0.427503
v -0.604580 -0.760727 -0.000000
v -0.427503 -0.760727 -0.427503
v 0.000000 -0.636930 -0.604580
v 0.427503 -0.636930 -0.427503
v 0.604580 -0.636930 0.000000
v 0.427503 -0.636930 0.427503
v -0.000000 -0.636930 0.604580
v -0.427503 -0.636930 0.427503
v -0.604580 -0.636930 -0.000000
v -0.427503 -0.636930 -0.427503
v 0.000000 0.749479 -0.566881
v 0.400846 0.749479 -0.400846
v 0.566881 0.749479 0.000000
v 0.400846 0.749479 0.400846
v -0.000000 0.749479 0.566881
v -0.400846 0.749479 0.400846
v -0.566881 0.749479 -0.000000
v -0.400846 0.749479 -0.400846
v 0.000000 0.625682 -0.566881
v 0.400846 0.625682 -0.400846
v 0.566881 0.625682 0.000000
v 0.400846 0.625682 0.400846
v -0.000000 0.625682 0.566881
v -0.400846 0.625682 0.400846
v -0.566881 0.625682 -0.000000
v -0.400846 0.625682 -0.400846
v 0.000000 -0.760727 -0.566881
v 0.400846 -0.760727 -0.400846
v 0.566881 -0.760727 0.000000
v 0.400846 -0.760727 0.400846
v -0.000000 -0.760727 0.566881
v -0.400846 -0.760727 0.400846
v -0.566881 -0.760727 -0.000000
v -0.400846 -0.760727 -0.400846
v 0.000000 -0.636930 -0.566881
v 0.400846 -0.636930 -0.400846
v 0.566881 -0.636930 0.000000
v 0.400846 -0.636930 0.400846
v -0.000000 -0.636930 0.566881
v -0.400846 -0.636930 0.400846
v -0.566881 -0.636930 -0.000000
v -0.400846 -0.636930 -0.400846
v 0.000000 0.098966 -0.815558
v 0.576687 0.098966 -0.576687
v 0.815558 0.098966 0.000000
v 0.576687 0.098966 0.576687
v -0.000000 0.098966 0.815558
v -0.576687 0.098966 0.576687
v -0.815558 0.098966 -0.000000
v -0.576687 0.098966 -0.576687
v 0.000000 -0.068032 -0.815558
v 0.576687 -0.068032 -0.576687
v 0.815558 -0.068032 0.000000
v 0.576687 -0.068032 0.576687
v -0.000000 -0.068032 0.815558
v -0.576687 -0.068032 0.576687
v -0.815558 -0.068032 -0.000000
v -0.576687 -0.068032 -0.576687
v 0.000000 0.098966 -0.764704
v 0.540728 0.098966 -0.540729
v 0.764704 0.098966 0.000000
v 0.540728 0.098966 0.540729
v -0.000000 0.098966 0.764704
v -0.540729 0.098966 0.540728
v -0.764704 0.098966 -0.000000
v -0.540729 0.098966 -0.540728
v 0.000000 -0.068032 -0.764704
v 0.540728 -0.068032 -0.540729
v 0.764704 -0.068032 0.000000
v 0.540728 -0.068032 0.540729
v -0.000000 -0.068032 0.764704
v -0.540729 -0.068032 0.540728
v -0.764704 -0.068032 -0.000000
v -0.540729 -0.068032 -0.540728
v 0.000000 -0.715621 -0.565050
v 0.000000 0.704373 -0.565050
v 0.399551 -0.715621 -0.399551
v 0.399551 0.704373 -0.399551
v 0.565050 -0.715621 0.000000
v 0.565050 0.704373 0.000000
v 0.399551 -0.715621 0.399551
v 0.399551 0.704373 0.399551
v -0.000000 -0.715621 0.565050
v -0.000000 0.704373 0.565050
v -0.399551 -0.715621 0.399551
v -0.399551 0.704373 0.399551
v -0.565050 -0.715621 -0.000000
v -0.565050 0.704373 -0.000000
v -0.399551 -0.715621 -0.399551
v -0.399551 0.704373 -0.399551
v 0.000000 -0.005624 -0.815558
v 0.576687 -0.005624 -0.576687
v 0.815558 -0.005624 0.000000
v 0.576687 -0.005624 0.576687
v -0.000000 -0.005624 0.815558
v -0.576687 -0.005624 0.576687
v -0.815558 -0.005624 -0.000000
v -0.576687 -0.005624 -0.576687
vt 0.000000 0.000000
vt 0.000000 0.000000
vt 0.000000 0.000000
vt 0.000000 0.000000
vt 0.000000 0.000000
vt 0.000000 0.000000
vt 0.000000 0.000000
vt 0.000000 0.000000
vt 0.000000 0.000000
vt 0.000000 0.000000
vt 0.000000 0.000000
vt 0.000000 0.000000
vt 0.000000 0.000000
vt 0.000000 0.000000
vt 0.000000 0.000000
vt 0.000000 0.000000
vt 0.000000 0.000000
vt 0.000000 0.000000
vt 0.000000 0.000000
vt 0.000000 0.000000
vt 0.000000 0.000000
vt 0.000000 0.000000
vt 0.000000 0.000000
vt 0.000000 0.000000
vt 0.000000 0.000000
vt 0.000000 0.000000
vt 0.000000 0.000000
vt 0.000000 0.000000
vt 0.000000 0.000000
vt 0.000000 0.000000
vt 0.000000 0.000000
vt 0.000000 0.000000
vt 0.000000 0.000000
vt 0.000000 0.000000
vt 0.000000 0.000000
vt 0.000000 0.000000
vt 0.000000 0.000000
vt 0.000000 0.000000
vt 0.000000 0.000000
vt 0.000000 0.000000
vt 0.000000 0.000000
vt 0.000000 0.000000
vt 0.000000 0.000000
vt 0.000000 0.000000
vt 0.000000 0.000000
vt 0.000000 0.000000
vt 0.000000 0.000000
vt 0.000000 0.000000
vt 0.000000 0.000000
vt 0.000000 0.000000
vt 0.000000 0.000000
vt 0.000000 0.000000
vt 0.000000 0.000000
vt 0.000000 0.000000
vt 0.000000 0.000000
vt 0.000000 0.000000
vt 0.000000 0.000000
vt 0.000000 0.000000
vt 0.000000 0.000000
vt 0.000000 0.000000
vt 0.000000 0.000000
vt 0.000000 0.000000
vt 0.000000 0.000000
vt 0.000000 0.000000
vt 0.000000 0.000000
vt 0.000000 0.000000
vt 0.000000 0.000000
vt 0.000000 0.000000
vt 0.000000 0.000000
vt 0.000000 0.000000
vt 0.000000 0.000000
vt 0.000000 0.000000
vt 0.000000 0.000000
vt 0.000000 0.000000
vt 0.000000 0.000000
vt 0.000000 0.000000
vt 0.000000 0.000000
vt 0.000000 0.000000
vt 0.000000 0.000000
vt 0.000000 0.000000
vt 0.000000 0.000000
vt 0.000000 0.000000
vt 0.000000 0.000000
vt 0.000000 0.000000
vt 0.000000 0.000000
vt 0.000000 0.000000
vt 0.000000 0.000000
vt 0.000000 0.000000
vt 0.000000 0.000000
vt 0.000000 0.000000
vt 0.000000 0.000000
vt 0.000000 0.000000
vt 0.000000 0.000000
vt 0.000000 0.000000
vt 0.000000 0.000000
vt 0.000000 0.000000
vt 1.000000 1.000000
vt 0.875000 0.750000
vt 1.000000 0.750000
vt 0.750000 1.000000
vt 0.750000 0.750000
vt 0.625000 0.750000
vt 0.625000 1.000000
vt 0.500000 0.750000
vt 0.375000 1.000000
vt 0.375000 0.750000
vt 0.250000 0.750000
vt 0.010000 0.250000
vt 0.250000 0.010000
vt 0.490000 0.250000
vt 0.125000 1.000000
vt 0.125000 0.750000
vt 0.000000 0.750000
vt 0.919706 0.419706
vt 0.919706 0.080294
vt 0.580294 0.080294
vt 0.000000 0.500000
vt 0.125000 0.500000
vt 0.250000 0.500000
vt 0.375000 0.500000
vt 0.500000 0.500000
vt 0.625000 0.500000
vt 0.750000 0.500000
vt 0.875000 0.500000
vt 1.000000 0.500000
vt 0.875000 1.000000
vt 0.500000 1.000000
vt 0.250000 1.000000
vt 0.419706 0.419706
vt 0.250000 0.490000
vt 0.080294 0.419706
vt 0.080294 0.080294
vt 0.419706 0.080294
vt 0.000000 1.000000
vt 0.580294 0.419706
vt 0.750000 0.490000
vt 0.990000 0.250000
vt 0.750000 0.010000
vt 0.510000 0.250000
vn 0.9239 0.0000 -0.3827
vn 0.3827 0.0000 0.9239
vn -0.9239 0.0000 0.3827
vn -0.3827 0.0000 -0.9239
vn 0.3827 0.0000 -0.9239
vn 0.9239 0.0000 0.3827
vn -0.3827 0.0000 0.9239
vn -0.9239 0.0000 -0.3827
vn 0.0000 1.0000 0.0000
vn 0.0000 -1.0000 -0.0000
vn 0.3638 0.3099 -0.8784
vn 0.8784 0.3099 -0.3638
vn 0.8784 0.3099 0.3638
vn 0.3638 0.3099 0.8784
vn -0.3638 0.3099 0.8784
vn -0.8784 0.3099 0.3638
vn -0.8784 0.3099 -0.3638
vn -0.3638 0.3099 -0.8784
vn -0.3638 -0.3099 -0.8784
vn -0.8784 -0.3099 -0.3638
vn -0.8784 -0.3099 0.3638
vn -0.3638 -0.3099 0.8784
vn 0.3638 -0.3099 0.8784
vn 0.8784 -0.3099 0.3638
vn 0.8784 -0.3099 -0.3638
vn 0.3638 -0.3099 -0.8784
usemtl Metal_Barrel
s off
f 3/1/1 10/2/1 2/3/1
f 5/4/2 12/5/2 4/6/2
f 7/7/3 14/8/3 6/9/3
f 1/10/4 16/11/4 8/12/4
f 2/3/5 9/13/5 1/10/5
f 4/6/6 11/14/6 3/1/6
f 6/9/7 13/15/7 5/4/7
f 8/12/8 15/16/8 7/7/8
f 26/17/1 19/18/1 18/19/1
f 28/20/2 21/21/2 20/22/2
f 30/23/3 23/24/3 22/25/3
f 32/26/4 17/27/4 24/28/4
f 25/29/5 18/19/5 17/27/5
f 27/30/6 20/22/6 19/18/6
f 29/31/7 22/25/7 21/21/7
f 31/32/8 24/28/8 23/24/8
f 42/33/3 35/34/3 34/35/3
f 44/36/4 37/37/4 36/38/4
f 46/39/1 39/40/1 38/41/1
f 48/42/2 33/43/2 40/44/2
f 41/45/7 34/35/7 33/43/7
f 43/46/8 36/38/8 35/34/8
f 45/47/5 38/41/5 37/37/5
f 47/48/6 40/44/6 39/40/6
f 51/49/3 58/50/3 50/51/3
f 53/52/4 60/53/4 52/54/4
f 55/55/1 62/56/1 54/57/1
f 49/58/2 64/59/2 56/60/2
f 50/51/7 57/61/7 49/58/7
f 52/54/8 59/62/8 51/49/8
f 54/57/5 61/63/5 53/52/5
f 56/60/6 63/64/6 55/55/6
f 1/10/9 40/44/9 33/43/9
f 7/7/9 40/44/9 8/12/9
f 7/7/9 38/41/9 39/40/9
f 5/4/9 38/41/9 6/9/9
f 4/6/9 37/37/9 5/4/9
f 3/1/9 36/38/9 4/6/9
f 2/3/9 35/34/9 3/1/9
f 1/10/9 34/35/9 2/3/9
f 9/13/10 48/42/10 16/11/10
f 15/16/10 48/42/10 47/48/10
f 15/16/10 46/39/10 14/8/10
f 14/8/10 45/47/10 13/15/10
f 13/15/10 44/36/10 12/5/10
f 11/14/10 44/36/10 43/46/10
f 11/14/10 42/33/10 10/2/10
f 10/2/10 41/45/10 9/13/10
f 17/27/10 56/60/10 24/28/10
f 23/24/10 56/60/10 55/55/10
f 23/24/10 54/57/10 22/25/10
f 22/25/10 53/52/10 21/21/10
f 21/21/10 52/54/10 20/22/10
f 19/18/10 52/54/10 51/49/10
f 19/18/10 50/51/10 18/19/10
f 18/19/10 49/58/10 17/27/10
f 25/29/9 64/59/9 57/61/9
f 31/32/9 64/59/9 32/26/9
f 31/32/9 62/56/9 63/64/9
f 29/31/9 62/56/9 30/23/9
f 28/20/9 61/63/9 29/31/9
f 27/30/9 60/53/9 28/20/9
f 26/17/9 59/62/9 27/30/9
f 25/29/9 58/50/9 26/17/9
f 67/65/1 74/66/1 66/67/1
f 69/68/2 76/69/2 68/70/2
f 71/71/3 78/72/3 70/73/3
f 65/74/4 80/75/4 72/76/4
f 66/67/5 73/77/5 65/74/5
f 68/70/6 75/78/6 67/65/6
f 70/73/7 77/79/7 69/68/7
f 72/76/8 79/80/8 71/71/8
f 90/81/3 83/82/3 82/83/3
f 92/84/4 85/85/4 84/86/4
f 94/87/1 87/88/1 86/89/1
f 96/90/2 81/91/2 88/92/2
f 89/93/7 82/83/7 81/91/7
f 91/94/8 84/86/8 83/82/8
f 93/95/5 86/89/5 85/85/5
f 95/96/6 88/92/6 87/88/6
f 72/76/9 81/91/9 65/74/9
f 71/71/9 88/92/9 72/76/9
f 71/71/9 86/89/9 87/88/9
f 70/73/9 85/85/9 86/89/9
f 69/68/9 84/86/9 85/85/9
f 67/65/9 84/86/9 68/70/9
f 67/65/9 82/83/9 83/82/9
f 65/74/9 82/83/9 66/67/9
f 73/77/10 96/90/10 80/75/10
f 79/80/10 96/90/10 95/96/10
f 79/80/10 94/87/10 78/72/10
f 78/72/10 93/95/10 77/79/10
f 77/79/10 92/84/10 76/69/10
f 76/69/10 91/94/10 75/78/10
f 75/78/10 90/81/10 74/66/10
f 74/66/10 89/93/10 73/77/10
f 3/1/1 11/14/1 10/2/1
f 5/4/2 13/15/2 12/5/2
f 7/7/3 15/16/3 14/8/3
f 1/10/4 9/13/4 16/11/4
f 2/3/5 10/2/5 9/13/5
f 4/6/6 12/5/6 11/14/6
f 6/9/7 14/8/7 13/15/7
f 8/12/8 16/11/8 15/16/8
f 26/17/1 27/30/1 19/18/1
f 28/20/2 29/31/2 21/21/2
f 30/23/3 31/32/3 23/24/3
f 32/26/4 25/29/4 17/27/4
f 25/29/5 26/17/5 18/19/5
f 27/30/6 28/20/6 20/22/6
f 29/31/7 30/23/7 22/25/7
f 31/32/8 32/26/8 24/28/8
f 42/33/3 43/46/3 35/34/3
f 44/36/4 45/47/4 37/37/4
f 46/39/1 47/48/1 39/40/1
f 48/42/2 41/45/2 33/43/2
f 41/45/7 42/33/7 34/35/7
f 43/46/8 44/36/8 36/38/8
f 45/47/5 46/39/5 38/41/5
f 47/48/6 48/42/6 40/44/6
f 51/49/3 59/62/3 58/50/3
f 53/52/4 61/63/4 60/53/4
f 55/55/1 63/64/1 62/56/1
f 49/58/2 57/61/2 64/59/2
f 50/51/7 58/50/7 57/61/7
f 52/54/8 60/53/8 59/62/8
f 54/57/5 62/56/5 61/63/5
f 56/60/6 64/59/6 63/64/6
f 1/10/9 8/12/9 40/44/9
f 7/7/9 39/40/9 40/44/9
f 7/7/9 6/9/9 38/41/9
f 5/4/9 37/37/9 38/41/9
f 4/6/9 36/38/9 37/37/9
f 3/1/9 35/34/9 36/38/9
f 2/3/9 34/35/9 35/34/9
f 1/10/9 33/43/9 34/35/9
f 9/13/10 41/45/10 48/42/10
f 15/16/10 16/11/10 48/42/10
f 15/16/10 47/48/10 46/39/10
f 14/8/10 46/39/10 45/47/10
f 13/15/10 45/47/10 44/36/10
f 11/14/10 12/5/10 44/36/10
f 11/14/10 43/46/10 42/33/10
f 10/2/10 42/33/10 41/45/10
f 17/27/10 49/58/10 56/60/10
f 23/24/10 24/28/10 56/60/10
f 23/24/10 55/55/10 54/57/10
f 22/25/10 54/57/10 53/52/10
f 21/21/10 53/52/10 52/54/10
f 19/18/10 20/22/10 52/54/10
f 19/18/10 51/49/10 50/51/10
f 18/19/10 50/51/10 49/58/10
f 25/29/9 32/26/9 64/59/9
f 31/32/9 63/64/9 64/59/9
f 31/32/9 30/23/9 62/56/9
f 29/31/9 61/63/9 62/56/9
f 28/20/9 60/53/9 61/63/9
f 27/30/9 59/62/9 60/53/9
f 26/17/9 58/50/9 59/62/9
f 25/29/9 57/61/9 58/50/9
f 67/65/1 75/78/1 74/66/1
f 69/68/2 77/79/2 76/69/2
f 71/71/3 79/80/3 78/72/3
f 65/74/4 73/77/4 80/75/4
f 66/67/5 74/66/5 73/77/5
f 68/70/6 76/69/6 75/78/6
f 70/73/7 78/72/7 77/79/7
f 72/76/8 80/75/8 79/80/8
f 90/81/3 91/94/3 83/82/3
f 92/84/4 93/95/4 85/85/4
f 94/87/1 95/96/1 87/88/1
f 96/90/2 89/93/2 81/91/2
f 89/93/7 90/81/7 82/83/7
f 91/94/8 92/84/8 84/86/8
f 93/95/5 94/87/5 86/89/5
f 95/96/6 96/90/6 88/92/6
f 72/76/9 88/92/9 81/91/9
f 71/71/9 87/88/9 88/92/9
f 71/71/9 70/73/9 86/89/9
f 70/73/9 69/68/9 85/85/9
f 69/68/9 68/70/9 84/86/9
f 67/65/9 83/82/9 84/86/9
f 67/65/9 66/67/9 82/83/9
f 65/74/9 81/91/9 82/83/9
f 73/77/10 89/93/10 96/90/10
f 79/80/10 80/75/10 96/90/10
f 79/80/10 95/96/10 94/87/10
f 78/72/10 94/87/10 93/95/10
f 77/79/10 93/95/10 92/84/10
f 76/69/10 92/84/10 91/94/10
f 75/78/10 91/94/10 90/81/10
f 74/66/10 90/81/10 89/93/10
usemtl Wood_barrel
f 98/97/11 114/98/11 113/99/11
f 114/98/12 102/100/12 115/101/12
f 102/100/13 116/102/13 115/101/13
f 104/103/14 117/104/14 116/102/14
f 117/104/15 108/105/15 118/106/15
f 108/105/16 119/107/16 118/106/16
f 110/108/9 106/109/9 102/110/9
f 119/107/17 112/111/17 120/112/17
f 112/111/18 113/113/18 120/112/18
f 99/114/10 103/115/10 107/116/10
f 120/112/19 97/117/19 111/118/19
f 119/107/20 111/118/20 109/119/20
f 118/106/21 109/119/21 107/120/21
f 117/104/22 107/120/22 105/121/22
f 116/102/23 105/121/23 103/122/23
f 115/101/24 103/122/24 101/123/24
f 114/98/25 101/123/25 99/124/25
f 97/125/26 114/98/26 99/124/26
f 98/97/11 100/126/11 114/98/11
f 114/98/12 100/126/12 102/100/12
f 102/100/13 104/103/13 116/102/13
f 104/103/14 106/127/14 117/104/14
f 117/104/15 106/127/15 108/105/15
f 108/105/16 110/128/16 119/107/16
f 102/110/9 100/129/9 98/130/9
f 98/130/9 112/131/9 110/108/9
f 110/108/9 108/132/9 106/109/9
f 106/109/9 104/133/9 102/110/9
f 102/110/9 98/130/9 110/108/9
f 119/107/17 110/128/17 112/111/17
f 112/111/18 98/134/18 113/113/18
f 111/135/10 97/136/10 99/114/10
f 99/114/10 101/137/10 103/115/10
f 103/115/10 105/138/10 107/116/10
f 107/116/10 109/139/10 111/135/10
f 111/135/10 99/114/10 107/116/10
f 120/112/19 113/113/19 97/117/19
f 119/107/20 120/112/20 111/118/20
f 118/106/21 119/107/21 109/119/21
f 117/104/22 118/106/22 107/120/22
f 116/102/23 117/104/23 105/121/23
f 115/101/24 116/102/24 103/122/24
f 114/98/25 115/101/25 101/123/25
f 97/125/26 113/99/26 114/98/26
