# Blender v2.90.0 OBJ File: 'Plate_02.blend'
# www.blender.org
mtllib Bowl_01.mtl
o Bowl_01_Circle.001
v -0.000000 -0.077274 -0.120873
v -0.071047 -0.077274 -0.097788
v -0.114957 -0.077274 -0.037352
v -0.114957 -0.077274 0.037352
v -0.071047 -0.077274 0.097788
v 0.000000 -0.077274 0.120873
v 0.071047 -0.077274 0.097788
v 0.114957 -0.077274 0.037352
v 0.114957 -0.077274 -0.037352
v 0.071047 -0.077274 -0.097788
v -0.088629 0.074274 -0.121987
v 0.000000 0.074274 -0.150784
v -0.143404 0.074274 -0.046595
v -0.143404 0.074274 0.046595
v -0.088629 0.074274 0.121987
v 0.000000 0.074274 0.150784
v 0.088629 0.074274 0.121987
v 0.143404 0.074274 0.046595
v 0.143404 0.074274 -0.046595
v 0.088629 0.074274 -0.121987
v -0.097534 0.074274 -0.134245
v 0.000000 0.074274 -0.165936
v -0.157814 0.074274 -0.051277
v -0.157814 0.074274 0.051277
v -0.097534 0.074274 0.134245
v 0.000000 0.074274 0.165936
v 0.097534 0.074274 0.134245
v 0.157814 0.074274 0.051277
v 0.157814 0.074274 -0.051277
v 0.097534 0.074274 -0.134245
v -0.064903 -0.071274 -0.089331
v 0.000000 -0.071274 -0.110419
v -0.105015 -0.071274 -0.034121
v -0.105015 -0.071274 0.034121
v -0.064903 -0.071274 0.089331
v 0.000000 -0.071274 0.110419
v 0.064903 -0.071274 0.089331
v 0.105015 -0.071274 0.034121
v 0.105015 -0.071274 -0.034121
v 0.064903 -0.071274 -0.089331
vt 0.000000 0.000000
vt 0.000000 0.000000
vt 0.000000 0.000000
vt 0.000000 0.000000
vt 0.000000 0.000000
vt 0.000000 0.000000
vt 0.000000 0.000000
vt 0.000000 0.000000
vt 0.000000 0.000000
vt 0.000000 0.000000
vt 0.000000 0.000000
vt 0.000000 0.000000
vt 0.000000 0.000000
vt 0.000000 0.000000
vt 0.000000 0.000000
vt 0.000000 0.000000
vt 0.000000 0.000000
vt 0.000000 0.000000
vt 0.000000 0.000000
vt 0.000000 0.000000
vt 0.000000 0.000000
vt 0.000000 0.000000
vt 0.000000 0.000000
vt 0.000000 0.000000
vt 0.000000 0.000000
vt 0.000000 0.000000
vt 0.000000 0.000000
vt 0.000000 0.000000
vt 0.000000 0.000000
vt 0.000000 0.000000
vt 0.000000 0.000000
vt 0.000000 0.000000
vt 0.000000 0.000000
vt 0.000000 0.000000
vt 0.000000 0.000000
vt 0.000000 0.000000
vt 0.000000 0.000000
vt 0.000000 0.000000
vt 0.000000 0.000000
vt 0.000000 0.000000
vn 0.0000 -1.0000 -0.0000
vn -0.2988 0.2550 -0.9196
vn -0.7785 -0.2721 -0.5656
vn 0.7785 -0.2721 -0.5656
vn 0.2974 -0.2721 0.9152
vn -0.9623 -0.2721 0.0000
vn 0.2974 -0.2721 -0.9152
vn 0.7785 -0.2721 0.5656
vn -0.7785 -0.2721 0.5656
vn -0.2974 -0.2721 -0.9152
vn 0.9623 -0.2721 0.0000
vn -0.2974 -0.2721 0.9152
vn 0.0000 1.0000 0.0000
vn 0.9669 0.2550 -0.0000
vn -0.2988 0.2550 0.9196
vn -0.7823 0.2550 -0.5683
vn 0.7823 0.2550 -0.5683
vn 0.2988 0.2550 0.9196
vn -0.9669 0.2550 0.0000
vn 0.2988 0.2550 -0.9196
vn 0.7823 0.2550 0.5683
vn -0.7823 0.2550 0.5683
usemtl Bowl_01
s off
f 9/1/1 7/2/1 5/3/1
f 17/4/2 36/5/2 16/6/2
f 3/7/3 21/8/3 2/9/3
f 10/10/4 29/11/4 9/1/4
f 7/2/5 26/12/5 6/13/5
f 4/14/6 23/15/6 3/7/6
f 1/16/7 30/17/7 10/10/7
f 8/18/8 27/19/8 7/2/8
f 5/3/9 24/20/9 4/14/9
f 1/16/10 21/8/10 22/21/10
f 9/1/11 28/22/11 8/18/11
f 6/13/12 25/23/12 5/3/12
f 12/24/13 21/8/13 11/25/13
f 11/25/13 23/15/13 13/26/13
f 13/26/13 24/20/13 14/27/13
f 15/28/13 24/20/13 25/23/13
f 15/28/13 26/12/13 16/6/13
f 16/6/13 27/19/13 17/4/13
f 17/4/13 28/22/13 18/29/13
f 18/29/13 29/11/13 19/30/13
f 19/30/13 30/17/13 20/31/13
f 12/24/13 30/17/13 22/21/13
f 37/32/13 39/33/13 32/34/13
f 14/27/14 33/35/14 13/26/14
f 12/24/15 40/36/15 20/31/15
f 18/29/16 37/32/16 17/4/16
f 14/27/17 35/37/17 34/38/17
f 11/25/18 32/34/18 12/24/18
f 19/30/19 38/39/19 18/29/19
f 15/28/20 36/5/20 35/37/20
f 13/26/21 31/40/21 11/25/21
f 19/30/22 40/36/22 39/33/22
f 3/7/1 2/9/1 1/16/1
f 1/16/1 10/10/1 9/1/1
f 9/1/1 8/18/1 7/2/1
f 7/2/1 6/13/1 5/3/1
f 5/3/1 4/14/1 9/1/1
f 4/14/1 3/7/1 9/1/1
f 3/7/1 1/16/1 9/1/1
f 17/4/2 37/32/2 36/5/2
f 3/7/3 23/15/3 21/8/3
f 10/10/4 30/17/4 29/11/4
f 7/2/5 27/19/5 26/12/5
f 4/14/6 24/20/6 23/15/6
f 1/16/7 22/21/7 30/17/7
f 8/18/8 28/22/8 27/19/8
f 5/3/9 25/23/9 24/20/9
f 1/16/10 2/9/10 21/8/10
f 9/1/11 29/11/11 28/22/11
f 6/13/12 26/12/12 25/23/12
f 12/24/13 22/21/13 21/8/13
f 11/25/13 21/8/13 23/15/13
f 13/26/13 23/15/13 24/20/13
f 15/28/13 14/27/13 24/20/13
f 15/28/13 25/23/13 26/12/13
f 16/6/13 26/12/13 27/19/13
f 17/4/13 27/19/13 28/22/13
f 18/29/13 28/22/13 29/11/13
f 19/30/13 29/11/13 30/17/13
f 12/24/13 20/31/13 30/17/13
f 32/34/13 31/40/13 33/35/13
f 33/35/13 34/38/13 32/34/13
f 34/38/13 35/37/13 32/34/13
f 35/37/13 36/5/13 37/32/13
f 37/32/13 38/39/13 39/33/13
f 39/33/13 40/36/13 32/34/13
f 35/37/13 37/32/13 32/34/13
f 14/27/14 34/38/14 33/35/14
f 12/24/15 32/34/15 40/36/15
f 18/29/16 38/39/16 37/32/16
f 14/27/17 15/28/17 35/37/17
f 11/25/18 31/40/18 32/34/18
f 19/30/19 39/33/19 38/39/19
f 15/28/20 16/6/20 36/5/20
f 13/26/21 33/35/21 31/40/21
f 19/30/22 20/31/22 40/36/22
