# Blender v2.90.0 OBJ File: 'Candle.blend'
# www.blender.org
mtllib Candle.mtl
o Candle_Circle.008
v -0.000000 -0.932306 -0.218002
v -0.154151 -0.932306 -0.154151
v -0.218002 -0.932306 0.000000
v -0.154151 -0.932306 0.154151
v 0.000000 -0.932306 0.218002
v 0.154151 -0.932306 0.154151
v 0.218002 -0.932306 -0.000000
v 0.154151 -0.932306 -0.154151
v -0.000000 0.130927 -0.218002
v -0.154151 0.130927 -0.154151
v -0.218002 0.130927 0.000000
v -0.154151 0.130927 0.154151
v 0.000000 0.130927 0.218002
v 0.154151 0.130927 0.154151
v 0.218002 0.130927 -0.000000
v 0.154151 0.130927 -0.154151
v -0.000000 0.232546 -0.049895
v -0.035281 0.232546 -0.035281
v -0.049895 0.232546 -0.000000
v -0.035281 0.232546 0.035281
v 0.000000 0.232546 0.049895
v 0.035281 0.232546 0.035281
v 0.049895 0.232546 -0.000000
v 0.035281 0.232546 -0.035281
v -0.046730 0.232546 -0.046730
v -0.000000 0.232546 -0.066086
v -0.066086 0.232546 0.000000
v -0.046730 0.232546 0.046730
v 0.000000 0.232546 0.066086
v 0.046730 0.232546 0.046730
v 0.066086 0.232546 -0.000000
v 0.046730 0.232546 -0.046730
v -0.000000 0.336286 -0.049895
v -0.030724 0.350455 -0.035281
v -0.043450 0.356324 -0.000000
v -0.030724 0.350455 0.035281
v -0.000000 0.336286 0.049895
v 0.030724 0.322118 0.035281
v 0.043450 0.316249 -0.000000
v 0.030724 0.322118 -0.035281
vt 0.000000 0.000000
vt 0.000000 0.000000
vt 0.000000 0.000000
vt 0.000000 0.000000
vt 0.000000 0.000000
vt 0.000000 0.000000
vt 0.000000 0.000000
vt 0.000000 0.000000
vt 0.000000 0.000000
vt 0.000000 0.000000
vt 0.000000 0.000000
vt 0.000000 0.000000
vt 0.000000 0.000000
vt 0.000000 0.000000
vt 0.000000 0.000000
vt 0.000000 0.000000
vt 0.000000 0.000000
vt 0.000000 0.000000
vt 0.000000 0.000000
vt 0.000000 0.000000
vt 0.000000 0.000000
vt 0.000000 0.000000
vt 0.000000 0.000000
vt 0.000000 0.000000
vt 0.000000 0.000000
vt 0.000000 0.000000
vt 0.000000 0.000000
vt 0.000000 0.000000
vt 0.000000 0.000000
vt 0.000000 0.000000
vt 0.000000 0.000000
vt 0.000000 0.000000
vt 0.000000 0.000000
vt 0.000000 0.000000
vt 0.000000 0.000000
vt 0.000000 0.000000
vt 0.000000 0.000000
vt 0.000000 0.000000
vt 0.000000 0.000000
vt 0.000000 0.000000
vn -0.3827 -0.0000 -0.9239
vn 0.4188 0.9081 -0.0000
vn 0.3826 0.0195 -0.9237
vn 0.9421 0.0479 0.3319
vn -0.4233 0.0164 0.9058
vn -0.9233 0.0357 -0.3824
vn 0.9216 0.0710 -0.3817
vn 0.4295 0.0000 0.9030
vn -0.9369 0.0488 0.3461
vn -0.4233 0.0164 -0.9058
vn 0.4295 0.0000 -0.9030
vn 0.9216 0.0710 0.3817
vn -0.3827 -0.0000 0.9239
vn -0.9369 0.0488 -0.3461
vn 0.9421 0.0479 -0.3319
vn 0.3826 0.0195 0.9237
vn -0.9233 0.0357 0.3824
vn 0.0000 -1.0000 0.0000
vn 0.5418 0.8100 -0.2244
vn 0.3827 0.0000 -0.9239
vn 0.9239 0.0000 0.3827
vn -0.9239 0.0000 -0.3827
vn 0.9239 0.0000 -0.3827
vn 0.3827 0.0000 0.9239
vn -0.9239 0.0000 0.3827
vn 0.2244 0.8100 0.5418
vn -0.5418 0.8100 0.2244
vn -0.2244 0.8100 -0.5418
vn 0.2244 0.8100 -0.5418
vn 0.5418 0.8100 0.2244
vn -0.2244 0.8100 0.5418
vn -0.5418 0.8100 -0.2244
vn 0.0000 1.0000 -0.0000
usemtl Candle's_rope
s off
f 18/1/1 33/2/1 17/3/1
f 39/4/2 40/5/2 34/6/2
f 17/3/3 40/5/3 24/7/3
f 22/8/4 39/4/4 38/9/4
f 20/10/5 37/11/5 36/12/5
f 19/13/6 34/6/6 18/1/6
f 24/7/7 39/4/7 23/14/7
f 21/15/8 38/9/8 37/11/8
f 19/13/9 36/12/9 35/16/9
f 18/1/10 34/6/10 33/2/10
f 33/2/2 34/6/2 40/5/2
f 34/6/2 35/16/2 39/4/2
f 35/16/2 36/12/2 39/4/2
f 36/12/2 37/11/2 38/9/2
f 39/4/2 36/12/2 38/9/2
f 17/3/11 33/2/11 40/5/11
f 22/8/12 23/14/12 39/4/12
f 20/10/13 21/15/13 37/11/13
f 19/13/14 35/16/14 34/6/14
f 24/7/15 40/5/15 39/4/15
f 21/15/16 22/8/16 38/9/16
f 19/13/17 20/10/17 36/12/17
usemtl White_candle's
f 4/17/18 3/18/18 7/19/18
f 16/20/19 31/21/19 15/22/19
f 1/23/20 16/20/20 8/24/20
f 7/19/21 14/25/21 6/26/21
f 5/27/13 12/28/13 4/17/13
f 3/18/22 10/29/22 2/30/22
f 8/24/23 15/22/23 7/19/23
f 6/26/24 13/31/24 5/27/24
f 4/17/25 11/32/25 3/18/25
f 2/30/1 9/33/1 1/23/1
f 14/25/26 29/34/26 13/31/26
f 12/28/27 27/35/27 11/32/27
f 10/29/28 26/36/28 9/33/28
f 16/20/29 26/36/29 32/37/29
f 15/22/30 30/38/30 14/25/30
f 13/31/31 28/39/31 12/28/31
f 11/32/32 25/40/32 10/29/32
f 17/3/33 25/40/33 18/1/33
f 19/13/33 25/40/33 27/35/33
f 19/13/33 28/39/33 20/10/33
f 21/15/33 28/39/33 29/34/33
f 21/15/33 30/38/33 22/8/33
f 22/8/33 31/21/33 23/14/33
f 23/14/33 32/37/33 24/7/33
f 17/3/33 32/37/33 26/36/33
f 3/18/18 2/30/18 7/19/18
f 2/30/18 1/23/18 7/19/18
f 1/23/18 8/24/18 7/19/18
f 7/19/18 6/26/18 5/27/18
f 5/27/18 4/17/18 7/19/18
f 16/20/19 32/37/19 31/21/19
f 1/23/20 9/33/20 16/20/20
f 7/19/21 15/22/21 14/25/21
f 5/27/13 13/31/13 12/28/13
f 3/18/22 11/32/22 10/29/22
f 8/24/23 16/20/23 15/22/23
f 6/26/24 14/25/24 13/31/24
f 4/17/25 12/28/25 11/32/25
f 2/30/1 10/29/1 9/33/1
f 14/25/26 30/38/26 29/34/26
f 12/28/27 28/39/27 27/35/27
f 10/29/28 25/40/28 26/36/28
f 16/20/29 9/33/29 26/36/29
f 15/22/30 31/21/30 30/38/30
f 13/31/31 29/34/31 28/39/31
f 11/32/32 27/35/32 25/40/32
f 17/3/33 26/36/33 25/40/33
f 19/13/33 18/1/33 25/40/33
f 19/13/33 27/35/33 28/39/33
f 21/15/33 20/10/33 28/39/33
f 21/15/33 29/34/33 30/38/33
f 22/8/33 30/38/33 31/21/33
f 23/14/33 31/21/33 32/37/33
f 17/3/33 24/7/33 32/37/33
