# Blender v2.90.0 OBJ File: 'Chair_01.blend'
# www.blender.org
mtllib Chair_01.mtl
o Chair_01_Cube
v 1.068625 0.540925 -0.269372
v 1.068625 0.434546 -0.269372
v 1.068625 0.540925 0.269372
v 1.068625 0.434546 0.269372
v -1.068624 0.540925 -0.269372
v -1.068624 0.434546 -0.269372
v -1.068624 0.540925 0.269372
v -1.068624 0.434546 0.269372
v -1.118768 -0.050720 -0.303454
v -0.963533 0.463478 -0.089577
v -1.108867 -0.027975 -0.385644
v -0.953632 0.486223 -0.171767
v -0.996615 -0.063826 -0.301476
v -0.841380 0.450372 -0.087599
v -0.986714 -0.041080 -0.383666
v -0.831479 0.473117 -0.169789
v 1.118768 -0.050720 -0.303454
v 0.963533 0.463478 -0.089577
v 1.108867 -0.027975 -0.385644
v 0.953632 0.486223 -0.171767
v 0.996616 -0.063826 -0.301476
v 0.841380 0.450372 -0.087599
v 0.986714 -0.041080 -0.383666
v 0.831479 0.473117 -0.169789
v -1.118768 -0.050720 0.303454
v -0.963533 0.463478 0.089577
v -1.108867 -0.027975 0.385644
v -0.953632 0.486223 0.171767
v -0.996615 -0.063826 0.301476
v -0.841380 0.450372 0.087599
v -0.986714 -0.041080 0.383666
v -0.831479 0.473117 0.169789
v 1.118768 -0.050720 0.303454
v 0.963533 0.463478 0.089577
v 1.108867 -0.027975 0.385644
v 0.953631 0.486223 0.171767
v 0.996615 -0.063825 0.301476
v 0.841380 0.450372 0.087599
v 0.986714 -0.041080 0.383666
v 0.831478 0.473117 0.169789
vt 0.875000 0.500000
vt 0.625000 0.750000
vt 0.625000 0.500000
vt 0.375000 1.000000
vt 0.375000 0.750000
vt 0.625000 0.000000
vt 0.375000 0.250000
vt 0.375000 0.000000
vt 0.375000 0.500000
vt 0.125000 0.750000
vt 0.125000 0.500000
vt 0.625000 0.250000
vt 0.375000 0.000000
vt 0.625000 0.250000
vt 0.375000 0.250000
vt 0.375000 0.500000
vt 0.625000 0.500000
vt 0.375000 0.750000
vt 0.625000 1.000000
vt 0.375000 1.000000
vt 0.125000 0.500000
vt 0.125000 0.750000
vt 0.875000 0.500000
vt 0.625000 0.750000
vt 0.375000 0.000000
vt 0.625000 0.250000
vt 0.625000 0.000000
vt 0.375000 0.500000
vt 0.375000 0.250000
vt 0.375000 0.750000
vt 0.625000 0.500000
vt 0.625000 1.000000
vt 0.625000 0.750000
vt 0.125000 0.500000
vt 0.875000 0.500000
vt 0.375000 0.000000
vt 0.625000 0.250000
vt 0.625000 0.000000
vt 0.375000 0.500000
vt 0.375000 0.250000
vt 0.375000 0.750000
vt 0.625000 0.500000
vt 0.625000 1.000000
vt 0.625000 0.750000
vt 0.125000 0.500000
vt 0.875000 0.500000
vt 0.375000 0.000000
vt 0.625000 0.250000
vt 0.375000 0.250000
vt 0.375000 0.500000
vt 0.625000 0.500000
vt 0.375000 0.750000
vt 0.625000 1.000000
vt 0.375000 1.000000
vt 0.125000 0.500000
vt 0.125000 0.750000
vt 0.875000 0.500000
vt 0.625000 0.750000
vt 0.875000 0.750000
vt 0.625000 1.000000
vt 0.625000 0.000000
vt 0.875000 0.750000
vt 0.375000 1.000000
vt 0.125000 0.750000
vt 0.875000 0.750000
vt 0.375000 1.000000
vt 0.125000 0.750000
vt 0.875000 0.750000
vt 0.625000 0.000000
vt 0.875000 0.750000
vn 0.0000 1.0000 0.0000
vn 0.0000 0.0000 1.0000
vn -1.0000 0.0000 0.0000
vn 0.0000 -1.0000 0.0000
vn 1.0000 0.0000 0.0000
vn 0.0000 0.0000 -1.0000
vn -0.9531 0.3009 -0.0316
vn 0.0546 0.3694 -0.9277
vn 0.9531 -0.3009 0.0316
vn -0.0546 -0.3694 0.9277
vn -0.0981 -0.9560 -0.2764
vn 0.0981 0.9560 0.2764
vn 0.9531 0.3009 -0.0316
vn -0.0546 0.3694 -0.9277
vn -0.9531 -0.3009 0.0316
vn 0.0546 -0.3694 0.9277
vn 0.0981 -0.9560 -0.2764
vn -0.0981 0.9560 0.2764
vn -0.9531 0.3009 0.0316
vn 0.0546 0.3694 0.9277
vn 0.9531 -0.3009 -0.0316
vn -0.0546 -0.3694 -0.9277
vn -0.0981 -0.9560 0.2764
vn 0.0981 0.9560 -0.2764
vn 0.9531 0.3009 0.0316
vn -0.0546 0.3694 0.9277
vn -0.9531 -0.3009 -0.0316
vn 0.0546 -0.3694 -0.9277
vn 0.0981 -0.9560 0.2764
vn -0.0981 0.9560 -0.2764
usemtl WoodChair_01
s off
f 5/1/1 3/2/1 1/3/1
f 3/2/2 8/4/2 4/5/2
f 7/6/3 6/7/3 8/8/3
f 2/9/4 8/10/4 6/11/4
f 1/3/5 4/5/5 2/9/5
f 5/12/6 2/9/6 6/7/6
f 9/13/7 12/14/7 11/15/7
f 12/14/8 15/16/8 11/15/8
f 16/17/9 13/18/9 15/16/9
f 13/18/10 10/19/10 9/20/10
f 11/21/11 13/18/11 9/22/11
f 12/23/12 14/24/12 16/17/12
f 17/25/13 20/26/13 18/27/13
f 23/28/14 20/26/14 19/29/14
f 21/30/15 24/31/15 23/28/15
f 21/30/16 18/32/16 22/33/16
f 19/34/17 21/30/17 23/28/17
f 22/33/18 20/35/18 24/31/18
f 25/36/19 28/37/19 26/38/19
f 31/39/20 28/37/20 27/40/20
f 29/41/21 32/42/21 31/39/21
f 29/41/22 26/43/22 30/44/22
f 27/45/23 29/41/23 31/39/23
f 30/44/24 28/46/24 32/42/24
f 33/47/25 36/48/25 35/49/25
f 36/48/26 39/50/26 35/49/26
f 40/51/27 37/52/27 39/50/27
f 37/52/28 34/53/28 33/54/28
f 35/55/29 37/52/29 33/56/29
f 36/57/30 38/58/30 40/51/30
f 5/1/1 7/59/1 3/2/1
f 3/2/2 7/60/2 8/4/2
f 7/6/3 5/12/3 6/7/3
f 2/9/4 4/5/4 8/10/4
f 1/3/5 3/2/5 4/5/5
f 5/12/6 1/3/6 2/9/6
f 9/13/7 10/61/7 12/14/7
f 12/14/8 16/17/8 15/16/8
f 16/17/9 14/24/9 13/18/9
f 13/18/10 14/24/10 10/19/10
f 11/21/11 15/16/11 13/18/11
f 12/23/12 10/62/12 14/24/12
f 17/25/13 19/29/13 20/26/13
f 23/28/14 24/31/14 20/26/14
f 21/30/15 22/33/15 24/31/15
f 21/30/16 17/63/16 18/32/16
f 19/34/17 17/64/17 21/30/17
f 22/33/18 18/65/18 20/35/18
f 25/36/19 27/40/19 28/37/19
f 31/39/20 32/42/20 28/37/20
f 29/41/21 30/44/21 32/42/21
f 29/41/22 25/66/22 26/43/22
f 27/45/23 25/67/23 29/41/23
f 30/44/24 26/68/24 28/46/24
f 33/47/25 34/69/25 36/48/25
f 36/48/26 40/51/26 39/50/26
f 40/51/27 38/58/27 37/52/27
f 37/52/28 38/58/28 34/53/28
f 35/55/29 39/50/29 37/52/29
f 36/57/30 34/70/30 38/58/30
