# Blender v2.90.0 OBJ File: 'Chair_02.blend'
# www.blender.org
mtllib Chair_02.mtl
o Chair_02_Cube.001
v -0.340734 0.005132 0.221581
v -0.340734 0.125327 0.221581
v -0.340734 0.005132 -0.489036
v -0.340734 0.125327 -0.489036
v 0.340734 0.005132 0.221581
v 0.340734 0.125327 0.221581
v 0.340734 0.005132 -0.489036
v 0.340734 0.125327 -0.489036
v -0.329519 -0.710017 0.327841
v -0.361142 1.063197 0.327841
v -0.329519 -0.710017 0.213812
v -0.361142 1.063197 0.213812
v -0.206155 -0.710017 0.327841
v -0.237778 1.063197 0.327841
v -0.206155 -0.710017 0.213812
v -0.237778 1.063197 0.213812
v 0.329519 -0.710017 0.327841
v 0.361142 1.063197 0.327841
v 0.329519 -0.710017 0.213812
v 0.361142 1.063197 0.213812
v 0.206155 -0.710017 0.327841
v 0.237778 1.063197 0.327841
v 0.206155 -0.710017 0.213812
v 0.237778 1.063197 0.213812
v -0.234811 -0.317303 -0.338238
v -0.234811 -0.210517 -0.338238
v -0.234811 -0.317303 -0.402582
v -0.234811 -0.210517 -0.402582
v 0.234811 -0.317303 -0.338238
v 0.234811 -0.210517 -0.338238
v 0.234811 -0.317303 -0.402582
v 0.234811 -0.210517 -0.402582
v -0.338392 -0.710017 -0.429782
v -0.324913 0.034917 -0.429782
v -0.338392 -0.710017 -0.315752
v -0.324913 0.034917 -0.315752
v -0.211920 -0.710017 -0.429782
v -0.201550 0.034917 -0.429782
v -0.211920 -0.710017 -0.315752
v -0.201550 0.034917 -0.315752
v 0.327806 -0.710017 -0.429782
v 0.324913 0.034917 -0.429782
v 0.327806 -0.710017 -0.315752
v 0.324913 0.034917 -0.315752
v 0.201334 -0.710017 -0.429782
v 0.201550 0.034917 -0.429782
v 0.201334 -0.710017 -0.315752
v 0.201550 0.034917 -0.315752
v -0.230369 -0.317303 0.319461
v -0.230369 -0.210517 0.319461
v -0.294713 -0.317303 0.319461
v -0.294713 -0.210517 0.319461
v -0.230368 -0.317303 -0.421860
v -0.230368 -0.210517 -0.421860
v -0.294713 -0.317303 -0.421860
v -0.294713 -0.210517 -0.421860
v 0.230369 -0.317303 0.319461
v 0.230369 -0.210517 0.319461
v 0.294713 -0.317303 0.319461
v 0.294713 -0.210517 0.319461
v 0.230368 -0.317303 -0.421860
v 0.230368 -0.210517 -0.421860
v 0.294713 -0.317303 -0.421860
v 0.294713 -0.210517 -0.421860
v -0.234811 -0.317303 0.302804
v -0.234811 -0.210517 0.302804
v -0.234811 -0.317303 0.238460
v -0.234811 -0.210517 0.238460
v 0.234811 -0.317303 0.302804
v 0.234811 -0.210517 0.302804
v 0.234811 -0.317303 0.238460
v 0.234811 -0.210517 0.238460
v -0.264794 0.794714 0.302433
v -0.264794 0.901500 0.302433
v -0.264794 0.794714 0.237352
v -0.264794 0.901500 0.237352
v 0.264794 0.794714 0.302433
v 0.264794 0.901500 0.302433
v 0.264794 0.794714 0.237352
v 0.264794 0.901500 0.237352
v -0.264794 0.410830 0.302433
v -0.264794 0.517616 0.302433
v -0.264794 0.410830 0.237352
v -0.264794 0.517616 0.237352
v 0.264794 0.410830 0.302433
v 0.264794 0.517616 0.302433
v 0.264794 0.410830 0.237352
v 0.264794 0.517616 0.237352
vt 0.625000 0.000000
vt 0.375000 0.250000
vt 0.375000 0.000000
vt 0.625000 0.250000
vt 0.375000 0.500000
vt 0.625000 0.500000
vt 0.375000 0.750000
vt 0.625000 0.750000
vt 0.375000 1.000000
vt 0.125000 0.750000
vt 0.125000 0.500000
vt 0.875000 0.500000
vt 0.625000 0.000000
vt 0.375000 0.250000
vt 0.375000 0.000000
vt 0.625000 0.500000
vt 0.375000 0.500000
vt 0.375000 0.750000
vt 0.625000 0.750000
vt 0.375000 1.000000
vt 0.125000 0.750000
vt 0.125000 0.500000
vt 0.875000 0.500000
vt 0.375000 0.250000
vt 0.625000 0.000000
vt 0.375000 0.000000
vt 0.625000 0.500000
vt 0.625000 0.250000
vt 0.375000 0.750000
vt 0.375000 0.500000
vt 0.375000 1.000000
vt 0.625000 0.750000
vt 0.125000 0.750000
vt 0.125000 0.500000
vt 0.875000 0.500000
vt 0.625000 0.000000
vt 0.375000 0.250000
vt 0.375000 0.000000
vt 0.625000 0.250000
vt 0.375000 0.500000
vt 0.625000 0.500000
vt 0.375000 0.750000
vt 0.625000 0.750000
vt 0.375000 1.000000
vt 0.125000 0.750000
vt 0.125000 0.500000
vt 0.875000 0.500000
vt 0.375000 0.250000
vt 0.625000 0.000000
vt 0.375000 0.000000
vt 0.375000 0.500000
vt 0.625000 0.250000
vt 0.375000 0.750000
vt 0.625000 0.500000
vt 0.625000 1.000000
vt 0.625000 0.750000
vt 0.125000 0.750000
vt 0.125000 0.500000
vt 0.875000 0.500000
vt 0.625000 0.000000
vt 0.375000 0.250000
vt 0.375000 0.000000
vt 0.625000 0.250000
vt 0.375000 0.500000
vt 0.625000 0.500000
vt 0.375000 0.750000
vt 0.625000 1.000000
vt 0.375000 1.000000
vt 0.125000 0.750000
vt 0.125000 0.500000
vt 0.875000 0.500000
vt 0.625000 0.750000
vt 0.625000 0.000000
vt 0.375000 0.250000
vt 0.375000 0.000000
vt 0.625000 0.250000
vt 0.375000 0.500000
vt 0.625000 0.500000
vt 0.375000 0.750000
vt 0.625000 0.750000
vt 0.375000 1.000000
vt 0.125000 0.750000
vt 0.125000 0.500000
vt 0.875000 0.750000
vt 0.375000 0.250000
vt 0.625000 0.000000
vt 0.375000 0.000000
vt 0.375000 0.500000
vt 0.625000 0.250000
vt 0.375000 0.750000
vt 0.625000 0.500000
vt 0.375000 1.000000
vt 0.625000 0.750000
vt 0.125000 0.750000
vt 0.125000 0.500000
vt 0.875000 0.500000
vt 0.625000 0.000000
vt 0.375000 0.250000
vt 0.375000 0.000000
vt 0.625000 0.250000
vt 0.375000 0.500000
vt 0.625000 0.500000
vt 0.375000 0.750000
vt 0.625000 0.750000
vt 0.375000 1.000000
vt 0.125000 0.750000
vt 0.125000 0.500000
vt 0.875000 0.500000
vt 0.625000 0.000000
vt 0.375000 0.250000
vt 0.375000 0.000000
vt 0.625000 0.250000
vt 0.375000 0.500000
vt 0.625000 0.500000
vt 0.375000 0.750000
vt 0.625000 0.750000
vt 0.375000 1.000000
vt 0.125000 0.750000
vt 0.125000 0.500000
vt 0.875000 0.500000
vt 0.625000 0.000000
vt 0.375000 0.250000
vt 0.375000 0.000000
vt 0.625000 0.250000
vt 0.375000 0.500000
vt 0.625000 0.500000
vt 0.375000 0.750000
vt 0.625000 0.750000
vt 0.375000 1.000000
vt 0.125000 0.750000
vt 0.125000 0.500000
vt 0.875000 0.500000
vt 0.625000 1.000000
vt 0.875000 0.750000
vt 0.625000 0.250000
vt 0.625000 1.000000
vt 0.875000 0.750000
vt 0.625000 1.000000
vt 0.875000 0.750000
vt 0.625000 1.000000
vt 0.875000 0.750000
vt 0.375000 1.000000
vt 0.875000 0.750000
vt 0.875000 0.750000
vt 0.625000 1.000000
vt 0.875000 0.500000
vt 0.625000 1.000000
vt 0.875000 0.750000
vt 0.625000 1.000000
vt 0.875000 0.750000
vt 0.625000 1.000000
vt 0.875000 0.750000
vt 0.625000 1.000000
vt 0.875000 0.750000
vn -1.0000 0.0000 0.0000
vn 0.0000 0.0000 -1.0000
vn 1.0000 0.0000 0.0000
vn 0.0000 0.0000 1.0000
vn 0.0000 -1.0000 0.0000
vn 0.0000 1.0000 0.0000
vn -0.9998 -0.0178 0.0000
vn 0.9998 0.0178 0.0000
vn 0.9998 -0.0178 0.0000
vn -0.9998 0.0178 0.0000
vn -0.9998 0.0181 0.0000
vn 0.9999 -0.0139 0.0000
vn 1.0000 0.0039 0.0000
vn -1.0000 0.0003 0.0000
usemtl Chair_02
s off
f 2/1/1 3/2/1 1/3/1
f 4/4/2 7/5/2 3/2/2
f 8/6/3 5/7/3 7/5/3
f 6/8/4 1/9/4 5/7/4
f 7/5/5 1/10/5 3/11/5
f 4/12/6 6/8/6 8/6/6
f 10/13/7 11/14/7 9/15/7
f 11/14/2 16/16/2 15/17/2
f 16/16/8 13/18/8 15/17/8
f 14/19/4 9/20/4 13/18/4
f 15/17/5 9/21/5 11/22/5
f 12/23/6 14/19/6 16/16/6
f 19/24/9 18/25/9 17/26/9
f 19/24/2 24/27/2 20/28/2
f 21/29/10 24/27/10 23/30/10
f 17/31/4 22/32/4 21/29/4
f 17/33/5 23/30/5 19/34/5
f 22/32/6 20/35/6 24/27/6
f 26/36/1 27/37/1 25/38/1
f 28/39/2 31/40/2 27/37/2
f 32/41/3 29/42/3 31/40/3
f 30/43/4 25/44/4 29/42/4
f 31/40/5 25/45/5 27/46/5
f 28/47/6 30/43/6 32/41/6
f 35/48/11 34/49/11 33/50/11
f 39/51/4 36/52/4 35/48/4
f 37/53/12 40/54/12 39/51/12
f 37/53/2 34/55/2 38/56/2
f 33/57/5 39/51/5 35/58/5
f 38/56/6 36/59/6 40/54/6
f 42/60/13 43/61/13 41/62/13
f 44/63/4 47/64/4 43/61/4
f 48/65/14 45/66/14 47/64/14
f 45/66/2 42/67/2 41/68/2
f 47/64/5 41/69/5 43/70/5
f 44/71/6 46/72/6 48/65/6
f 50/73/4 51/74/4 49/75/4
f 52/76/1 55/77/1 51/74/1
f 56/78/2 53/79/2 55/77/2
f 54/80/3 49/81/3 53/79/3
f 55/77/5 49/82/5 51/83/5
f 56/78/6 50/84/6 54/80/6
f 59/85/4 58/86/4 57/87/4
f 63/88/3 60/89/3 59/85/3
f 61/90/2 64/91/2 63/88/2
f 57/92/1 62/93/1 61/90/1
f 57/94/5 63/88/5 59/95/5
f 62/93/6 60/96/6 64/91/6
f 66/97/1 67/98/1 65/99/1
f 68/100/2 71/101/2 67/98/2
f 72/102/3 69/103/3 71/101/3
f 70/104/4 65/105/4 69/103/4
f 71/101/5 65/106/5 67/107/5
f 68/108/6 70/104/6 72/102/6
f 74/109/1 75/110/1 73/111/1
f 76/112/2 79/113/2 75/110/2
f 80/114/3 77/115/3 79/113/3
f 78/116/4 73/117/4 77/115/4
f 79/113/5 73/118/5 75/119/5
f 76/120/6 78/116/6 80/114/6
f 82/121/1 83/122/1 81/123/1
f 84/124/2 87/125/2 83/122/2
f 88/126/3 85/127/3 87/125/3
f 86/128/4 81/129/4 85/127/4
f 87/125/5 81/130/5 83/131/5
f 84/132/6 86/128/6 88/126/6
f 2/1/1 4/4/1 3/2/1
f 4/4/2 8/6/2 7/5/2
f 8/6/3 6/8/3 5/7/3
f 6/8/4 2/133/4 1/9/4
f 7/5/5 5/7/5 1/10/5
f 4/12/6 2/134/6 6/8/6
f 10/13/7 12/135/7 11/14/7
f 11/14/2 12/135/2 16/16/2
f 16/16/8 14/19/8 13/18/8
f 14/19/4 10/136/4 9/20/4
f 15/17/5 13/18/5 9/21/5
f 12/23/6 10/137/6 14/19/6
f 19/24/9 20/28/9 18/25/9
f 19/24/2 23/30/2 24/27/2
f 21/29/10 22/32/10 24/27/10
f 17/31/4 18/138/4 22/32/4
f 17/33/5 21/29/5 23/30/5
f 22/32/6 18/139/6 20/35/6
f 26/36/1 28/39/1 27/37/1
f 28/39/2 32/41/2 31/40/2
f 32/41/3 30/43/3 29/42/3
f 30/43/4 26/140/4 25/44/4
f 31/40/5 29/42/5 25/45/5
f 28/47/6 26/141/6 30/43/6
f 35/48/11 36/52/11 34/49/11
f 39/51/4 40/54/4 36/52/4
f 37/53/12 38/56/12 40/54/12
f 37/53/2 33/142/2 34/55/2
f 33/57/5 37/53/5 39/51/5
f 38/56/6 34/143/6 36/59/6
f 42/60/13 44/63/13 43/61/13
f 44/63/4 48/65/4 47/64/4
f 48/65/14 46/72/14 45/66/14
f 45/66/2 46/72/2 42/67/2
f 47/64/5 45/66/5 41/69/5
f 44/71/6 42/144/6 46/72/6
f 50/73/4 52/76/4 51/74/4
f 52/76/1 56/78/1 55/77/1
f 56/78/2 54/80/2 53/79/2
f 54/80/3 50/145/3 49/81/3
f 55/77/5 53/79/5 49/82/5
f 56/78/6 52/146/6 50/84/6
f 59/85/4 60/89/4 58/86/4
f 63/88/3 64/91/3 60/89/3
f 61/90/2 62/93/2 64/91/2
f 57/92/1 58/147/1 62/93/1
f 57/94/5 61/90/5 63/88/5
f 62/93/6 58/148/6 60/96/6
f 66/97/1 68/100/1 67/98/1
f 68/100/2 72/102/2 71/101/2
f 72/102/3 70/104/3 69/103/3
f 70/104/4 66/149/4 65/105/4
f 71/101/5 69/103/5 65/106/5
f 68/108/6 66/150/6 70/104/6
f 74/109/1 76/112/1 75/110/1
f 76/112/2 80/114/2 79/113/2
f 80/114/3 78/116/3 77/115/3
f 78/116/4 74/151/4 73/117/4
f 79/113/5 77/115/5 73/118/5
f 76/120/6 74/152/6 78/116/6
f 82/121/1 84/124/1 83/122/1
f 84/124/2 88/126/2 87/125/2
f 88/126/3 86/128/3 85/127/3
f 86/128/4 82/153/4 81/129/4
f 87/125/5 85/127/5 81/130/5
f 84/132/6 82/154/6 86/128/6
