# Blender v2.90.0 OBJ File: 'Cup_02.blend'
# www.blender.org
mtllib Cup_02.mtl
o Cup_02_Cube
v -0.008154 0.089369 -0.038579
v -0.008154 0.105677 -0.038579
v -0.008154 0.089369 -0.104331
v -0.008154 0.105677 -0.104331
v 0.008154 0.089369 -0.038579
v 0.008154 0.105677 -0.038579
v 0.008154 0.089369 -0.104331
v 0.008154 0.105677 -0.104331
v -0.008154 0.089369 -0.091181
v -0.008154 0.105677 -0.091181
v 0.008154 0.089369 -0.091181
v 0.008154 0.105677 -0.091181
v 0.008154 -0.078602 -0.104331
v -0.008154 -0.078602 -0.104331
v 0.008154 -0.078602 -0.091181
v -0.008154 -0.078602 -0.091181
v -0.008154 -0.065089 -0.091181
v 0.008154 -0.065089 -0.091181
v 0.008154 -0.065089 -0.104331
v -0.008154 -0.065089 -0.104331
v 0.008154 -0.078602 -0.036114
v -0.008154 -0.078602 -0.036114
v -0.008154 -0.065089 -0.036114
v 0.008154 -0.065089 -0.036114
v -0.000000 -0.158108 -0.046255
v -0.056105 -0.158108 -0.023015
v -0.079344 -0.158108 0.033090
v -0.056105 -0.158108 0.089194
v 0.000000 -0.158108 0.112434
v 0.056105 -0.158108 0.089194
v 0.079344 -0.158108 0.033090
v 0.056105 -0.158108 -0.023015
v -0.052483 -0.137203 -0.019393
v -0.000000 -0.137203 -0.041132
v -0.074222 -0.137203 0.033090
v -0.052483 -0.137203 0.085572
v 0.000000 -0.137203 0.107311
v 0.052483 -0.137203 0.085572
v 0.074222 -0.137203 0.033090
v 0.052483 -0.137203 -0.019393
v -0.052483 0.092746 -0.019393
v -0.000000 0.092746 -0.041132
v -0.074222 0.092746 0.033090
v -0.052483 0.092746 0.085572
v 0.000000 0.093442 0.108993
v 0.052483 0.092746 0.085572
v 0.074222 0.092746 0.033090
v 0.052483 0.092746 -0.019393
v -0.048333 0.106130 -0.015228
v -0.000000 0.106128 -0.035248
v -0.068353 0.106136 0.033105
v -0.048321 0.106142 0.081468
v 0.000000 0.105528 0.105120
v 0.048321 0.106142 0.081468
v 0.068353 0.106136 0.033105
v 0.048333 0.106130 -0.015228
v -0.057609 0.106146 -0.024519
v -0.000000 0.106146 -0.048381
v -0.081471 0.106146 0.033090
v -0.057609 0.106146 0.090698
v 0.000000 0.105450 0.118369
v 0.057609 0.106146 0.090698
v 0.081471 0.106146 0.033090
v 0.057609 0.106146 -0.024519
v -0.048333 -0.133241 -0.015228
v -0.000000 -0.133243 -0.035248
v -0.068353 -0.133235 0.033105
v -0.048321 -0.133229 0.081468
v 0.000000 -0.133843 0.102375
v 0.048321 -0.133229 0.081468
v 0.068353 -0.133235 0.033105
v 0.048333 -0.133241 -0.015228
v -0.000000 0.085071 -0.041132
v 0.052483 0.085071 -0.019393
v 0.074222 0.085071 0.033090
v 0.052483 0.085071 0.085572
v 0.000000 0.085744 0.106722
v -0.052483 0.085071 0.085572
v -0.074222 0.085071 0.033090
v -0.052483 0.085071 -0.019393
vt 0.625000 0.200000
vt 0.375000 0.250000
vt 0.375000 0.200000
vt 0.625000 0.250000
vt 0.375000 0.500000
vt 0.625000 0.550000
vt 0.375000 0.750000
vt 0.375000 0.550000
vt 0.625000 0.750000
vt 0.375000 1.000000
vt 0.125000 0.750000
vt 0.125000 0.550000
vt 0.875000 0.550000
vt 0.875000 0.500000
vt 0.625000 0.500000
vt 0.375000 0.550000
vt 0.125000 0.550000
vt 0.125000 0.550000
vt 0.625000 0.000000
vt 0.375000 0.000000
vt 0.375000 0.500000
vt 0.125000 0.500000
vt 0.375000 0.500000
vt 0.375000 0.250000
vt 0.375000 0.250000
vt 0.375000 0.550000
vt 0.375000 0.200000
vt 0.375000 0.200000
vt 0.125000 0.550000
vt 0.375000 0.550000
vt 0.375000 0.550000
vt 0.375000 0.200000
vt 0.125000 0.550000
vt 0.000000 0.000000
vt 0.000000 0.000000
vt 0.000000 0.000000
vt 0.000000 0.000000
vt 0.000000 0.000000
vt 0.000000 0.000000
vt 0.000000 0.000000
vt 0.000000 0.000000
vt 0.000000 0.000000
vt 0.000000 0.000000
vt 0.000000 0.000000
vt 0.000000 0.000000
vt 0.000000 0.000000
vt 0.000000 0.000000
vt 0.000000 0.000000
vt 0.000000 0.000000
vt 0.000000 0.000000
vt 0.000000 0.000000
vt 0.000000 0.000000
vt 0.000000 0.000000
vt 0.000000 0.000000
vt 0.000000 0.000000
vt 0.000000 0.000000
vt 0.000000 0.000000
vt 0.000000 0.000000
vt 0.000000 0.000000
vt 0.000000 0.000000
vt 0.000000 0.000000
vt 0.000000 0.000000
vt 0.000000 0.000000
vt 0.000000 0.000000
vt 0.000000 0.000000
vt 0.000000 0.000000
vt 0.000000 0.000000
vt 0.000000 0.000000
vt 0.000000 0.000000
vt 0.000000 0.000000
vt 0.000000 0.000000
vt 0.000000 0.000000
vt 0.000000 0.000000
vt 0.000000 0.000000
vt 0.000000 0.000000
vt 0.000000 0.000000
vt 0.000000 0.000000
vt 0.000000 0.000000
vt 0.000000 0.000000
vt 0.000000 0.000000
vt 0.000000 0.000000
vt 0.000000 0.000000
vt 0.000000 0.000000
vt 0.000000 0.000000
vt 0.000000 0.000000
vt 0.000000 0.000000
vt 0.000000 0.000000
vt 0.000000 0.000000
vt 0.000000 0.000000
vt 0.625000 1.000000
vt 0.875000 0.750000
vt 0.375000 0.200000
vn -1.0000 0.0000 0.0000
vn 0.0000 0.0000 -1.0000
vn 1.0000 0.0000 0.0000
vn 0.0000 0.0000 1.0000
vn 0.0000 -1.0000 0.0000
vn 0.0000 1.0000 0.0000
vn 0.3827 0.0000 -0.9239
vn 0.9011 0.2208 -0.3732
vn 0.3732 0.2208 0.9011
vn -0.9011 0.2208 0.3732
vn -0.3732 0.2208 -0.9011
vn 0.3732 0.2208 -0.9011
vn 0.9011 0.2208 0.3732
vn -0.3732 0.2208 0.9011
vn -0.9011 0.2208 -0.3732
vn 0.3601 -0.5741 0.7353
vn 0.9239 0.0000 0.3827
vn -0.3738 0.0000 0.9275
vn -0.9239 0.0000 -0.3827
vn 0.9239 0.0000 -0.3827
vn 0.3906 -0.2605 0.8830
vn -0.9239 0.0000 0.3827
vn -0.3827 0.0000 -0.9239
vn -0.8264 -0.4471 0.3423
vn -0.3423 -0.4471 -0.8264
vn 0.3423 -0.4471 -0.8264
vn 0.8264 -0.4471 0.3423
vn -0.3589 -0.4501 0.8177
vn -0.8264 -0.4471 -0.3423
vn 0.8264 -0.4471 -0.3423
vn 0.0005 1.0000 0.0012
vn 0.0008 1.0000 0.0002
vn 0.0002 1.0000 -0.0002
vn 0.0093 0.9999 0.0059
vn -0.0087 0.9999 0.0083
vn -0.0008 1.0000 -0.0003
vn -0.0012 1.0000 0.0005
vn -0.0006 1.0000 0.0014
vn -0.0000 1.0000 -0.0001
vn 0.4396 0.0000 -0.8982
vn -0.3972 0.0105 -0.9177
vn 0.3827 0.0000 0.9239
vn -0.3827 0.0000 0.9239
vn 0.3738 0.0025 0.9275
vn 0.3589 -0.4501 0.8177
vn -0.3906 -0.2605 0.8830
vn 0.3738 0.0000 0.9275
vn -0.3601 -0.5741 0.7353
vn 0.0006 1.0000 0.0014
vn 0.0012 1.0000 0.0005
vn 0.0008 1.0000 -0.0003
vn 0.0087 0.9999 0.0083
vn -0.0093 0.9999 0.0059
vn -0.0002 1.0000 -0.0002
vn -0.0008 1.0000 0.0002
vn -0.0005 1.0000 0.0012
vn 0.0000 0.9996 0.0293
vn 0.3972 0.0105 -0.9177
vn -0.4396 0.0000 -0.8982
vn -0.3738 0.0025 0.9275
usemtl Cup_02
s off
f 10/1/1 3/2/1 9/3/1
f 4/4/2 7/5/2 3/2/2
f 12/6/3 5/7/3 11/8/3
f 6/9/4 1/10/4 5/7/4
f 11/8/5 1/11/5 9/12/5
f 10/13/6 6/9/6 12/6/6
f 4/14/6 12/6/6 8/15/6
f 15/16/5 22/17/5 16/18/5
f 8/15/3 11/8/3 7/5/3
f 2/19/1 9/3/1 1/20/1
f 13/21/5 16/18/5 14/22/5
f 19/23/2 14/24/2 20/25/2
f 18/26/3 13/21/3 19/23/3
f 20/25/1 16/27/1 17/28/1
f 3/2/1 17/28/1 9/3/1
f 11/8/3 19/23/3 7/5/3
f 7/5/2 20/25/2 3/2/2
f 9/12/4 18/26/4 11/8/4
f 23/29/4 21/30/4 24/31/4
f 16/27/1 23/32/1 17/28/1
f 17/33/6 24/31/6 18/26/6
f 18/26/3 21/30/3 15/16/3
f 31/34/5 29/35/5 27/36/5
f 73/37/7 48/38/7 74/39/7
f 32/40/8 39/41/8 31/34/8
f 30/42/9 37/43/9 29/35/9
f 27/36/10 36/44/10 35/45/10
f 26/46/11 34/47/11 25/48/11
f 25/48/12 40/49/12 32/40/12
f 31/34/13 38/50/13 30/42/13
f 29/35/14 36/44/14 28/51/14
f 26/46/15 35/45/15 33/52/15
f 45/53/16 62/54/16 61/55/16
f 75/56/17 46/57/17 76/58/17
f 77/59/18 44/60/18 78/61/18
f 79/62/19 41/63/19 80/64/19
f 74/39/20 47/65/20 75/56/20
f 77/59/21 46/57/21 45/53/21
f 78/61/22 43/66/22 79/62/22
f 80/64/23 42/67/23 73/37/23
f 55/68/19 70/69/19 54/70/19
f 44/60/24 59/71/24 43/66/24
f 41/63/25 58/72/25 42/67/25
f 42/67/26 64/73/26 48/38/26
f 47/65/27 62/54/27 46/57/27
f 45/53/28 60/74/28 44/60/28
f 43/66/29 57/75/29 41/63/29
f 48/38/30 63/76/30 47/65/30
f 50/77/31 57/75/31 49/78/31
f 49/78/32 59/71/32 51/79/32
f 51/79/33 60/74/33 52/80/33
f 53/81/34 60/74/34 61/55/34
f 53/81/35 62/54/35 54/70/35
f 55/68/36 62/54/36 63/76/36
f 56/82/37 63/76/37 64/73/37
f 50/77/38 64/73/38 58/72/38
f 66/83/39 67/84/39 71/85/39
f 53/81/40 68/86/40 52/80/40
f 49/78/17 67/84/17 65/87/17
f 56/82/22 71/85/22 55/68/22
f 53/81/41 70/69/41 69/88/41
f 51/79/20 68/86/20 67/84/20
f 50/77/42 65/87/42 66/83/42
f 50/77/43 72/89/43 56/82/43
f 33/52/23 73/37/23 34/47/23
f 36/44/22 79/62/22 35/45/22
f 37/43/44 76/58/44 77/59/44
f 40/49/20 75/56/20 39/41/20
f 35/45/19 80/64/19 33/52/19
f 37/43/43 78/61/43 36/44/43
f 39/41/17 76/58/17 38/50/17
f 34/47/7 74/39/7 40/49/7
f 10/1/1 4/4/1 3/2/1
f 4/4/2 8/15/2 7/5/2
f 12/6/3 6/9/3 5/7/3
f 6/9/4 2/90/4 1/10/4
f 11/8/5 5/7/5 1/11/5
f 10/13/6 2/91/6 6/9/6
f 4/14/6 10/13/6 12/6/6
f 15/16/5 21/30/5 22/17/5
f 8/15/3 12/6/3 11/8/3
f 2/19/1 10/1/1 9/3/1
f 13/21/5 15/16/5 16/18/5
f 19/23/2 13/21/2 14/24/2
f 18/26/3 15/16/3 13/21/3
f 20/25/1 14/24/1 16/27/1
f 3/2/1 20/25/1 17/28/1
f 11/8/3 18/26/3 19/23/3
f 7/5/2 19/23/2 20/25/2
f 9/12/4 17/33/4 18/26/4
f 23/29/4 22/17/4 21/30/4
f 16/27/1 22/92/1 23/32/1
f 17/33/6 23/29/6 24/31/6
f 18/26/3 24/31/3 21/30/3
f 27/36/5 26/46/5 31/34/5
f 26/46/5 25/48/5 31/34/5
f 25/48/5 32/40/5 31/34/5
f 31/34/5 30/42/5 29/35/5
f 29/35/5 28/51/5 27/36/5
f 73/37/7 42/67/7 48/38/7
f 32/40/8 40/49/8 39/41/8
f 30/42/9 38/50/9 37/43/9
f 27/36/10 28/51/10 36/44/10
f 26/46/11 33/52/11 34/47/11
f 25/48/12 34/47/12 40/49/12
f 31/34/13 39/41/13 38/50/13
f 29/35/14 37/43/14 36/44/14
f 26/46/15 27/36/15 35/45/15
f 45/53/45 46/57/45 62/54/45
f 75/56/17 47/65/17 46/57/17
f 77/59/46 45/53/46 44/60/46
f 79/62/19 43/66/19 41/63/19
f 74/39/20 48/38/20 47/65/20
f 77/59/47 76/58/47 46/57/47
f 78/61/22 44/60/22 43/66/22
f 80/64/23 41/63/23 42/67/23
f 55/68/19 71/85/19 70/69/19
f 44/60/24 60/74/24 59/71/24
f 41/63/25 57/75/25 58/72/25
f 42/67/26 58/72/26 64/73/26
f 47/65/27 63/76/27 62/54/27
f 45/53/48 61/55/48 60/74/48
f 43/66/29 59/71/29 57/75/29
f 48/38/30 64/73/30 63/76/30
f 50/77/49 58/72/49 57/75/49
f 49/78/50 57/75/50 59/71/50
f 51/79/51 59/71/51 60/74/51
f 53/81/52 52/80/52 60/74/52
f 53/81/53 61/55/53 62/54/53
f 55/68/54 54/70/54 62/54/54
f 56/82/55 55/68/55 63/76/55
f 50/77/56 56/82/56 64/73/56
f 66/83/39 65/87/39 67/84/39
f 67/84/39 68/86/39 70/69/39
f 68/86/57 69/88/57 70/69/57
f 70/69/39 71/85/39 67/84/39
f 71/85/39 72/89/39 66/83/39
f 53/81/58 69/88/58 68/86/58
f 49/78/17 51/79/17 67/84/17
f 56/82/22 72/89/22 71/85/22
f 53/81/59 54/70/59 70/69/59
f 51/79/20 52/80/20 68/86/20
f 50/77/42 49/78/42 65/87/42
f 50/77/43 66/83/43 72/89/43
f 33/52/23 80/64/23 73/37/23
f 36/44/22 78/61/22 79/62/22
f 37/43/42 38/50/42 76/58/42
f 40/49/20 74/39/20 75/56/20
f 35/45/19 79/62/19 80/64/19
f 37/43/60 77/59/60 78/61/60
f 39/41/17 75/56/17 76/58/17
f 34/47/7 73/37/7 74/39/7
