# Blender v2.90.0 OBJ File: 'Jar_01.blend'
# www.blender.org
mtllib Jar_01.mtl
o Jar_01_Circle.001
v -0.000000 0.175789 -0.128259
v -0.075389 0.175789 -0.103763
v -0.121981 0.175789 -0.039634
v -0.121981 0.175789 0.039634
v -0.075389 0.175789 0.103763
v 0.000000 0.175789 0.128259
v 0.075389 0.175789 0.103763
v 0.121981 0.175789 0.039634
v 0.121981 0.175789 -0.039634
v 0.075389 0.175789 -0.103763
v -0.000000 0.221315 -0.108968
v -0.064050 0.221315 -0.088157
v -0.103635 0.221315 -0.033673
v -0.103635 0.221315 0.033673
v -0.064050 0.221315 0.088157
v 0.000000 0.221315 0.108968
v 0.064050 0.221315 0.088157
v 0.103635 0.221315 0.033673
v 0.103635 0.221315 -0.033673
v 0.064050 0.221315 -0.088157
v -0.075389 0.230462 -0.103763
v -0.000000 0.230462 -0.128259
v -0.121981 0.230462 -0.039634
v -0.121981 0.230462 0.039634
v -0.075389 0.230462 0.103763
v 0.000000 0.230462 0.128259
v 0.075389 0.230462 0.103763
v 0.121981 0.230462 0.039634
v 0.121981 0.230462 -0.039634
v 0.075389 0.230462 -0.103763
v -0.000000 -0.498321 -0.164844
v -0.096893 -0.498321 -0.133362
v -0.156776 -0.498321 -0.050940
v -0.156776 -0.498321 0.050940
v -0.096893 -0.498321 0.133362
v 0.000000 -0.498321 0.164844
v 0.096893 -0.498321 0.133362
v 0.156776 -0.498321 0.050940
v 0.156776 -0.498321 -0.050940
v 0.096893 -0.498321 -0.133362
v -0.000000 -0.465997 -0.179662
v -0.105603 -0.465997 -0.145350
v -0.170869 -0.465997 -0.055519
v -0.170869 -0.465997 0.055519
v -0.105603 -0.465997 0.145350
v 0.000000 -0.465997 0.179662
v 0.105603 -0.465997 0.145350
v 0.170869 -0.465997 0.055519
v 0.170869 -0.465997 -0.055519
v 0.105603 -0.465997 -0.145350
v -0.000000 0.014106 -0.179662
v -0.105603 0.014106 -0.145350
v -0.170869 0.014106 -0.055519
v -0.170869 0.014106 0.055519
v -0.105603 0.014106 0.145350
v 0.000000 0.014106 0.179662
v 0.105603 0.014106 0.145350
v 0.170869 0.014106 0.055519
v 0.170869 0.014106 -0.055519
v 0.105603 0.014106 -0.145350
v -0.000000 0.137258 -0.124828
v -0.073372 0.137258 -0.100988
v -0.118719 0.137258 -0.038574
v -0.118719 0.137258 0.038574
v -0.073372 0.137258 0.100988
v 0.000000 0.137258 0.124828
v 0.073372 0.137258 0.100988
v 0.118719 0.137258 0.038574
v 0.118719 0.137258 -0.038574
v 0.073372 0.137258 -0.100988
v -0.000000 0.185386 -0.133111
v -0.078241 0.185386 -0.107689
v -0.126596 0.185386 -0.041133
v -0.126596 0.185386 0.041133
v -0.078241 0.185386 0.107689
v 0.000000 0.185386 0.133111
v 0.078241 0.185386 0.107689
v 0.126596 0.185386 0.041133
v 0.126596 0.185386 -0.041133
v 0.078240 0.185386 -0.107689
vt 0.000000 0.000000
vt 0.000000 0.000000
vt 0.000000 0.000000
vt 0.000000 0.000000
vt 0.000000 0.000000
vt 0.000000 0.000000
vt 0.000000 0.000000
vt 0.000000 0.000000
vt 0.000000 0.000000
vt 0.000000 0.000000
vt 0.000000 0.000000
vt 0.000000 0.000000
vt 0.000000 0.000000
vt 0.000000 0.000000
vt 0.000000 0.000000
vt 0.000000 0.000000
vt 0.000000 0.000000
vt 0.000000 0.000000
vt 0.000000 0.000000
vt 0.000000 0.000000
vt 0.000000 0.000000
vt 0.000000 0.000000
vt 0.000000 0.000000
vt 0.000000 0.000000
vt 0.000000 0.000000
vt 0.000000 0.000000
vt 0.000000 0.000000
vt 0.000000 0.000000
vt 0.000000 0.000000
vt 0.000000 0.000000
vt 0.000000 0.000000
vt 0.000000 0.000000
vt 0.000000 0.000000
vt 0.000000 0.000000
vt 0.000000 0.000000
vt 0.000000 0.000000
vt 0.000000 0.000000
vt 0.000000 0.000000
vt 0.000000 0.000000
vt 0.000000 0.000000
vt 0.000000 0.000000
vt 0.000000 0.000000
vt 0.000000 0.000000
vt 0.000000 0.000000
vt 0.000000 0.000000
vt 0.000000 0.000000
vt 0.000000 0.000000
vt 0.000000 0.000000
vt 0.000000 0.000000
vt 0.000000 0.000000
vt 0.000000 0.000000
vt 0.000000 0.000000
vt 0.000000 0.000000
vt 0.000000 0.000000
vt 0.000000 0.000000
vt 0.000000 0.000000
vt 0.000000 0.000000
vt 0.000000 0.000000
vt 0.000000 0.000000
vt 0.000000 0.000000
vt 0.000000 0.000000
vt 0.000000 0.000000
vt 0.000000 0.000000
vt 0.000000 0.000000
vt 0.000000 0.000000
vt 0.000000 0.000000
vt 0.000000 0.000000
vt 0.000000 0.000000
vt 0.000000 0.000000
vt 0.000000 0.000000
vt 0.000000 0.000000
vt 0.000000 0.000000
vt 0.000000 0.000000
vt 0.000000 0.000000
vt 0.000000 0.000000
vt 0.000000 0.000000
vt 0.000000 0.000000
vt 0.000000 0.000000
vt 0.000000 0.000000
vt 0.000000 0.000000
vn 0.0000 -1.0000 0.0000
vn 0.0000 1.0000 0.0000
vn 0.3090 0.0000 0.9511
vn -1.0000 0.0000 0.0000
vn 0.3090 0.0000 -0.9511
vn 0.8090 0.0000 0.5878
vn -0.8090 0.0000 0.5878
vn -0.3090 0.0000 -0.9511
vn 1.0000 0.0000 0.0000
vn -0.3090 0.0000 0.9511
vn -0.8090 0.0000 -0.5878
vn 0.8090 0.0000 -0.5878
vn 0.1379 0.8949 0.4244
vn 0.3610 0.8949 0.2623
vn 0.4462 0.8949 0.0000
vn 0.3610 0.8949 -0.2623
vn 0.1379 0.8949 -0.4244
vn -0.1379 0.8949 -0.4244
vn -0.3610 0.8949 -0.2623
vn -0.4462 0.8949 0.0000
vn -0.3610 0.8949 0.2623
vn -0.1379 0.8949 0.4244
vn 0.2833 -0.3996 0.8718
vn -0.9167 -0.3996 0.0000
vn 0.2833 -0.3996 -0.8718
vn 0.7416 -0.3996 0.5388
vn -0.7416 -0.3996 0.5388
vn -0.2833 -0.3996 -0.8718
vn 0.9167 -0.3996 0.0000
vn -0.2833 -0.3996 0.8718
vn -0.7416 -0.3996 -0.5388
vn 0.7416 -0.3996 -0.5388
vn -0.7450 0.3899 0.5413
vn 0.9208 0.3899 0.0000
vn -0.2846 0.3899 0.8758
vn -0.7450 0.3899 -0.5413
vn 0.7450 0.3899 -0.5413
vn 0.2846 0.3899 0.8758
vn -0.9208 0.3899 0.0000
vn 0.2846 0.3899 -0.8758
vn 0.7450 0.3899 0.5413
vn -0.7984 -0.1615 0.5801
vn -0.3050 -0.1615 -0.9386
vn 0.9869 -0.1615 0.0000
vn -0.3050 -0.1615 0.9386
vn -0.7984 -0.1615 -0.5801
vn 0.7984 -0.1615 -0.5801
vn 0.3050 -0.1615 0.9386
vn -0.9869 -0.1615 0.0000
vn 0.3050 -0.1615 -0.9386
vn 0.7984 -0.1615 0.5801
vn -0.2846 0.3899 -0.8758
usemtl Stopper_jar
s off
f 3/1/1 1/2/1 9/3/1
f 15/4/2 19/5/2 11/6/2
f 7/7/3 26/8/3 6/9/3
f 4/10/4 23/11/4 3/1/4
f 1/2/5 30/12/5 10/13/5
f 8/14/6 27/15/6 7/7/6
f 5/16/7 24/17/7 4/10/7
f 2/18/8 22/19/8 1/2/8
f 9/3/9 28/20/9 8/14/9
f 6/9/10 25/21/10 5/16/10
f 3/1/11 21/22/11 2/18/11
f 10/13/12 29/23/12 9/3/12
f 12/24/13 22/19/13 21/22/13
f 13/25/14 21/22/14 23/11/14
f 13/25/15 24/17/15 14/26/15
f 14/26/16 25/21/16 15/4/16
f 15/4/17 26/8/17 16/27/17
f 17/28/18 26/8/18 27/15/18
f 17/28/19 28/20/19 18/29/19
f 18/29/20 29/23/20 19/5/20
f 19/5/21 30/12/21 20/30/21
f 20/30/22 22/19/22 11/6/22
f 3/1/1 2/18/1 1/2/1
f 1/2/1 10/13/1 9/3/1
f 9/3/1 8/14/1 7/7/1
f 7/7/1 6/9/1 9/3/1
f 6/9/1 5/16/1 9/3/1
f 5/16/1 4/10/1 9/3/1
f 4/10/1 3/1/1 9/3/1
f 11/6/2 12/24/2 13/25/2
f 13/25/2 14/26/2 15/4/2
f 15/4/2 16/27/2 17/28/2
f 17/28/2 18/29/2 15/4/2
f 18/29/2 19/5/2 15/4/2
f 19/5/2 20/30/2 11/6/2
f 11/6/2 13/25/2 15/4/2
f 7/7/3 27/15/3 26/8/3
f 4/10/4 24/17/4 23/11/4
f 1/2/5 22/19/5 30/12/5
f 8/14/6 28/20/6 27/15/6
f 5/16/7 25/21/7 24/17/7
f 2/18/8 21/22/8 22/19/8
f 9/3/9 29/23/9 28/20/9
f 6/9/10 26/8/10 25/21/10
f 3/1/11 23/11/11 21/22/11
f 10/13/12 30/12/12 29/23/12
f 12/24/13 11/6/13 22/19/13
f 13/25/14 12/24/14 21/22/14
f 13/25/15 23/11/15 24/17/15
f 14/26/16 24/17/16 25/21/16
f 15/4/17 25/21/17 26/8/17
f 17/28/18 16/27/18 26/8/18
f 17/28/19 27/15/19 28/20/19
f 18/29/20 28/20/20 29/23/20
f 19/5/21 29/23/21 30/12/21
f 20/30/22 30/12/22 22/19/22
usemtl Glass_Jar
f 31/31/1 39/32/1 35/33/1
f 47/34/3 56/35/3 46/36/3
f 37/37/23 46/36/23 36/38/23
f 33/39/24 44/40/24 43/41/24
f 40/42/25 41/43/25 50/44/25
f 38/45/26 47/34/26 37/37/26
f 34/46/27 45/47/27 44/40/27
f 32/48/28 41/43/28 31/31/28
f 39/32/29 48/49/29 38/45/29
f 36/38/30 45/47/30 35/33/30
f 33/39/31 42/50/31 32/48/31
f 40/42/32 49/51/32 39/32/32
f 65/52/33 54/53/33 55/54/33
f 44/40/4 53/55/4 43/41/4
f 41/43/5 60/56/5 50/44/5
f 48/49/6 57/57/6 47/34/6
f 45/47/7 54/53/7 44/40/7
f 42/50/8 51/58/8 41/43/8
f 49/51/9 58/59/9 48/49/9
f 46/36/10 55/54/10 45/47/10
f 43/41/11 52/60/11 42/50/11
f 50/44/12 59/61/12 49/51/12
f 59/61/34 68/62/34 58/59/34
f 66/63/35 55/54/35 56/35/35
f 53/55/36 62/64/36 52/60/36
f 70/65/37 59/61/37 60/56/37
f 67/66/38 56/35/38 57/57/38
f 64/67/39 53/55/39 54/53/39
f 51/58/40 70/65/40 60/56/40
f 58/59/41 67/66/41 57/57/41
f 65/52/42 74/68/42 64/67/42
f 73/69/2 75/70/2 79/71/2
f 62/64/43 71/72/43 61/73/43
f 68/62/44 79/71/44 78/74/44
f 66/63/45 75/70/45 65/52/45
f 63/75/46 72/76/46 62/64/46
f 70/65/47 79/71/47 69/77/47
f 67/66/48 76/78/48 66/63/48
f 64/67/49 73/69/49 63/75/49
f 70/65/50 71/72/50 80/79/50
f 68/62/51 77/80/51 67/66/51
f 52/60/52 61/73/52 51/58/52
f 33/39/1 32/48/1 31/31/1
f 31/31/1 40/42/1 39/32/1
f 39/32/1 38/45/1 37/37/1
f 37/37/1 36/38/1 39/32/1
f 36/38/1 35/33/1 39/32/1
f 35/33/1 34/46/1 33/39/1
f 33/39/1 31/31/1 35/33/1
f 47/34/3 57/57/3 56/35/3
f 37/37/23 47/34/23 46/36/23
f 33/39/24 34/46/24 44/40/24
f 40/42/25 31/31/25 41/43/25
f 38/45/26 48/49/26 47/34/26
f 34/46/27 35/33/27 45/47/27
f 32/48/28 42/50/28 41/43/28
f 39/32/29 49/51/29 48/49/29
f 36/38/30 46/36/30 45/47/30
f 33/39/31 43/41/31 42/50/31
f 40/42/32 50/44/32 49/51/32
f 65/52/33 64/67/33 54/53/33
f 44/40/4 54/53/4 53/55/4
f 41/43/5 51/58/5 60/56/5
f 48/49/6 58/59/6 57/57/6
f 45/47/7 55/54/7 54/53/7
f 42/50/8 52/60/8 51/58/8
f 49/51/9 59/61/9 58/59/9
f 46/36/10 56/35/10 55/54/10
f 43/41/11 53/55/11 52/60/11
f 50/44/12 60/56/12 59/61/12
f 59/61/34 69/77/34 68/62/34
f 66/63/35 65/52/35 55/54/35
f 53/55/36 63/75/36 62/64/36
f 70/65/37 69/77/37 59/61/37
f 67/66/38 66/63/38 56/35/38
f 64/67/39 63/75/39 53/55/39
f 51/58/40 61/73/40 70/65/40
f 58/59/41 68/62/41 67/66/41
f 65/52/42 75/70/42 74/68/42
f 71/72/2 72/76/2 73/69/2
f 73/69/2 74/68/2 75/70/2
f 75/70/2 76/78/2 77/80/2
f 77/80/2 78/74/2 75/70/2
f 78/74/2 79/71/2 75/70/2
f 79/71/2 80/79/2 71/72/2
f 71/72/2 73/69/2 79/71/2
f 62/64/43 72/76/43 71/72/43
f 68/62/44 69/77/44 79/71/44
f 66/63/45 76/78/45 75/70/45
f 63/75/46 73/69/46 72/76/46
f 70/65/47 80/79/47 79/71/47
f 67/66/48 77/80/48 76/78/48
f 64/67/49 74/68/49 73/69/49
f 70/65/50 61/73/50 71/72/50
f 68/62/51 78/74/51 77/80/51
f 52/60/52 62/64/52 61/73/52
