# Blender v2.90.0 OBJ File: 'Fork.blend'
# www.blender.org
mtllib Knife.mtl
o Knife_Cube.003
v -0.008133 -0.011382 0.146212
v -0.008133 0.011382 0.146212
v -0.026486 -0.029735 -0.282988
v -0.026486 0.029735 -0.282988
v 0.014631 -0.011382 0.146212
v 0.014631 0.011382 0.146212
v 0.032985 -0.029735 -0.282988
v 0.032985 0.029735 -0.282988
v -0.014261 -0.017511 -0.094748
v -0.014261 0.017511 -0.094748
v 0.020760 -0.017511 -0.094748
v 0.020760 0.017511 -0.094748
v -0.045601 -0.012993 0.137119
v -0.045601 0.012993 0.137119
v -0.002336 0.000000 0.377617
v 0.027275 -0.012993 0.137119
v 0.027275 0.012993 0.137119
vt 0.625000 0.140726
vt 0.375000 0.250000
vt 0.375000 0.140726
vt 0.625000 0.250000
vt 0.375000 0.500000
vt 0.625000 0.609274
vt 0.375000 0.750000
vt 0.375000 0.609274
vt 0.625000 1.000000
vt 0.375000 1.000000
vt 0.125000 0.750000
vt 0.125000 0.609274
vt 0.875000 0.609274
vt 0.625000 0.750000
vt 0.875000 0.500000
vt 0.625000 0.500000
vt 0.125000 0.500000
vt 0.625000 0.000000
vt 0.375000 0.000000
vt 0.625000 0.250000
vt 0.375000 0.500000
vt 0.375000 0.250000
vt 0.500000 0.000000
vt 0.625000 0.500000
vt 0.500000 0.875000
vt 0.125000 0.500000
vt 0.875000 0.500000
vt 0.875000 0.750000
vn -0.9979 0.0000 0.0648
vn -0.0000 0.0000 -1.0000
vn 0.9997 0.0000 0.0254
vn -0.0000 0.0000 1.0000
vn 0.0000 -0.9997 0.0254
vn 0.0000 0.9997 0.0254
vn 0.0000 0.9979 0.0648
vn 0.0000 -0.9979 0.0648
vn 0.9979 0.0000 0.0648
vn -0.9997 0.0000 0.0254
vn -0.9842 0.0000 0.1771
vn 0.9925 0.0000 0.1222
vn 0.0000 -0.9985 0.0539
vn 0.0000 0.9985 0.0539
usemtl Knife
s off
f 10/1/1 3/2/1 9/3/1
f 4/4/2 7/5/2 3/2/2
f 12/6/3 5/7/3 11/8/3
f 5/7/4 2/9/4 1/10/4
f 11/8/5 1/11/5 9/12/5
f 10/13/6 6/14/6 12/6/6
f 4/15/7 12/6/7 8/16/7
f 7/5/8 9/12/8 3/17/8
f 7/5/9 12/6/9 11/8/9
f 2/18/10 9/3/10 1/19/10
f 14/20/2 16/21/2 13/22/2
f 15/23/11 14/20/11 13/22/11
f 16/21/12 17/24/12 15/25/12
f 13/26/13 16/21/13 15/25/13
f 17/24/14 14/27/14 15/25/14
f 10/1/1 4/4/1 3/2/1
f 4/4/2 8/16/2 7/5/2
f 12/6/3 6/14/3 5/7/3
f 5/7/4 6/14/4 2/9/4
f 11/8/5 5/7/5 1/11/5
f 10/13/6 2/28/6 6/14/6
f 4/15/7 10/13/7 12/6/7
f 7/5/8 11/8/8 9/12/8
f 7/5/9 8/16/9 12/6/9
f 2/18/10 10/1/10 9/3/10
f 14/20/2 17/24/2 16/21/2
