# Blender v2.90.0 OBJ File: 'Shelf_02.blend'
# www.blender.org
mtllib Shelf_01.mtl
o Shelf_01_Cube
v 0.310540 2.065747 1.630589
v 0.310540 -2.090069 1.630589
v 0.310540 2.065747 1.816046
v 0.310540 -2.090069 1.816046
v -0.307658 2.065747 1.630589
v -0.307658 -2.090069 1.630589
v -0.307658 2.065747 1.816046
v -0.307658 -2.090069 1.816046
v -0.282704 1.329851 1.688433
v -0.282704 1.471974 1.688433
v -0.282704 1.329851 -1.703008
v -0.282704 1.471974 -1.703008
v 0.280783 1.329851 1.688433
v 0.280783 1.471974 1.688433
v 0.280783 1.329851 -1.703008
v 0.280783 1.471974 -1.703008
v -0.282704 -0.062954 1.688433
v -0.282704 0.079169 1.688433
v -0.282704 -0.062954 -1.703008
v -0.282704 0.079169 -1.703008
v 0.280783 -0.062954 1.688433
v 0.280783 0.079169 1.688433
v 0.280783 -0.062954 -1.703008
v 0.280783 0.079169 -1.703008
v -0.282704 -1.455760 1.688433
v -0.282704 -1.313637 1.688433
v -0.282704 -1.455760 -1.703008
v -0.282704 -1.313637 -1.703008
v 0.280783 -1.455760 1.688433
v 0.280783 -1.313637 1.688433
v 0.280783 -1.455760 -1.703008
v 0.280783 -1.313637 -1.703008
v 0.310540 2.065747 -1.794183
v 0.310540 -2.090069 -1.794183
v 0.310540 2.065747 -1.608725
v 0.310540 -2.090069 -1.608725
v -0.307658 2.065747 -1.794183
v -0.307658 -2.090069 -1.794183
v -0.307658 2.065747 -1.608725
v -0.307658 -2.090069 -1.608725
vt 0.875000 0.500000
vt 0.625000 0.750000
vt 0.625000 0.500000
vt 0.375000 1.000000
vt 0.375000 0.750000
vt 0.625000 0.000000
vt 0.375000 0.250000
vt 0.375000 0.000000
vt 0.375000 0.500000
vt 0.125000 0.750000
vt 0.125000 0.500000
vt 0.625000 0.250000
vt 0.625000 0.000000
vt 0.375000 0.250000
vt 0.375000 0.000000
vt 0.625000 0.250000
vt 0.375000 0.500000
vt 0.625000 0.500000
vt 0.375000 0.750000
vt 0.625000 0.750000
vt 0.375000 1.000000
vt 0.125000 0.750000
vt 0.125000 0.500000
vt 0.875000 0.500000
vt 0.625000 0.000000
vt 0.375000 0.250000
vt 0.375000 0.000000
vt 0.625000 0.250000
vt 0.375000 0.500000
vt 0.625000 0.500000
vt 0.375000 0.750000
vt 0.625000 0.750000
vt 0.375000 1.000000
vt 0.125000 0.750000
vt 0.125000 0.500000
vt 0.875000 0.500000
vt 0.625000 0.000000
vt 0.375000 0.250000
vt 0.375000 0.000000
vt 0.625000 0.250000
vt 0.375000 0.500000
vt 0.625000 0.500000
vt 0.375000 0.750000
vt 0.625000 0.750000
vt 0.375000 1.000000
vt 0.125000 0.750000
vt 0.125000 0.500000
vt 0.875000 0.500000
vt 0.875000 0.500000
vt 0.625000 0.750000
vt 0.625000 0.500000
vt 0.375000 1.000000
vt 0.375000 0.750000
vt 0.625000 0.000000
vt 0.375000 0.250000
vt 0.375000 0.000000
vt 0.375000 0.500000
vt 0.125000 0.750000
vt 0.125000 0.500000
vt 0.625000 0.250000
vt 0.875000 0.750000
vt 0.625000 1.000000
vt 0.625000 1.000000
vt 0.875000 0.750000
vt 0.625000 1.000000
vt 0.875000 0.750000
vt 0.625000 1.000000
vt 0.875000 0.750000
vt 0.875000 0.750000
vt 0.625000 1.000000
vn 0.0000 1.0000 0.0000
vn 0.0000 0.0000 1.0000
vn -1.0000 0.0000 0.0000
vn 0.0000 -1.0000 0.0000
vn 1.0000 0.0000 0.0000
vn 0.0000 0.0000 -1.0000
usemtl Shelf_01
s off
f 5/1/1 3/2/1 1/3/1
f 3/2/2 8/4/2 4/5/2
f 7/6/3 6/7/3 8/8/3
f 2/9/4 8/10/4 6/11/4
f 1/3/5 4/5/5 2/9/5
f 5/12/6 2/9/6 6/7/6
f 10/13/3 11/14/3 9/15/3
f 12/16/6 15/17/6 11/14/6
f 16/18/5 13/19/5 15/17/5
f 14/20/2 9/21/2 13/19/2
f 15/17/4 9/22/4 11/23/4
f 12/24/1 14/20/1 16/18/1
f 18/25/3 19/26/3 17/27/3
f 20/28/6 23/29/6 19/26/6
f 24/30/5 21/31/5 23/29/5
f 22/32/2 17/33/2 21/31/2
f 23/29/4 17/34/4 19/35/4
f 20/36/1 22/32/1 24/30/1
f 26/37/3 27/38/3 25/39/3
f 28/40/6 31/41/6 27/38/6
f 32/42/5 29/43/5 31/41/5
f 30/44/2 25/45/2 29/43/2
f 31/41/4 25/46/4 27/47/4
f 28/48/1 30/44/1 32/42/1
f 37/49/1 35/50/1 33/51/1
f 35/50/2 40/52/2 36/53/2
f 39/54/3 38/55/3 40/56/3
f 34/57/4 40/58/4 38/59/4
f 33/51/5 36/53/5 34/57/5
f 37/60/6 34/57/6 38/55/6
f 5/1/1 7/61/1 3/2/1
f 3/2/2 7/62/2 8/4/2
f 7/6/3 5/12/3 6/7/3
f 2/9/4 4/5/4 8/10/4
f 1/3/5 3/2/5 4/5/5
f 5/12/6 1/3/6 2/9/6
f 10/13/3 12/16/3 11/14/3
f 12/16/6 16/18/6 15/17/6
f 16/18/5 14/20/5 13/19/5
f 14/20/2 10/63/2 9/21/2
f 15/17/4 13/19/4 9/22/4
f 12/24/1 10/64/1 14/20/1
f 18/25/3 20/28/3 19/26/3
f 20/28/6 24/30/6 23/29/6
f 24/30/5 22/32/5 21/31/5
f 22/32/2 18/65/2 17/33/2
f 23/29/4 21/31/4 17/34/4
f 20/36/1 18/66/1 22/32/1
f 26/37/3 28/40/3 27/38/3
f 28/40/6 32/42/6 31/41/6
f 32/42/5 30/44/5 29/43/5
f 30/44/2 26/67/2 25/45/2
f 31/41/4 29/43/4 25/46/4
f 28/48/1 26/68/1 30/44/1
f 37/49/1 39/69/1 35/50/1
f 35/50/2 39/70/2 40/52/2
f 39/54/3 37/60/3 38/55/3
f 34/57/4 36/53/4 40/58/4
f 33/51/5 35/50/5 36/53/5
f 37/60/6 33/51/6 34/57/6
