# Blender v2.90.0 OBJ File: 'Shelf_02.blend'
# www.blender.org
mtllib Shelf_02.mtl
o Shelf_02_Cube.002
v -0.323928 -0.491776 1.545226
v -0.323928 0.361877 1.545226
v 0.701231 -0.338114 1.341247
v 0.701231 0.208215 1.341247
v 0.701231 -0.338114 0.203979
v 0.701231 0.208215 0.203979
v 0.701231 0.361877 1.545226
v 0.701231 -0.491776 1.545226
v 0.628769 0.150561 0.323996
v 0.628769 0.150561 1.221230
v 0.628769 -0.280460 1.221230
v 0.628769 -0.280460 0.323996
v -0.323928 -0.491776 -1.545226
v -0.323928 0.361877 -1.545226
v 0.701231 -0.338114 -1.341247
v 0.701231 0.208215 -1.341247
v -0.323928 -0.491776 0.000000
v -0.323928 0.361877 0.000000
v 0.701231 -0.338114 -0.203979
v 0.701231 0.208215 -0.203979
v 0.701231 0.361877 0.000000
v 0.701231 0.361877 -1.545226
v 0.701231 -0.491776 -1.545226
v 0.701231 -0.491776 0.000000
v 0.628769 0.150561 -0.323996
v 0.628769 0.150561 -1.221230
v 0.628769 -0.280460 -1.221230
v 0.628769 -0.280460 -0.323996
v 0.309099 3.668311 1.364295
v 0.309099 -0.487504 1.364295
v 0.309099 3.668311 1.520512
v 0.309099 -0.487504 1.520512
v -0.309099 3.668311 1.364295
v -0.309099 -0.487504 1.364295
v -0.309099 3.668311 1.520512
v -0.309099 -0.487504 1.520512
v 0.309099 3.668311 -1.520512
v 0.309099 -0.487504 -1.520512
v 0.309099 3.668311 -1.364295
v 0.309099 -0.487504 -1.364295
v -0.309099 3.668311 -1.520512
v -0.309099 -0.487504 -1.520512
v -0.309099 3.668311 -1.364295
v -0.309099 -0.487504 -1.364295
v -0.345702 3.597384 1.584337
v -0.345702 3.739507 1.584337
v -0.345702 3.597384 -1.578570
v -0.345702 3.739507 -1.578570
v 0.340899 3.597384 1.584337
v 0.340899 3.739507 1.584337
v 0.340899 3.597384 -1.578570
v 0.340899 3.739507 -1.578570
v -0.284145 2.619562 1.413018
v -0.284145 2.761685 1.413018
v -0.284145 2.619562 -1.443713
v -0.284145 2.761685 -1.443713
v 0.279342 2.619562 1.413018
v 0.279342 2.761685 1.413018
v 0.279342 2.619562 -1.443713
v 0.279342 2.761685 -1.443713
v -0.284145 1.539427 1.413018
v -0.284145 1.681550 1.413018
v -0.284145 1.539427 -1.443713
v -0.284145 1.681550 -1.443713
v 0.279342 1.539427 1.413018
v 0.279342 1.681550 1.413018
v 0.279342 1.539427 -1.443713
v 0.279342 1.681550 -1.443713
v -0.284145 0.459293 1.413018
v -0.284145 0.601416 1.413018
v -0.284145 0.459293 -1.443713
v -0.284145 0.601416 -1.443713
v 0.279342 0.459293 1.413018
v 0.279342 0.601416 1.413018
v 0.279342 0.459293 -1.443713
v 0.279342 0.601416 -1.443713
vt 0.397590 0.651644
vt 0.397590 0.723356
vt 0.397590 0.723356
vt 0.625000 0.750000
vt 0.375000 1.000000
vt 0.375000 0.750000
vt 0.375000 0.625000
vt 0.125000 0.750000
vt 0.125000 0.625000
vt 0.875000 0.625000
vt 0.625000 0.625000
vt 0.625000 0.000000
vt 0.375000 0.125000
vt 0.375000 0.000000
vt 0.602410 0.651644
vt 0.602410 0.723356
vt 0.602410 0.651644
vt 0.397590 0.651644
vt 0.602410 0.723356
vt 0.397590 0.723356
vt 0.397590 0.651644
vt 0.397590 0.723356
vt 0.375000 1.000000
vt 0.625000 0.750000
vt 0.375000 0.750000
vt 0.125000 0.750000
vt 0.625000 0.000000
vt 0.375000 0.000000
vt 0.602410 0.651644
vt 0.602410 0.723356
vt 0.602410 0.651644
vt 0.397590 0.651644
vt 0.602410 0.723356
vt 0.875000 0.500000
vt 0.625000 0.750000
vt 0.625000 0.500000
vt 0.375000 1.000000
vt 0.375000 0.750000
vt 0.625000 0.000000
vt 0.375000 0.250000
vt 0.375000 0.000000
vt 0.375000 0.500000
vt 0.125000 0.750000
vt 0.125000 0.500000
vt 0.625000 0.250000
vt 0.875000 0.500000
vt 0.625000 0.750000
vt 0.625000 0.500000
vt 0.375000 1.000000
vt 0.375000 0.750000
vt 0.625000 0.000000
vt 0.375000 0.250000
vt 0.375000 0.000000
vt 0.375000 0.500000
vt 0.125000 0.750000
vt 0.125000 0.500000
vt 0.625000 0.250000
vt 0.625000 0.000000
vt 0.375000 0.250000
vt 0.375000 0.000000
vt 0.625000 0.250000
vt 0.375000 0.500000
vt 0.625000 0.500000
vt 0.375000 0.750000
vt 0.625000 0.750000
vt 0.375000 1.000000
vt 0.125000 0.750000
vt 0.125000 0.500000
vt 0.875000 0.500000
vt 0.625000 0.000000
vt 0.375000 0.250000
vt 0.375000 0.000000
vt 0.625000 0.250000
vt 0.375000 0.500000
vt 0.625000 0.500000
vt 0.375000 0.750000
vt 0.625000 0.750000
vt 0.375000 1.000000
vt 0.125000 0.750000
vt 0.125000 0.500000
vt 0.875000 0.500000
vt 0.625000 0.000000
vt 0.375000 0.250000
vt 0.375000 0.000000
vt 0.625000 0.250000
vt 0.375000 0.500000
vt 0.625000 0.500000
vt 0.375000 0.750000
vt 0.625000 0.750000
vt 0.375000 1.000000
vt 0.125000 0.750000
vt 0.125000 0.500000
vt 0.875000 0.500000
vt 0.625000 0.000000
vt 0.375000 0.250000
vt 0.375000 0.000000
vt 0.625000 0.250000
vt 0.375000 0.500000
vt 0.625000 0.500000
vt 0.375000 0.750000
vt 0.625000 0.750000
vt 0.375000 1.000000
vt 0.125000 0.750000
vt 0.125000 0.500000
vt 0.875000 0.500000
vt 0.625000 1.000000
vt 0.875000 0.750000
vt 0.625000 0.125000
vt 0.625000 1.000000
vt 0.875000 0.750000
vt 0.875000 0.750000
vt 0.625000 1.000000
vt 0.875000 0.750000
vt 0.625000 1.000000
vt 0.625000 1.000000
vt 0.875000 0.750000
vt 0.625000 1.000000
vt 0.875000 0.750000
vt 0.625000 1.000000
vt 0.875000 0.750000
vt 0.625000 1.000000
vt 0.875000 0.750000
vn 0.6226 0.7825 0.0000
vn 0.0000 0.0000 1.0000
vn 0.0000 -1.0000 0.0000
vn 0.0000 1.0000 0.0000
vn -1.0000 0.0000 0.0000
vn 1.0000 0.0000 0.0000
vn 0.6226 -0.7825 0.0000
vn 0.8561 0.0000 0.5169
vn 0.8561 0.0000 -0.5169
vn 0.0000 0.0000 -1.0000
usemtl Shelf_01
s off
f 5/1/1 11/2/1 3/3/1
f 7/4/2 1/5/2 8/6/2
f 24/7/3 1/8/3 17/9/3
f 18/10/4 7/4/4 21/11/4
f 2/12/5 17/13/5 1/14/5
f 6/15/6 7/4/6 4/16/6
f 3/3/6 7/4/6 8/6/6
f 5/1/6 8/6/6 24/7/6
f 5/1/6 21/11/6 6/15/6
f 9/17/6 11/2/6 12/18/6
f 4/16/7 9/17/7 6/15/7
f 6/15/8 12/18/8 5/1/8
f 3/3/9 10/19/9 4/16/9
f 27/20/1 19/21/1 15/22/1
f 13/23/10 22/24/10 23/25/10
f 13/26/3 24/7/3 17/9/3
f 22/24/4 18/10/4 21/11/4
f 17/13/5 14/27/5 13/28/5
f 22/24/6 20/29/6 16/30/6
f 23/25/6 16/30/6 15/22/6
f 24/7/6 15/22/6 19/21/6
f 21/11/6 19/21/6 20/29/6
f 27/20/6 25/31/6 28/32/6
f 20/29/7 26/33/7 16/30/7
f 28/32/9 20/29/9 19/21/9
f 16/30/8 27/20/8 15/22/8
f 33/34/4 31/35/4 29/36/4
f 31/35/2 36/37/2 32/38/2
f 35/39/5 34/40/5 36/41/5
f 30/42/3 36/43/3 34/44/3
f 29/36/6 32/38/6 30/42/6
f 33/45/10 30/42/10 34/40/10
f 41/46/4 39/47/4 37/48/4
f 39/47/2 44/49/2 40/50/2
f 43/51/5 42/52/5 44/53/5
f 38/54/3 44/55/3 42/56/3
f 37/48/6 40/50/6 38/54/6
f 41/57/10 38/54/10 42/52/10
f 46/58/5 47/59/5 45/60/5
f 48/61/10 51/62/10 47/59/10
f 52/63/6 49/64/6 51/62/6
f 50/65/2 45/66/2 49/64/2
f 51/62/3 45/67/3 47/68/3
f 48/69/4 50/65/4 52/63/4
f 54/70/5 55/71/5 53/72/5
f 56/73/10 59/74/10 55/71/10
f 60/75/6 57/76/6 59/74/6
f 58/77/2 53/78/2 57/76/2
f 59/74/3 53/79/3 55/80/3
f 56/81/4 58/77/4 60/75/4
f 62/82/5 63/83/5 61/84/5
f 64/85/10 67/86/10 63/83/10
f 68/87/6 65/88/6 67/86/6
f 66/89/2 61/90/2 65/88/2
f 67/86/3 61/91/3 63/92/3
f 64/93/4 66/89/4 68/87/4
f 70/94/5 71/95/5 69/96/5
f 72/97/10 75/98/10 71/95/10
f 76/99/6 73/100/6 75/98/6
f 74/101/2 69/102/2 73/100/2
f 75/98/3 69/103/3 71/104/3
f 72/105/4 74/101/4 76/99/4
f 5/1/1 12/18/1 11/2/1
f 7/4/2 2/106/2 1/5/2
f 24/7/3 8/6/3 1/8/3
f 18/10/4 2/107/4 7/4/4
f 2/12/5 18/108/5 17/13/5
f 6/15/6 21/11/6 7/4/6
f 3/3/6 4/16/6 7/4/6
f 5/1/6 3/3/6 8/6/6
f 5/1/6 24/7/6 21/11/6
f 9/17/6 10/19/6 11/2/6
f 4/16/7 10/19/7 9/17/7
f 6/15/8 9/17/8 12/18/8
f 3/3/9 11/2/9 10/19/9
f 27/20/1 28/32/1 19/21/1
f 13/23/10 14/109/10 22/24/10
f 13/26/3 23/25/3 24/7/3
f 22/24/4 14/110/4 18/10/4
f 17/13/5 18/108/5 14/27/5
f 22/24/6 21/11/6 20/29/6
f 23/25/6 22/24/6 16/30/6
f 24/7/6 23/25/6 15/22/6
f 21/11/6 24/7/6 19/21/6
f 27/20/6 26/33/6 25/31/6
f 20/29/7 25/31/7 26/33/7
f 28/32/9 25/31/9 20/29/9
f 16/30/8 26/33/8 27/20/8
f 33/34/4 35/111/4 31/35/4
f 31/35/2 35/112/2 36/37/2
f 35/39/5 33/45/5 34/40/5
f 30/42/3 32/38/3 36/43/3
f 29/36/6 31/35/6 32/38/6
f 33/45/10 29/36/10 30/42/10
f 41/46/4 43/113/4 39/47/4
f 39/47/2 43/114/2 44/49/2
f 43/51/5 41/57/5 42/52/5
f 38/54/3 40/50/3 44/55/3
f 37/48/6 39/47/6 40/50/6
f 41/57/10 37/48/10 38/54/10
f 46/58/5 48/61/5 47/59/5
f 48/61/10 52/63/10 51/62/10
f 52/63/6 50/65/6 49/64/6
f 50/65/2 46/115/2 45/66/2
f 51/62/3 49/64/3 45/67/3
f 48/69/4 46/116/4 50/65/4
f 54/70/5 56/73/5 55/71/5
f 56/73/10 60/75/10 59/74/10
f 60/75/6 58/77/6 57/76/6
f 58/77/2 54/117/2 53/78/2
f 59/74/3 57/76/3 53/79/3
f 56/81/4 54/118/4 58/77/4
f 62/82/5 64/85/5 63/83/5
f 64/85/10 68/87/10 67/86/10
f 68/87/6 66/89/6 65/88/6
f 66/89/2 62/119/2 61/90/2
f 67/86/3 65/88/3 61/91/3
f 64/93/4 62/120/4 66/89/4
f 70/94/5 72/97/5 71/95/5
f 72/97/10 76/99/10 75/98/10
f 76/99/6 74/101/6 73/100/6
f 74/101/2 70/121/2 69/102/2
f 75/98/3 73/100/3 69/103/3
f 72/105/4 70/122/4 74/101/4
