# Blender v2.90.0 OBJ File: 'Spoon.blend'
# www.blender.org
mtllib Spoon.mtl
o Spoon_Sphere
v -0.035934 0.024344 -0.001964
v -0.088078 -0.003596 0.067163
v -0.065296 0.001001 0.161008
v -0.021160 -0.002465 -0.001964
v -0.051903 -0.036215 0.067163
v -0.038473 -0.026232 0.161008
v -0.000159 -0.008303 -0.001964
v 0.000526 -0.049218 0.067163
v 0.000330 -0.037018 0.161008
v 0.020658 -0.003386 -0.001964
v 0.052563 -0.038476 0.067163
v 0.038795 -0.027934 0.161008
v 0.034682 0.010723 -0.001964
v 0.087688 -0.007401 0.067163
v 0.064709 -0.001863 0.161008
v 0.002058 0.027416 0.217536
v -0.035934 0.024344 -0.001964
v -0.021727 0.024078 -0.001964
v -0.000843 0.023687 -0.001964
v 0.020087 0.023295 -0.001964
v 0.034419 0.023027 -0.001964
v -0.035155 0.024844 0.000116
v -0.086374 -0.002356 0.067690
v -0.063816 0.002160 0.159884
v -0.020490 -0.001579 -0.000020
v -0.050697 -0.034577 0.067663
v -0.037448 -0.024746 0.159871
v -0.000178 -0.007222 -0.000018
v 0.000491 -0.047227 0.067639
v 0.000303 -0.035233 0.159907
v 0.020039 -0.002459 -0.000001
v 0.051341 -0.036755 0.067635
v 0.037717 -0.026392 0.159889
v 0.034022 0.011276 0.000155
v 0.086000 -0.006000 0.067600
v 0.063180 -0.000632 0.159903
v 0.002015 0.028532 0.215615
v -0.035934 0.024344 0.000333
v -0.021727 0.024078 0.000333
v -0.000843 0.023687 0.000333
v 0.020087 0.023295 0.000333
v 0.034419 0.023027 0.000333
v -0.010879 -0.003038 -0.001109
v -0.010879 0.019726 -0.001109
v -0.029232 -0.021392 -0.430309
v -0.029232 0.038079 -0.430309
v 0.011885 -0.003038 -0.001109
v 0.011885 0.019726 -0.001109
v 0.030239 -0.021392 -0.430309
v 0.030239 0.038079 -0.430309
v -0.017007 -0.009167 -0.242069
v -0.017007 0.025854 -0.242069
v 0.018014 -0.009167 -0.242069
v 0.018014 0.025854 -0.242069
vt 0.545455 0.250000
vt 0.454546 0.250000
vt 0.545455 0.250000
vt 0.454546 0.594198
vt 0.545455 0.594198
vt 0.545455 0.875000
vt 0.363636 0.250000
vt 0.363636 0.875000
vt 0.454546 0.875000
vt 0.272727 0.250000
vt 0.363636 0.250000
vt 0.363636 0.594198
vt 0.272727 0.875000
vt 0.272727 0.594198
vt 0.636364 0.875000
vt 0.636364 0.594198
vt 0.636364 0.250000
vt 0.454546 0.875000
vt 0.363636 0.875000
vt 0.272727 0.875000
vt 0.636364 0.875000
vt 0.545455 0.875000
vt 0.545455 0.250000
vt 0.545455 0.250000
vt 0.454546 0.250000
vt 0.454546 0.594198
vt 0.545455 0.594198
vt 0.545455 0.875000
vt 0.363636 0.250000
vt 0.363636 0.594198
vt 0.363636 0.875000
vt 0.363636 0.250000
vt 0.272727 0.250000
vt 0.272727 0.875000
vt 0.636364 0.875000
vt 0.636364 0.594198
vt 0.636364 0.250000
vt 0.454546 0.875000
vt 0.454546 0.875000
vt 0.363636 0.875000
vt 0.636364 0.875000
vt 0.272727 0.594198
vt 0.545455 0.875000
vt 0.272727 0.875000
vt 0.625000 0.140726
vt 0.375000 0.250000
vt 0.375000 0.140726
vt 0.625000 0.500000
vt 0.375000 0.500000
vt 0.375000 0.609274
vt 0.625000 0.750000
vt 0.375000 0.750000
vt 0.625000 1.000000
vt 0.375000 1.000000
vt 0.125000 0.750000
vt 0.125000 0.609274
vt 0.625000 0.609274
vt 0.875000 0.750000
vt 0.875000 0.500000
vt 0.125000 0.500000
vt 0.375000 0.000000
vt 0.625000 0.250000
vt 0.875000 0.609274
vt 0.625000 0.000000
vn -0.1796 -0.6460 0.7419
vn -0.2385 -0.9615 0.1364
vn -0.2081 -0.8393 -0.5023
vn 0.1544 -0.6539 0.7406
vn 0.2280 -0.9655 0.1260
vn 0.1990 -0.8425 -0.5006
vn 0.4651 -0.4623 0.7549
vn 0.6976 -0.6934 0.1802
vn 0.5417 -0.6123 -0.5759
vn -0.5216 -0.5784 -0.6272
vn -0.4613 -0.4544 0.7620
vn -0.7016 -0.6910 0.1739
vn 0.0000 0.0000 -1.0000
vn 0.1797 0.6445 -0.7432
vn 0.2376 0.9617 -0.1367
vn 0.2077 0.8395 0.5020
vn -0.1545 0.6524 -0.7420
vn -0.1998 0.9700 -0.1385
vn -0.1737 0.8436 0.5081
vn -0.4668 0.4618 -0.7542
vn -0.6994 0.6914 -0.1810
vn -0.5811 0.5851 0.5656
vn 0.5219 0.5773 0.6280
vn 0.4628 0.4539 -0.7614
vn 0.6571 0.7277 -0.1964
vn -0.0033 -0.0114 0.9999
vn 0.0018 -0.0113 0.9999
vn 0.0016 -0.0129 0.9999
vn -0.2020 -0.1071 -0.9735
vn -0.4936 0.8693 -0.0242
vn -0.6068 0.7874 0.1087
vn 0.5798 0.7761 -0.2481
vn 0.5808 0.8083 0.0966
vn 0.0187 0.9998 0.0000
vn 0.9561 0.0204 0.2925
vn 0.5404 -0.8414 0.0000
vn -0.5054 0.8394 0.1998
vn 0.6469 0.6655 0.3723
vn -0.9979 0.0000 0.0648
vn 0.9997 0.0000 0.0254
vn 0.0000 0.0000 1.0000
vn 0.0000 -0.9997 0.0254
vn -0.0000 0.9997 0.0254
vn 0.0000 0.9979 0.0648
vn 0.0000 -0.9979 0.0648
vn 0.9979 0.0000 0.0648
vn -0.9997 0.0000 0.0254
vn -0.2658 -0.9561 0.1237
vn -0.2329 -0.8379 -0.4936
vn 0.2002 -0.9699 0.1383
vn 0.1741 -0.8433 -0.5084
vn 0.6489 -0.7335 0.2022
vn 0.5851 -0.5815 -0.5652
vn -0.7426 -0.4093 -0.5301
vn -0.6568 -0.7284 0.1951
vn 0.2657 0.9561 -0.1237
vn 0.2328 0.8381 0.4933
vn -0.2282 0.9654 -0.1260
vn -0.1990 0.8427 0.5003
vn -0.6500 0.7322 -0.2033
vn -0.5427 0.6122 0.5751
vn 0.7422 0.4092 0.5308
vn 0.7032 0.6892 -0.1745
vn -0.0003 -0.0138 0.9999
vn -0.0002 -0.0129 0.9999
vn -0.0003 -0.0151 0.9999
vn -0.5662 0.8186 -0.0962
vn -0.5661 0.8185 0.0984
vn 0.4344 0.8953 -0.0983
vn 0.6518 0.7495 0.1154
vn 0.9994 -0.0338 0.0000
vn -0.6094 0.6795 0.4086
vn 0.5431 0.8232 0.1653
usemtl Spoon
s off
f 6/1/1 9/2/1 16/3/1
f 8/4/2 6/1/2 5/5/2
f 4/6/3 8/4/3 5/5/3
f 9/2/4 12/7/4 16/3/4
f 8/4/5 12/7/5 9/2/5
f 10/8/6 8/4/6 7/9/6
f 12/7/7 15/10/7 16/11/7
f 11/12/8 15/10/8 12/7/8
f 11/12/9 13/13/9 14/14/9
f 1/15/10 5/5/10 2/16/10
f 3/17/11 6/1/11 16/3/11
f 3/17/12 5/5/12 6/1/12
f 4/6/13 19/18/13 7/9/13
f 10/8/13 19/18/13 20/19/13
f 13/13/13 20/19/13 21/20/13
f 4/6/13 17/21/13 18/22/13
f 27/23/14 37/24/14 30/25/14
f 27/23/15 29/26/15 26/27/15
f 29/26/16 25/28/16 26/27/16
f 30/25/17 37/24/17 33/29/17
f 29/26/18 33/29/18 32/30/18
f 31/31/19 29/26/19 32/30/19
f 33/29/20 37/32/20 36/33/20
f 36/33/21 32/30/21 33/29/21
f 32/30/22 34/34/22 31/31/22
f 26/27/23 22/35/23 23/36/23
f 24/37/24 37/24/24 27/23/24
f 24/37/25 26/27/25 23/36/25
f 40/38/26 25/28/26 28/39/26
f 31/31/27 40/38/27 28/39/27
f 34/34/28 41/40/28 31/31/28
f 25/28/29 38/41/29 22/35/29
f 1/15/30 23/36/30 22/35/30
f 3/17/31 23/36/31 2/16/31
f 14/14/32 34/34/32 35/42/32
f 15/10/33 35/42/33 36/33/33
f 17/21/34 39/43/34 18/22/34
f 18/22/34 40/38/34 19/18/34
f 19/18/34 41/40/34 20/19/34
f 21/20/34 41/40/34 42/44/34
f 21/20/35 34/34/35 13/13/35
f 17/21/36 22/35/36 38/41/36
f 3/17/37 37/24/37 24/37/37
f 15/10/38 37/32/38 16/11/38
f 52/45/39 45/46/39 51/47/39
f 45/46/13 50/48/13 49/49/13
f 53/50/40 48/51/40 47/52/40
f 47/52/41 44/53/41 43/54/41
f 53/50/42 43/55/42 51/56/42
f 54/57/43 44/58/43 48/51/43
f 46/59/44 54/57/44 50/48/44
f 49/49/45 51/56/45 45/60/45
f 50/48/46 53/50/46 49/49/46
f 43/61/47 52/45/47 51/47/47
f 8/4/48 9/2/48 6/1/48
f 4/6/49 7/9/49 8/4/49
f 8/4/50 11/12/50 12/7/50
f 10/8/51 11/12/51 8/4/51
f 11/12/52 14/14/52 15/10/52
f 11/12/53 10/8/53 13/13/53
f 1/15/54 4/6/54 5/5/54
f 3/17/55 2/16/55 5/5/55
f 4/6/13 18/22/13 19/18/13
f 10/8/13 7/9/13 19/18/13
f 13/13/13 10/8/13 20/19/13
f 4/6/41 1/15/41 17/21/41
f 27/23/56 30/25/56 29/26/56
f 29/26/57 28/39/57 25/28/57
f 29/26/58 30/25/58 33/29/58
f 31/31/59 28/39/59 29/26/59
f 36/33/60 35/42/60 32/30/60
f 32/30/61 35/42/61 34/34/61
f 26/27/62 25/28/62 22/35/62
f 24/37/63 27/23/63 26/27/63
f 40/38/64 39/43/64 25/28/64
f 31/31/65 41/40/65 40/38/65
f 34/34/66 42/44/66 41/40/66
f 25/28/64 39/43/64 38/41/64
f 1/15/67 2/16/67 23/36/67
f 3/17/68 24/37/68 23/36/68
f 14/14/69 13/13/69 34/34/69
f 15/10/70 14/14/70 35/42/70
f 17/21/34 38/41/34 39/43/34
f 18/22/34 39/43/34 40/38/34
f 19/18/34 40/38/34 41/40/34
f 21/20/34 20/19/34 41/40/34
f 21/20/71 42/44/71 34/34/71
f 17/21/41 1/15/41 22/35/41
f 3/17/72 16/3/72 37/24/72
f 15/10/73 36/33/73 37/32/73
f 52/45/39 46/62/39 45/46/39
f 45/46/13 46/62/13 50/48/13
f 53/50/40 54/57/40 48/51/40
f 47/52/41 48/51/41 44/53/41
f 53/50/42 47/52/42 43/55/42
f 54/57/43 52/63/43 44/58/43
f 46/59/44 52/63/44 54/57/44
f 49/49/45 53/50/45 51/56/45
f 50/48/46 54/57/46 53/50/46
f 43/61/47 44/64/47 52/45/47
