# Blender v2.90.0 OBJ File: 'Table_01.blend'
# www.blender.org
mtllib Table_01.mtl
o Table_01_Cube
v 1.522742 0.583200 -0.793669
v 1.522742 0.494455 -0.793669
v 1.522742 0.583200 0.771145
v 1.522742 0.494455 0.771145
v -1.522741 0.583200 -0.793669
v -1.522741 0.494455 -0.793669
v -1.522741 0.583200 0.771145
v -1.522741 0.494455 0.771145
v 1.240807 0.565586 0.508566
v 1.260337 -0.576676 0.489036
v 1.240807 0.565586 0.650828
v 1.260337 -0.576676 0.670358
v 1.098546 0.565586 0.508566
v 1.079015 -0.576676 0.489036
v 1.098546 0.565586 0.650828
v 1.079015 -0.576676 0.670358
v -1.240807 0.565586 0.508566
v -1.260337 -0.576676 0.489036
v -1.240807 0.565586 0.650828
v -1.260337 -0.576676 0.670358
v -1.098546 0.565586 0.508566
v -1.079015 -0.576676 0.489036
v -1.098546 0.565586 0.650828
v -1.079015 -0.576676 0.670358
v 1.240807 0.565586 -0.531090
v 1.260337 -0.576676 -0.511560
v 1.240807 0.565586 -0.673351
v 1.260337 -0.576676 -0.692882
v 1.098546 0.565586 -0.531090
v 1.079015 -0.576676 -0.511560
v 1.098546 0.565586 -0.673351
v 1.079015 -0.576676 -0.692882
v -1.240807 0.565586 -0.531090
v -1.260337 -0.576676 -0.511560
v -1.240807 0.565586 -0.673351
v -1.260337 -0.576676 -0.692882
v -1.098546 0.565586 -0.531090
v -1.079016 -0.576676 -0.511560
v -1.098546 0.565586 -0.673351
v -1.079016 -0.576676 -0.692882
v 1.219630 -0.332798 -0.563778
v 1.219630 -0.183849 -0.563778
v 1.135412 -0.332798 -0.563778
v 1.135412 -0.183849 -0.563778
v 1.219630 -0.332798 0.620087
v 1.219630 -0.183849 0.620087
v 1.135412 -0.332798 0.620087
v 1.135412 -0.183849 0.620087
v -1.219630 -0.332798 -0.563778
v -1.219630 -0.183849 -0.563778
v -1.135412 -0.332798 -0.563778
v -1.135412 -0.183849 -0.563778
v -1.219630 -0.332798 0.620087
v -1.219630 -0.183849 0.620087
v -1.135412 -0.332798 0.620087
v -1.135412 -0.183849 0.620087
vt 0.875000 0.500000
vt 0.625000 0.750000
vt 0.625000 0.500000
vt 0.375000 1.000000
vt 0.375000 0.750000
vt 0.625000 0.000000
vt 0.375000 0.250000
vt 0.375000 0.000000
vt 0.375000 0.500000
vt 0.125000 0.750000
vt 0.125000 0.500000
vt 0.625000 0.250000
vt 0.375000 0.250000
vt 0.625000 0.000000
vt 0.375000 0.000000
vt 0.375000 0.500000
vt 0.625000 0.250000
vt 0.375000 0.750000
vt 0.625000 0.500000
vt 0.375000 1.000000
vt 0.625000 0.750000
vt 0.125000 0.750000
vt 0.125000 0.500000
vt 0.875000 0.500000
vt 0.625000 0.000000
vt 0.375000 0.250000
vt 0.375000 0.000000
vt 0.625000 0.250000
vt 0.375000 0.500000
vt 0.625000 0.500000
vt 0.375000 0.750000
vt 0.625000 0.750000
vt 0.375000 1.000000
vt 0.125000 0.750000
vt 0.125000 0.500000
vt 0.875000 0.500000
vt 0.625000 0.000000
vt 0.375000 0.250000
vt 0.375000 0.000000
vt 0.625000 0.250000
vt 0.375000 0.500000
vt 0.625000 0.500000
vt 0.375000 0.750000
vt 0.625000 0.750000
vt 0.375000 1.000000
vt 0.125000 0.750000
vt 0.125000 0.500000
vt 0.875000 0.500000
vt 0.375000 0.250000
vt 0.625000 0.000000
vt 0.375000 0.000000
vt 0.375000 0.500000
vt 0.625000 0.250000
vt 0.375000 0.750000
vt 0.625000 0.500000
vt 0.375000 1.000000
vt 0.625000 0.750000
vt 0.125000 0.750000
vt 0.125000 0.500000
vt 0.875000 0.500000
vt 0.375000 0.250000
vt 0.625000 0.000000
vt 0.375000 0.000000
vt 0.375000 0.500000
vt 0.625000 0.250000
vt 0.375000 0.750000
vt 0.625000 0.500000
vt 0.375000 1.000000
vt 0.625000 0.750000
vt 0.125000 0.750000
vt 0.125000 0.500000
vt 0.875000 0.500000
vt 0.625000 0.000000
vt 0.375000 0.250000
vt 0.375000 0.000000
vt 0.625000 0.250000
vt 0.375000 0.500000
vt 0.625000 0.500000
vt 0.375000 0.750000
vt 0.625000 0.750000
vt 0.375000 1.000000
vt 0.125000 0.750000
vt 0.125000 0.500000
vt 0.875000 0.500000
vt 0.875000 0.750000
vt 0.625000 1.000000
vt 0.625000 1.000000
vt 0.875000 0.750000
vt 0.625000 1.000000
vt 0.875000 0.750000
vt 0.625000 1.000000
vt 0.875000 0.750000
vt 0.625000 1.000000
vt 0.875000 0.750000
vt 0.625000 1.000000
vt 0.875000 0.750000
vt 0.625000 1.000000
vt 0.875000 0.750000
vn 0.0000 1.0000 0.0000
vn 0.0000 0.0000 1.0000
vn -1.0000 0.0000 0.0000
vn 0.0000 -1.0000 0.0000
vn 1.0000 0.0000 0.0000
vn 0.0000 0.0000 -1.0000
vn 0.9999 0.0171 0.0000
vn 0.0000 0.0171 0.9999
vn -0.9999 0.0171 0.0000
vn 0.0000 0.0171 -0.9999
usemtl Table_01
s off
f 5/1/1 3/2/1 1/3/1
f 3/2/2 8/4/2 4/5/2
f 7/6/3 6/7/3 8/8/3
f 2/9/4 8/10/4 6/11/4
f 1/3/5 4/5/5 2/9/5
f 5/12/6 2/9/6 6/7/6
f 11/13/7 10/14/7 9/15/7
f 15/16/8 12/17/8 11/13/8
f 13/18/9 16/19/9 15/16/9
f 9/20/10 14/21/10 13/18/10
f 9/22/1 15/16/1 11/23/1
f 14/21/4 12/24/4 16/19/4
f 18/25/9 19/26/9 17/27/9
f 20/28/8 23/29/8 19/26/8
f 24/30/7 21/31/7 23/29/7
f 22/32/10 17/33/10 21/31/10
f 23/29/1 17/34/1 19/35/1
f 20/36/4 22/32/4 24/30/4
f 26/37/7 27/38/7 25/39/7
f 28/40/10 31/41/10 27/38/10
f 32/42/9 29/43/9 31/41/9
f 30/44/8 25/45/8 29/43/8
f 31/41/1 25/46/1 27/47/1
f 28/48/4 30/44/4 32/42/4
f 35/49/9 34/50/9 33/51/9
f 39/52/10 36/53/10 35/49/10
f 37/54/7 40/55/7 39/52/7
f 33/56/8 38/57/8 37/54/8
f 33/58/1 39/52/1 35/59/1
f 38/57/4 36/60/4 40/55/4
f 43/61/6 42/62/6 41/63/6
f 47/64/3 44/65/3 43/61/3
f 45/66/2 48/67/2 47/64/2
f 41/68/5 46/69/5 45/66/5
f 41/70/4 47/64/4 43/71/4
f 46/69/1 44/72/1 48/67/1
f 50/73/6 51/74/6 49/75/6
f 52/76/5 55/77/5 51/74/5
f 56/78/2 53/79/2 55/77/2
f 54/80/3 49/81/3 53/79/3
f 55/77/4 49/82/4 51/83/4
f 52/84/1 54/80/1 56/78/1
f 5/1/1 7/85/1 3/2/1
f 3/2/2 7/86/2 8/4/2
f 7/6/3 5/12/3 6/7/3
f 2/9/4 4/5/4 8/10/4
f 1/3/5 3/2/5 4/5/5
f 5/12/6 1/3/6 2/9/6
f 11/13/7 12/17/7 10/14/7
f 15/16/8 16/19/8 12/17/8
f 13/18/9 14/21/9 16/19/9
f 9/20/10 10/87/10 14/21/10
f 9/22/1 13/18/1 15/16/1
f 14/21/4 10/88/4 12/24/4
f 18/25/9 20/28/9 19/26/9
f 20/28/8 24/30/8 23/29/8
f 24/30/7 22/32/7 21/31/7
f 22/32/10 18/89/10 17/33/10
f 23/29/1 21/31/1 17/34/1
f 20/36/4 18/90/4 22/32/4
f 26/37/7 28/40/7 27/38/7
f 28/40/10 32/42/10 31/41/10
f 32/42/9 30/44/9 29/43/9
f 30/44/8 26/91/8 25/45/8
f 31/41/1 29/43/1 25/46/1
f 28/48/4 26/92/4 30/44/4
f 35/49/9 36/53/9 34/50/9
f 39/52/10 40/55/10 36/53/10
f 37/54/7 38/57/7 40/55/7
f 33/56/8 34/93/8 38/57/8
f 33/58/1 37/54/1 39/52/1
f 38/57/4 34/94/4 36/60/4
f 43/61/6 44/65/6 42/62/6
f 47/64/3 48/67/3 44/65/3
f 45/66/2 46/69/2 48/67/2
f 41/68/5 42/95/5 46/69/5
f 41/70/4 45/66/4 47/64/4
f 46/69/1 42/96/1 44/72/1
f 50/73/6 52/76/6 51/74/6
f 52/76/5 56/78/5 55/77/5
f 56/78/2 54/80/2 53/79/2
f 54/80/3 50/97/3 49/81/3
f 55/77/4 53/79/4 49/82/4
f 52/84/1 50/98/1 54/80/1
