# Blender v2.90.0 OBJ File: 'Antidote.blend'
# www.blender.org
mtllib Antidote.mtl
o Antidote_Circle.006
v -0.000000 -4.074621 -0.871684
v -0.616374 -4.074621 -0.616373
v -0.871684 -4.074621 0.000001
v -0.616374 -4.074621 0.616375
v 0.000000 -4.074621 0.871685
v 0.616374 -4.074621 0.616374
v 0.871684 -4.074621 0.000001
v 0.616374 -4.074621 -0.616373
v -0.432754 2.027169 -0.432753
v -0.000000 2.027169 -0.612006
v -0.612007 2.027169 0.000001
v -0.432754 2.027169 0.432755
v 0.000000 2.027169 0.612007
v 0.432754 2.027169 0.432755
v 0.612007 2.027169 0.000001
v 0.432754 2.027169 -0.432753
v -0.000000 -4.566594 -0.805451
v -0.569540 -4.566594 -0.569540
v -0.805452 -4.566594 0.000001
v -0.569540 -4.566594 0.569541
v 0.000000 -4.566594 0.805452
v 0.569540 -4.566594 0.569541
v 0.805452 -4.566594 0.000001
v 0.569540 -4.566594 -0.569540
v -0.000000 -4.894576 -0.528806
v -0.373922 -4.894576 -0.373922
v -0.528806 -4.894576 0.000001
v -0.373922 -4.894576 0.373923
v 0.000000 -4.894576 0.528807
v 0.373923 -4.894576 0.373923
v 0.528806 -4.894576 0.000001
v 0.373923 -4.894576 -0.373922
v -0.616374 2.027169 -0.616373
v -0.000000 2.027169 -0.871684
v -0.871684 2.027169 0.000001
v -0.616374 2.027169 0.616375
v 0.000000 2.027169 0.871685
v 0.616374 2.027169 0.616374
v 0.871684 2.027169 0.000001
v 0.616374 2.027169 -0.616373
v 0.616374 1.432495 0.616374
v 0.000000 1.432495 0.871685
v -0.616374 1.432495 0.616375
v -0.871684 1.432495 0.000001
v -0.616374 1.432495 -0.616373
v -0.000000 1.432495 -0.871684
v 0.616374 1.432495 -0.616373
v 0.871684 1.432495 0.000001
v -0.776963 2.027169 -0.776962
v -0.000000 2.027169 -1.098790
v -1.098791 2.027169 0.000001
v -0.776963 2.027169 0.776963
v 0.000000 2.027169 1.098792
v 0.776963 2.027169 0.776963
v 1.098791 2.027169 0.000001
v 0.776963 2.027169 -0.776962
v 0.776963 1.432495 0.776963
v -0.776963 1.432495 0.776963
v -0.776963 1.432495 -0.776962
v 1.098791 1.432495 0.000001
v 0.000000 1.432495 1.098792
v -1.098791 1.432495 0.000001
v -0.000000 1.432495 -1.098790
v 0.776963 1.432495 -0.776962
v -0.432754 2.027169 -0.432757
v -0.000000 2.027169 -0.612009
v -0.612007 2.027169 -0.000003
v -0.432754 2.027169 0.432751
v 0.000000 2.027169 0.612004
v 0.432754 2.027169 0.432751
v 0.612007 2.027169 -0.000003
v 0.432754 2.027169 -0.432757
v -0.577236 2.562125 -0.577238
v -0.000000 2.562125 -0.816337
v -0.816334 2.562125 -0.000003
v -0.577236 2.562125 0.577233
v 0.000000 2.562125 0.816332
v 0.577236 2.562125 0.577233
v 0.816334 2.562125 -0.000003
v 0.577236 2.562125 -0.577238
vt 0.000000 0.000000
vt 0.000000 0.000000
vt 0.000000 0.000000
vt 0.000000 0.000000
vt 0.000000 0.000000
vt 0.000000 0.000000
vt 0.000000 0.000000
vt 0.000000 0.000000
vt 0.000000 0.000000
vt 0.000000 0.000000
vt 0.000000 0.000000
vt 0.000000 0.000000
vt 0.000000 0.000000
vt 0.000000 0.000000
vt 0.000000 0.000000
vt 0.000000 0.000000
vt 0.000000 0.000000
vt 0.000000 0.000000
vt 0.000000 0.000000
vt 0.000000 0.000000
vt 0.000000 0.000000
vt 0.000000 0.000000
vt 0.000000 0.000000
vt 0.000000 0.000000
vt 0.000000 0.000000
vt 0.000000 0.000000
vt 0.000000 0.000000
vt 0.000000 0.000000
vt 0.000000 0.000000
vt 0.000000 0.000000
vt 0.000000 0.000000
vt 0.000000 0.000000
vt 0.000000 0.000000
vt 0.000000 0.000000
vt 0.000000 0.000000
vt 0.000000 0.000000
vt 0.000000 0.000000
vt 0.000000 0.000000
vt 0.000000 0.000000
vt 0.000000 0.000000
vt 0.000000 0.000000
vt 0.000000 0.000000
vt 0.000000 0.000000
vt 0.000000 0.000000
vt 0.000000 0.000000
vt 0.000000 0.000000
vt 0.000000 0.000000
vt 0.000000 0.000000
vt 0.000000 0.000000
vt 0.000000 0.000000
vt 0.000000 0.000000
vt 0.000000 0.000000
vt 0.000000 0.000000
vt 0.000000 0.000000
vt 0.000000 0.000000
vt 0.000000 0.000000
vt 0.000000 0.000000
vt 0.000000 0.000000
vt 0.000000 0.000000
vt 0.000000 0.000000
vt 0.000000 0.000000
vt 0.000000 0.000000
vt 0.000000 0.000000
vt 0.000000 0.000000
vt 0.000000 0.000000
vt 0.000000 0.000000
vt 0.000000 0.000000
vt 0.000000 0.000000
vt 0.000000 0.000000
vt 0.000000 0.000000
vt 0.000000 0.000000
vt 0.000000 0.000000
vt 0.000000 0.000000
vt 0.000000 0.000000
vt 0.000000 0.000000
vt 0.000000 0.000000
vt 0.000000 0.000000
vt 0.000000 0.000000
vt 0.000000 0.000000
vt 0.000000 0.000000
vn 0.3798 -0.1234 0.9168
vn 0.0000 -1.0000 0.0000
vn 0.0000 1.0000 0.0000
vn -0.7287 -0.6147 0.3019
vn -0.9168 -0.1234 0.3798
vn -0.3798 -0.1234 -0.9168
vn 0.3798 -0.1234 -0.9168
vn 0.9168 -0.1234 0.3798
vn -0.3798 -0.1234 0.9168
vn -0.9168 -0.1234 -0.3798
vn 0.9168 -0.1234 -0.3798
vn -0.3019 -0.6147 -0.7287
vn 0.3019 -0.6147 -0.7287
vn 0.7287 -0.6147 0.3019
vn -0.3019 -0.6147 0.7287
vn -0.7287 -0.6147 -0.3019
vn 0.7287 -0.6147 -0.3019
vn 0.3019 -0.6147 0.7287
vn 0.9239 0.0000 -0.3827
vn -0.9239 0.0000 -0.3827
vn -0.3827 0.0000 0.9239
vn 0.9239 0.0000 0.3827
vn 0.3827 0.0000 -0.9239
vn -0.3827 0.0000 -0.9239
vn -0.9239 0.0000 0.3827
vn 0.3827 0.0000 0.9239
vn -0.3549 -0.3741 0.8568
vn -0.8568 -0.3741 0.3549
vn -0.8568 -0.3741 -0.3549
vn -0.3549 -0.3741 -0.8568
vn 0.3549 -0.3741 -0.8568
vn 0.8568 -0.3741 -0.3549
vn 0.8568 -0.3741 0.3549
vn 0.3549 -0.3741 0.8568
vn -0.8712 -0.3328 -0.3609
vn 0.8712 -0.3328 -0.3609
vn 0.3609 -0.3328 0.8712
vn -0.8712 -0.3328 0.3609
vn -0.3609 -0.3328 -0.8712
vn 0.3609 -0.3328 -0.8712
vn 0.8712 -0.3328 0.3609
vn -0.3609 -0.3328 0.8712
usemtl Antidote
s off
f 5/1/1 22/2/1 6/3/1
f 42/4/2 58/5/2 43/6/2
f 34/7/3 49/8/3 33/9/3
f 40/10/3 50/11/3 34/7/3
f 45/12/2 62/13/2 59/14/2
f 39/15/3 56/16/3 40/10/3
f 48/17/2 64/18/2 60/19/2
f 38/20/3 55/21/3 39/15/3
f 41/22/2 61/23/2 42/4/2
f 19/24/4 28/25/4 20/26/4
f 3/27/5 20/26/5 4/28/5
f 1/29/6 18/30/6 2/31/6
f 8/32/7 17/33/7 1/29/7
f 6/3/8 23/34/8 7/35/8
f 4/28/9 21/36/9 5/1/9
f 2/31/10 19/24/10 3/27/10
f 8/32/11 23/34/11 24/37/11
f 28/25/2 27/38/2 31/39/2
f 18/30/12 25/40/12 26/41/12
f 24/37/13 25/40/13 17/33/13
f 22/2/14 31/39/14 23/34/14
f 20/26/15 29/42/15 21/36/15
f 18/30/16 27/38/16 19/24/16
f 23/34/17 32/43/17 24/37/17
f 21/36/18 30/44/18 22/2/18
f 10/45/3 33/9/3 9/46/3
f 9/46/3 35/47/3 11/48/3
f 11/48/3 36/49/3 12/50/3
f 12/50/3 37/51/3 13/52/3
f 13/52/3 38/20/3 14/53/3
f 14/53/3 39/15/3 15/54/3
f 15/54/3 40/10/3 16/55/3
f 10/45/3 40/10/3 34/7/3
f 8/32/19 48/17/19 7/35/19
f 3/27/20 45/12/20 2/31/20
f 5/1/21 43/6/21 4/28/21
f 7/35/22 41/22/22 6/3/22
f 1/29/23 47/56/23 8/32/23
f 2/31/24 46/57/24 1/29/24
f 4/28/25 44/58/25 3/27/25
f 6/3/26 42/4/26 5/1/26
f 57/59/26 53/60/26 61/23/26
f 58/5/25 51/61/25 62/13/25
f 59/14/24 50/11/24 63/62/24
f 63/62/23 56/16/23 64/18/23
f 60/19/22 54/63/22 57/59/22
f 61/23/21 52/64/21 58/5/21
f 62/13/20 49/8/20 59/14/20
f 64/18/19 55/21/19 60/19/19
f 33/9/3 51/61/3 35/47/3
f 41/22/2 60/19/2 57/59/2
f 36/49/3 51/61/3 52/64/3
f 46/57/2 64/18/2 47/56/2
f 46/57/2 59/14/2 63/62/2
f 36/49/3 53/60/3 37/51/3
f 43/6/2 62/13/2 44/58/2
f 37/51/3 54/63/3 38/20/3
f 47/56/27 10/45/27 46/57/27
f 48/17/28 16/55/28 47/56/28
f 41/22/29 15/54/29 48/17/29
f 42/4/30 14/53/30 41/22/30
f 42/4/31 12/50/31 13/52/31
f 44/58/32 12/50/32 43/6/32
f 45/12/33 11/48/33 44/58/33
f 46/57/34 9/46/34 45/12/34
f 5/1/1 21/36/1 22/2/1
f 42/4/2 61/23/2 58/5/2
f 34/7/3 50/11/3 49/8/3
f 40/10/3 56/16/3 50/11/3
f 45/12/2 44/58/2 62/13/2
f 39/15/3 55/21/3 56/16/3
f 48/17/2 47/56/2 64/18/2
f 38/20/3 54/63/3 55/21/3
f 41/22/2 57/59/2 61/23/2
f 19/24/4 27/38/4 28/25/4
f 3/27/5 19/24/5 20/26/5
f 1/29/6 17/33/6 18/30/6
f 8/32/7 24/37/7 17/33/7
f 6/3/8 22/2/8 23/34/8
f 4/28/9 20/26/9 21/36/9
f 2/31/10 18/30/10 19/24/10
f 8/32/11 7/35/11 23/34/11
f 27/38/2 26/41/2 25/40/2
f 25/40/2 32/43/2 27/38/2
f 32/43/2 31/39/2 27/38/2
f 31/39/2 30/44/2 29/42/2
f 29/42/2 28/25/2 31/39/2
f 18/30/12 17/33/12 25/40/12
f 24/37/13 32/43/13 25/40/13
f 22/2/14 30/44/14 31/39/14
f 20/26/15 28/25/15 29/42/15
f 18/30/16 26/41/16 27/38/16
f 23/34/17 31/39/17 32/43/17
f 21/36/18 29/42/18 30/44/18
f 10/45/3 34/7/3 33/9/3
f 9/46/3 33/9/3 35/47/3
f 11/48/3 35/47/3 36/49/3
f 12/50/3 36/49/3 37/51/3
f 13/52/3 37/51/3 38/20/3
f 14/53/3 38/20/3 39/15/3
f 15/54/3 39/15/3 40/10/3
f 10/45/3 16/55/3 40/10/3
f 8/32/19 47/56/19 48/17/19
f 3/27/20 44/58/20 45/12/20
f 5/1/21 42/4/21 43/6/21
f 7/35/22 48/17/22 41/22/22
f 1/29/23 46/57/23 47/56/23
f 2/31/24 45/12/24 46/57/24
f 4/28/25 43/6/25 44/58/25
f 6/3/26 41/22/26 42/4/26
f 57/59/26 54/63/26 53/60/26
f 58/5/25 52/64/25 51/61/25
f 59/14/24 49/8/24 50/11/24
f 63/62/23 50/11/23 56/16/23
f 60/19/22 55/21/22 54/63/22
f 61/23/21 53/60/21 52/64/21
f 62/13/20 51/61/20 49/8/20
f 64/18/19 56/16/19 55/21/19
f 33/9/3 49/8/3 51/61/3
f 41/22/2 48/17/2 60/19/2
f 36/49/3 35/47/3 51/61/3
f 46/57/2 63/62/2 64/18/2
f 46/57/2 45/12/2 59/14/2
f 36/49/3 52/64/3 53/60/3
f 43/6/2 58/5/2 62/13/2
f 37/51/3 53/60/3 54/63/3
f 47/56/27 16/55/27 10/45/27
f 48/17/28 15/54/28 16/55/28
f 41/22/29 14/53/29 15/54/29
f 42/4/30 13/52/30 14/53/30
f 42/4/31 43/6/31 12/50/31
f 44/58/32 11/48/32 12/50/32
f 45/12/33 9/46/33 11/48/33
f 46/57/34 10/45/34 9/46/34
usemtl Stopper04
f 67/65/2 66/66/2 71/67/2
f 77/68/3 79/69/3 74/70/3
f 65/71/35 75/72/35 73/73/35
f 72/74/36 79/69/36 71/67/36
f 69/75/37 78/76/37 77/68/37
f 68/77/38 75/72/38 67/65/38
f 65/71/39 74/70/39 66/66/39
f 66/66/40 80/78/40 72/74/40
f 71/67/41 78/76/41 70/79/41
f 69/75/42 76/80/42 68/77/42
f 67/65/2 65/71/2 66/66/2
f 66/66/2 72/74/2 71/67/2
f 71/67/2 70/79/2 69/75/2
f 69/75/2 68/77/2 71/67/2
f 68/77/2 67/65/2 71/67/2
f 74/70/3 73/73/3 75/72/3
f 75/72/3 76/80/3 77/68/3
f 77/68/3 78/76/3 79/69/3
f 79/69/3 80/78/3 74/70/3
f 74/70/3 75/72/3 77/68/3
f 65/71/35 67/65/35 75/72/35
f 72/74/36 80/78/36 79/69/36
f 69/75/37 70/79/37 78/76/37
f 68/77/38 76/80/38 75/72/38
f 65/71/39 73/73/39 74/70/39
f 66/66/40 74/70/40 80/78/40
f 71/67/41 79/69/41 78/76/41
f 69/75/42 77/68/42 76/80/42
