# Blender v2.90.0 OBJ File: 'BigPotion_Stamina.blend'
# www.blender.org
mtllib BigPotion_Stamina.mtl
o BigPotion_Stamina_Circle.013
v -0.263954 4.989103 -0.457182
v -0.000000 4.989103 -0.527909
v -0.457182 4.989103 -0.263954
v -0.527909 4.989103 -0.000000
v -0.457182 4.989103 0.263954
v -0.263954 4.989103 0.457182
v -0.000000 4.989103 0.527908
v 0.263954 4.989103 0.457182
v 0.457182 4.989103 0.263954
v 0.527908 4.989103 -0.000000
v 0.457182 4.989103 -0.263954
v 0.263955 4.989103 -0.457182
v -0.263954 5.584496 -0.457182
v -0.000000 5.584496 -0.527909
v -0.457182 5.584496 -0.263954
v -0.527909 5.584496 -0.000000
v -0.457182 5.584496 0.263954
v -0.263954 5.584496 0.457182
v -0.000000 5.584496 0.527908
v 0.263954 5.584496 0.457182
v 0.457182 5.584496 0.263954
v 0.527908 5.584496 -0.000000
v 0.457182 5.584496 -0.263954
v 0.263955 5.584496 -0.457182
v 0.000000 -5.915326 -1.400000
v -0.700000 -5.915326 -1.212436
v -1.212435 -5.915326 -0.700000
v -1.400000 -5.915326 -0.000000
v -1.212435 -5.915326 0.700000
v -0.700000 -5.915326 1.212435
v -0.000000 -5.915326 1.400000
v 0.700000 -5.915326 1.212436
v 1.212435 -5.915326 0.700000
v 1.400000 -5.915326 0.000001
v 1.212436 -5.915326 -0.699999
v 0.700001 -5.915326 -1.212435
v -2.085058 -2.630495 -3.611426
v -0.000000 -2.630495 -4.170116
v -3.611426 -2.630495 -2.085058
v -4.170116 -2.630495 -0.000000
v -3.611426 -2.630495 2.085057
v -2.085058 -2.630495 3.611425
v -0.000001 -2.630495 4.170115
v 2.085057 -2.630495 3.611426
v 3.611425 -2.630495 2.085058
v 4.170115 -2.630495 0.000001
v 3.611427 -2.630495 -2.085056
v 2.085060 -2.630495 -3.611425
v 1.658999 -4.504343 2.873473
v -0.000001 -4.504343 3.318000
v -2.873472 -4.504343 1.659000
v -3.318000 -4.504343 -0.000000
v 1.659002 -4.504343 -2.873471
v 2.873473 -4.504343 -1.658999
v -1.659000 -4.504343 -2.873473
v -0.000000 -4.504343 -3.318000
v 2.873471 -4.504343 1.659000
v -1.659000 -4.504343 2.873471
v -2.873473 -4.504343 -1.659000
v 3.318000 -4.504343 0.000001
v -1.818337 -0.840715 -3.149452
v -0.000000 -0.840715 -3.636674
v -3.149452 -0.840715 -1.818337
v -3.636674 -0.840715 -0.000000
v -3.149451 -0.840715 1.818336
v -1.818337 -0.840715 3.149451
v -0.000001 -0.840715 3.636673
v 1.818336 -0.840715 3.149451
v 3.149451 -0.840715 1.818337
v 3.636673 -0.840715 0.000001
v 3.149452 -0.840715 -1.818336
v 1.818339 -0.840715 -3.149451
v -0.347033 1.675498 -0.601078
v -0.000000 1.675498 -0.694065
v -0.601078 1.675498 -0.347033
v -0.694065 1.675498 -0.000000
v -0.601078 1.675498 0.347032
v -0.347033 1.675498 0.601078
v -0.000000 1.675498 0.694065
v 0.347032 1.675498 0.601078
v 0.601078 1.675498 0.347032
v 0.694065 1.675498 0.000000
v 0.601078 1.675498 -0.347032
v 0.347033 1.675498 -0.601078
v -1.989164 -1.735605 3.445333
v -3.445333 -1.735605 1.989164
v -0.000000 -1.735605 -3.978329
v 1.989166 -1.735605 -3.445333
v -3.445334 -1.735605 -1.989165
v -1.989164 -1.735605 -3.445334
v 3.978328 -1.735605 0.000001
v 3.445333 -1.735605 1.989165
v -0.000001 -1.735605 3.978328
v -3.978329 -1.735605 -0.000000
v 3.445334 -1.735605 -1.989163
v 1.989163 -1.735605 3.445333
v 2.712704 0.032963 1.566181
v 1.566180 0.032963 2.712704
v -1.566181 0.032963 2.712704
v -2.712704 0.032963 1.566180
v -0.000000 0.032963 -3.132362
v 1.566182 0.032963 -2.712703
v -2.712704 0.032963 -1.566181
v -1.566181 0.032963 -2.712705
v 3.132361 0.032963 0.000001
v -0.000001 0.032963 3.132361
v -3.132362 0.032963 -0.000000
v 2.712705 0.032963 -1.566180
v 1.947509 -3.567419 3.373186
v -3.373186 -3.567419 1.947510
v 1.947512 -3.567419 -3.373185
v -1.947510 -3.567419 -3.373186
v 3.373185 -3.567419 1.947510
v -1.947510 -3.567419 3.373185
v -3.373186 -3.567419 -1.947510
v 3.895019 -3.567419 0.000001
v -0.000001 -3.567419 3.895019
v -3.895020 -3.567419 -0.000000
v 3.373187 -3.567419 -1.947508
v -0.000000 -3.567419 -3.895020
v -0.000000 -5.209835 2.487217
v -2.487218 -5.209835 -0.000000
v 2.153994 -5.209835 -1.243608
v 0.000000 -5.209835 -2.487218
v 1.243609 -5.209835 2.153994
v -2.153994 -5.209835 1.243609
v 1.243611 -5.209835 -2.153993
v -1.243609 -5.209835 -2.153994
v 2.153993 -5.209835 1.243609
v -1.243609 -5.209835 2.153993
v -2.153994 -5.209835 -1.243609
v 2.487218 -5.209835 0.000001
v -1.234059 0.757399 -2.137453
v -0.000000 0.757399 -2.468118
v -2.137453 0.757399 -1.234059
v -2.468118 0.757399 -0.000000
v -2.137452 0.757399 1.234059
v -1.234059 0.757399 2.137452
v -0.000000 0.757399 2.468117
v 1.234058 0.757399 2.137452
v 2.137452 0.757399 1.234059
v 2.468117 0.757399 0.000001
v 2.137453 0.757399 -1.234058
v 1.234060 0.757399 -2.137452
v -0.710668 1.386062 -1.230913
v -0.000000 1.386062 -1.421335
v -1.230912 1.386062 -0.710668
v -1.421336 1.386062 -0.000000
v -1.230912 1.386062 0.710667
v -0.710668 1.386062 1.230912
v -0.000000 1.386062 1.421335
v 0.710667 1.386062 1.230912
v 1.230912 1.386062 0.710668
v 1.421335 1.386062 0.000000
v 1.230913 1.386062 -0.710667
v 0.710668 1.386062 -1.230912
v -0.263954 4.989103 -0.457182
v -0.000000 4.989103 -0.527909
v -0.457182 4.989103 -0.263954
v -0.527909 4.989103 -0.000000
v -0.457182 4.989103 0.263954
v -0.263954 4.989103 0.457182
v -0.000000 4.989103 0.527908
v 0.263954 4.989103 0.457182
v 0.457182 4.989103 0.263954
v 0.527908 4.989103 -0.000000
v 0.457182 4.989103 -0.263954
v 0.263955 4.989103 -0.457182
v -0.347033 4.989103 -0.601078
v -0.000000 4.989103 -0.694065
v -0.601078 4.989103 -0.347033
v -0.694065 4.989103 -0.000000
v -0.601078 4.989103 0.347032
v -0.347033 4.989103 0.601078
v -0.000000 4.989103 0.694065
v 0.347032 4.989103 0.601078
v 0.601078 4.989103 0.347032
v 0.694065 4.989103 0.000000
v 0.601078 4.989103 -0.347032
v 0.347033 4.989103 -0.601078
vt 0.000000 0.000000
vt 0.000000 0.000000
vt 0.000000 0.000000
vt 0.000000 0.000000
vt 0.000000 0.000000
vt 0.000000 0.000000
vt 0.000000 0.000000
vt 0.000000 0.000000
vt 0.000000 0.000000
vt 0.000000 0.000000
vt 0.000000 0.000000
vt 0.000000 0.000000
vt 0.000000 0.000000
vt 0.000000 0.000000
vt 0.000000 0.000000
vt 0.000000 0.000000
vt 0.000000 0.000000
vt 0.000000 0.000000
vt 0.000000 0.000000
vt 0.000000 0.000000
vt 0.000000 0.000000
vt 0.000000 0.000000
vt 0.000000 0.000000
vt 0.000000 0.000000
vt 0.000000 0.000000
vt 0.000000 0.000000
vt 0.000000 0.000000
vt 0.000000 0.000000
vt 0.000000 0.000000
vt 0.000000 0.000000
vt 0.000000 0.000000
vt 0.000000 0.000000
vt 0.000000 0.000000
vt 0.000000 0.000000
vt 0.000000 0.000000
vt 0.000000 0.000000
vt 0.000000 0.000000
vt 0.000000 0.000000
vt 0.000000 0.000000
vt 0.000000 0.000000
vt 0.000000 0.000000
vt 0.000000 0.000000
vt 0.000000 0.000000
vt 0.000000 0.000000
vt 0.000000 0.000000
vt 0.000000 0.000000
vt 0.000000 0.000000
vt 0.000000 0.000000
vt 0.000000 0.000000
vt 0.000000 0.000000
vt 0.000000 0.000000
vt 0.000000 0.000000
vt 0.000000 0.000000
vt 0.000000 0.000000
vt 0.000000 0.000000
vt 0.000000 0.000000
vt 0.000000 0.000000
vt 0.000000 0.000000
vt 0.000000 0.000000
vt 0.000000 0.000000
vt 0.000000 0.000000
vt 0.000000 0.000000
vt 0.000000 0.000000
vt 0.000000 0.000000
vt 0.000000 0.000000
vt 0.000000 0.000000
vt 0.000000 0.000000
vt 0.000000 0.000000
vt 0.000000 0.000000
vt 0.000000 0.000000
vt 0.000000 0.000000
vt 0.000000 0.000000
vt 0.000000 0.000000
vt 0.000000 0.000000
vt 0.000000 0.000000
vt 0.000000 0.000000
vt 0.000000 0.000000
vt 0.000000 0.000000
vt 0.000000 0.000000
vt 0.000000 0.000000
vt 0.000000 0.000000
vt 0.000000 0.000000
vt 0.000000 0.000000
vt 0.000000 0.000000
vt 0.000000 0.000000
vt 0.000000 0.000000
vt 0.000000 0.000000
vt 0.000000 0.000000
vt 0.000000 0.000000
vt 0.000000 0.000000
vt 0.000000 0.000000
vt 0.000000 0.000000
vt 0.000000 0.000000
vt 0.000000 0.000000
vt 0.000000 0.000000
vt 0.000000 0.000000
vt 0.000000 0.000000
vt 0.000000 0.000000
vt 0.000000 0.000000
vt 0.000000 0.000000
vt 0.000000 0.000000
vt 0.000000 0.000000
vt 0.000000 0.000000
vt 0.000000 0.000000
vt 0.000000 0.000000
vt 0.000000 0.000000
vt 0.000000 0.000000
vt 0.000000 0.000000
vt 0.000000 0.000000
vt 0.000000 0.000000
vt 0.000000 0.000000
vt 0.000000 0.000000
vt 0.000000 0.000000
vt 0.000000 0.000000
vt 0.000000 0.000000
vt 0.000000 0.000000
vt 0.000000 0.000000
vt 0.000000 0.000000
vt 0.000000 0.000000
vt 0.000000 0.000000
vt 0.000000 0.000000
vt 0.000000 0.000000
vt 0.000000 0.000000
vt 0.000000 0.000000
vt 0.000000 0.000000
vt 0.000000 0.000000
vt 0.000000 0.000000
vt 0.000000 0.000000
vt 0.000000 0.000000
vt 0.000000 0.000000
vt 0.000000 0.000000
vt 0.000000 0.000000
vt 0.000000 0.000000
vt 0.000000 0.000000
vt 0.000000 0.000000
vt 0.000000 0.000000
vt 0.000000 0.000000
vt 0.000000 0.000000
vt 0.000000 0.000000
vt 0.000000 0.000000
vt 0.000000 0.000000
vt 0.000000 0.000000
vt 0.000000 0.000000
vt 0.000000 0.000000
vt 0.000000 0.000000
vt 0.000000 0.000000
vt 0.000000 0.000000
vt 0.000000 0.000000
vt 0.000000 0.000000
vt 0.000000 0.000000
vt 0.000000 0.000000
vt 0.000000 0.000000
vt 0.000000 0.000000
vt 0.000000 0.000000
vt 0.000000 0.000000
vt 0.000000 0.000000
vt 0.000000 0.000000
vt 0.000000 0.000000
vt 0.000000 0.000000
vt 0.000000 0.000000
vt 0.000000 0.000000
vt 0.000000 0.000000
vt 0.000000 0.000000
vt 0.000000 0.000000
vt 0.000000 0.000000
vt 0.000000 0.000000
vt 0.000000 0.000000
vt 0.000000 0.000000
vt 0.000000 0.000000
vt 0.000000 0.000000
vt 0.000000 0.000000
vt 0.000000 0.000000
vt 0.000000 0.000000
vt 0.000000 0.000000
vt 0.000000 0.000000
vt 0.000000 0.000000
vt 0.000000 0.000000
vt 0.000000 0.000000
vt 0.000000 0.000000
vt 0.000000 0.000000
vn 0.0000 -1.0000 0.0000
vn 0.0000 1.0000 0.0000
vn -0.7071 0.0000 0.7071
vn 0.2588 0.0000 -0.9659
vn -0.7071 0.0000 -0.7071
vn 0.9659 0.0000 0.2588
vn -0.2588 0.0000 0.9659
vn -0.9659 0.0000 -0.2588
vn 0.9659 0.0000 -0.2588
vn 0.2588 0.0000 0.9659
vn -0.9659 0.0000 0.2588
vn 0.7071 0.0000 -0.7071
vn -0.2588 0.0000 -0.9659
vn 0.7071 0.0000 0.7071
vn -0.6634 0.3460 0.6634
vn 0.2490 -0.2729 0.9293
vn -0.9293 -0.2728 0.2490
vn 0.6803 -0.2728 -0.6803
vn -0.2490 -0.2729 -0.9293
vn 0.6803 -0.2728 0.6803
vn -0.6803 -0.2728 0.6803
vn 0.2490 -0.2729 -0.9293
vn -0.6803 -0.2729 -0.6803
vn 0.9293 -0.2729 0.2490
vn -0.2490 -0.2729 0.9293
vn -0.9293 -0.2729 -0.2490
vn 0.9293 -0.2729 -0.2490
vn 0.6378 -0.7510 -0.1709
vn -0.6378 -0.7510 -0.1709
vn -0.1709 -0.7510 0.6378
vn 0.6378 -0.7510 0.1709
vn -0.4669 -0.7510 -0.4669
vn 0.1709 -0.7510 -0.6378
vn -0.4669 -0.7510 0.4669
vn 0.4669 -0.7510 0.4669
vn -0.1709 -0.7510 -0.6378
vn 0.4669 -0.7510 -0.4669
vn -0.6378 -0.7510 0.1709
vn 0.1709 -0.7510 0.6378
vn 0.5293 0.6630 0.5293
vn 0.2428 0.3460 -0.9063
vn -0.6634 0.3460 -0.6634
vn 0.9063 0.3460 0.2428
vn -0.2428 0.3460 0.9063
vn -0.9063 0.3460 -0.2428
vn 0.9063 0.3460 -0.2428
vn 0.2428 0.3460 0.9063
vn -0.9063 0.3460 0.2428
vn 0.6634 0.3460 -0.6634
vn -0.2428 0.3460 -0.9063
vn 0.6634 0.3460 0.6634
vn -0.5293 0.6630 0.5293
vn 0.1938 0.6630 -0.7231
vn -0.5293 0.6630 -0.5293
vn 0.7231 0.6630 0.1938
vn -0.1938 0.6630 0.7231
vn -0.7231 0.6630 -0.1938
vn 0.7231 0.6630 -0.1938
vn 0.1938 0.6630 0.7231
vn -0.7231 0.6630 0.1938
vn 0.5293 0.6630 -0.5293
vn -0.1938 0.6630 -0.7231
vn 0.6924 0.2027 0.6924
vn -0.2534 0.2027 -0.9459
vn 0.6924 0.2027 -0.6924
vn -0.9459 0.2027 0.2534
vn 0.2534 0.2027 0.9459
vn 0.9459 0.2027 -0.2534
vn -0.9459 0.2027 -0.2534
vn -0.2534 0.2027 0.9459
vn 0.9459 0.2027 0.2534
vn -0.6924 0.2027 -0.6924
vn 0.2534 0.2027 -0.9459
vn -0.6924 0.2027 0.6924
vn -0.2261 0.4870 -0.8437
vn 0.6176 0.4870 -0.6176
vn -0.8437 0.4870 0.2261
vn 0.2261 0.4870 0.8437
vn 0.8437 0.4870 -0.2261
vn -0.8437 0.4870 -0.2261
vn -0.2261 0.4870 0.8437
vn 0.8437 0.4870 0.2261
vn -0.6176 0.4870 -0.6176
vn 0.2261 0.4870 -0.8437
vn -0.6176 0.4870 0.6176
vn 0.6176 0.4870 0.6176
vn 0.8301 -0.5113 -0.2224
vn -0.8301 -0.5113 -0.2224
vn -0.2224 -0.5113 0.8301
vn 0.8301 -0.5113 0.2224
vn -0.6077 -0.5113 -0.6077
vn 0.2224 -0.5113 -0.8301
vn -0.6077 -0.5113 0.6077
vn 0.6077 -0.5113 0.6077
vn -0.2224 -0.5113 -0.8301
vn 0.6077 -0.5113 -0.6077
vn -0.8301 -0.5113 0.2224
vn 0.2224 -0.5113 0.8301
vn 0.1443 -0.8301 0.5386
vn -0.5386 -0.8301 0.1443
vn 0.3943 -0.8301 -0.3943
vn -0.1443 -0.8301 -0.5386
vn 0.3943 -0.8301 0.3943
vn -0.3943 -0.8301 0.3943
vn 0.1443 -0.8301 -0.5386
vn -0.3943 -0.8301 -0.3943
vn 0.5386 -0.8301 0.1443
vn -0.1443 -0.8301 0.5386
vn -0.5386 -0.8301 -0.1443
vn 0.5386 -0.8301 -0.1443
vn -0.1367 0.8492 -0.5100
vn -0.3734 0.8492 -0.3734
vn -0.5100 0.8492 -0.1367
vn -0.5100 0.8492 0.1367
vn -0.3734 0.8492 0.3734
vn -0.1367 0.8492 0.5100
vn 0.1367 0.8492 0.5100
vn 0.3734 0.8492 0.3734
vn 0.5100 0.8492 0.1367
vn 0.5100 0.8492 -0.1367
vn 0.3734 0.8492 -0.3734
vn 0.1367 0.8492 -0.5100
vn -0.0986 0.9246 -0.3680
vn -0.2694 0.9246 -0.2694
vn -0.3680 0.9246 -0.0986
vn -0.3680 0.9246 0.0986
vn -0.2694 0.9246 0.2694
vn -0.0986 0.9246 0.3680
vn 0.0986 0.9246 0.3680
vn 0.2694 0.9246 0.2694
vn 0.3680 0.9246 0.0986
vn 0.3680 0.9246 -0.0986
vn 0.2694 0.9246 -0.2694
vn 0.0986 0.9246 -0.3680
vn 0.2490 -0.2728 0.9293
vn -0.9293 -0.2729 0.2490
vn 0.6803 -0.2729 -0.6803
vn -0.2490 -0.2728 -0.9293
vn 0.6803 -0.2729 0.6803
vn -0.6803 -0.2729 0.6803
vn -0.6803 -0.2728 -0.6803
vn 0.9293 -0.2728 0.2490
vn -0.2490 -0.2728 0.9293
vn -0.9293 -0.2728 -0.2490
vn 0.9293 -0.2728 -0.2490
usemtl Stopper03.002
s off
f 2/1/1 11/2/1 7/3/1
f 19/4/2 21/5/2 14/6/2
f 6/7/3 17/8/3 5/9/3
f 2/1/4 24/10/4 12/11/4
f 3/12/5 13/13/5 1/14/5
f 10/15/6 21/5/6 9/16/6
f 7/3/7 18/17/7 6/7/7
f 4/18/8 15/19/8 3/12/8
f 11/2/9 22/20/9 10/15/9
f 8/21/10 19/4/10 7/3/10
f 5/9/11 16/22/11 4/18/11
f 12/11/12 23/23/12 11/2/12
f 1/14/13 14/6/13 2/1/13
f 9/16/14 20/24/14 8/21/14
f 3/12/1 1/14/1 2/1/1
f 2/1/1 12/11/1 11/2/1
f 11/2/1 10/15/1 9/16/1
f 9/16/1 8/21/1 11/2/1
f 8/21/1 7/3/1 11/2/1
f 7/3/1 6/7/1 3/12/1
f 6/7/1 5/9/1 3/12/1
f 5/9/1 4/18/1 3/12/1
f 3/12/1 2/1/1 7/3/1
f 14/6/2 13/13/2 15/19/2
f 15/19/2 16/22/2 17/8/2
f 17/8/2 18/17/2 19/4/2
f 19/4/2 20/24/2 21/5/2
f 21/5/2 22/20/2 14/6/2
f 22/20/2 23/23/2 14/6/2
f 23/23/2 24/10/2 14/6/2
f 14/6/2 15/19/2 17/8/2
f 17/8/2 19/4/2 14/6/2
f 6/7/3 18/17/3 17/8/3
f 2/1/4 14/6/4 24/10/4
f 3/12/5 15/19/5 13/13/5
f 10/15/6 22/20/6 21/5/6
f 7/3/7 19/4/7 18/17/7
f 4/18/8 16/22/8 15/19/8
f 11/2/9 23/23/9 22/20/9
f 8/21/10 20/24/10 19/4/10
f 5/9/11 17/8/11 16/22/11
f 12/11/12 24/10/12 23/23/12
f 1/14/13 13/13/13 14/6/13
f 9/16/14 21/5/14 20/24/14
usemtl Stamina_Big
f 29/25/1 27/26/1 35/27/1
f 85/28/15 65/29/15 86/30/15
f 117/31/16 44/32/16 43/33/16
f 110/34/17 40/35/17 118/36/17
f 111/37/18 47/38/18 119/39/18
f 112/40/19 38/41/19 120/42/19
f 113/43/20 44/32/20 109/44/20
f 114/45/21 41/46/21 110/34/21
f 120/42/22 48/47/22 111/37/22
f 115/48/23 37/49/23 112/40/23
f 116/50/24 45/51/24 113/43/24
f 117/31/25 42/52/25 114/45/25
f 118/36/26 39/53/26 115/48/26
f 119/39/27 46/54/27 116/50/27
f 123/55/28 60/56/28 132/57/28
f 131/58/29 52/59/29 59/60/29
f 121/61/30 58/62/30 130/63/30
f 132/57/31 57/64/31 129/65/31
f 131/58/32 55/66/32 128/67/32
f 124/68/33 53/69/33 127/70/33
f 130/63/34 51/71/34 126/72/34
f 125/73/35 57/64/35 49/74/35
f 128/67/36 56/75/36 124/68/36
f 127/70/37 54/76/37 123/55/37
f 126/72/38 52/59/38 122/77/38
f 125/73/39 50/78/39 121/61/39
f 97/79/40 140/80/40 98/81/40
f 87/82/41 72/83/41 88/84/41
f 90/85/42 63/86/42 61/87/42
f 92/88/43 70/89/43 69/90/43
f 93/91/44 66/92/44 85/28/44
f 94/93/45 63/86/45 89/94/45
f 95/95/46 70/89/46 91/96/46
f 96/97/47 67/98/47 93/91/47
f 86/30/48 64/99/48 94/93/48
f 88/84/49 71/100/49 95/95/49
f 90/85/50 62/101/50 87/82/50
f 96/97/51 69/90/51 68/102/51
f 81/103/14 176/104/14 80/105/14
f 99/106/52 137/107/52 100/108/52
f 101/109/53 144/110/53 102/111/53
f 103/112/54 133/113/54 104/114/54
f 105/115/55 141/116/55 97/79/55
f 99/106/56 139/117/56 138/118/56
f 107/119/57 135/120/57 103/112/57
f 108/121/58 142/122/58 105/115/58
f 98/81/59 139/117/59 106/123/59
f 100/108/60 136/124/60 107/119/60
f 108/121/61 144/110/61 143/125/61
f 104/114/62 134/126/62 101/109/62
f 45/51/63 96/97/63 44/32/63
f 37/49/64 87/82/64 38/41/64
f 48/47/65 95/95/65 47/38/65
f 41/46/66 94/93/66 40/35/66
f 44/32/67 93/91/67 43/33/67
f 47/38/68 91/96/68 46/54/68
f 39/53/69 94/93/69 89/94/69
f 43/33/70 85/28/70 42/52/70
f 46/54/71 92/88/71 45/51/71
f 39/53/72 90/85/72 37/49/72
f 38/41/73 88/84/73 48/47/73
f 42/52/74 86/30/74 41/46/74
f 61/87/75 101/109/75 62/101/75
f 72/83/76 108/121/76 71/100/76
f 65/29/77 107/119/77 64/99/77
f 68/102/78 106/123/78 67/98/78
f 71/100/79 105/115/79 70/89/79
f 63/86/80 107/119/80 103/112/80
f 67/98/81 99/106/81 66/92/81
f 70/89/82 97/79/82 69/90/82
f 61/87/83 103/112/83 104/114/83
f 62/101/84 102/111/84 72/83/84
f 66/92/85 100/108/85 65/29/85
f 69/90/86 98/81/86 68/102/86
f 54/76/87 116/50/87 60/56/87
f 59/60/88 118/36/88 115/48/88
f 50/78/89 114/45/89 58/62/89
f 57/64/90 116/50/90 113/43/90
f 59/60/91 112/40/91 55/66/91
f 56/75/92 111/37/92 53/69/92
f 58/62/93 110/34/93 51/71/93
f 49/74/94 113/43/94 109/44/94
f 55/66/95 120/42/95 56/75/95
f 54/76/96 111/37/96 119/39/96
f 51/71/97 118/36/97 52/59/97
f 49/74/98 117/31/98 50/78/98
f 31/127/99 125/73/99 121/61/99
f 29/25/100 122/77/100 28/128/100
f 36/129/101 123/55/101 35/27/101
f 25/130/102 128/67/102 124/68/102
f 33/131/103 125/73/103 32/132/103
f 29/25/104 130/63/104 126/72/104
f 36/129/105 124/68/105 127/70/105
f 27/26/106 128/67/106 26/133/106
f 33/131/107 132/57/107 129/65/107
f 31/127/108 130/63/108 30/134/108
f 27/26/109 122/77/109 131/58/109
f 35/27/110 132/57/110 34/135/110
f 145/136/111 134/126/111 133/113/111
f 145/136/112 135/120/112 147/137/112
f 148/138/113 135/120/113 136/124/113
f 148/138/114 137/107/114 149/139/114
f 149/139/115 138/118/115 150/140/115
f 151/141/116 138/118/116 139/117/116
f 151/141/117 140/80/117 152/142/117
f 153/143/118 140/80/118 141/116/118
f 153/143/119 142/122/119 154/144/119
f 154/144/120 143/125/120 155/145/120
f 155/145/121 144/110/121 156/146/121
f 156/146/122 134/126/122 146/147/122
f 73/148/123 146/147/123 145/136/123
f 73/148/124 147/137/124 75/149/124
f 76/150/125 147/137/125 148/138/125
f 76/150/126 149/139/126 77/151/126
f 77/151/127 150/140/127 78/152/127
f 79/153/128 150/140/128 151/141/128
f 79/153/129 152/142/129 80/105/129
f 80/105/130 153/143/130 81/103/130
f 81/103/131 154/144/131 82/154/131
f 82/154/132 155/145/132 83/155/132
f 84/156/133 155/145/133 156/146/133
f 84/156/134 146/147/134 74/157/134
f 163/158/2 165/159/2 158/160/2
f 78/152/3 173/161/3 77/151/3
f 74/157/4 180/162/4 84/156/4
f 75/149/5 169/163/5 73/148/5
f 82/154/6 177/164/6 81/103/6
f 79/153/7 174/165/7 78/152/7
f 76/150/8 171/166/8 75/149/8
f 83/155/9 178/167/9 82/154/9
f 80/105/10 175/168/10 79/153/10
f 77/151/11 172/169/11 76/150/11
f 84/156/12 179/170/12 83/155/12
f 73/148/13 170/171/13 74/157/13
f 157/172/2 170/171/2 169/163/2
f 157/172/2 171/166/2 159/173/2
f 160/174/2 171/166/2 172/169/2
f 160/174/2 173/161/2 161/175/2
f 161/175/2 174/165/2 162/176/2
f 163/158/2 174/165/2 175/168/2
f 163/158/2 176/104/2 164/177/2
f 164/177/2 177/164/2 165/159/2
f 165/159/2 178/167/2 166/178/2
f 167/179/2 178/167/2 179/170/2
f 167/179/2 180/162/2 168/180/2
f 168/180/2 170/171/2 158/160/2
f 27/26/1 26/133/1 25/130/1
f 25/130/1 36/129/1 35/27/1
f 35/27/1 34/135/1 31/127/1
f 34/135/1 33/131/1 31/127/1
f 33/131/1 32/132/1 31/127/1
f 31/127/1 30/134/1 29/25/1
f 29/25/1 28/128/1 27/26/1
f 27/26/1 25/130/1 35/27/1
f 31/127/1 29/25/1 35/27/1
f 85/28/15 66/92/15 65/29/15
f 117/31/135 109/44/135 44/32/135
f 110/34/136 41/46/136 40/35/136
f 111/37/137 48/47/137 47/38/137
f 112/40/138 37/49/138 38/41/138
f 113/43/139 45/51/139 44/32/139
f 114/45/140 42/52/140 41/46/140
f 120/42/22 38/41/22 48/47/22
f 115/48/141 39/53/141 37/49/141
f 116/50/142 46/54/142 45/51/142
f 117/31/143 43/33/143 42/52/143
f 118/36/144 40/35/144 39/53/144
f 119/39/145 47/38/145 46/54/145
f 123/55/28 54/76/28 60/56/28
f 131/58/29 122/77/29 52/59/29
f 121/61/30 50/78/30 58/62/30
f 132/57/31 60/56/31 57/64/31
f 131/58/32 59/60/32 55/66/32
f 124/68/33 56/75/33 53/69/33
f 130/63/34 58/62/34 51/71/34
f 125/73/35 129/65/35 57/64/35
f 128/67/36 55/66/36 56/75/36
f 127/70/37 53/69/37 54/76/37
f 126/72/38 51/71/38 52/59/38
f 125/73/39 49/74/39 50/78/39
f 97/79/40 141/116/40 140/80/40
f 87/82/41 62/101/41 72/83/41
f 90/85/42 89/94/42 63/86/42
f 92/88/43 91/96/43 70/89/43
f 93/91/44 67/98/44 66/92/44
f 94/93/45 64/99/45 63/86/45
f 95/95/46 71/100/46 70/89/46
f 96/97/47 68/102/47 67/98/47
f 86/30/48 65/29/48 64/99/48
f 88/84/49 72/83/49 71/100/49
f 90/85/50 61/87/50 62/101/50
f 96/97/51 92/88/51 69/90/51
f 81/103/14 177/164/14 176/104/14
f 99/106/52 138/118/52 137/107/52
f 101/109/53 134/126/53 144/110/53
f 103/112/54 135/120/54 133/113/54
f 105/115/55 142/122/55 141/116/55
f 99/106/56 106/123/56 139/117/56
f 107/119/57 136/124/57 135/120/57
f 108/121/58 143/125/58 142/122/58
f 98/81/59 140/80/59 139/117/59
f 100/108/60 137/107/60 136/124/60
f 108/121/61 102/111/61 144/110/61
f 104/114/62 133/113/62 134/126/62
f 45/51/63 92/88/63 96/97/63
f 37/49/64 90/85/64 87/82/64
f 48/47/65 88/84/65 95/95/65
f 41/46/66 86/30/66 94/93/66
f 44/32/67 96/97/67 93/91/67
f 47/38/68 95/95/68 91/96/68
f 39/53/69 40/35/69 94/93/69
f 43/33/70 93/91/70 85/28/70
f 46/54/71 91/96/71 92/88/71
f 39/53/72 89/94/72 90/85/72
f 38/41/73 87/82/73 88/84/73
f 42/52/74 85/28/74 86/30/74
f 61/87/75 104/114/75 101/109/75
f 72/83/76 102/111/76 108/121/76
f 65/29/77 100/108/77 107/119/77
f 68/102/78 98/81/78 106/123/78
f 71/100/79 108/121/79 105/115/79
f 63/86/80 64/99/80 107/119/80
f 67/98/81 106/123/81 99/106/81
f 70/89/82 105/115/82 97/79/82
f 61/87/83 63/86/83 103/112/83
f 62/101/84 101/109/84 102/111/84
f 66/92/85 99/106/85 100/108/85
f 69/90/86 97/79/86 98/81/86
f 54/76/87 119/39/87 116/50/87
f 59/60/88 52/59/88 118/36/88
f 50/78/89 117/31/89 114/45/89
f 57/64/90 60/56/90 116/50/90
f 59/60/91 115/48/91 112/40/91
f 56/75/92 120/42/92 111/37/92
f 58/62/93 114/45/93 110/34/93
f 49/74/94 57/64/94 113/43/94
f 55/66/95 112/40/95 120/42/95
f 54/76/96 53/69/96 111/37/96
f 51/71/97 110/34/97 118/36/97
f 49/74/98 109/44/98 117/31/98
f 31/127/99 32/132/99 125/73/99
f 29/25/100 126/72/100 122/77/100
f 36/129/101 127/70/101 123/55/101
f 25/130/102 26/133/102 128/67/102
f 33/131/103 129/65/103 125/73/103
f 29/25/104 30/134/104 130/63/104
f 36/129/105 25/130/105 124/68/105
f 27/26/106 131/58/106 128/67/106
f 33/131/107 34/135/107 132/57/107
f 31/127/108 121/61/108 130/63/108
f 27/26/109 28/128/109 122/77/109
f 35/27/110 123/55/110 132/57/110
f 145/136/111 146/147/111 134/126/111
f 145/136/112 133/113/112 135/120/112
f 148/138/113 147/137/113 135/120/113
f 148/138/114 136/124/114 137/107/114
f 149/139/115 137/107/115 138/118/115
f 151/141/116 150/140/116 138/118/116
f 151/141/117 139/117/117 140/80/117
f 153/143/118 152/142/118 140/80/118
f 153/143/119 141/116/119 142/122/119
f 154/144/120 142/122/120 143/125/120
f 155/145/121 143/125/121 144/110/121
f 156/146/122 144/110/122 134/126/122
f 73/148/123 74/157/123 146/147/123
f 73/148/124 145/136/124 147/137/124
f 76/150/125 75/149/125 147/137/125
f 76/150/126 148/138/126 149/139/126
f 77/151/127 149/139/127 150/140/127
f 79/153/128 78/152/128 150/140/128
f 79/153/129 151/141/129 152/142/129
f 80/105/130 152/142/130 153/143/130
f 81/103/131 153/143/131 154/144/131
f 82/154/132 154/144/132 155/145/132
f 84/156/133 83/155/133 155/145/133
f 84/156/134 156/146/134 146/147/134
f 158/160/2 157/172/2 159/173/2
f 159/173/2 160/174/2 161/175/2
f 161/175/2 162/176/2 163/158/2
f 163/158/2 164/177/2 165/159/2
f 165/159/2 166/178/2 158/160/2
f 166/178/2 167/179/2 158/160/2
f 167/179/2 168/180/2 158/160/2
f 158/160/2 159/173/2 161/175/2
f 161/175/2 163/158/2 158/160/2
f 78/152/3 174/165/3 173/161/3
f 74/157/4 170/171/4 180/162/4
f 75/149/5 171/166/5 169/163/5
f 82/154/6 178/167/6 177/164/6
f 79/153/7 175/168/7 174/165/7
f 76/150/8 172/169/8 171/166/8
f 83/155/9 179/170/9 178/167/9
f 80/105/10 176/104/10 175/168/10
f 77/151/11 173/161/11 172/169/11
f 84/156/12 180/162/12 179/170/12
f 73/148/13 169/163/13 170/171/13
f 157/172/2 158/160/2 170/171/2
f 157/172/2 169/163/2 171/166/2
f 160/174/2 159/173/2 171/166/2
f 160/174/2 172/169/2 173/161/2
f 161/175/2 173/161/2 174/165/2
f 163/158/2 162/176/2 174/165/2
f 163/158/2 175/168/2 176/104/2
f 164/177/2 176/104/2 177/164/2
f 165/159/2 177/164/2 178/167/2
f 167/179/2 166/178/2 178/167/2
f 167/179/2 179/170/2 180/162/2
f 168/180/2 180/162/2 170/171/2
