# Blender v2.90.0 OBJ File: 'Book_01.blend'
# www.blender.org
mtllib Book_01.mtl
o Book_01_Cube.001
v 5.508172 5.430475 -1.000000
v 5.508172 -5.430475 -1.000000
v 5.508172 5.430475 1.000000
v 5.508172 -5.430475 1.000000
v -2.691828 5.430475 -1.000000
v -2.691828 -5.430475 -1.000000
v -2.691828 5.430475 1.000000
v -2.691828 -5.430475 1.000000
v -2.974499 -5.430475 -0.500000
v -3.090345 -5.430475 0.000000
v -2.974499 -5.430475 0.500000
v -2.974499 5.430475 0.500000
v -3.090345 5.430475 0.000000
v -2.974499 5.430475 -0.500000
v 5.508172 5.430475 -0.900000
v 5.508172 -5.430475 -0.900000
v 5.508172 5.430475 0.900000
v 5.508172 -5.430475 0.900000
v -2.422445 5.430475 -0.924616
v -2.422445 -5.430475 -0.924616
v -2.422445 5.430475 0.924616
v -2.422445 -5.430475 0.924616
v -2.566426 -5.430475 -0.490344
v -2.680345 -5.430475 0.000000
v -2.566426 -5.430475 0.490344
v -2.566426 5.430475 0.490344
v -2.680345 5.430475 0.000000
v -2.566426 5.430475 -0.490344
v -2.720322 -5.292454 0.932395
v -2.720322 5.292454 0.932395
v -2.720322 -5.292454 -0.932395
v -2.720322 5.292454 -0.932395
v 5.244521 -5.292454 0.932395
v 5.244521 5.292454 0.932395
v 5.244521 -5.292454 -0.932395
v 5.244521 5.292454 -0.932395
vt 0.625000 0.000000
vt 0.375000 0.250000
vt 0.375000 0.000000
vt 0.625000 0.250000
vt 0.375000 0.500000
vt 0.625000 0.500000
vt 0.375000 0.750000
vt 0.625000 0.750000
vt 0.375000 1.000000
vt 0.125000 0.750000
vt 0.125000 0.500000
vt 0.875000 0.500000
vt 0.625000 1.000000
vt 0.875000 0.750000
vt 0.625000 0.125000
vt 0.375000 0.187500
vt 0.375000 0.125000
vt 0.625000 0.750000
vt 0.375000 1.000000
vt 0.375000 0.750000
vt 0.625000 0.187500
vt 0.375000 0.250000
vt 0.625000 0.062500
vt 0.375000 0.062500
vt 0.625000 0.000000
vt 0.375000 0.000000
vt 0.625000 0.250000
vt 0.375000 0.500000
vt 0.375000 0.187500
vt 0.625000 0.125000
vt 0.375000 0.125000
vt 0.375000 1.000000
vt 0.625000 0.750000
vt 0.375000 0.750000
vt 0.375000 0.250000
vt 0.625000 0.187500
vt 0.625000 0.062500
vt 0.375000 0.062500
vt 0.625000 0.000000
vt 0.375000 0.000000
vt 0.375000 0.500000
vt 0.625000 0.250000
vt 0.625000 0.500000
vt 0.625000 1.000000
vt 0.625000 1.000000
vt 0.625000 0.500000
vn -1.0000 0.0000 0.0000
vn 0.0000 0.0000 -1.0000
vn 1.0000 0.0000 0.0000
vn 0.0000 0.0000 1.0000
vn 0.0000 -1.0000 0.0000
vn 0.0000 1.0000 0.0000
vn -0.9742 0.0000 -0.2257
vn -0.8705 0.0000 -0.4921
vn -0.9742 0.0000 0.2257
vn -0.8705 0.0000 0.4921
vn 0.9741 0.0000 0.2263
vn -0.0031 0.0000 -1.0000
vn 0.9492 0.0000 0.3147
vn 0.9741 0.0000 -0.2263
vn 0.9492 0.0000 -0.3147
vn -0.0031 0.0000 1.0000
usemtl Paper_book
s off
f 30/1/1 31/2/1 29/3/1
f 32/4/2 35/5/2 31/2/2
f 36/6/3 33/7/3 35/5/3
f 34/8/4 29/9/4 33/7/4
f 35/5/5 29/10/5 31/11/5
f 32/12/6 34/8/6 36/6/6
f 30/1/1 32/4/1 31/2/1
f 32/4/2 36/6/2 35/5/2
f 36/6/3 34/8/3 33/7/3
f 34/8/4 30/13/4 29/9/4
f 35/5/5 33/7/5 29/10/5
f 32/12/6 30/14/6 34/8/6
usemtl Book01_coverdarkBlue
f 13/15/7 9/16/7 10/17/7
f 3/18/4 8/19/4 4/20/4
f 14/21/8 6/22/8 9/16/8
f 12/23/9 10/17/9 11/24/9
f 7/25/10 11/24/10 8/26/10
f 5/27/2 2/28/2 6/22/2
f 23/29/11 27/30/11 24/31/11
f 22/32/12 17/33/12 18/34/12
f 20/35/13 28/36/13 23/29/13
f 24/31/14 26/37/14 25/38/14
f 25/38/15 21/39/15 22/40/15
f 16/41/16 19/42/16 20/35/16
f 8/26/5 25/38/5 22/40/5
f 2/28/5 20/35/5 6/22/5
f 1/43/3 16/41/3 2/28/3
f 4/20/3 17/33/3 3/18/3
f 3/18/6 21/44/6 7/45/6
f 9/16/5 24/31/5 10/17/5
f 4/20/5 22/32/5 18/34/5
f 5/27/6 28/36/6 19/42/6
f 1/43/6 19/42/6 15/46/6
f 6/22/5 23/29/5 9/16/5
f 11/24/5 24/31/5 25/38/5
f 7/25/6 26/37/6 12/23/6
f 12/23/6 27/30/6 13/15/6
f 14/21/6 27/30/6 28/36/6
f 13/15/7 14/21/7 9/16/7
f 3/18/4 7/45/4 8/19/4
f 14/21/8 5/27/8 6/22/8
f 12/23/9 13/15/9 10/17/9
f 7/25/10 12/23/10 11/24/10
f 5/27/2 1/43/2 2/28/2
f 23/29/11 28/36/11 27/30/11
f 22/32/12 21/44/12 17/33/12
f 20/35/13 19/42/13 28/36/13
f 24/31/14 27/30/14 26/37/14
f 25/38/15 26/37/15 21/39/15
f 16/41/16 15/46/16 19/42/16
f 8/26/5 11/24/5 25/38/5
f 2/28/5 16/41/5 20/35/5
f 1/43/3 15/46/3 16/41/3
f 4/20/3 18/34/3 17/33/3
f 3/18/6 17/33/6 21/44/6
f 9/16/5 23/29/5 24/31/5
f 4/20/5 8/19/5 22/32/5
f 5/27/6 14/21/6 28/36/6
f 1/43/6 5/27/6 19/42/6
f 6/22/5 20/35/5 23/29/5
f 11/24/5 10/17/5 24/31/5
f 7/25/6 21/39/6 26/37/6
f 12/23/6 26/37/6 27/30/6
f 14/21/6 13/15/6 27/30/6
