# Blender v2.90.0 OBJ File: 'CooperCoin.blend'
# www.blender.org
mtllib CooperCoin.mtl
o CooperCoin_Circle.001
v -0.021893 2.593586 -0.253474
v 1.540846 2.085821 -0.253474
v 2.506672 0.756476 -0.253474
v 2.506671 -0.886686 -0.253474
v 1.540846 -2.216032 -0.253474
v -0.021894 -2.723796 -0.253473
v -1.584633 -2.216031 -0.253473
v -2.550459 -0.886686 -0.253473
v -2.550459 0.756476 -0.253473
v -1.584632 2.085822 -0.253473
v -0.021893 3.285313 -0.253474
v 1.947433 2.645440 -0.253474
v 3.164544 0.970231 -0.253474
v 3.164543 -1.100441 -0.253474
v 1.947433 -2.775650 -0.253473
v -0.021894 -3.415523 -0.253473
v -1.991220 -2.775650 -0.253473
v -3.208330 -1.100442 -0.253473
v -3.208330 0.970232 -0.253473
v -1.991219 2.645441 -0.253473
v 1.540846 2.085821 -0.009226
v -0.021893 2.593586 -0.009226
v 2.506672 0.756476 -0.009226
v 2.506671 -0.886686 -0.009226
v 1.540846 -2.216032 -0.009226
v -0.021894 -2.723796 -0.009226
v -1.584633 -2.216031 -0.009226
v -2.550459 -0.886686 -0.009226
v -2.550459 0.756476 -0.009226
v -1.584632 2.085822 -0.009226
v -0.021893 2.593586 0.250853
v 1.540846 2.085821 0.250854
v 2.506672 0.756476 0.250854
v 2.506671 -0.886686 0.250854
v 1.540846 -2.216032 0.250853
v -0.021894 -2.723796 0.250853
v -1.584633 -2.216031 0.250853
v -2.550459 -0.886686 0.250853
v -2.550459 0.756476 0.250853
v -1.584632 2.085822 0.250853
v -0.021893 3.285313 0.250853
v 1.947433 2.645440 0.250854
v 3.164544 0.970231 0.250854
v 3.164543 -1.100441 0.250854
v 1.947433 -2.775650 0.250853
v -0.021894 -3.415523 0.250853
v -1.991220 -2.775650 0.250853
v -3.208330 -1.100442 0.250853
v -3.208330 0.970232 0.250853
v -1.991219 2.645441 0.250853
v -0.021893 3.285313 -0.001310
v 1.947433 2.645440 -0.001310
v 3.164544 0.970231 -0.001310
v 3.164543 -1.100441 -0.001310
v 1.947433 -2.775650 -0.001310
v -0.021894 -3.415523 -0.001310
v -1.991220 -2.775650 -0.001310
v -3.208330 -1.100442 -0.001310
v -3.208330 0.970231 -0.001310
v -1.991219 2.645441 -0.001310
v 1.540846 2.085821 0.006606
v -0.021893 2.593586 0.006606
v 2.506672 0.756476 0.006606
v 2.506671 -0.886686 0.006606
v 1.540846 -2.216032 0.006606
v -0.021894 -2.723796 0.006606
v -1.584633 -2.216031 0.006606
v -2.550459 -0.886686 0.006606
v -2.550459 0.756476 0.006606
v -1.584632 2.085822 0.006606
v 1.184064 0.077672 -0.320317
v -0.085852 -1.114024 -0.320317
v -0.448490 -1.073296 -0.320317
v -1.180924 -1.252059 -0.320316
v -0.858674 -1.395205 -0.320316
v -0.489389 -1.492341 -0.320316
v 1.424517 0.891052 -0.320317
v -0.072048 1.692674 -0.320317
v -0.750973 1.581565 -0.320317
v -1.148716 1.435010 -0.320317
v -1.148716 0.951890 -0.320317
v -0.777387 1.136788 0.323844
v 1.184064 0.077672 0.323844
v -1.180924 -0.759736 0.323844
v -1.180924 -1.252059 0.323844
v -0.489389 -1.492341 0.323844
v -0.044441 -1.528127 0.323844
v 1.424517 0.891052 0.323844
v 0.817847 1.475909 0.323844
v -0.072048 1.692674 0.323844
v -0.399241 1.665749 0.323844
v -0.777387 1.136788 -0.320317
v -0.423439 1.243977 0.323844
v -0.423439 1.243977 -0.320317
v -0.067447 1.278571 0.323844
v -0.067447 1.278571 -0.320317
v 0.576032 1.120598 0.323844
v 0.576032 1.120598 -0.320317
v 1.019105 0.695759 0.323844
v 1.019105 0.695759 -0.320317
v 1.022513 -0.544164 0.323844
v 1.022513 -0.544164 -0.320317
v 0.578758 -0.961505 0.323844
v 0.578758 -0.961505 -0.320317
v -0.085852 -1.114024 0.323844
v -0.448490 -1.073296 0.323844
v -0.818286 -0.953836 0.323844
v -0.818286 -0.953836 -0.320317
v -1.180924 -0.759736 -0.320317
v -0.858674 -1.395205 0.323844
v -0.044441 -1.528127 -0.320316
v 0.918050 -1.268759 0.323844
v 0.918050 -1.268759 -0.320317
v 1.471551 -0.661749 0.323844
v 1.471551 -0.661749 -0.320317
v 1.648780 0.036262 0.323844
v 1.648780 0.036262 -0.320317
v 0.817847 1.475909 -0.320317
v -0.399241 1.665749 -0.320317
v -0.750973 1.581565 0.323844
v -1.148716 1.435010 0.323844
v -1.148716 0.951890 0.323844
vt 0.000000 0.000000
vt 0.000000 0.000000
vt 0.000000 0.000000
vt 0.000000 0.000000
vt 0.000000 0.000000
vt 0.000000 0.000000
vt 0.000000 0.000000
vt 0.000000 0.000000
vt 0.000000 0.000000
vt 0.000000 0.000000
vt 0.000000 0.000000
vt 0.000000 0.000000
vt 0.000000 0.000000
vt 0.000000 0.000000
vt 0.000000 0.000000
vt 0.000000 0.000000
vt 0.000000 0.000000
vt 0.000000 0.000000
vt 0.000000 0.000000
vt 0.000000 0.000000
vt 0.000000 0.000000
vt 0.000000 0.000000
vt 0.000000 0.000000
vt 0.000000 0.000000
vt 0.000000 0.000000
vt 0.000000 0.000000
vt 0.000000 0.000000
vt 0.000000 0.000000
vt 0.000000 0.000000
vt 0.000000 0.000000
vt 0.000000 0.000000
vt 0.000000 0.000000
vt 0.000000 0.000000
vt 0.000000 0.000000
vt 0.000000 0.000000
vt 0.000000 0.000000
vt 0.000000 0.000000
vt 0.000000 0.000000
vt 0.000000 0.000000
vt 0.000000 0.000000
vt 0.000000 0.000000
vt 0.000000 0.000000
vt 0.000000 0.000000
vt 0.000000 0.000000
vt 0.000000 0.000000
vt 0.000000 0.000000
vt 0.000000 0.000000
vt 0.000000 0.000000
vt 0.000000 0.000000
vt 0.000000 0.000000
vt 0.000000 0.000000
vt 0.000000 0.000000
vt 0.000000 0.000000
vt 0.000000 0.000000
vt 0.000000 0.000000
vt 0.000000 0.000000
vt 0.000000 0.000000
vt 0.000000 0.000000
vt 0.000000 0.000000
vt 0.000000 0.000000
vt 0.000000 0.000000
vt 0.000000 0.000000
vt 0.000000 0.000000
vt 0.000000 0.000000
vt 0.000000 0.000000
vt 0.000000 0.000000
vt 0.000000 0.000000
vt 0.000000 0.000000
vt 0.000000 0.000000
vt 0.000000 0.000000
vt 0.800000 0.000000
vt 0.880000 0.000000
vt 0.840000 0.000000
vt 0.920000 0.000000
vt 0.960000 0.000000
vt 0.760000 0.000000
vt 0.120000 0.000000
vt 0.080000 0.000000
vt 0.040000 0.000000
vt 0.000000 0.000000
vt 1.000000 0.000000
vt 0.160000 0.000000
vt 0.720000 0.000000
vt 0.200000 0.000000
vt 0.240000 0.000000
vt 0.680000 0.000000
vt 0.280000 0.000000
vt 0.640000 0.000000
vt 0.400000 0.000000
vt 0.480000 0.000000
vt 0.440000 0.000000
vt 0.360000 0.000000
vt 0.320000 0.000000
vt 0.520000 0.000000
vt 0.600000 0.000000
vt 0.560000 0.000000
vt 0.880000 0.000000
vt 0.800000 0.000000
vt 0.840000 0.000000
vt 0.920000 0.000000
vt 0.960000 0.000000
vt 0.120000 0.000000
vt 0.760000 0.000000
vt 0.080000 0.000000
vt 0.040000 0.000000
vt 0.000000 0.000000
vt 1.000000 0.000000
vt 0.160000 0.000000
vt 0.720000 0.000000
vt 0.200000 0.000000
vt 0.240000 0.000000
vt 0.680000 0.000000
vt 0.280000 0.000000
vt 0.640000 0.000000
vt 0.480000 0.000000
vt 0.400000 0.000000
vt 0.440000 0.000000
vt 0.360000 0.000000
vt 0.320000 0.000000
vt 0.520000 0.000000
vt 0.600000 0.000000
vt 0.560000 0.000000
vt 0.038462 1.000000
vt 0.000000 1.000000
vt 0.076923 1.000000
vt 0.038462 0.000000
vt 0.115385 1.000000
vt 0.076923 0.000000
vt 0.153846 1.000000
vt 0.115385 0.000000
vt 0.192308 1.000000
vt 0.153846 0.000000
vt 0.230769 1.000000
vt 0.192308 0.000000
vt 0.269231 1.000000
vt 0.230769 0.000000
vt 0.307692 1.000000
vt 0.269231 0.000000
vt 0.346154 1.000000
vt 0.307692 0.000000
vt 0.384615 1.000000
vt 0.346154 0.000000
vt 0.423077 1.000000
vt 0.384615 0.000000
vt 0.461538 1.000000
vt 0.423077 0.000000
vt 0.500000 1.000000
vt 0.461538 0.000000
vt 0.538462 1.000000
vt 0.500000 0.000000
vt 0.576923 1.000000
vt 0.538462 0.000000
vt 0.615385 1.000000
vt 0.576923 0.000000
vt 0.653846 1.000000
vt 0.615385 0.000000
vt 0.692308 0.000000
vt 0.653846 0.000000
vt 0.730769 1.000000
vt 0.692308 1.000000
vt 0.769231 1.000000
vt 0.730769 0.000000
vt 0.807692 1.000000
vt 0.769231 0.000000
vt 0.846154 1.000000
vt 0.807692 0.000000
vt 0.884615 1.000000
vt 0.846154 0.000000
vt 0.923077 1.000000
vt 0.884615 0.000000
vt 0.961538 1.000000
vt 0.923077 0.000000
vt 1.000000 0.000000
vt 0.961538 0.000000
vt 1.000000 1.000000
vn 0.3090 0.9511 0.0000
vn 1.0000 0.0000 -0.0000
vn -0.0000 -0.0000 -1.0000
vn -0.3090 0.9511 0.0000
vn -0.8090 -0.5878 0.0000
vn 0.8090 -0.5878 0.0000
vn -1.0000 -0.0000 0.0000
vn 0.3090 -0.9511 0.0000
vn 0.8090 0.5878 0.0000
vn -0.8090 0.5878 0.0000
vn -0.3090 -0.9511 0.0000
vn -0.0000 -0.0000 1.0000
vn 0.2898 -0.9571 0.0000
vn 0.0967 -0.9953 0.0000
vn -0.2384 -0.9712 0.0000
vn -0.6921 -0.7218 0.0000
vn -0.9662 -0.2579 0.0000
vn -0.9679 0.2515 0.0000
vn -0.6851 0.7285 0.0000
vn -0.2237 0.9747 0.0000
vn 0.1116 0.9938 0.0000
vn 0.3074 0.9516 0.0000
vn 0.4719 0.8817 0.0000
vn -0.4060 -0.9139 0.0000
vn -0.2544 -0.9671 0.0000
vn -0.0802 -0.9968 0.0000
vn 0.2602 -0.9656 0.0000
vn 0.7389 -0.6738 0.0000
vn 0.9692 -0.2461 0.0000
vn 0.9673 0.2538 0.0000
vn 0.6940 0.7199 0.0000
vn 0.2367 0.9716 0.0000
vn -0.0820 0.9966 0.0000
vn -0.2328 0.9725 0.0000
vn -0.3457 0.9383 0.0000
vn 0.4457 -0.8952 0.0000
usemtl Cooper.001
s off
f 27/1/1 6/2/1 7/3/1
f 53/4/2 14/5/2 13/6/2
f 16/7/3 7/3/3 6/2/3
f 3/8/3 14/5/3 4/9/3
f 20/10/3 1/11/3 10/12/3
f 17/13/3 8/14/3 7/3/3
f 14/5/3 5/15/3 4/9/3
f 11/16/3 2/17/3 1/11/3
f 18/18/3 9/19/3 8/14/3
f 5/15/3 16/7/3 6/2/3
f 12/20/3 3/8/3 2/17/3
f 19/21/3 10/12/3 9/19/3
f 60/22/4 11/16/4 20/10/4
f 57/23/5 18/18/5 17/13/5
f 14/5/6 55/24/6 15/25/6
f 51/26/1 12/20/1 11/16/1
f 58/27/7 19/21/7 18/18/7
f 55/24/8 16/7/8 15/25/8
f 52/28/9 13/6/9 12/20/9
f 59/29/10 20/10/10 19/21/10
f 56/30/11 17/13/11 16/7/11
f 30/31/3 22/32/3 25/33/3
f 24/34/7 3/8/7 4/9/7
f 22/32/8 10/12/8 1/11/8
f 28/35/9 7/3/9 8/14/9
f 5/15/10 24/34/10 4/9/10
f 21/36/11 1/11/11 2/17/11
f 29/37/2 8/14/2 9/19/2
f 26/38/4 5/15/4 6/2/4
f 23/39/5 2/17/5 3/8/5
f 30/31/6 9/19/6 10/12/6
f 36/40/1 67/41/1 37/42/1
f 44/43/2 53/4/2 43/44/2
f 37/42/12 46/45/12 36/40/12
f 33/46/12 44/43/12 43/44/12
f 31/47/12 50/48/12 40/49/12
f 38/50/12 47/51/12 37/42/12
f 35/52/12 44/43/12 34/53/12
f 32/54/12 41/55/12 31/47/12
f 39/56/12 48/57/12 38/50/12
f 35/52/12 46/45/12 45/58/12
f 32/54/12 43/44/12 42/59/12
f 40/49/12 49/60/12 39/56/12
f 41/55/4 60/22/4 50/48/4
f 48/57/5 57/23/5 47/51/5
f 45/58/6 54/61/6 44/43/6
f 42/59/1 51/26/1 41/55/1
f 49/60/7 58/27/7 48/57/7
f 46/45/8 55/24/8 45/58/8
f 42/59/9 53/4/9 52/28/9
f 49/60/10 60/22/10 59/29/10
f 47/51/11 56/30/11 46/45/11
f 64/62/12 63/63/12 69/64/12
f 33/46/7 64/62/7 34/53/7
f 40/49/8 62/65/8 31/47/8
f 37/42/9 68/66/9 38/50/9
f 34/53/10 65/67/10 35/52/10
f 31/47/11 61/68/11 32/54/11
f 38/50/2 69/64/2 39/56/2
f 35/52/4 66/69/4 36/40/4
f 32/54/5 63/63/5 33/46/5
f 39/56/6 70/70/6 40/49/6
f 118/71/3 119/72/3 78/73/3
f 118/71/3 79/74/3 119/72/3
f 118/71/3 80/75/3 79/74/3
f 77/76/3 98/77/3 118/71/3
f 98/77/3 96/78/3 118/71/3
f 96/78/3 80/75/3 118/71/3
f 96/78/3 94/79/3 80/75/3
f 94/79/3 92/80/3 80/75/3
f 92/80/3 81/81/3 80/75/3
f 77/76/3 100/82/3 98/77/3
f 117/83/3 100/82/3 77/76/3
f 117/83/3 71/84/3 100/82/3
f 117/83/3 102/85/3 71/84/3
f 115/86/3 102/85/3 117/83/3
f 115/86/3 104/87/3 102/85/3
f 113/88/3 104/87/3 115/86/3
f 108/89/3 74/90/3 109/91/3
f 73/92/3 74/90/3 108/89/3
f 113/88/3 72/93/3 104/87/3
f 72/93/3 74/90/3 73/92/3
f 113/88/3 74/90/3 72/93/3
f 113/88/3 75/94/3 74/90/3
f 111/95/3 75/94/3 113/88/3
f 111/95/3 76/96/3 75/94/3
f 91/97/12 89/98/12 90/99/12
f 120/100/12 89/98/12 91/97/12
f 121/101/12 89/98/12 120/100/12
f 97/102/12 88/103/12 89/98/12
f 95/104/12 97/102/12 89/98/12
f 121/101/12 95/104/12 89/98/12
f 93/105/12 95/104/12 121/101/12
f 82/106/12 93/105/12 121/101/12
f 122/107/12 82/106/12 121/101/12
f 99/108/12 88/103/12 97/102/12
f 99/108/12 116/109/12 88/103/12
f 83/110/12 116/109/12 99/108/12
f 101/111/12 116/109/12 83/110/12
f 101/111/12 114/112/12 116/109/12
f 103/113/12 114/112/12 101/111/12
f 103/113/12 112/114/12 114/112/12
f 85/115/12 107/116/12 84/117/12
f 85/115/12 106/118/12 107/116/12
f 105/119/12 112/114/12 103/113/12
f 85/115/12 105/119/12 106/118/12
f 85/115/12 112/114/12 105/119/12
f 110/120/12 112/114/12 85/115/12
f 110/120/12 87/121/12 112/114/12
f 86/122/12 87/121/12 110/120/12
f 94/123/13 82/106/13 92/124/13
f 96/125/14 93/126/14 94/123/14
f 98/127/15 95/128/15 96/125/15
f 100/129/16 97/130/16 98/127/16
f 71/131/17 99/132/17 100/129/17
f 102/133/18 83/134/18 71/131/18
f 104/135/19 101/136/19 102/133/19
f 72/137/20 103/138/20 104/135/20
f 73/139/21 105/140/21 72/137/21
f 108/141/22 106/142/22 73/139/22
f 109/143/23 107/144/23 108/141/23
f 74/145/7 84/146/7 109/143/7
f 75/147/24 85/148/24 74/145/24
f 76/149/25 110/150/25 75/147/25
f 111/151/26 86/152/26 76/149/26
f 113/153/27 87/154/27 111/151/27
f 115/155/28 112/156/28 113/153/28
f 115/155/29 116/157/29 114/158/29
f 77/159/30 116/157/30 117/160/30
f 118/161/31 88/162/31 77/159/31
f 78/163/32 89/164/32 118/161/32
f 119/165/33 90/166/33 78/163/33
f 79/167/34 91/168/34 119/165/34
f 80/169/35 120/170/35 79/167/35
f 81/171/7 121/172/7 80/169/7
f 81/171/36 82/173/36 122/174/36
f 27/1/1 26/38/1 6/2/1
f 53/4/2 54/61/2 14/5/2
f 16/7/3 17/13/3 7/3/3
f 3/8/3 13/6/3 14/5/3
f 20/10/3 11/16/3 1/11/3
f 17/13/3 18/18/3 8/14/3
f 14/5/3 15/25/3 5/15/3
f 11/16/3 12/20/3 2/17/3
f 18/18/3 19/21/3 9/19/3
f 5/15/3 15/25/3 16/7/3
f 12/20/3 13/6/3 3/8/3
f 19/21/3 20/10/3 10/12/3
f 60/22/4 51/26/4 11/16/4
f 57/23/5 58/27/5 18/18/5
f 14/5/6 54/61/6 55/24/6
f 51/26/1 52/28/1 12/20/1
f 58/27/7 59/29/7 19/21/7
f 55/24/8 56/30/8 16/7/8
f 52/28/9 53/4/9 13/6/9
f 59/29/10 60/22/10 20/10/10
f 56/30/11 57/23/11 17/13/11
f 22/32/3 21/36/3 23/39/3
f 23/39/3 24/34/3 22/32/3
f 24/34/3 25/33/3 22/32/3
f 25/33/3 26/38/3 27/1/3
f 27/1/3 28/35/3 25/33/3
f 28/35/3 29/37/3 25/33/3
f 29/37/3 30/31/3 25/33/3
f 24/34/7 23/39/7 3/8/7
f 22/32/8 30/31/8 10/12/8
f 28/35/9 27/1/9 7/3/9
f 5/15/10 25/33/10 24/34/10
f 21/36/11 22/32/11 1/11/11
f 29/37/2 28/35/2 8/14/2
f 26/38/4 25/33/4 5/15/4
f 23/39/5 21/36/5 2/17/5
f 30/31/6 29/37/6 9/19/6
f 36/40/1 66/69/1 67/41/1
f 44/43/2 54/61/2 53/4/2
f 37/42/12 47/51/12 46/45/12
f 33/46/12 34/53/12 44/43/12
f 31/47/12 41/55/12 50/48/12
f 38/50/12 48/57/12 47/51/12
f 35/52/12 45/58/12 44/43/12
f 32/54/12 42/59/12 41/55/12
f 39/56/12 49/60/12 48/57/12
f 35/52/12 36/40/12 46/45/12
f 32/54/12 33/46/12 43/44/12
f 40/49/12 50/48/12 49/60/12
f 41/55/4 51/26/4 60/22/4
f 48/57/5 58/27/5 57/23/5
f 45/58/6 55/24/6 54/61/6
f 42/59/1 52/28/1 51/26/1
f 49/60/7 59/29/7 58/27/7
f 46/45/8 56/30/8 55/24/8
f 42/59/9 43/44/9 53/4/9
f 49/60/10 50/48/10 60/22/10
f 47/51/11 57/23/11 56/30/11
f 63/63/12 61/68/12 62/65/12
f 62/65/12 70/70/12 63/63/12
f 70/70/12 69/64/12 63/63/12
f 69/64/12 68/66/12 67/41/12
f 67/41/12 66/69/12 69/64/12
f 66/69/12 65/67/12 69/64/12
f 65/67/12 64/62/12 69/64/12
f 33/46/7 63/63/7 64/62/7
f 40/49/8 70/70/8 62/65/8
f 37/42/9 67/41/9 68/66/9
f 34/53/10 64/62/10 65/67/10
f 31/47/11 62/65/11 61/68/11
f 38/50/2 68/66/2 69/64/2
f 35/52/4 65/67/4 66/69/4
f 32/54/5 61/68/5 63/63/5
f 39/56/6 69/64/6 70/70/6
f 94/123/13 93/126/13 82/106/13
f 96/125/14 95/128/14 93/126/14
f 98/127/15 97/130/15 95/128/15
f 100/129/16 99/132/16 97/130/16
f 71/131/17 83/134/17 99/132/17
f 102/133/18 101/136/18 83/134/18
f 104/135/19 103/138/19 101/136/19
f 72/137/20 105/140/20 103/138/20
f 73/139/21 106/142/21 105/140/21
f 108/141/22 107/144/22 106/142/22
f 109/143/23 84/146/23 107/144/23
f 74/145/7 85/148/7 84/146/7
f 75/147/24 110/150/24 85/148/24
f 76/149/25 86/152/25 110/150/25
f 111/151/26 87/154/26 86/152/26
f 113/153/27 112/156/27 87/154/27
f 115/155/28 114/158/28 112/156/28
f 115/155/29 117/160/29 116/157/29
f 77/159/30 88/162/30 116/157/30
f 118/161/31 89/164/31 88/162/31
f 78/163/32 90/166/32 89/164/32
f 119/165/33 91/168/33 90/166/33
f 79/167/34 120/170/34 91/168/34
f 80/169/35 121/172/35 120/170/35
f 81/171/7 122/174/7 121/172/7
f 81/171/36 92/175/36 82/173/36
