# Blender v2.90.0 OBJ File: 'GoldCoin.blend'
# www.blender.org
mtllib GoldCoin.mtl
o GoldCoin_Circle.003
v 0.026283 2.610089 -0.253582
v 1.589022 2.102325 -0.253582
v 2.554848 0.772979 -0.253582
v 2.554847 -0.870183 -0.253582
v 1.589022 -2.199528 -0.253582
v 0.026282 -2.707293 -0.253582
v -1.536457 -2.199528 -0.253582
v -2.502283 -0.870183 -0.253582
v -2.502283 0.772979 -0.253582
v -1.536456 2.102325 -0.253582
v 0.026283 3.301816 -0.253582
v 1.995609 2.661943 -0.253582
v 3.212720 0.986734 -0.253582
v 3.212719 -1.083938 -0.253582
v 1.995609 -2.759147 -0.253582
v 0.026282 -3.399020 -0.253582
v -1.943044 -2.759146 -0.253582
v -3.160154 -1.083938 -0.253582
v -3.160154 0.986735 -0.253582
v -1.943043 2.661944 -0.253582
v 1.589022 2.102325 -0.009335
v 0.026283 2.610089 -0.009335
v 2.554848 0.772979 -0.009335
v 2.554847 -0.870183 -0.009335
v 1.589022 -2.199528 -0.009335
v 0.026282 -2.707293 -0.009334
v -1.536457 -2.199528 -0.009334
v -2.502283 -0.870183 -0.009334
v -2.502283 0.772979 -0.009334
v -1.536456 2.102325 -0.009334
v 0.026283 2.610089 0.250745
v 1.589022 2.102325 0.250745
v 2.554848 0.772979 0.250745
v 2.554847 -0.870183 0.250745
v 1.589022 -2.199528 0.250745
v 0.026282 -2.707293 0.250745
v -1.536457 -2.199528 0.250744
v -2.502283 -0.870183 0.250744
v -2.502283 0.772979 0.250745
v -1.536456 2.102325 0.250745
v 0.026283 3.301816 0.250745
v 1.995609 2.661943 0.250745
v 3.212720 0.986734 0.250745
v 3.212719 -1.083938 0.250745
v 1.995609 -2.759147 0.250745
v 0.026282 -3.399020 0.250745
v -1.943044 -2.759146 0.250744
v -3.160154 -1.083938 0.250744
v -3.160154 0.986735 0.250744
v -1.943043 2.661944 0.250745
v 0.026283 3.301816 -0.001419
v 1.995609 2.661943 -0.001419
v 3.212720 0.986734 -0.001419
v 3.212719 -1.083938 -0.001419
v 1.995609 -2.759147 -0.001419
v 0.026282 -3.399020 -0.001419
v -1.943044 -2.759146 -0.001419
v -3.160154 -1.083938 -0.001419
v -3.160154 0.986735 -0.001419
v -1.943043 2.661944 -0.001419
v 1.589022 2.102325 0.006498
v 0.026283 2.610089 0.006498
v 2.554848 0.772979 0.006498
v 2.554847 -0.870183 0.006498
v 1.589022 -2.199528 0.006497
v 0.026282 -2.707293 0.006497
v -1.536457 -2.199528 0.006497
v -2.502283 -0.870183 0.006497
v -2.502283 0.772979 0.006497
v -1.536456 2.102325 0.006497
v 0.829189 -1.303380 -0.320425
v 1.638990 0.080372 -0.320425
v 1.415068 0.913691 -0.320425
v 0.816919 1.492412 -0.320425
v -0.045029 1.709177 -0.320425
v -0.389092 1.686001 -0.320425
v -0.736223 1.603521 -0.320425
v -1.163107 1.442311 -0.320425
v -1.163107 0.986798 -0.320425
v -0.035827 1.295074 -0.320425
v 1.011871 0.708173 -0.320425
v 1.010678 -0.525616 -0.320425
v 0.564879 -0.943979 -0.320425
v -0.095641 -1.097521 -0.320425
v -0.332515 -1.080650 -0.320425
v -0.173861 -0.329130 -0.320425
v -0.442602 -1.485721 0.323735
v -0.031225 -1.511624 0.323735
v 1.638990 0.080372 0.323735
v 1.415068 0.913691 0.323735
v 0.816919 1.492412 0.323735
v -0.045029 1.709177 0.323735
v -0.736223 1.603521 0.323735
v -1.163107 1.442311 0.323735
v -0.413972 1.260140 0.323735
v 0.580557 1.135057 0.323735
v 0.564879 -0.943979 0.323735
v -0.332515 -1.080650 0.323735
v -0.776611 -0.973290 0.323735
v -0.173861 -0.329130 0.323735
v -0.173861 0.075771 0.323735
v -1.227523 -1.253960 0.323735
v -0.828416 -1.402560 0.323735
v -0.828416 -1.402560 -0.320425
v -0.442602 -1.485721 -0.320425
v -0.031225 -1.511624 -0.320425
v 0.829189 -1.303380 0.323735
v 1.419669 -0.741358 0.323735
v 1.419669 -0.741358 -0.320425
v -0.389092 1.686001 0.323735
v -1.163107 0.986798 0.323735
v -0.791096 1.156699 0.323735
v -0.791096 1.156699 -0.320425
v -0.413972 1.260140 -0.320425
v -0.035827 1.295074 0.323735
v 0.580557 1.135057 -0.320425
v 1.011871 0.708173 0.323735
v 1.174275 0.094176 0.323735
v 1.174275 0.094176 -0.320425
v 1.010678 -0.525616 0.323735
v -0.095641 -1.097521 0.323735
v -0.558142 -1.036172 0.323735
v -0.558142 -1.036172 -0.320425
v -0.776611 -0.973290 -0.320425
v -0.776611 -0.329130 0.323735
v -0.776611 -0.329130 -0.320425
v -0.173861 0.075771 -0.320425
v -1.227523 0.075771 0.323735
v -1.227523 0.075771 -0.320425
v -1.227523 -1.253960 -0.320425
vt 0.000000 0.000000
vt 0.000000 0.000000
vt 0.000000 0.000000
vt 0.000000 0.000000
vt 0.000000 0.000000
vt 0.000000 0.000000
vt 0.000000 0.000000
vt 0.000000 0.000000
vt 0.000000 0.000000
vt 0.000000 0.000000
vt 0.000000 0.000000
vt 0.000000 0.000000
vt 0.000000 0.000000
vt 0.000000 0.000000
vt 0.000000 0.000000
vt 0.000000 0.000000
vt 0.000000 0.000000
vt 0.000000 0.000000
vt 0.000000 0.000000
vt 0.000000 0.000000
vt 0.000000 0.000000
vt 0.000000 0.000000
vt 0.000000 0.000000
vt 0.000000 0.000000
vt 0.000000 0.000000
vt 0.000000 0.000000
vt 0.000000 0.000000
vt 0.000000 0.000000
vt 0.000000 0.000000
vt 0.000000 0.000000
vt 0.000000 0.000000
vt 0.000000 0.000000
vt 0.000000 0.000000
vt 0.000000 0.000000
vt 0.000000 0.000000
vt 0.000000 0.000000
vt 0.000000 0.000000
vt 0.000000 0.000000
vt 0.000000 0.000000
vt 0.000000 0.000000
vt 0.000000 0.000000
vt 0.000000 0.000000
vt 0.000000 0.000000
vt 0.000000 0.000000
vt 0.000000 0.000000
vt 0.000000 0.000000
vt 0.000000 0.000000
vt 0.000000 0.000000
vt 0.000000 0.000000
vt 0.000000 0.000000
vt 0.000000 0.000000
vt 0.000000 0.000000
vt 0.000000 0.000000
vt 0.000000 0.000000
vt 0.000000 0.000000
vt 0.000000 0.000000
vt 0.000000 0.000000
vt 0.000000 0.000000
vt 0.000000 0.000000
vt 0.000000 0.000000
vt 0.000000 0.000000
vt 0.000000 0.000000
vt 0.000000 0.000000
vt 0.000000 0.000000
vt 0.000000 0.000000
vt 0.000000 0.000000
vt 0.000000 0.000000
vt 0.000000 0.000000
vt 0.000000 0.000000
vt 0.000000 0.000000
vt 0.241379 0.000000
vt 0.310345 0.000000
vt 0.275862 0.000000
vt 0.344828 0.000000
vt 0.379310 0.000000
vt 0.206897 0.000000
vt 0.551724 0.000000
vt 0.517241 0.000000
vt 0.482759 0.000000
vt 0.448276 0.000000
vt 0.413793 0.000000
vt 0.586207 0.000000
vt 0.172414 0.000000
vt 0.620690 0.000000
vt 0.655172 0.000000
vt 0.137931 0.000000
vt 0.896552 0.000000
vt 0.965517 0.000000
vt 0.931035 0.000000
vt 0.862069 0.000000
vt 1.000000 0.000000
vt 0.827586 0.000000
vt 0.689655 0.000000
vt 0.103448 0.000000
vt 0.724138 0.000000
vt 0.793103 0.000000
vt 0.758621 0.000000
vt 0.000000 0.000000
vt 0.068966 0.000000
vt 0.034483 0.000000
vt 0.310345 0.000000
vt 0.241379 0.000000
vt 0.275862 0.000000
vt 0.344828 0.000000
vt 0.379310 0.000000
vt 0.551724 0.000000
vt 0.206897 0.000000
vt 0.517241 0.000000
vt 0.482759 0.000000
vt 0.448276 0.000000
vt 0.413793 0.000000
vt 0.586207 0.000000
vt 0.172414 0.000000
vt 0.620690 0.000000
vt 0.655172 0.000000
vt 0.137931 0.000000
vt 0.965517 0.000000
vt 0.896552 0.000000
vt 0.931035 0.000000
vt 0.862069 0.000000
vt 1.000000 0.000000
vt 0.827586 0.000000
vt 0.689655 0.000000
vt 0.103448 0.000000
vt 0.724138 0.000000
vt 0.793103 0.000000
vt 0.758621 0.000000
vt 0.000000 0.000000
vt 0.068966 0.000000
vt 0.034483 0.000000
vt 0.033333 1.000000
vt 0.000000 1.000000
vt 0.066667 1.000000
vt 0.033333 0.000000
vt 0.100000 1.000000
vt 0.066667 0.000000
vt 0.133333 1.000000
vt 0.100000 0.000000
vt 0.166667 1.000000
vt 0.133333 0.000000
vt 0.200000 1.000000
vt 0.166667 0.000000
vt 0.233333 0.000000
vt 0.200000 0.000000
vt 0.266667 1.000000
vt 0.233333 1.000000
vt 0.300000 1.000000
vt 0.266667 0.000000
vt 0.333333 1.000000
vt 0.300000 0.000000
vt 0.366667 1.000000
vt 0.333333 0.000000
vt 0.400000 1.000000
vt 0.366667 0.000000
vt 0.433333 1.000000
vt 0.400000 0.000000
vt 0.466667 1.000000
vt 0.433333 0.000000
vt 0.500000 1.000000
vt 0.466667 0.000000
vt 0.533333 1.000000
vt 0.500000 0.000000
vt 0.566667 1.000000
vt 0.533333 0.000000
vt 0.600000 1.000000
vt 0.566667 0.000000
vt 0.633333 1.000000
vt 0.600000 0.000000
vt 0.666667 1.000000
vt 0.633333 0.000000
vt 0.700000 1.000000
vt 0.666667 0.000000
vt 0.733333 1.000000
vt 0.700000 0.000000
vt 0.766667 1.000000
vt 0.733333 0.000000
vt 0.800000 1.000000
vt 0.766667 0.000000
vt 0.833333 0.000000
vt 0.800000 0.000000
vt 0.866667 1.000000
vt 0.833333 1.000000
vt 0.900000 1.000000
vt 0.866667 0.000000
vt 0.933333 1.000000
vt 0.900000 0.000000
vt 0.966667 0.000000
vt 0.933333 0.000000
vt 1.000000 1.000000
vt 0.966667 1.000000
vt 1.000000 0.000000
vn 0.3090 0.9511 0.0000
vn 1.0000 -0.0000 -0.0000
vn -0.0000 -0.0000 -1.0000
vn -0.3090 0.9511 0.0000
vn -0.8090 -0.5878 0.0000
vn 0.8090 -0.5878 -0.0000
vn -1.0000 0.0000 0.0000
vn 0.3090 -0.9511 0.0000
vn 0.8090 0.5878 0.0000
vn -0.8090 0.5878 0.0000
vn -0.3090 -0.9511 -0.0000
vn -0.0000 -0.0000 1.0000
vn -0.2107 -0.9775 0.0000
vn -0.0628 -0.9980 0.0000
vn 0.2352 -0.9719 0.0000
vn 0.6894 -0.7243 0.0000
vn 0.9662 -0.2579 0.0000
vn 0.9657 0.2595 0.0000
vn 0.6953 0.7187 0.0000
vn 0.2439 0.9698 0.0000
vn -0.0672 0.9977 0.0000
vn -0.2312 0.9729 0.0000
vn -0.3533 0.9355 0.0000
vn 0.4154 -0.9096 0.0000
vn 0.2645 -0.9644 0.0000
vn 0.0920 -0.9958 0.0000
vn -0.2513 -0.9679 0.0000
vn -0.7034 -0.7107 0.0000
vn -0.9668 -0.2557 0.0000
vn -0.9669 0.2552 0.0000
vn -0.6843 0.7292 0.0000
vn -0.2264 0.9740 0.0000
vn 0.0710 0.9975 0.0000
vn 0.1934 0.9811 0.0000
vn 0.2766 0.9610 0.0000
vn 0.0000 -1.0000 0.0000
vn 0.0000 1.0000 -0.0000
vn -0.3489 -0.9371 0.0000
usemtl Gold
s off
f 7/1/1 26/2/1 6/3/1
f 53/4/2 14/5/2 13/6/2
f 16/7/3 7/1/3 6/3/3
f 13/6/3 4/8/3 3/9/3
f 20/10/3 1/11/3 10/12/3
f 17/13/3 8/14/3 7/1/3
f 14/5/3 5/15/3 4/8/3
f 11/16/3 2/17/3 1/11/3
f 8/14/3 19/18/3 9/19/3
f 5/15/3 16/7/3 6/3/3
f 12/20/3 3/9/3 2/17/3
f 9/19/3 20/10/3 10/12/3
f 60/21/4 11/16/4 20/10/4
f 57/22/5 18/23/5 17/13/5
f 54/24/6 15/25/6 14/5/6
f 51/26/1 12/20/1 11/16/1
f 18/23/7 59/27/7 19/18/7
f 55/28/8 16/7/8 15/25/8
f 12/20/9 53/4/9 13/6/9
f 59/27/10 20/10/10 19/18/10
f 56/29/11 17/13/11 16/7/11
f 25/30/3 27/31/3 29/32/3
f 24/33/7 3/9/7 4/8/7
f 22/34/8 10/12/8 1/11/8
f 28/35/9 7/1/9 8/14/9
f 5/15/10 24/33/10 4/8/10
f 21/36/11 1/11/11 2/17/11
f 29/32/2 8/14/2 9/19/2
f 26/2/4 5/15/4 6/3/4
f 23/37/5 2/17/5 3/9/5
f 30/38/6 9/19/6 10/12/6
f 37/39/1 66/40/1 67/41/1
f 44/42/2 53/4/2 43/43/2
f 37/39/12 46/44/12 36/45/12
f 33/46/12 44/42/12 43/43/12
f 31/47/12 50/48/12 40/49/12
f 38/50/12 47/51/12 37/39/12
f 35/52/12 44/42/12 34/53/12
f 32/54/12 41/55/12 31/47/12
f 38/50/12 49/56/12 48/57/12
f 35/52/12 46/44/12 45/58/12
f 33/46/12 42/59/12 32/54/12
f 40/49/12 49/56/12 39/60/12
f 41/55/4 60/21/4 50/48/4
f 48/57/5 57/22/5 47/51/5
f 45/58/6 54/24/6 44/42/6
f 42/59/1 51/26/1 41/55/1
f 48/57/7 59/27/7 58/61/7
f 46/44/8 55/28/8 45/58/8
f 43/43/9 52/62/9 42/59/9
f 50/48/10 59/27/10 49/56/10
f 47/51/11 56/29/11 46/44/11
f 69/63/12 65/64/12 63/65/12
f 33/46/7 64/66/7 34/53/7
f 40/49/8 62/67/8 31/47/8
f 37/39/9 68/68/9 38/50/9
f 35/52/10 64/66/10 65/64/10
f 31/47/11 61/69/11 32/54/11
f 38/50/2 69/63/2 39/60/2
f 35/52/4 66/40/4 36/45/4
f 32/54/5 63/65/5 33/46/5
f 39/60/6 70/70/6 40/49/6
f 74/71/3 76/72/3 75/73/3
f 74/71/3 77/74/3 76/72/3
f 74/71/3 78/75/3 77/74/3
f 73/76/3 116/77/3 74/71/3
f 116/77/3 80/78/3 74/71/3
f 80/78/3 78/75/3 74/71/3
f 80/78/3 114/79/3 78/75/3
f 114/79/3 113/80/3 78/75/3
f 113/80/3 79/81/3 78/75/3
f 73/76/3 81/82/3 116/77/3
f 72/83/3 81/82/3 73/76/3
f 72/83/3 119/84/3 81/82/3
f 72/83/3 82/85/3 119/84/3
f 109/86/3 82/85/3 72/83/3
f 86/87/3 129/88/3 127/89/3
f 86/87/3 126/90/3 129/88/3
f 126/90/3 130/91/3 129/88/3
f 124/92/3 130/91/3 126/90/3
f 109/86/3 83/93/3 82/85/3
f 71/94/3 83/93/3 109/86/3
f 71/94/3 84/95/3 83/93/3
f 123/96/3 130/91/3 124/92/3
f 85/97/3 130/91/3 123/96/3
f 84/95/3 130/91/3 85/97/3
f 71/94/3 130/91/3 84/95/3
f 71/94/3 104/98/3 130/91/3
f 106/99/3 104/98/3 71/94/3
f 106/99/3 105/100/3 104/98/3
f 110/101/12 91/102/12 92/103/12
f 93/104/12 91/102/12 110/101/12
f 94/105/12 91/102/12 93/104/12
f 96/106/12 90/107/12 91/102/12
f 115/108/12 96/106/12 91/102/12
f 94/105/12 115/108/12 91/102/12
f 95/109/12 115/108/12 94/105/12
f 112/110/12 95/109/12 94/105/12
f 111/111/12 112/110/12 94/105/12
f 117/112/12 90/107/12 96/106/12
f 117/112/12 89/113/12 90/107/12
f 118/114/12 89/113/12 117/112/12
f 120/115/12 89/113/12 118/114/12
f 120/115/12 108/116/12 89/113/12
f 128/117/12 100/118/12 101/119/12
f 125/120/12 100/118/12 128/117/12
f 102/121/12 125/120/12 128/117/12
f 102/121/12 99/122/12 125/120/12
f 97/123/12 108/116/12 120/115/12
f 97/123/12 107/124/12 108/116/12
f 121/125/12 107/124/12 97/123/12
f 102/121/12 122/126/12 99/122/12
f 102/121/12 98/127/12 122/126/12
f 102/121/12 121/125/12 98/127/12
f 102/121/12 107/124/12 121/125/12
f 103/128/12 107/124/12 102/121/12
f 103/128/12 88/129/12 107/124/12
f 87/130/12 88/129/12 103/128/12
f 105/131/13 103/128/13 104/132/13
f 106/133/14 87/134/14 105/131/14
f 71/135/15 88/136/15 106/133/15
f 109/137/16 107/138/16 71/135/16
f 72/139/17 108/140/17 109/137/17
f 73/141/18 89/142/18 72/139/18
f 73/141/19 91/143/19 90/144/19
f 75/145/20 91/143/20 74/146/20
f 76/147/21 92/148/21 75/145/21
f 77/149/22 110/150/22 76/147/22
f 78/151/23 93/152/23 77/149/23
f 79/153/7 94/154/7 78/151/7
f 113/155/24 111/156/24 79/153/24
f 114/157/25 112/158/25 113/155/25
f 80/159/26 95/160/26 114/157/26
f 116/161/27 115/162/27 80/159/27
f 81/163/28 96/164/28 116/161/28
f 119/165/29 117/166/29 81/163/29
f 82/167/30 118/168/30 119/165/30
f 83/169/31 120/170/31 82/167/31
f 84/171/32 97/172/32 83/169/32
f 85/173/33 121/174/33 84/171/33
f 123/175/34 98/176/34 85/173/34
f 124/177/35 122/178/35 123/175/35
f 124/177/2 125/179/2 99/180/2
f 86/181/36 125/179/36 126/182/36
f 127/183/2 100/184/2 86/181/2
f 129/185/37 101/186/37 127/183/37
f 129/185/7 102/187/7 128/188/7
f 104/189/38 102/187/38 130/190/38
f 7/1/1 27/31/1 26/2/1
f 53/4/2 54/24/2 14/5/2
f 16/7/3 17/13/3 7/1/3
f 13/6/3 14/5/3 4/8/3
f 20/10/3 11/16/3 1/11/3
f 17/13/3 18/23/3 8/14/3
f 14/5/3 15/25/3 5/15/3
f 11/16/3 12/20/3 2/17/3
f 8/14/3 18/23/3 19/18/3
f 5/15/3 15/25/3 16/7/3
f 12/20/3 13/6/3 3/9/3
f 9/19/3 19/18/3 20/10/3
f 60/21/4 51/26/4 11/16/4
f 57/22/5 58/61/5 18/23/5
f 54/24/6 55/28/6 15/25/6
f 51/26/1 52/62/1 12/20/1
f 18/23/7 58/61/7 59/27/7
f 55/28/8 56/29/8 16/7/8
f 12/20/9 52/62/9 53/4/9
f 59/27/10 60/21/10 20/10/10
f 56/29/11 57/22/11 17/13/11
f 22/34/3 21/36/3 23/37/3
f 23/37/3 24/33/3 25/30/3
f 25/30/3 26/2/3 27/31/3
f 27/31/3 28/35/3 29/32/3
f 29/32/3 30/38/3 22/34/3
f 22/34/3 23/37/3 29/32/3
f 23/37/3 25/30/3 29/32/3
f 24/33/7 23/37/7 3/9/7
f 22/34/8 30/38/8 10/12/8
f 28/35/9 27/31/9 7/1/9
f 5/15/10 25/30/10 24/33/10
f 21/36/11 22/34/11 1/11/11
f 29/32/2 28/35/2 8/14/2
f 26/2/4 25/30/4 5/15/4
f 23/37/5 21/36/5 2/17/5
f 30/38/6 29/32/6 9/19/6
f 37/39/1 36/45/1 66/40/1
f 44/42/2 54/24/2 53/4/2
f 37/39/12 47/51/12 46/44/12
f 33/46/12 34/53/12 44/42/12
f 31/47/12 41/55/12 50/48/12
f 38/50/12 48/57/12 47/51/12
f 35/52/12 45/58/12 44/42/12
f 32/54/12 42/59/12 41/55/12
f 38/50/12 39/60/12 49/56/12
f 35/52/12 36/45/12 46/44/12
f 33/46/12 43/43/12 42/59/12
f 40/49/12 50/48/12 49/56/12
f 41/55/4 51/26/4 60/21/4
f 48/57/5 58/61/5 57/22/5
f 45/58/6 55/28/6 54/24/6
f 42/59/1 52/62/1 51/26/1
f 48/57/7 49/56/7 59/27/7
f 46/44/8 56/29/8 55/28/8
f 43/43/9 53/4/9 52/62/9
f 50/48/10 60/21/10 59/27/10
f 47/51/11 57/22/11 56/29/11
f 63/65/12 61/69/12 62/67/12
f 62/67/12 70/70/12 63/65/12
f 70/70/12 69/63/12 63/65/12
f 69/63/12 68/68/12 67/41/12
f 67/41/12 66/40/12 69/63/12
f 66/40/12 65/64/12 69/63/12
f 65/64/12 64/66/12 63/65/12
f 33/46/7 63/65/7 64/66/7
f 40/49/8 70/70/8 62/67/8
f 37/39/9 67/41/9 68/68/9
f 35/52/10 34/53/10 64/66/10
f 31/47/11 62/67/11 61/69/11
f 38/50/2 68/68/2 69/63/2
f 35/52/4 65/64/4 66/40/4
f 32/54/5 61/69/5 63/65/5
f 39/60/6 69/63/6 70/70/6
f 105/131/13 87/134/13 103/128/13
f 106/133/14 88/136/14 87/134/14
f 71/135/15 107/138/15 88/136/15
f 109/137/16 108/140/16 107/138/16
f 72/139/17 89/142/17 108/140/17
f 73/141/18 90/144/18 89/142/18
f 73/141/19 74/146/19 91/143/19
f 75/145/20 92/148/20 91/143/20
f 76/147/21 110/150/21 92/148/21
f 77/149/22 93/152/22 110/150/22
f 78/151/23 94/154/23 93/152/23
f 79/153/7 111/156/7 94/154/7
f 113/155/24 112/158/24 111/156/24
f 114/157/25 95/160/25 112/158/25
f 80/159/26 115/162/26 95/160/26
f 116/161/27 96/164/27 115/162/27
f 81/163/28 117/166/28 96/164/28
f 119/165/29 118/168/29 117/166/29
f 82/167/30 120/170/30 118/168/30
f 83/169/31 97/172/31 120/170/31
f 84/171/32 121/174/32 97/172/32
f 85/173/33 98/176/33 121/174/33
f 123/175/34 122/178/34 98/176/34
f 124/177/35 99/180/35 122/178/35
f 124/177/2 126/182/2 125/179/2
f 86/181/36 100/184/36 125/179/36
f 127/183/2 101/186/2 100/184/2
f 129/185/37 128/188/37 101/186/37
f 129/185/7 130/190/7 102/187/7
f 104/189/38 103/191/38 102/187/38
