# Blender v2.90.0 OBJ File: 'GoldBar.blend'
# www.blender.org
mtllib GoldBar.mtl
o GoldBar_Cube.001
v -1.555570 -1.182818 3.843235
v -1.610226 -1.182818 3.677626
v -1.318782 0.774141 3.587745
v -1.313822 0.817182 3.416613
v -1.373417 0.774312 3.422115
v -1.610226 -1.182818 -3.677627
v -1.555570 -1.182818 -3.843235
v -1.313822 0.817182 -3.416613
v -1.318782 0.774141 -3.587746
v -1.373417 0.774312 -3.422115
v 1.610226 -1.182818 3.677626
v 1.555570 -1.182818 3.843235
v 1.313822 0.817182 3.416613
v 1.318782 0.774141 3.587745
v 1.373417 0.774312 3.422115
v 1.555570 -1.182818 -3.843235
v 1.610226 -1.182818 -3.677627
v 1.313822 0.817182 -3.416613
v 1.373417 0.774312 -3.422115
v 1.318782 0.774141 -3.587746
vt 0.619620 0.754823
vt 0.375000 0.995757
vt 0.375000 0.754243
vt 0.375000 0.505386
vt 0.619641 0.744295
vt 0.375000 0.744614
vt 0.870029 0.505776
vt 0.629971 0.744224
vt 0.629971 0.505776
vt 0.619641 0.005705
vt 0.375000 0.244614
vt 0.375000 0.005386
vt 0.619620 0.254823
vt 0.375000 0.495757
vt 0.375000 0.254243
vt 0.870483 0.750196
vt 0.870029 0.750000
vt 0.875000 0.744416
vt 0.870483 0.500000
vt 0.875000 0.505584
vt 0.629517 0.750000
vt 0.625000 0.744416
vt 0.625000 0.505584
vt 0.629517 0.500000
vt 0.620133 0.000000
vt 0.375513 0.000000
vt 0.870029 0.744224
vt 0.619641 0.244295
vt 0.619620 0.495177
vt 0.619641 0.505705
vt 0.870483 0.750000
vt 0.370757 0.750000
vt 0.129243 0.750000
vt 0.125000 0.744614
vt 0.619620 0.995177
vt 0.125000 0.505386
vt 0.129243 0.500000
vt 0.370757 0.500000
vn 0.0000 0.1295 0.9916
vn 0.9928 0.1201 0.0000
vn 0.0000 1.0000 0.0000
vn -0.9928 0.1201 0.0000
vn 0.0000 0.1295 -0.9916
vn -0.5623 0.8056 0.1863
vn -0.5623 0.8056 -0.1863
vn 0.5623 0.8056 0.1863
vn 0.5623 0.8056 -0.1863
vn -0.9383 0.1540 0.3097
vn -0.5840 0.8118 0.0000
vn -0.9383 0.1540 -0.3097
vn 0.0000 0.9698 -0.2439
vn 0.9383 0.1540 -0.3097
vn 0.5840 0.8118 0.0000
vn 0.9383 0.1540 0.3097
vn 0.0000 0.9698 0.2439
vn 0.0000 -1.0000 -0.0000
usemtl Gold.001
s off
f 14/1/1 1/2/1 12/3/1
f 17/4/2 15/5/2 11/6/2
f 8/7/3 13/8/3 18/9/3
f 5/10/4 6/11/4 2/12/4
f 9/13/5 16/14/5 7/15/5
f 3/16/6 4/17/6 5/18/6
f 8/7/7 9/19/7 10/20/7
f 13/8/8 14/21/8 15/22/8
f 18/9/9 19/23/9 20/24/9
f 3/25/10 2/12/10 1/26/10
f 8/7/11 5/18/11 4/27/11
f 9/13/12 6/11/12 10/28/12
f 8/7/13 20/24/13 9/19/13
f 17/4/14 20/29/14 19/30/14
f 13/8/15 19/30/15 18/9/15
f 14/1/16 11/6/16 15/5/16
f 13/8/17 3/31/17 14/21/17
f 12/32/18 1/33/18 2/34/18
f 14/1/1 3/35/1 1/2/1
f 17/4/2 19/30/2 15/5/2
f 8/7/3 4/27/3 13/8/3
f 5/10/4 10/28/4 6/11/4
f 9/13/5 20/29/5 16/14/5
f 3/25/10 5/10/10 2/12/10
f 8/7/11 10/20/11 5/18/11
f 9/13/12 7/15/12 6/11/12
f 8/7/13 18/9/13 20/24/13
f 17/4/14 16/14/14 20/29/14
f 13/8/15 15/5/15 19/30/15
f 14/1/16 12/3/16 11/6/16
f 13/8/17 4/27/17 3/31/17
f 2/34/18 6/36/18 17/4/18
f 6/36/18 7/37/18 17/4/18
f 7/37/18 16/38/18 17/4/18
f 17/4/18 11/6/18 2/34/18
f 11/6/18 12/32/18 2/34/18
