# Blender v2.90.0 OBJ File: 'Jewel_03.blend'
# www.blender.org
mtllib Jewel_03.mtl
o Jewel_03_Circle.001
v 0.000000 -0.297787 -3.281988
v -1.929104 -0.297787 -2.655184
v -3.121356 -0.297787 -1.014190
v -3.121356 -0.297787 1.014190
v -1.929104 -0.297787 2.655185
v 0.000000 -0.297787 3.281988
v 1.929105 -0.297787 2.655184
v 3.121356 -0.297787 1.014190
v 3.121356 -0.297787 -1.014191
v 1.929103 -0.297787 -2.655185
v 0.000000 -3.932184 -0.000000
v -1.383298 0.691005 -1.903946
v 0.000000 0.691005 -2.353407
v -2.238223 0.691005 -0.727243
v -2.238223 0.691005 0.727243
v -1.383298 0.691005 1.903946
v 0.000000 0.691005 2.353407
v 1.383298 0.691005 1.903946
v 2.238223 0.691005 0.727243
v 2.238223 0.691005 -0.727243
v 1.383297 0.691005 -1.903947
vt 0.000000 0.000000
vt 0.000000 0.000000
vt 0.000000 0.000000
vt 0.000000 0.000000
vt 0.000000 0.000000
vt 0.000000 0.000000
vt 0.000000 0.000000
vt 0.000000 0.000000
vt 0.000000 0.000000
vt 0.000000 0.000000
vt 0.000000 0.000000
vt 0.000000 0.000000
vt 0.000000 0.000000
vt 0.000000 0.000000
vt 0.000000 0.000000
vt 0.000000 0.000000
vt 0.000000 0.000000
vt 0.000000 0.000000
vt 0.000000 0.000000
vt 0.000000 0.000000
vt 0.000000 0.000000
vn 0.6034 0.6661 -0.4384
vn 0.6137 -0.6515 -0.4459
vn 0.2344 -0.6515 0.7215
vn -0.7586 -0.6515 0.0000
vn 0.2344 -0.6515 -0.7215
vn 0.6137 -0.6515 0.4459
vn -0.6137 -0.6515 0.4459
vn -0.2344 -0.6515 -0.7215
vn 0.7586 -0.6515 0.0000
vn -0.2344 -0.6515 0.7215
vn -0.6137 -0.6515 -0.4459
vn 0.0000 1.0000 0.0000
vn 0.2305 0.6661 0.7093
vn -0.7458 0.6661 0.0000
vn 0.2305 0.6661 -0.7093
vn 0.6034 0.6661 0.4384
vn -0.6034 0.6661 0.4384
vn -0.2305 0.6661 -0.7093
vn 0.7458 0.6661 0.0000
vn -0.2305 0.6661 0.7093
vn -0.6034 0.6661 -0.4384
usemtl Yellow_jewel_03
s off
f 10/1/1 21/2/1 20/3/1
f 9/4/2 11/5/2 10/1/2
f 6/6/3 11/5/3 7/7/3
f 3/8/4 11/5/4 4/9/4
f 10/1/5 11/5/5 1/10/5
f 7/7/6 11/5/6 8/11/6
f 4/9/7 11/5/7 5/12/7
f 1/10/8 11/5/8 2/13/8
f 8/11/9 11/5/9 9/4/9
f 5/12/10 11/5/10 6/6/10
f 2/13/11 11/5/11 3/8/11
f 13/14/12 16/15/12 20/3/12
f 7/7/13 18/16/13 17/17/13
f 3/8/14 4/9/14 15/18/14
f 1/10/15 13/14/15 21/2/15
f 7/7/16 8/11/16 19/19/16
f 4/9/17 5/12/17 16/15/17
f 1/10/18 2/13/18 12/20/18
f 9/4/19 20/3/19 19/19/19
f 5/12/20 6/6/20 17/17/20
f 2/13/21 3/8/21 14/21/21
f 10/1/1 20/3/1 9/4/1
f 14/21/12 13/14/12 12/20/12
f 13/14/12 20/3/12 21/2/12
f 20/3/12 18/16/12 19/19/12
f 18/16/12 20/3/12 17/17/12
f 17/17/12 20/3/12 16/15/12
f 16/15/12 14/21/12 15/18/12
f 14/21/12 16/15/12 13/14/12
f 7/7/13 17/17/13 6/6/13
f 3/8/14 15/18/14 14/21/14
f 1/10/15 21/2/15 10/1/15
f 7/7/16 19/19/16 18/16/16
f 4/9/17 16/15/17 15/18/17
f 1/10/18 12/20/18 13/14/18
f 9/4/19 19/19/19 8/11/19
f 5/12/20 17/17/20 16/15/20
f 2/13/21 14/21/21 12/20/21
