# Blender v2.90.0 OBJ File: 'Jewel_02.blend'
# www.blender.org
mtllib Jewel_02.mtl
o Jewel_02_Circle
v -0.000000 1.807445 -0.558836
v -1.278057 1.278056 -0.558836
v -1.807445 -0.000000 -0.558836
v -1.278057 -1.278056 -0.558836
v 0.000000 -1.807445 -0.558837
v 1.278057 -1.278056 -0.558836
v 1.807445 0.000000 -0.558836
v 1.278057 1.278056 -0.558836
v -0.000000 1.807445 0.558837
v -1.278057 1.278056 0.558836
v -1.807445 -0.000000 0.558836
v -1.278057 -1.278056 0.558836
v 0.000000 -1.807445 0.558836
v 1.278057 -1.278056 0.558836
v 1.807445 -0.000000 0.558836
v 1.278057 1.278056 0.558836
v -0.000000 2.875952 0.000000
v -2.033605 2.033605 0.000000
v -2.875952 -0.000000 -0.000000
v -2.033605 -2.033605 -0.000000
v 0.000000 -2.875952 -0.000000
v 2.033605 -2.033605 -0.000000
v 2.875952 0.000000 -0.000000
v 2.033605 2.033605 0.000000
v 0.685073 1.653913 -0.422609
v 0.970758 2.343616 0.000000
v 0.685073 1.653913 0.422609
v -0.685073 1.653913 -0.422609
v -0.970758 2.343616 0.000000
v -0.685073 1.653913 0.422609
v -1.653913 0.685073 -0.422609
v -2.343616 0.970758 0.000000
v -1.653913 0.685073 0.422609
v -1.653913 -0.685073 -0.422609
v -2.343616 -0.970758 -0.000000
v -1.653913 -0.685073 0.422609
v -0.685073 -1.653913 -0.422609
v -0.970758 -2.343616 -0.000000
v -0.685073 -1.653913 0.422609
v 0.685073 -1.653913 -0.422609
v 0.970758 -2.343616 -0.000000
v 0.685073 -1.653913 0.422609
v 1.653913 -0.685073 -0.422609
v 2.343617 -0.970758 -0.000000
v 1.653913 -0.685073 0.422609
v 1.653913 0.685073 -0.422609
v 2.343617 0.970758 0.000000
v 1.653913 0.685073 0.422609
vt 0.000000 0.000000
vt 0.000000 0.000000
vt 0.000000 0.000000
vt 0.000000 0.000000
vt 0.000000 0.000000
vt 0.000000 0.000000
vt 0.000000 0.000000
vt 0.000000 0.000000
vt 0.000000 0.000000
vt 0.000000 0.000000
vt 0.000000 0.000000
vt 0.000000 0.000000
vt 0.000000 0.000000
vt 0.000000 0.000000
vt 0.000000 0.000000
vt 0.000000 0.000000
vt 0.000000 0.000000
vt 0.000000 0.000000
vt 0.000000 0.000000
vt 0.000000 0.000000
vt 0.000000 0.000000
vt 0.000000 0.000000
vt 0.000000 0.000000
vt 0.000000 0.000000
vt 0.000000 0.000000
vt 0.000000 0.000000
vt 0.000000 0.000000
vt 0.000000 0.000000
vt 0.000000 0.000000
vt 0.000000 0.000000
vt 0.000000 0.000000
vt 0.000000 0.000000
vt 0.000000 0.000000
vt 0.000000 0.000000
vt 0.000000 0.000000
vt 0.000000 0.000000
vt 0.000000 0.000000
vt 0.000000 0.000000
vt 0.000000 0.000000
vt 0.000000 0.000000
vt 0.000000 0.000000
vt 0.000000 0.000000
vt 0.000000 0.000000
vt 0.000000 0.000000
vt 0.000000 0.000000
vt 0.000000 0.000000
vt 0.000000 0.000000
vt 0.000000 0.000000
vn 0.0000 0.0000 -1.0000
vn 0.1090 -0.4862 -0.8671
vn -0.4862 -0.1090 -0.8671
vn -0.1090 0.4862 -0.8671
vn 0.2667 0.4208 -0.8671
vn 0.4208 -0.2667 -0.8671
vn -0.2667 -0.4208 -0.8671
vn -0.4208 0.2667 -0.8671
vn 0.4862 0.1090 -0.8671
vn 0.0000 -0.0000 1.0000
vn 0.1090 -0.4862 0.8671
vn -0.4862 -0.1090 0.8671
vn -0.1090 0.4862 0.8671
vn 0.2667 0.4208 0.8671
vn 0.4208 -0.2667 0.8671
vn -0.2667 -0.4208 0.8671
vn -0.4208 0.2667 0.8671
vn 0.4862 0.1090 0.8671
vn 0.1090 0.4862 0.8671
vn 0.1434 0.4918 -0.8588
vn -0.2667 0.4208 0.8671
vn -0.2463 0.4492 -0.8588
vn -0.4862 0.1090 0.8671
vn -0.4918 0.1434 -0.8588
vn -0.4208 -0.2667 0.8671
vn -0.4492 -0.2463 -0.8588
vn -0.1090 -0.4862 0.8671
vn -0.1434 -0.4918 -0.8588
vn 0.2667 -0.4208 0.8671
vn 0.2463 -0.4492 -0.8588
vn 0.4862 -0.1090 0.8671
vn 0.4918 -0.1434 -0.8588
vn 0.4208 0.2667 0.8671
vn 0.4492 0.2463 -0.8588
vn 0.4693 -0.4693 -0.7480
vn 0.0000 -0.6637 -0.7480
vn -0.4693 -0.4693 -0.7480
vn -0.6637 0.0000 -0.7480
vn -0.4693 0.4693 -0.7480
vn 0.0000 0.6637 -0.7480
vn 0.4693 0.4693 -0.7480
vn 0.6637 0.0000 -0.7480
vn 0.1434 -0.4918 -0.8588
vn -0.4918 -0.1434 -0.8588
vn -0.1434 0.4918 -0.8588
vn 0.2463 0.4492 -0.8588
vn 0.4492 -0.2463 -0.8588
vn -0.2463 -0.4492 -0.8588
vn -0.4492 0.2463 -0.8588
vn 0.4918 0.1434 -0.8588
vn 0.0000 -0.6637 0.7480
vn 0.4693 -0.4693 0.7480
vn 0.6637 0.0000 0.7480
vn 0.4693 0.4693 0.7480
vn 0.0000 0.6637 0.7480
vn -0.4693 0.4693 0.7480
vn -0.6637 0.0000 0.7480
vn -0.4693 -0.4693 0.7480
vn 0.1434 -0.4918 0.8588
vn -0.4918 -0.1434 0.8588
vn -0.1434 0.4918 0.8588
vn 0.2463 0.4492 0.8588
vn 0.4492 -0.2463 0.8588
vn -0.2463 -0.4492 0.8588
vn -0.4492 0.2463 0.8588
vn 0.4918 0.1434 0.8588
vn 0.1434 0.4918 0.8588
vn 0.1090 0.4862 -0.8671
vn -0.2463 0.4492 0.8588
vn -0.2667 0.4208 -0.8671
vn -0.4918 0.1434 0.8588
vn -0.4862 0.1090 -0.8671
vn -0.4492 -0.2463 0.8588
vn -0.4208 -0.2667 -0.8671
vn -0.1434 -0.4918 0.8588
vn -0.1090 -0.4862 -0.8671
vn 0.2463 -0.4492 0.8588
vn 0.2667 -0.4208 -0.8671
vn 0.4918 -0.1434 0.8588
vn 0.4862 -0.1090 -0.8671
vn 0.4492 0.2463 0.8588
vn 0.4208 0.2667 -0.8671
usemtl Red_Jewel02
s off
f 40/1/1 37/2/1 43/3/1
f 6/4/2 41/5/2 40/1/2
f 4/6/3 35/7/3 34/8/3
f 2/9/4 29/10/4 28/11/4
f 1/12/5 26/13/5 25/14/5
f 7/15/6 44/16/6 43/3/6
f 5/17/7 38/18/7 37/2/7
f 3/19/8 32/20/8 31/21/8
f 8/22/9 47/23/9 46/24/9
f 27/25/10 33/26/10 42/27/10
f 41/5/11 14/28/11 42/27/11
f 35/7/12 12/29/12 36/30/12
f 29/10/13 10/31/13 30/32/13
f 26/13/14 9/33/14 27/25/14
f 44/16/15 15/34/15 45/35/15
f 38/18/16 13/36/16 39/37/16
f 32/20/17 11/38/17 33/26/17
f 47/23/18 16/39/18 48/40/18
f 16/39/19 26/13/19 27/25/19
f 8/22/20 26/13/20 24/41/20
f 9/33/21 29/10/21 30/32/21
f 1/12/22 29/10/22 17/42/22
f 10/31/23 32/20/23 33/26/23
f 2/9/24 32/20/24 18/43/24
f 11/38/25 35/7/25 36/30/25
f 3/19/26 35/7/26 19/44/26
f 12/29/27 38/18/27 39/37/27
f 4/6/28 38/18/28 20/45/28
f 13/36/29 41/5/29 42/27/29
f 5/17/30 41/5/30 21/46/30
f 14/28/31 44/16/31 45/35/31
f 6/4/32 44/16/32 22/47/32
f 15/34/33 47/23/33 48/40/33
f 7/15/34 47/23/34 23/48/34
f 2/9/35 28/11/35 31/21/35
f 28/11/36 1/12/36 25/14/36
f 43/3/1 25/14/1 46/24/1
f 25/14/37 8/22/37 46/24/37
f 28/11/1 25/14/1 43/3/1
f 46/24/38 7/15/38 43/3/38
f 43/3/39 6/4/39 40/1/39
f 40/1/40 5/17/40 37/2/40
f 37/2/41 4/6/41 34/8/41
f 34/8/42 3/19/42 31/21/42
f 34/8/1 31/21/1 28/11/1
f 34/8/1 43/3/1 37/2/1
f 28/11/1 43/3/1 34/8/1
f 6/4/43 22/47/43 41/5/43
f 4/6/44 20/45/44 35/7/44
f 2/9/45 18/43/45 29/10/45
f 1/12/46 17/42/46 26/13/46
f 7/15/47 23/48/47 44/16/47
f 5/17/48 21/46/48 38/18/48
f 3/19/49 19/44/49 32/20/49
f 8/22/50 24/41/50 47/23/50
f 9/33/51 30/32/51 27/25/51
f 30/32/52 10/31/52 33/26/52
f 33/26/53 11/38/53 36/30/53
f 36/30/54 12/29/54 39/37/54
f 39/37/55 13/36/55 42/27/55
f 42/27/56 14/28/56 45/35/56
f 27/25/10 45/35/10 48/40/10
f 45/35/57 15/34/57 48/40/57
f 42/27/10 45/35/10 27/25/10
f 48/40/58 16/39/58 27/25/58
f 30/32/10 33/26/10 27/25/10
f 36/30/10 39/37/10 33/26/10
f 33/26/10 39/37/10 42/27/10
f 41/5/59 22/47/59 14/28/59
f 35/7/60 20/45/60 12/29/60
f 29/10/61 18/43/61 10/31/61
f 26/13/62 17/42/62 9/33/62
f 44/16/63 23/48/63 15/34/63
f 38/18/64 21/46/64 13/36/64
f 32/20/65 19/44/65 11/38/65
f 47/23/66 24/41/66 16/39/66
f 16/39/67 24/41/67 26/13/67
f 8/22/68 25/14/68 26/13/68
f 9/33/69 17/42/69 29/10/69
f 1/12/70 28/11/70 29/10/70
f 10/31/71 18/43/71 32/20/71
f 2/9/72 31/21/72 32/20/72
f 11/38/73 19/44/73 35/7/73
f 3/19/74 34/8/74 35/7/74
f 12/29/75 20/45/75 38/18/75
f 4/6/76 37/2/76 38/18/76
f 13/36/77 21/46/77 41/5/77
f 5/17/78 40/1/78 41/5/78
f 14/28/79 22/47/79 44/16/79
f 6/4/80 43/3/80 44/16/80
f 15/34/81 23/48/81 47/23/81
f 7/15/82 46/24/82 47/23/82
