# Blender v2.90.0 OBJ File: 'Jewel_01.blend'
# www.blender.org
mtllib Jewel_01.mtl
o Jewel_01_Plane
v 1.435445 -0.162773 -0.516792
v -1.444116 -0.162773 -0.485575
v 0.795543 1.037227 -0.509855
v -0.804214 1.037227 -0.492512
v -0.004336 -2.062773 -0.501184
v 1.435445 -0.162773 0.516792
v -1.444116 -0.162773 0.485575
v 0.795543 1.037227 0.509855
v -0.804214 1.037227 0.492512
v -0.004336 -2.062773 0.501183
v 2.261865 -0.030950 -0.000000
v -2.244523 -0.030950 -0.000000
v 1.260445 1.846997 0.000000
v -1.243103 1.846997 0.000000
v 0.008671 -3.004366 -0.000000
vt 0.000000 0.000000
vt 1.000000 0.000000
vt 1.000000 1.000000
vt 0.500000 0.000000
vt 1.000000 0.000000
vt 0.000000 1.000000
vt 0.000000 1.000000
vt 0.000000 0.000000
vt 1.000000 1.000000
vt 0.500000 0.000000
vt 0.000000 0.000000
vt 0.000000 1.000000
vt 1.000000 1.000000
vt 1.000000 0.000000
vt 0.500000 0.000000
vn -0.0108 -0.0000 -0.9999
vn -0.4725 0.2471 -0.8460
vn 0.4779 0.2549 -0.8406
vn 0.5300 -0.4077 -0.7435
vn -0.0093 0.5159 -0.8566
vn -0.5324 -0.4034 -0.7442
vn -0.0108 -0.0000 0.9999
vn -0.4725 0.2471 0.8460
vn 0.4814 0.2616 0.8366
vn 0.5300 -0.4077 0.7435
vn -0.0093 0.5159 0.8566
vn -0.5236 -0.3906 0.7571
vn -0.4762 0.2539 -0.8419
vn 0.4814 0.2616 -0.8366
vn 0.5216 -0.3953 -0.7561
vn 0.0000 0.5328 -0.8462
vn -0.5236 -0.3906 -0.7571
vn -0.4762 0.2539 0.8419
vn 0.4779 0.2549 0.8406
vn 0.5216 -0.3953 0.7561
vn 0.0000 0.5328 0.8462
vn -0.5324 -0.4034 0.7442
usemtl Green_Jewel01
s off
f 1/1/1 2/2/1 4/3/1
f 2/2/1 1/1/1 5/4/1
f 4/3/2 2/2/2 12/5/2
f 3/6/3 13/7/3 11/8/3
f 5/4/4 1/1/4 11/8/4
f 3/6/5 4/3/5 14/9/5
f 5/4/6 15/10/6 12/5/6
f 6/11/7 8/12/7 9/13/7
f 7/14/7 10/15/7 6/11/7
f 12/5/8 7/14/8 9/13/8
f 8/12/9 6/11/9 11/8/9
f 11/8/10 6/11/10 10/15/10
f 14/9/11 9/13/11 8/12/11
f 10/15/12 7/14/12 12/5/12
f 1/1/1 4/3/1 3/6/1
f 4/3/13 12/5/13 14/9/13
f 3/6/14 11/8/14 1/1/14
f 5/4/15 11/8/15 15/10/15
f 3/6/16 14/9/16 13/7/16
f 5/4/17 12/5/17 2/2/17
f 6/11/7 9/13/7 7/14/7
f 12/5/18 9/13/18 14/9/18
f 8/12/19 11/8/19 13/7/19
f 11/8/20 10/15/20 15/10/20
f 14/9/21 8/12/21 13/7/21
f 10/15/22 12/5/22 15/10/22
