# Blender v2.90.0 OBJ File: 'MediumPotion_Health.blend'
# www.blender.org
mtllib MediumPotion_Mana.mtl
o MediumPotion_Mana_Cube.014
v -0.653580 0.966322 0.653583
v -0.653580 0.966322 -0.653577
v 0.653580 0.966322 -0.653577
v 0.653580 0.966322 0.653583
v -0.231856 0.966322 -0.698508
v 0.231856 0.966322 -0.698508
v 0.231856 0.966322 0.698514
v -0.231856 0.966322 0.698514
v -0.712960 0.966322 0.217863
v -0.712960 0.966322 -0.217857
v 0.712960 0.966322 -0.217857
v 0.712960 0.966322 0.217863
v -0.712960 1.582888 -0.217857
v -0.653580 1.582888 -0.653577
v 0.231856 1.582888 -0.698508
v 0.653580 1.582888 -0.653577
v 0.712960 1.582888 0.217863
v 0.653580 1.582888 0.653583
v -0.231856 1.582888 0.698514
v -0.653580 1.582888 0.653583
v -0.231856 1.582888 -0.698508
v 0.231856 1.582888 0.698514
v 0.217860 1.582888 0.217863
v -0.217860 1.582888 0.217863
v -0.712960 1.582888 0.217863
v 0.712960 1.582888 -0.217857
v 0.217860 1.582888 -0.217857
v -0.217860 1.582888 -0.217857
v -2.072327 -3.677534 2.072326
v -2.072327 -0.622237 2.072326
v -2.072327 -3.677534 -2.072328
v -2.072327 -0.622237 -2.072328
v 2.072327 -3.677534 2.072326
v 2.072327 -0.622237 2.072326
v 2.072327 -3.677534 -2.072328
v 2.072327 -0.622237 -2.072328
v -0.653580 0.966322 0.653579
v -0.653580 0.966322 -0.653581
v 0.653580 0.966322 -0.653581
v 0.653580 0.966322 0.653579
v -1.564850 -0.225097 -1.564852
v -1.270793 0.172043 -1.270794
v -1.021925 0.569183 -1.021926
v 1.021925 0.569183 -1.021926
v 1.270793 0.172043 -1.270794
v 1.564850 -0.225097 -1.564852
v 1.021925 0.569183 1.021924
v 1.270793 0.172043 1.270792
v 1.564850 -0.225097 1.564849
v -1.564850 -0.225097 1.564849
v -1.270793 0.172043 1.270792
v -1.021925 0.569183 1.021924
v -0.892183 0.966322 0.892182
v -0.892183 0.966322 -0.892184
v 0.892183 0.966322 -0.892184
v 0.892183 0.966322 0.892182
v 0.690776 -3.677534 -2.072328
v -0.690776 -3.677534 -2.072328
v -0.690776 -0.622237 -2.072328
v 0.690776 -0.622237 -2.072328
v -0.690776 -3.677534 2.072326
v 0.690776 -3.677534 2.072326
v 0.690776 -0.622237 2.072326
v -0.690776 -0.622237 2.072326
v -0.297394 0.966322 -0.892184
v 0.297394 0.966322 -0.892184
v 0.297394 0.966322 0.892182
v -0.297394 0.966322 0.892182
v 0.521617 -0.225097 1.564849
v -0.521617 -0.225097 1.564849
v 0.423598 0.172043 1.270792
v -0.423598 0.172043 1.270792
v 0.340641 0.569183 1.021924
v -0.340642 0.569183 1.021924
v -0.521617 -0.225097 -1.564852
v 0.521617 -0.225097 -1.564852
v -0.423598 0.172043 -1.270794
v 0.423598 0.172043 -1.270794
v -0.340642 0.569183 -1.021926
v 0.340642 0.569183 -1.021926
v -0.231856 0.966322 -0.698512
v 0.231856 0.966322 -0.698512
v 0.231856 0.966322 0.698510
v -0.231856 0.966322 0.698510
v -2.072327 -3.677534 -0.690776
v -2.072327 -3.677534 0.690775
v -2.072327 -0.622237 0.690775
v -2.072327 -0.622237 -0.690776
v 2.072327 -3.677534 0.690775
v 2.072327 -3.677534 -0.690776
v 2.072327 -0.622237 -0.690776
v 2.072327 -0.622237 0.690775
v -0.892183 0.966322 0.297393
v -0.892183 0.966322 -0.297395
v 0.892183 0.966322 -0.297395
v 0.892183 0.966322 0.297393
v -1.564850 -0.225097 0.521616
v -1.564850 -0.225097 -0.521618
v -1.270793 0.172043 0.423597
v -1.270793 0.172043 -0.423599
v -1.021925 0.569183 0.340641
v -1.021925 0.569183 -0.340643
v 1.564850 -0.225097 -0.521618
v 1.564850 -0.225097 0.521616
v 1.270793 0.172043 -0.423599
v 1.270793 0.172043 0.423597
v 1.021925 0.569183 -0.340643
v 1.021925 0.569183 0.340641
v -0.712960 0.966322 0.217859
v -0.712960 0.966322 -0.217861
v 0.712960 0.966322 -0.217861
v 0.712960 0.966322 0.217859
v -0.690776 -3.677534 -0.690776
v -0.690776 -3.677534 0.690775
v 0.690776 -3.677534 -0.690776
v 0.690776 -3.677534 0.690775
vt 0.854771 0.520229
vt 0.784924 0.520229
vt 0.784924 0.520229
vt 0.715076 0.520229
vt 0.645229 0.520229
vt 0.645229 0.520229
vt 0.715076 0.729771
vt 0.784924 0.729771
vt 0.784924 0.729771
vt 0.854771 0.659924
vt 0.854771 0.590076
vt 0.854771 0.590076
vt 0.645229 0.729771
vt 0.715076 0.729771
vt 0.854771 0.520229
vt 0.854771 0.729771
vt 0.854771 0.729771
vt 0.854771 0.659924
vt 0.645229 0.590076
vt 0.645229 0.659924
vt 0.645229 0.659924
vt 0.784924 0.659924
vt 0.715076 0.659924
vt 0.645229 0.729771
vt 0.715076 0.590076
vt 0.715076 0.520229
vt 0.784924 0.590076
vt 0.645229 0.590076
vt 0.625000 0.166667
vt 0.375000 0.250000
vt 0.375000 0.166667
vt 0.625000 0.416667
vt 0.375000 0.500000
vt 0.375000 0.416667
vt 0.625000 0.666667
vt 0.375000 0.750000
vt 0.375000 0.666667
vt 0.625000 0.916667
vt 0.375000 1.000000
vt 0.375000 0.916667
vt 0.291667 0.750000
vt 0.291667 0.666667
vt 0.625000 0.333333
vt 0.625000 0.250000
vt 0.625000 0.333333
vt 0.625000 0.583333
vt 0.625000 0.500000
vt 0.625000 0.583333
vt 0.625000 0.083333
vt 0.625000 0.000000
vt 0.625000 0.083333
vt 0.625000 0.833333
vt 0.625000 0.750000
vt 0.625000 0.833333
vt 0.625000 0.833333
vt 0.625000 0.750000
vt 0.625000 0.833333
vt 0.625000 0.750000
vt 0.625000 0.833333
vt 0.625000 0.750000
vt 0.625000 0.083333
vt 0.625000 0.000000
vt 0.625000 0.083333
vt 0.625000 0.000000
vt 0.625000 0.083333
vt 0.625000 0.000000
vt 0.625000 0.583333
vt 0.625000 0.500000
vt 0.625000 0.583333
vt 0.625000 0.500000
vt 0.625000 0.583333
vt 0.625000 0.500000
vt 0.625000 0.333333
vt 0.625000 0.250000
vt 0.625000 0.333333
vt 0.625000 0.250000
vt 0.625000 0.333333
vt 0.625000 0.250000
vt 0.854771 0.520229
vt 0.875000 0.583333
vt 0.854771 0.590076
vt 0.645229 0.520229
vt 0.708333 0.500000
vt 0.715076 0.520229
vt 0.645229 0.729771
vt 0.625000 0.666667
vt 0.645229 0.659924
vt 0.854771 0.729771
vt 0.791667 0.750000
vt 0.784924 0.729771
vt 0.708333 0.750000
vt 0.715076 0.729771
vt 0.791667 0.500000
vt 0.875000 0.500000
vt 0.784924 0.520229
vt 0.625000 0.416667
vt 0.625000 0.416667
vt 0.625000 0.416667
vt 0.625000 0.500000
vt 0.625000 0.916667
vt 0.625000 1.000000
vt 0.625000 1.000000
vt 0.625000 0.916667
vt 0.625000 0.916667
vt 0.625000 1.000000
vt 0.625000 1.000000
vt 0.625000 1.000000
vt 0.625000 0.916667
vt 0.625000 0.416667
vt 0.208333 0.666667
vt 0.125000 0.750000
vt 0.125000 0.666667
vt 0.208333 0.750000
vt 0.625000 0.750000
vt 0.375000 0.833333
vt 0.625000 0.250000
vt 0.375000 0.333333
vt 0.291667 0.500000
vt 0.208333 0.583333
vt 0.208333 0.500000
vt 0.291667 0.583333
vt 0.125000 0.583333
vt 0.125000 0.500000
vt 0.645229 0.590076
vt 0.875000 0.666667
vt 0.875000 0.750000
vt 0.854771 0.659924
vt 0.625000 0.666667
vt 0.625000 0.666667
vt 0.625000 0.666667
vt 0.625000 0.166667
vt 0.625000 0.166667
vt 0.625000 0.166667
vt 0.625000 0.166667
vt 0.375000 0.583333
vt 0.625000 0.000000
vt 0.375000 0.083333
vt 0.375000 0.000000
vn -0.1059 0.0000 -0.9944
vn 0.1059 0.0000 -0.9944
vn 0.0000 0.0000 1.0000
vn -1.0000 0.0000 0.0000
vn 0.1059 0.0000 0.9944
vn -0.9908 0.0000 -0.1350
vn -0.1059 0.0000 0.9944
vn -0.9908 0.0000 0.1350
vn 1.0000 0.0000 0.0000
vn 0.0000 1.0000 0.0000
vn 0.9908 0.0000 -0.1350
vn 0.9908 0.0000 0.1350
vn 0.0000 0.0000 -1.0000
vn 0.0000 -1.0000 0.0000
vn 0.0000 0.3105 -0.9506
vn 0.9506 0.3105 0.0000
vn -0.9506 0.3105 0.0000
vn 0.0000 0.3105 0.9506
vn 0.0000 0.7875 0.6163
vn 0.0000 0.5951 0.8037
vn 0.0000 0.5310 0.8474
vn -0.6163 0.7875 0.0000
vn -0.8037 0.5951 0.0000
vn -0.8474 0.5310 0.0000
vn 0.6163 0.7875 0.0000
vn 0.8037 0.5951 0.0000
vn 0.8474 0.5310 0.0000
vn 0.0000 0.7875 -0.6163
vn 0.0000 0.5951 -0.8037
vn 0.0000 0.5310 -0.8474
usemtl Stopper02.001
s off
f 2/1/1 21/2/1 5/3/1
f 6/4/2 16/5/2 3/6/2
f 7/7/3 19/8/3 8/9/3
f 9/10/4 13/11/4 10/12/4
f 4/13/5 22/14/5 7/7/5
f 10/12/6 14/15/6 2/1/6
f 8/9/7 20/16/7 1/17/7
f 1/17/8 25/18/8 9/10/8
f 11/19/9 17/20/9 12/21/9
f 24/22/10 20/16/10 19/8/10
f 23/23/10 18/24/10 17/20/10
f 24/22/10 22/14/10 23/23/10
f 21/2/10 27/25/10 15/26/10
f 28/27/10 23/23/10 27/25/10
f 16/5/10 27/25/10 26/28/10
f 27/25/10 17/20/10 26/28/10
f 14/15/10 28/27/10 21/2/10
f 28/27/10 25/18/10 24/22/10
f 3/6/11 26/28/11 11/19/11
f 12/21/12 18/24/12 4/13/12
f 5/3/13 15/26/13 6/4/13
f 2/1/1 14/15/1 21/2/1
f 6/4/2 15/26/2 16/5/2
f 7/7/3 22/14/3 19/8/3
f 9/10/4 25/18/4 13/11/4
f 4/13/5 18/24/5 22/14/5
f 10/12/6 13/11/6 14/15/6
f 8/9/7 19/8/7 20/16/7
f 1/17/8 20/16/8 25/18/8
f 11/19/9 26/28/9 17/20/9
f 24/22/10 25/18/10 20/16/10
f 23/23/10 22/14/10 18/24/10
f 24/22/10 19/8/10 22/14/10
f 21/2/10 28/27/10 27/25/10
f 28/27/10 24/22/10 23/23/10
f 16/5/10 15/26/10 27/25/10
f 27/25/10 23/23/10 17/20/10
f 14/15/10 13/11/10 28/27/10
f 28/27/10 13/11/10 25/18/10
f 3/6/11 16/5/11 26/28/11
f 12/21/12 17/20/12 18/24/12
f 5/3/13 21/2/13 15/26/13
usemtl ManaMedium
f 88/29/4 31/30/4 85/31/4
f 60/32/13 35/33/13 57/34/13
f 92/35/9 33/36/9 89/37/9
f 64/38/3 29/39/3 61/40/3
f 89/37/14 62/41/14 116/42/14
f 79/43/15 54/44/15 65/45/15
f 107/46/16 55/47/16 95/48/16
f 101/49/17 53/50/17 93/51/17
f 73/52/18 56/53/18 67/54/18
f 63/55/19 49/56/19 69/57/19
f 69/57/20 48/58/20 71/59/20
f 71/59/21 47/60/21 73/52/21
f 87/61/22 50/62/22 97/63/22
f 97/63/23 51/64/23 99/65/23
f 99/65/24 52/66/24 101/49/24
f 91/67/25 46/68/25 103/69/25
f 103/69/26 45/70/26 105/71/26
f 105/71/27 44/72/27 107/46/27
f 59/73/28 41/74/28 75/75/28
f 75/75/29 42/76/29 77/77/29
f 77/77/30 43/78/30 79/43/30
f 38/79/10 94/80/10 110/81/10
f 39/82/10 66/83/10 82/84/10
f 40/85/10 96/86/10 112/87/10
f 37/88/10 68/89/10 84/90/10
f 40/85/10 67/91/10 56/53/10
f 84/90/10 67/91/10 83/92/10
f 38/79/10 65/93/10 54/94/10
f 82/84/10 65/93/10 81/95/10
f 78/96/30 44/72/30 45/70/30
f 77/77/30 80/97/30 78/96/30
f 76/98/29 45/70/29 46/68/29
f 76/98/29 77/77/29 78/96/29
f 60/32/28 46/68/28 36/99/28
f 59/73/28 76/98/28 60/32/28
f 72/100/21 52/101/21 51/102/21
f 72/100/21 73/52/21 74/103/21
f 70/104/20 51/102/20 50/105/20
f 69/57/20 72/100/20 70/104/20
f 64/38/19 50/105/19 30/106/19
f 64/38/19 69/57/19 70/104/19
f 74/103/18 53/107/18 52/101/18
f 73/52/18 68/108/18 74/103/18
f 80/97/15 55/47/15 44/72/15
f 79/43/15 66/109/15 80/97/15
f 114/110/14 29/111/14 86/112/14
f 116/42/14 61/113/14 114/110/14
f 34/114/3 62/115/3 33/36/3
f 63/55/3 61/40/3 62/115/3
f 32/116/13 58/117/13 31/30/13
f 59/73/13 57/34/13 58/117/13
f 57/118/14 113/119/14 58/120/14
f 115/121/14 114/110/14 113/119/14
f 58/120/14 85/122/14 31/123/14
f 113/119/14 86/112/14 85/122/14
f 39/82/10 95/48/10 55/47/10
f 111/124/10 96/86/10 95/48/10
f 37/88/10 93/125/10 53/126/10
f 109/127/10 94/80/10 93/125/10
f 106/128/27 47/60/27 48/58/27
f 106/128/27 107/46/27 108/129/27
f 104/130/26 48/58/26 49/56/26
f 103/69/26 106/128/26 104/130/26
f 92/35/25 49/56/25 34/114/25
f 91/67/25 104/130/25 92/35/25
f 100/131/24 43/78/24 42/76/24
f 99/65/24 102/132/24 100/131/24
f 98/133/23 42/76/23 41/74/23
f 98/133/23 99/65/23 100/131/23
f 88/29/22 41/74/22 32/116/22
f 87/61/22 98/133/22 88/29/22
f 102/132/17 54/44/17 43/78/17
f 101/49/17 94/134/17 102/132/17
f 108/129/16 56/53/16 47/60/16
f 107/46/16 96/86/16 108/129/16
f 35/33/14 115/121/14 57/118/14
f 90/135/14 116/42/14 115/121/14
f 36/99/9 90/135/9 35/33/9
f 91/67/9 89/37/9 90/135/9
f 30/136/4 86/137/4 29/138/4
f 87/61/4 85/31/4 86/137/4
f 88/29/4 32/116/4 31/30/4
f 60/32/13 36/99/13 35/33/13
f 92/35/9 34/114/9 33/36/9
f 64/38/3 30/106/3 29/39/3
f 89/37/14 33/36/14 62/41/14
f 79/43/15 43/78/15 54/44/15
f 107/46/16 44/72/16 55/47/16
f 101/49/17 52/66/17 53/50/17
f 73/52/18 47/60/18 56/53/18
f 63/55/19 34/114/19 49/56/19
f 69/57/20 49/56/20 48/58/20
f 71/59/21 48/58/21 47/60/21
f 87/61/22 30/136/22 50/62/22
f 97/63/23 50/62/23 51/64/23
f 99/65/24 51/64/24 52/66/24
f 91/67/25 36/99/25 46/68/25
f 103/69/26 46/68/26 45/70/26
f 105/71/27 45/70/27 44/72/27
f 59/73/28 32/116/28 41/74/28
f 75/75/29 41/74/29 42/76/29
f 77/77/30 42/76/30 43/78/30
f 38/79/10 54/94/10 94/80/10
f 39/82/10 55/47/10 66/83/10
f 40/85/10 56/53/10 96/86/10
f 37/88/10 53/126/10 68/89/10
f 40/85/10 83/92/10 67/91/10
f 84/90/10 68/89/10 67/91/10
f 38/79/10 81/95/10 65/93/10
f 82/84/10 66/83/10 65/93/10
f 78/96/30 80/97/30 44/72/30
f 77/77/30 79/43/30 80/97/30
f 76/98/29 78/96/29 45/70/29
f 76/98/29 75/75/29 77/77/29
f 60/32/28 76/98/28 46/68/28
f 59/73/28 75/75/28 76/98/28
f 72/100/21 74/103/21 52/101/21
f 72/100/21 71/59/21 73/52/21
f 70/104/20 72/100/20 51/102/20
f 69/57/20 71/59/20 72/100/20
f 64/38/19 70/104/19 50/105/19
f 64/38/19 63/55/19 69/57/19
f 74/103/18 68/108/18 53/107/18
f 73/52/18 67/54/18 68/108/18
f 80/97/15 66/109/15 55/47/15
f 79/43/15 65/45/15 66/109/15
f 114/110/14 61/113/14 29/111/14
f 116/42/14 62/41/14 61/113/14
f 34/114/3 63/55/3 62/115/3
f 63/55/3 64/38/3 61/40/3
f 32/116/13 59/73/13 58/117/13
f 59/73/13 60/32/13 57/34/13
f 57/118/14 115/121/14 113/119/14
f 115/121/14 116/42/14 114/110/14
f 58/120/14 113/119/14 85/122/14
f 113/119/14 114/110/14 86/112/14
f 39/82/10 111/124/10 95/48/10
f 111/124/10 112/87/10 96/86/10
f 37/88/10 109/127/10 93/125/10
f 109/127/10 110/81/10 94/80/10
f 106/128/27 108/129/27 47/60/27
f 106/128/27 105/71/27 107/46/27
f 104/130/26 106/128/26 48/58/26
f 103/69/26 105/71/26 106/128/26
f 92/35/25 104/130/25 49/56/25
f 91/67/25 103/69/25 104/130/25
f 100/131/24 102/132/24 43/78/24
f 99/65/24 101/49/24 102/132/24
f 98/133/23 100/131/23 42/76/23
f 98/133/23 97/63/23 99/65/23
f 88/29/22 98/133/22 41/74/22
f 87/61/22 97/63/22 98/133/22
f 102/132/17 94/134/17 54/44/17
f 101/49/17 93/51/17 94/134/17
f 108/129/16 96/86/16 56/53/16
f 107/46/16 95/48/16 96/86/16
f 35/33/14 90/135/14 115/121/14
f 90/135/14 89/37/14 116/42/14
f 36/99/9 91/67/9 90/135/9
f 91/67/9 92/35/9 89/37/9
f 30/136/4 87/61/4 86/137/4
f 87/61/4 88/29/4 85/31/4
