# Blender v2.90.0 OBJ File: 'MinorPotion_Mana.blend'
# www.blender.org
mtllib MinorPotion_Mana.mtl
o MinorPotion_Mana_Cube.015
v -0.664919 0.003258 0.671717
v -0.664919 1.191434 0.671717
v -0.664919 0.003258 -0.671725
v -0.664919 1.191434 -0.671725
v 0.664919 0.003258 0.671717
v 0.664919 1.191434 0.671717
v 0.664919 0.003258 -0.671725
v 0.664919 1.191434 -0.671725
v 0.700000 0.253547 -0.699999
v 1.205509 -2.888481 -1.205508
v 0.700000 0.253547 0.700002
v 1.205509 -2.888481 1.205511
v -0.700000 0.253547 -0.699999
v -1.205509 -2.888481 -1.205508
v -0.700000 0.253547 0.700002
v -1.205509 -2.888481 1.205511
v 0.808005 0.253547 -0.808003
v 0.808005 0.253547 0.808006
v -0.808005 0.253547 -0.808003
v -0.808005 0.253547 0.808006
v 0.657600 0.593348 -0.657599
v 0.657600 0.593348 0.657602
v -0.657600 0.593348 -0.657599
v -0.657600 0.593348 0.657602
v 0.808005 0.593348 0.808006
v -0.808005 0.593348 0.808006
v 0.808005 0.593348 -0.808003
v -0.808005 0.593348 -0.808003
vt 0.625000 0.000000
vt 0.375000 0.250000
vt 0.375000 0.000000
vt 0.625000 0.250000
vt 0.375000 0.500000
vt 0.625000 0.500000
vt 0.375000 0.750000
vt 0.625000 0.750000
vt 0.375000 1.000000
vt 0.125000 0.750000
vt 0.125000 0.500000
vt 0.875000 0.500000
vt 0.625000 1.000000
vt 0.875000 0.750000
vt 0.625000 0.250000
vt 0.625000 0.500000
vt 0.625000 0.500000
vt 0.625000 0.750000
vt 0.375000 1.000000
vt 0.375000 0.750000
vt 0.625000 0.000000
vt 0.375000 0.250000
vt 0.375000 0.000000
vt 0.375000 0.500000
vt 0.125000 0.750000
vt 0.125000 0.500000
vt 0.625000 0.000000
vt 0.625000 0.250000
vt 0.625000 0.250000
vt 0.625000 1.000000
vt 0.625000 1.000000
vt 0.625000 0.750000
vt 0.625000 1.000000
vt 0.625000 0.500000
vt 0.625000 0.750000
vt 0.846861 0.721861
vt 0.653139 0.721861
vt 0.653139 0.528139
vt 0.846861 0.528139
vt 0.875000 0.750000
vt 0.875000 0.500000
vt 0.625000 0.000000
vn -1.0000 0.0000 0.0000
vn 0.0000 0.0000 -1.0000
vn 1.0000 0.0000 0.0000
vn 0.0000 0.0000 1.0000
vn 0.0000 -1.0000 0.0000
vn 0.0000 1.0000 0.0000
vn 0.0000 0.1588 0.9873
vn -0.9873 0.1588 0.0000
vn 0.9873 0.1588 0.0000
vn 0.0000 0.1588 -0.9873
vn -0.9923 -0.1238 0.0000
vn 0.0000 -0.1238 0.9923
vn 0.9923 -0.1238 0.0000
vn 0.0000 -0.1238 -0.9923
usemtl Stopper01.001
s off
f 2/1/1 3/2/1 1/3/1
f 4/4/2 7/5/2 3/2/2
f 8/6/3 5/7/3 7/5/3
f 6/8/4 1/9/4 5/7/4
f 7/5/5 1/10/5 3/11/5
f 4/12/6 6/8/6 8/6/6
f 2/1/1 4/4/1 3/2/1
f 4/4/2 8/6/2 7/5/2
f 8/6/3 6/8/3 5/7/3
f 6/8/4 2/13/4 1/9/4
f 7/5/5 5/7/5 1/10/5
f 4/12/6 2/14/6 6/8/6
usemtl ManaMinor
f 13/15/5 17/16/5 9/17/5
f 11/18/7 16/19/7 12/20/7
f 15/21/8 14/22/8 16/23/8
f 10/24/5 16/25/5 14/26/5
f 9/17/9 12/20/9 10/24/9
f 13/15/10 10/24/10 14/22/10
f 20/27/1 28/28/1 19/29/1
f 11/18/5 20/30/5 15/31/5
f 15/21/5 19/29/5 13/15/5
f 9/17/5 18/32/5 11/18/5
f 18/32/4 26/33/4 20/30/4
f 19/29/2 27/34/2 17/16/2
f 17/16/3 25/35/3 18/32/3
f 24/36/6 25/35/6 22/37/6
f 21/38/6 25/35/6 27/34/6
f 23/39/6 26/40/6 24/36/6
f 21/38/6 28/41/6 23/39/6
f 21/38/11 11/18/11 22/37/11
f 23/39/12 9/17/12 21/38/12
f 23/39/13 15/21/13 13/15/13
f 22/37/14 15/31/14 24/36/14
f 13/15/5 19/29/5 17/16/5
f 11/18/7 15/31/7 16/19/7
f 15/21/8 13/15/8 14/22/8
f 10/24/5 12/20/5 16/25/5
f 9/17/9 11/18/9 12/20/9
f 13/15/10 9/17/10 10/24/10
f 20/27/1 26/42/1 28/28/1
f 11/18/5 18/32/5 20/30/5
f 15/21/5 20/27/5 19/29/5
f 9/17/5 17/16/5 18/32/5
f 18/32/4 25/35/4 26/33/4
f 19/29/2 28/28/2 27/34/2
f 17/16/3 27/34/3 25/35/3
f 24/36/6 26/40/6 25/35/6
f 21/38/6 22/37/6 25/35/6
f 23/39/6 28/41/6 26/40/6
f 21/38/6 27/34/6 28/41/6
f 21/38/11 9/17/11 11/18/11
f 23/39/12 13/15/12 9/17/12
f 23/39/13 24/36/13 15/21/13
f 22/37/14 11/18/14 15/31/14
