# Blender v2.90.0 OBJ File: 'Ring_03.blend'
# www.blender.org
mtllib Ring_03.mtl
o Ring_03_Circle.003
v -1.000000 -0.369698 0.123084
v -0.866025 0.130302 0.123084
v -0.500000 0.496328 0.391432
v -0.000000 0.630302 0.638225
v 0.500000 0.496328 0.391432
v 0.866025 0.130303 0.123084
v 1.000000 -0.369697 0.123084
v 0.866026 -0.869697 0.123084
v 0.500000 -1.235723 0.123084
v 0.000001 -1.369698 0.123084
v -0.499999 -1.235723 0.123084
v -0.866025 -0.869698 0.123084
v -0.726324 -0.369698 0.115878
v -0.629015 -0.006536 0.115878
v -0.363162 0.259318 0.368514
v 0.000000 0.356627 0.600859
v 0.363162 0.259318 0.368514
v 0.629015 -0.006535 0.115878
v 0.726324 -0.369697 0.115878
v 0.629015 -0.732859 0.115878
v 0.363162 -0.998713 0.115878
v 0.000000 -1.096022 0.115878
v -0.363162 -0.998713 0.115878
v -0.629015 -0.732860 0.115878
v -1.000000 -0.369698 -0.123084
v -0.866025 0.130302 -0.123084
v -0.500000 0.496328 -0.391432
v -0.000000 0.630302 -0.638225
v 0.500000 0.496328 -0.391432
v 0.866025 0.130303 -0.123084
v 1.000000 -0.369697 -0.123084
v 0.866026 -0.869697 -0.123084
v 0.500000 -1.235723 -0.123084
v 0.000001 -1.369698 -0.123084
v -0.499999 -1.235723 -0.123084
v -0.866025 -0.869698 -0.123084
v -0.726324 -0.369698 -0.115878
v -0.629015 -0.006536 -0.115878
v -0.363162 0.259318 -0.368514
v 0.000000 0.356627 -0.600859
v 0.363162 0.259318 -0.368515
v 0.629015 -0.006535 -0.115878
v 0.726324 -0.369697 -0.115878
v 0.629015 -0.732859 -0.115878
v 0.363162 -0.998713 -0.115878
v 0.000000 -1.096022 -0.115878
v -0.363162 -0.998713 -0.115878
v -0.629015 -0.732860 -0.115878
v 0.126969 0.710921 0.489120
v -0.332418 0.710921 0.302290
v -0.332418 0.710921 -0.302290
v 0.126969 0.710921 -0.489120
v 0.410889 0.710919 0.000000
v -0.000001 0.981320 0.000000
v 0.436905 0.492159 0.177681
v 0.436905 0.492159 -0.177681
v -0.000001 0.492159 0.574996
v 0.270021 0.492159 0.465182
v -0.436906 0.492159 0.177681
v -0.270023 0.492159 0.465182
v -0.270023 0.492159 -0.465182
v -0.436906 0.492159 -0.177681
v 0.270021 0.492159 -0.465182
v -0.000001 0.492159 -0.574996
v 0.316146 0.749328 0.287496
v -0.120759 0.749329 0.465179
v -0.390779 0.749328 0.000000
v -0.120759 0.749329 -0.465179
v 0.316146 0.749328 -0.287497
v 0.074630 0.908266 0.287496
v 0.241514 0.908264 0.000000
v -0.195389 0.908265 0.177680
v -0.195389 0.908265 -0.177680
v 0.074630 0.908266 -0.287496
vt 0.818181 0.314921
vt 0.727272 0.314921
vt 0.772726 0.393651
vt 1.000000 0.314921
vt 0.909091 0.314921
vt 0.954545 0.393651
vt 0.272727 0.314921
vt 0.181818 0.314921
vt 0.227273 0.393651
vt 0.454545 0.314921
vt 0.363636 0.314921
vt 0.409090 0.393651
vt 0.636363 0.314921
vt 0.545454 0.314921
vt 0.590909 0.393651
vt 0.500000 0.393651
vt 0.545454 0.472382
vt 0.318182 0.393651
vt 0.363636 0.472382
vt 0.136363 0.393651
vt 0.181818 0.472382
vt 0.090909 0.314921
vt 0.863635 0.393651
vt 0.909090 0.472382
vt 0.681818 0.393651
vt 0.727272 0.472382
vt 0.590909 0.236191
vt 0.500000 0.236191
vt 0.409090 0.236191
vt 0.318182 0.236191
vt 0.227273 0.236191
vt 0.136363 0.236191
vt 0.954545 0.236191
vt 0.863635 0.236191
vt 0.772726 0.236191
vt 0.681818 0.236191
vt 0.045454 0.236191
vt 0.000000 0.000000
vt 0.000000 0.000000
vt 0.000000 0.000000
vt 0.000000 0.000000
vt 0.000000 0.000000
vt 0.000000 0.000000
vt 0.000000 0.000000
vt 0.000000 0.000000
vt 0.000000 0.000000
vt 0.000000 0.000000
vt 0.000000 0.000000
vt 0.000000 0.000000
vt 0.000000 0.000000
vt 0.000000 0.000000
vt 0.000000 0.000000
vt 0.000000 0.000000
vt 0.000000 0.000000
vt 0.000000 0.000000
vt 0.000000 0.000000
vt 0.000000 0.000000
vt 0.000000 0.000000
vt 0.000000 0.000000
vt 0.000000 0.000000
vt 0.000000 0.000000
vt 0.000000 0.000000
vt 0.000000 0.000000
vt 0.000000 0.000000
vt 0.000000 0.000000
vt 0.000000 0.000000
vt 0.000000 0.000000
vt 0.000000 0.000000
vt 0.000000 0.000000
vt 0.000000 0.000000
vt 0.000000 0.000000
vt 0.000000 0.000000
vt 0.000000 0.000000
vt 0.000000 0.000000
vt 0.000000 0.000000
vt 0.000000 0.000000
vt 0.000000 0.000000
vt 0.000000 0.000000
vt 0.000000 0.000000
vt 0.000000 0.000000
vt 0.000000 0.000000
vt 0.000000 0.000000
vt 0.000000 0.000000
vt 0.000000 0.000000
vt 0.000000 0.000000
vn 0.4557 0.6924 0.5594
vn -0.5188 0.6840 0.5128
vn -0.7291 0.6471 -0.2230
vn 0.0446 0.7197 -0.6928
vn 0.7489 0.6428 -0.1609
vn 0.2855 0.9439 -0.1657
vn 0.5237 0.7958 -0.3040
vn 0.4557 0.6924 -0.5594
vn -0.1105 0.9560 -0.2716
vn -0.2091 0.8318 -0.5141
vn -0.5188 0.6840 -0.5128
vn -0.3502 0.9367 0.0000
vn -0.6310 0.7758 0.0000
vn -0.7291 0.6471 0.2230
vn -0.1105 0.9560 0.2716
vn -0.2091 0.8318 0.5141
vn 0.0446 0.7197 0.6928
vn 0.2855 0.9439 0.1657
vn 0.5237 0.7958 0.3040
vn 0.7489 0.6428 0.1609
vn 0.9122 0.3181 -0.2581
vn 0.8494 0.1883 -0.4930
vn 0.6488 0.3504 -0.6755
vn -0.0303 0.3805 -0.9243
vn -0.3680 0.2136 -0.9049
vn -0.6099 0.3540 -0.7090
vn -0.9231 0.3165 -0.2184
vn -0.9843 0.1765 0.0000
vn -0.9231 0.3165 0.2184
vn -0.6099 0.3540 0.7090
vn -0.3680 0.2136 0.9049
vn -0.0303 0.3805 0.9243
vn 0.6488 0.3504 0.6755
vn 0.8494 0.1883 0.4930
vn 0.9122 0.3181 0.2581
vn 0.3728 0.1435 -0.9167
vn -0.8580 0.1261 -0.4980
vn -0.8580 0.1261 0.4980
vn 0.3728 0.1435 0.9167
vn 0.9930 0.1181 0.0000
vn 0.0193 0.0193 0.9996
vn 0.0263 -0.0071 0.9996
vn -0.0193 0.0193 0.9996
vn 0.2688 -0.5086 0.8180
vn 0.0263 0.0071 0.9996
vn -0.3578 -0.2923 0.8868
vn -0.0071 0.0263 0.9996
vn -0.0263 -0.0071 0.9996
vn -0.4125 -0.1232 0.9026
vn 0.0071 0.0263 0.9996
vn -0.0263 0.0071 0.9996
vn 0.4422 -0.3357 0.8317
vn 0.0193 0.0193 -0.9996
vn 0.0263 -0.0071 -0.9996
vn -0.0193 0.0193 -0.9996
vn 0.3578 -0.2923 -0.8868
vn 0.0263 0.0071 -0.9996
vn -0.3578 -0.2923 -0.8868
vn -0.0071 0.0263 -0.9996
vn -0.0263 -0.0071 -0.9996
vn -0.4125 -0.1232 -0.9026
vn 0.0071 0.0263 -0.9996
vn -0.0263 0.0071 -0.9996
vn 0.4125 -0.1232 -0.9026
vn -0.2588 -0.9659 0.0000
vn 0.2588 -0.9659 0.0000
vn 0.9659 0.2588 0.0000
vn -0.7071 0.7071 0.0000
vn -0.7071 -0.7071 0.0000
vn -0.2588 0.9659 0.0000
vn -0.9659 -0.2588 0.0000
vn 0.2588 0.9659 -0.0000
vn -0.9659 0.2588 0.0000
vn 0.7071 0.7071 0.0000
vn 0.9659 -0.2588 0.0000
vn 0.7071 -0.7071 0.0000
vn 0.3578 -0.2923 0.8868
vn -0.2688 -0.5086 0.8180
vn -0.4422 -0.3357 0.8317
vn 0.4125 -0.1232 0.9026
vn 0.2688 -0.5086 -0.8180
vn -0.2688 -0.5086 -0.8180
vn -0.4422 -0.3357 -0.8317
vn 0.4422 -0.3357 -0.8317
usemtl Pink_ring_03
s off
f 49/1/1 65/2/1 70/3/1
f 50/4/2 66/5/2 72/6/2
f 51/7/3 67/8/3 73/9/3
f 52/10/4 68/11/4 74/12/4
f 53/13/5 69/14/5 71/15/5
f 71/15/6 74/16/6 54/17/6
f 71/15/7 69/14/7 74/16/7
f 69/14/8 52/10/8 74/16/8
f 74/12/9 73/18/9 54/19/9
f 74/12/10 68/11/10 73/18/10
f 68/11/11 51/7/11 73/18/11
f 73/9/12 72/20/12 54/21/12
f 73/9/13 67/8/13 72/20/13
f 67/8/14 50/22/14 72/20/14
f 72/6/15 70/23/15 54/24/15
f 72/6/16 66/5/16 70/23/16
f 66/5/17 49/1/17 70/23/17
f 70/3/18 71/25/18 54/26/18
f 70/3/19 65/2/19 71/25/19
f 65/2/20 53/13/20 71/25/20
f 56/27/21 69/14/21 53/13/21
f 56/27/22 63/28/22 69/14/22
f 63/28/23 52/10/23 69/14/23
f 64/29/24 68/11/24 52/10/24
f 64/29/25 61/30/25 68/11/25
f 61/30/26 51/7/26 68/11/26
f 62/31/27 67/8/27 51/7/27
f 62/31/28 59/32/28 67/8/28
f 59/32/29 50/22/29 67/8/29
f 60/33/30 66/5/30 50/4/30
f 60/33/31 57/34/31 66/5/31
f 57/34/32 49/1/32 66/5/32
f 58/35/33 65/2/33 49/1/33
f 58/35/34 55/36/34 65/2/34
f 55/36/35 53/13/35 65/2/35
f 63/28/36 64/29/36 52/10/36
f 61/30/37 62/31/37 51/7/37
f 59/32/38 60/37/38 50/22/38
f 57/34/39 58/35/39 49/1/39
f 55/36/40 56/27/40 53/13/40
usemtl Gold_ring.004
f 11/38/41 24/39/41 12/40/41
f 2/41/42 13/42/42 14/43/42
f 8/44/43 21/45/43 9/46/43
f 6/47/44 17/48/44 18/49/44
f 12/40/45 13/42/45 1/50/45
f 2/41/46 15/51/46 3/52/46
f 10/53/47 21/45/47 22/54/47
f 6/47/48 19/55/48 7/56/48
f 3/52/49 16/57/49 4/58/49
f 10/53/50 23/59/50 11/38/50
f 7/56/51 20/60/51 8/44/51
f 5/61/52 16/57/52 17/48/52
f 48/62/53 35/63/53 36/64/53
f 38/65/54 25/66/54 26/67/54
f 45/68/55 32/69/55 33/70/55
f 30/71/56 41/72/56 29/73/56
f 25/66/57 48/62/57 36/64/57
f 39/74/58 26/67/58 27/75/58
f 46/76/59 33/70/59 34/77/59
f 43/78/60 30/71/60 31/79/60
f 40/80/61 27/75/61 28/81/61
f 47/82/62 34/77/62 35/63/62
f 44/83/63 31/79/63 32/69/63
f 29/73/64 40/80/64 28/81/64
f 40/80/65 17/48/65 16/57/65
f 34/77/66 9/46/66 10/53/66
f 48/62/67 13/42/67 24/39/67
f 3/52/68 26/67/68 2/41/68
f 17/48/69 42/84/69 18/49/69
f 35/63/65 10/53/65 11/38/65
f 4/58/70 27/75/70 3/52/70
f 42/84/71 19/55/71 18/49/71
f 36/64/69 11/38/69 12/40/69
f 29/73/72 4/58/72 5/61/72
f 43/78/73 20/60/73 19/55/73
f 25/66/71 12/40/71 1/50/71
f 30/71/74 5/61/74 6/47/74
f 44/83/68 21/45/68 20/60/68
f 37/85/75 14/43/75 13/42/75
f 31/79/67 6/47/67 7/56/67
f 21/45/70 46/76/70 22/54/70
f 38/65/76 15/51/76 14/43/76
f 32/69/75 7/56/75 8/44/75
f 46/76/72 23/59/72 22/54/72
f 39/74/66 16/57/66 15/51/66
f 33/70/76 8/44/76 9/46/76
f 47/82/74 24/39/74 23/59/74
f 26/67/73 1/50/73 2/41/73
f 11/38/41 23/59/41 24/39/41
f 2/41/42 1/50/42 13/42/42
f 8/44/43 20/60/43 21/45/43
f 6/47/77 5/61/77 17/48/77
f 12/40/45 24/39/45 13/42/45
f 2/41/78 14/43/78 15/51/78
f 10/53/47 9/46/47 21/45/47
f 6/47/48 18/49/48 19/55/48
f 3/52/79 15/51/79 16/57/79
f 10/53/50 22/54/50 23/59/50
f 7/56/51 19/55/51 20/60/51
f 5/61/80 4/58/80 16/57/80
f 48/62/53 47/82/53 35/63/53
f 38/65/54 37/85/54 25/66/54
f 45/68/55 44/83/55 32/69/55
f 30/71/81 42/84/81 41/72/81
f 25/66/57 37/85/57 48/62/57
f 39/74/82 38/65/82 26/67/82
f 46/76/59 45/68/59 33/70/59
f 43/78/60 42/84/60 30/71/60
f 40/80/83 39/74/83 27/75/83
f 47/82/62 46/76/62 34/77/62
f 44/83/63 43/78/63 31/79/63
f 29/73/84 41/72/84 40/80/84
f 40/80/65 41/72/65 17/48/65
f 34/77/66 33/70/66 9/46/66
f 48/62/67 37/85/67 13/42/67
f 3/52/68 27/75/68 26/67/68
f 17/48/69 41/72/69 42/84/69
f 35/63/65 34/77/65 10/53/65
f 4/58/70 28/81/70 27/75/70
f 42/84/71 43/78/71 19/55/71
f 36/64/69 35/63/69 11/38/69
f 29/73/72 28/81/72 4/58/72
f 43/78/73 44/83/73 20/60/73
f 25/66/71 36/64/71 12/40/71
f 30/71/74 29/73/74 5/61/74
f 44/83/68 45/68/68 21/45/68
f 37/85/75 38/65/75 14/43/75
f 31/79/67 30/71/67 6/47/67
f 21/45/70 45/68/70 46/76/70
f 38/65/76 39/74/76 15/51/76
f 32/69/75 31/79/75 7/56/75
f 46/76/72 47/82/72 23/59/72
f 39/74/66 40/80/66 16/57/66
f 33/70/76 32/69/76 8/44/76
f 47/82/74 48/62/74 24/39/74
f 26/67/73 25/66/73 1/50/73
