# Blender v2.90.0 OBJ File: 'Ring_01.blend'
# www.blender.org
mtllib Ring_01.mtl
o Ring_01_Circle
v -1.000000 -0.000000 0.123084
v -0.866025 0.500000 0.123084
v -0.500000 0.866025 0.123084
v -0.000000 1.000000 0.123084
v 0.500000 0.866025 0.123084
v 0.866025 0.500000 0.123084
v 1.000000 0.000000 0.123084
v 0.866026 -0.500000 0.123084
v 0.500000 -0.866025 0.123084
v 0.000001 -1.000000 0.123084
v -0.499999 -0.866026 0.123084
v -0.866025 -0.500001 0.123084
v -0.726324 -0.000000 0.115878
v -0.629015 0.363162 0.115878
v -0.363162 0.629015 0.115878
v 0.000000 0.726324 0.115878
v 0.363162 0.629015 0.115878
v 0.629015 0.363162 0.115878
v 0.726324 0.000000 0.115878
v 0.629015 -0.363162 0.115878
v 0.363162 -0.629015 0.115878
v 0.000000 -0.726324 0.115878
v -0.363162 -0.629015 0.115878
v -0.629015 -0.363162 0.115878
v -1.000000 -0.000000 -0.123084
v -0.866025 0.500000 -0.123084
v -0.500000 0.866025 -0.123084
v -0.000000 1.000000 -0.123084
v 0.500000 0.866025 -0.123084
v 0.866025 0.500000 -0.123084
v 1.000000 0.000000 -0.123084
v 0.866026 -0.500000 -0.123084
v 0.500000 -0.866025 -0.123084
v 0.000001 -1.000000 -0.123084
v -0.499999 -0.866026 -0.123084
v -0.866025 -0.500001 -0.123084
v -0.726324 -0.000000 -0.115878
v -0.629015 0.363162 -0.115878
v -0.363162 0.629015 -0.115878
v 0.000000 0.726324 -0.115878
v 0.363162 0.629015 -0.115878
v 0.629015 0.363162 -0.115878
v 0.726324 0.000000 -0.115878
v 0.629015 -0.363162 -0.115878
v 0.363162 -0.629015 -0.115878
v 0.000000 -0.726324 -0.115878
v -0.363162 -0.629015 -0.115878
v -0.629015 -0.363162 -0.115878
vt 0.000000 0.000000
vt 0.000000 0.000000
vt 0.000000 0.000000
vt 0.000000 0.000000
vt 0.000000 0.000000
vt 0.000000 0.000000
vt 0.000000 0.000000
vt 0.000000 0.000000
vt 0.000000 0.000000
vt 0.000000 0.000000
vt 0.000000 0.000000
vt 0.000000 0.000000
vt 0.000000 0.000000
vt 0.000000 0.000000
vt 0.000000 0.000000
vt 0.000000 0.000000
vt 0.000000 0.000000
vt 0.000000 0.000000
vt 0.000000 0.000000
vt 0.000000 0.000000
vt 0.000000 0.000000
vt 0.000000 0.000000
vt 0.000000 0.000000
vt 0.000000 0.000000
vt 0.000000 0.000000
vt 0.000000 0.000000
vt 0.000000 0.000000
vt 0.000000 0.000000
vt 0.000000 0.000000
vt 0.000000 0.000000
vt 0.000000 0.000000
vt 0.000000 0.000000
vt 0.000000 0.000000
vt 0.000000 0.000000
vt 0.000000 0.000000
vt 0.000000 0.000000
vt 0.000000 0.000000
vt 0.000000 0.000000
vt 0.000000 0.000000
vt 0.000000 0.000000
vt 0.000000 0.000000
vt 0.000000 0.000000
vt 0.000000 0.000000
vt 0.000000 0.000000
vt 0.000000 0.000000
vt 0.000000 0.000000
vt 0.000000 0.000000
vt 0.000000 0.000000
vn 0.0193 0.0193 0.9996
vn 0.0263 -0.0071 0.9996
vn -0.0193 0.0193 0.9996
vn -0.0193 -0.0193 0.9996
vn 0.0263 0.0071 0.9996
vn 0.0193 -0.0193 0.9996
vn -0.0071 0.0263 0.9996
vn -0.0263 -0.0071 0.9996
vn 0.0071 -0.0263 0.9996
vn 0.0071 0.0263 0.9996
vn -0.0263 0.0071 0.9996
vn -0.0071 -0.0263 0.9996
vn 0.0193 0.0193 -0.9996
vn 0.0263 -0.0071 -0.9996
vn -0.0193 0.0193 -0.9996
vn -0.0193 -0.0193 -0.9996
vn 0.0263 0.0071 -0.9996
vn 0.0193 -0.0193 -0.9996
vn -0.0071 0.0263 -0.9996
vn -0.0263 -0.0071 -0.9996
vn 0.0071 -0.0263 -0.9996
vn 0.0071 0.0263 -0.9996
vn -0.0263 0.0071 -0.9996
vn -0.0071 -0.0263 -0.9996
vn -0.2588 -0.9659 0.0000
vn 0.2588 -0.9659 0.0000
vn 0.9659 0.2588 0.0000
vn -0.7071 0.7071 0.0000
vn -0.7071 -0.7071 0.0000
vn -0.2588 0.9659 0.0000
vn -0.9659 -0.2588 0.0000
vn 0.2588 0.9659 -0.0000
vn -0.9659 0.2588 0.0000
vn 0.7071 0.7071 0.0000
vn 0.9659 -0.2588 0.0000
vn 0.7071 -0.7071 0.0000
usemtl Gold_ring
s off
f 11/1/1 24/2/1 12/3/1
f 2/4/2 13/5/2 14/6/2
f 8/7/3 21/8/3 9/9/3
f 5/10/4 18/11/4 6/12/4
f 1/13/5 24/2/5 13/5/5
f 2/4/6 15/14/6 3/15/6
f 9/9/7 22/16/7 10/17/7
f 7/18/8 18/11/8 19/19/8
f 3/15/9 16/20/9 4/21/9
f 10/17/10 23/22/10 11/1/10
f 7/18/11 20/23/11 8/7/11
f 4/21/12 17/24/12 5/10/12
f 48/25/13 35/26/13 36/27/13
f 38/28/14 25/29/14 26/30/14
f 45/31/15 32/32/15 33/33/15
f 42/34/16 29/35/16 30/36/16
f 25/29/17 48/25/17 36/27/17
f 27/37/18 38/28/18 26/30/18
f 46/38/19 33/33/19 34/39/19
f 43/40/20 30/36/20 31/41/20
f 28/42/21 39/43/21 27/37/21
f 47/44/22 34/39/22 35/26/22
f 44/45/23 31/41/23 32/32/23
f 41/46/24 28/42/24 29/35/24
f 40/47/25 17/24/25 16/20/25
f 34/39/26 9/9/26 10/17/26
f 48/25/27 13/5/27 24/2/27
f 27/37/28 2/4/28 3/15/28
f 41/46/29 18/11/29 17/24/29
f 35/26/25 10/17/25 11/1/25
f 4/21/30 27/37/30 3/15/30
f 42/34/31 19/19/31 18/11/31
f 36/27/29 11/1/29 12/3/29
f 5/10/32 28/42/32 4/21/32
f 43/40/33 20/23/33 19/19/33
f 25/29/31 12/3/31 1/13/31
f 6/12/34 29/35/34 5/10/34
f 44/45/28 21/8/28 20/23/28
f 37/48/35 14/6/35 13/5/35
f 31/41/27 6/12/27 7/18/27
f 21/8/30 46/38/30 22/16/30
f 38/28/36 15/14/36 14/6/36
f 32/32/35 7/18/35 8/7/35
f 46/38/32 23/22/32 22/16/32
f 15/14/26 40/47/26 16/20/26
f 33/33/36 8/7/36 9/9/36
f 47/44/34 24/2/34 23/22/34
f 26/30/33 1/13/33 2/4/33
f 11/1/1 23/22/1 24/2/1
f 2/4/2 1/13/2 13/5/2
f 8/7/3 20/23/3 21/8/3
f 5/10/4 17/24/4 18/11/4
f 1/13/5 12/3/5 24/2/5
f 2/4/6 14/6/6 15/14/6
f 9/9/7 21/8/7 22/16/7
f 7/18/8 6/12/8 18/11/8
f 3/15/9 15/14/9 16/20/9
f 10/17/10 22/16/10 23/22/10
f 7/18/11 19/19/11 20/23/11
f 4/21/12 16/20/12 17/24/12
f 48/25/13 47/44/13 35/26/13
f 38/28/14 37/48/14 25/29/14
f 45/31/15 44/45/15 32/32/15
f 42/34/16 41/46/16 29/35/16
f 25/29/17 37/48/17 48/25/17
f 27/37/18 39/43/18 38/28/18
f 46/38/19 45/31/19 33/33/19
f 43/40/20 42/34/20 30/36/20
f 28/42/21 40/47/21 39/43/21
f 47/44/22 46/38/22 34/39/22
f 44/45/23 43/40/23 31/41/23
f 41/46/24 40/47/24 28/42/24
f 40/47/25 41/46/25 17/24/25
f 34/39/26 33/33/26 9/9/26
f 48/25/27 37/48/27 13/5/27
f 27/37/28 26/30/28 2/4/28
f 41/46/29 42/34/29 18/11/29
f 35/26/25 34/39/25 10/17/25
f 4/21/30 28/42/30 27/37/30
f 42/34/31 43/40/31 19/19/31
f 36/27/29 35/26/29 11/1/29
f 5/10/32 29/35/32 28/42/32
f 43/40/33 44/45/33 20/23/33
f 25/29/31 36/27/31 12/3/31
f 6/12/34 30/36/34 29/35/34
f 44/45/28 45/31/28 21/8/28
f 37/48/35 38/28/35 14/6/35
f 31/41/27 30/36/27 6/12/27
f 21/8/30 45/31/30 46/38/30
f 38/28/36 39/43/36 15/14/36
f 32/32/35 31/41/35 7/18/35
f 46/38/32 47/44/32 23/22/32
f 15/14/26 39/43/26 40/47/26
f 33/33/36 32/32/36 8/7/36
f 47/44/34 48/25/34 24/2/34
f 26/30/33 25/29/33 1/13/33
