# Blender v2.90.0 OBJ File: 'Bread.blend'
# www.blender.org
mtllib Bread.mtl
o Bread_Icosphere.002
v 0.000000 -0.191126 -0.000000
v 0.364652 -0.086526 0.155763
v -0.139283 -0.086526 0.252031
v -0.450735 -0.086526 -0.000000
v -0.139283 -0.086526 -0.252031
v 0.364652 -0.086526 -0.155763
v 0.139283 0.083844 0.252031
v -0.364652 0.082720 0.155763
v -0.364652 0.082720 -0.155763
v 0.139283 0.083844 -0.252031
v 0.450735 0.082720 0.000000
v -0.000000 0.223361 0.000000
v -0.082170 -0.163458 0.148685
v 0.215126 -0.163458 0.091892
v 0.132956 -0.101750 0.240577
v 0.430251 -0.101750 -0.000000
v 0.215126 -0.163458 -0.091892
v -0.265910 -0.163458 0.000000
v -0.348080 -0.101750 0.148685
v -0.082170 -0.163458 -0.148685
v -0.348080 -0.101750 -0.148685
v 0.132956 -0.101750 -0.240577
v 0.481036 -0.001903 0.091892
v 0.481036 -0.001903 -0.091892
v 0.000000 -0.001903 0.297370
v 0.297296 -0.001903 0.240577
v -0.481036 -0.001903 0.091892
v -0.297296 -0.001903 0.240577
v -0.297296 -0.001903 -0.240577
v -0.481036 -0.001903 -0.091892
v 0.297296 -0.001903 -0.240577
v 0.000000 -0.001903 -0.297370
v 0.348080 0.097944 0.148685
v -0.132956 0.100256 0.240577
v -0.430251 0.097944 0.000000
v -0.132956 0.100256 -0.240577
v 0.348080 0.097944 -0.148685
v 0.082170 0.176695 0.148685
v 0.265910 0.161356 0.000000
v -0.215126 0.165162 0.091892
v -0.215126 0.165162 -0.091892
v 0.082170 0.176695 -0.148685
v 0.095685 -0.154099 0.173137
v 0.309641 -0.154099 -0.000000
v -0.250505 -0.154099 0.107005
v -0.250505 -0.154099 -0.107005
v 0.095685 -0.154099 -0.173137
v 0.501010 -0.037831 -0.000000
v 0.154820 -0.037831 0.280142
v -0.405325 -0.037831 0.173137
v -0.405325 -0.037831 -0.173137
v 0.154820 -0.037831 -0.280142
v 0.405325 0.034026 0.173137
v -0.154820 0.034026 0.280142
v -0.501010 0.034026 -0.000000
v -0.154820 0.034026 -0.280142
v 0.405325 0.034026 -0.173137
v 0.250505 0.151821 0.107005
v -0.095685 0.162893 0.173137
v -0.309641 0.150293 0.000000
v -0.095685 0.162893 -0.173137
v 0.250505 0.151821 -0.107005
vt 0.818181 0.000000
vt 0.818181 0.103334
vt 0.863636 0.078730
vt 0.818181 0.153087
vt 0.772727 0.072170
vt 0.727272 0.104974
vt 0.909090 0.157461
vt 0.636363 0.101694
vt 0.636363 0.148713
vt 0.590909 0.072170
vt 0.681818 0.072170
vt 0.636363 0.000000
vt 0.545454 0.104974
vt 0.049242 0.078730
vt 0.136364 0.072170
vt 0.090909 0.000000
vt 0.030303 0.157461
vt 0.091856 0.103334
vt 0.093434 0.153087
vt 0.181818 0.104974
vt 0.227273 0.072170
vt 0.318182 0.072170
vt 0.272727 0.000000
vt 0.272727 0.148713
vt 0.363636 0.104974
vt 0.272727 0.101694
vt 0.454545 0.000000
vt 0.454545 0.101694
vt 0.500000 0.072170
vt 0.409091 0.072170
vt 0.454545 0.148713
vt 0.681818 0.236191
vt 0.590909 0.236191
vt 0.636363 0.367408
vt 0.636363 0.208307
vt 0.863636 0.240565
vt 0.772727 0.236191
vt 0.818181 0.367408
vt 0.818181 0.209948
vt 0.091856 0.208307
vt 0.136364 0.231817
vt 0.049242 0.236191
vt 0.090909 0.314921
vt 0.318181 0.236191
vt 0.272727 0.208307
vt 0.272727 0.367408
vt 0.227273 0.236191
vt 0.500000 0.236191
vt 0.409091 0.236191
vt 0.454545 0.367408
vt 0.454545 0.208307
vt 0.727272 0.264075
vt 0.727272 0.323669
vt 0.908143 0.264075
vt 0.950757 0.236191
vt 0.906565 0.319295
vt 0.969697 0.314921
vt 0.181818 0.262434
vt 0.181818 0.319295
vt 0.363636 0.264075
vt 0.363636 0.323669
vt 0.545454 0.264075
vt 0.545454 0.323669
vt 0.727272 0.370688
vt 0.772727 0.400212
vt 0.681818 0.400212
vt 0.727272 0.472382
vt 0.950757 0.393652
vt 0.908143 0.369048
vt 0.909090 0.472382
vt 0.863636 0.400212
vt 0.181818 0.369048
vt 0.227273 0.400212
vt 0.136364 0.393652
vt 0.181818 0.472382
vt 0.363636 0.370688
vt 0.409091 0.400212
vt 0.318182 0.400212
vt 0.363636 0.472382
vt 0.590909 0.400212
vt 0.545454 0.370688
vt 0.500000 0.400212
vt 0.545454 0.472382
vn 0.0246 -0.9803 0.1960
vn 0.2310 -0.8468 0.4791
vn -0.0178 -0.7850 0.6192
vn 0.3856 -0.8884 0.2492
vn 0.1276 -0.9918 0.0000
vn 0.3484 -0.8986 -0.2668
vn -0.1027 -0.9866 0.1269
vn -0.1760 -0.8337 0.5234
vn -0.3788 -0.9100 0.1684
vn -0.1027 -0.9866 -0.1269
vn -0.3788 -0.9100 -0.1684
vn -0.2075 -0.8161 -0.5394
vn 0.0479 -0.9818 -0.1835
vn -0.0375 -0.8114 -0.5833
vn 0.2310 -0.8468 -0.4791
vn 0.6685 -0.6584 0.3459
vn 0.6685 -0.6584 -0.3459
vn 0.9218 0.3844 -0.0501
vn 0.0097 -0.4846 0.8747
vn 0.3220 -0.5300 0.7845
vn 0.2016 0.2449 0.9484
vn -0.6852 -0.6342 0.3581
vn -0.3429 -0.5358 0.7716
vn -0.5752 0.3035 0.7596
vn -0.3429 -0.5358 -0.7716
vn -0.6229 -0.6951 -0.3589
vn -0.6217 0.3132 -0.7179
vn 0.3220 -0.5300 -0.7845
vn 0.0097 -0.4846 -0.8747
vn 0.1626 0.2418 -0.9566
vn 0.5752 -0.3035 0.7596
vn 0.6852 0.6342 0.3581
vn 0.3458 0.5341 0.7715
vn -0.2010 -0.2470 0.9480
vn -0.0082 0.4777 0.8785
vn -0.3271 0.5263 0.7849
vn -0.9218 -0.3844 -0.0501
vn -0.6685 0.6584 0.3459
vn -0.6685 0.6584 -0.3459
vn -0.1630 -0.2439 -0.9560
vn -0.3271 0.5263 -0.7849
vn -0.0082 0.4777 -0.8785
vn 0.6217 -0.3132 -0.7179
vn 0.3458 0.5341 -0.7715
vn 0.6229 0.6951 -0.3589
vn 0.2557 0.7851 0.5641
vn 0.3856 0.9062 0.1734
vn 0.2235 0.9584 0.1773
vn -0.2454 0.8314 0.4986
vn 0.0151 0.7285 0.6849
vn -0.0304 0.9488 0.3146
vn -0.3833 0.8891 -0.2503
vn -0.3856 0.8884 0.2492
vn -0.2611 0.9653 0.0000
vn 0.0321 0.7522 -0.6581
vn -0.2454 0.8314 -0.4986
vn -0.1519 0.9563 -0.2500
vn 0.3856 0.9062 -0.1734
vn 0.2149 0.8106 -0.5447
vn 0.2235 0.9584 -0.1773
vn 0.0479 -0.9818 0.1835
vn 0.2703 -0.8272 0.4927
vn -0.0375 -0.8114 0.5833
vn 0.3484 -0.8986 0.2668
vn 0.0985 -0.9951 -0.0000
vn 0.3856 -0.8884 -0.2492
vn -0.0795 -0.9920 0.0982
vn -0.2075 -0.8161 0.5394
vn -0.4214 -0.8962 0.1391
vn -0.0795 -0.9920 -0.0982
vn -0.4214 -0.8962 -0.1391
vn -0.1760 -0.8337 -0.5234
vn 0.0246 -0.9803 -0.1960
vn -0.0178 -0.7850 -0.6192
vn 0.2703 -0.8272 -0.4927
vn 0.6145 -0.6803 0.3995
vn 0.6145 -0.6803 -0.3995
vn 0.9218 0.3844 0.0501
vn -0.0256 -0.5198 0.8539
vn 0.3504 -0.5767 0.7380
vn 0.1626 0.2418 0.9566
vn -0.6229 -0.6951 0.3589
vn -0.2961 -0.5609 0.7731
vn -0.6217 0.3132 0.7179
vn -0.2961 -0.5609 -0.7731
vn -0.6852 -0.6342 -0.3581
vn -0.5752 0.3035 -0.7596
vn 0.3504 -0.5767 -0.7380
vn -0.0256 -0.5198 -0.8539
vn 0.2016 0.2449 -0.9484
vn 0.6217 -0.3132 0.7179
vn 0.6229 0.6951 0.3589
vn 0.2961 0.5609 0.7731
vn -0.1630 -0.2439 0.9560
vn 0.0219 0.5074 0.8614
vn -0.3499 0.5629 0.7488
vn -0.9218 -0.3844 0.0501
vn -0.6145 0.6803 0.3995
vn -0.6145 0.6803 -0.3995
vn -0.2010 -0.2470 -0.9480
vn -0.3499 0.5629 -0.7488
vn 0.0219 0.5074 -0.8614
vn 0.5752 -0.3035 -0.7596
vn 0.2961 0.5609 -0.7731
vn 0.6852 0.6342 -0.3581
vn 0.2149 0.8106 0.5447
vn 0.4315 0.8909 0.1415
vn 0.1724 0.9786 0.1120
vn -0.3452 0.7751 0.5291
vn 0.0321 0.7522 0.6581
vn -0.1519 0.9563 0.2500
vn -0.3856 0.8884 -0.2492
vn -0.3833 0.8891 0.2503
vn -0.1554 0.9879 -0.0000
vn 0.0151 0.7285 -0.6849
vn -0.3452 0.7751 -0.5291
vn -0.0304 0.9488 -0.3146
vn 0.4315 0.8909 -0.1415
vn 0.2557 0.7851 -0.5641
vn 0.1724 0.9786 -0.1120
usemtl Bread
s off
f 1/1/1 43/2/1 13/3/1
f 15/4/2 14/5/2 2/6/2
f 3/7/3 43/2/3 15/4/3
f 2/6/4 44/8/4 16/9/4
f 17/10/5 14/11/5 1/12/5
f 6/13/6 44/8/6 17/10/6
f 13/14/7 18/15/7 1/16/7
f 3/17/8 45/18/8 13/14/8
f 18/15/9 19/19/9 4/20/9
f 18/21/10 20/22/10 1/23/10
f 21/24/11 18/21/11 4/20/11
f 5/25/12 46/26/12 21/24/12
f 1/27/13 47/28/13 17/29/13
f 5/25/14 47/28/14 20/30/14
f 17/29/15 22/31/15 6/13/15
f 16/9/16 23/32/16 2/6/16
f 24/33/17 16/9/17 6/13/17
f 11/34/18 48/35/18 24/33/18
f 15/4/19 25/36/19 3/7/19
f 26/37/20 15/4/20 2/6/20
f 7/38/21 49/39/21 26/37/21
f 4/20/22 50/40/22 27/41/22
f 28/42/23 19/19/23 3/17/23
f 8/43/24 50/40/24 28/42/24
f 21/24/25 29/44/25 5/25/25
f 4/20/26 51/45/26 21/24/26
f 9/46/27 51/45/27 30/47/27
f 22/31/28 31/48/28 6/13/28
f 32/49/29 22/31/29 5/25/29
f 10/50/30 52/51/30 32/49/30
f 2/6/31 53/52/31 26/37/31
f 11/34/32 53/52/32 23/32/32
f 26/37/33 33/53/33 7/38/33
f 3/7/34 54/54/34 28/55/34
f 34/56/35 25/36/35 7/38/35
f 28/55/36 34/56/36 8/57/36
f 4/20/37 55/58/37 30/47/37
f 35/59/38 27/41/38 8/43/38
f 30/47/39 35/59/39 9/46/39
f 5/25/40 56/60/40 32/49/40
f 36/61/41 29/44/41 9/46/41
f 32/49/42 36/61/42 10/50/42
f 6/13/43 57/62/43 24/33/43
f 37/63/44 31/48/44 10/50/44
f 11/34/45 57/62/45 37/63/45
f 7/38/46 58/64/46 38/65/46
f 39/66/47 33/53/47 11/34/47
f 38/65/48 39/66/48 12/67/48
f 34/56/49 40/68/49 8/57/49
f 7/38/50 59/69/50 34/56/50
f 12/70/51 59/69/51 38/71/51
f 9/46/52 60/72/52 41/73/52
f 8/43/53 60/72/53 35/59/53
f 41/73/54 40/74/54 12/75/54
f 10/50/55 61/76/55 42/77/55
f 41/78/56 36/61/56 9/46/56
f 12/79/57 61/76/57 41/78/57
f 37/63/58 39/80/58 11/34/58
f 10/50/59 62/81/59 37/63/59
f 39/80/60 42/82/60 12/83/60
f 1/1/61 14/5/61 43/2/61
f 15/4/62 43/2/62 14/5/62
f 3/7/63 13/3/63 43/2/63
f 2/6/64 14/11/64 44/8/64
f 17/10/65 44/8/65 14/11/65
f 6/13/66 16/9/66 44/8/66
f 13/14/67 45/18/67 18/15/67
f 3/17/68 19/19/68 45/18/68
f 18/15/69 45/18/69 19/19/69
f 18/21/70 46/26/70 20/22/70
f 21/24/71 46/26/71 18/21/71
f 5/25/72 20/22/72 46/26/72
f 1/27/73 20/30/73 47/28/73
f 5/25/74 22/31/74 47/28/74
f 17/29/75 47/28/75 22/31/75
f 16/9/76 48/35/76 23/32/76
f 24/33/77 48/35/77 16/9/77
f 11/34/78 23/32/78 48/35/78
f 15/4/79 49/39/79 25/36/79
f 26/37/80 49/39/80 15/4/80
f 7/38/81 25/36/81 49/39/81
f 4/20/82 19/19/82 50/40/82
f 28/42/83 50/40/83 19/19/83
f 8/43/84 27/41/84 50/40/84
f 21/24/85 51/45/85 29/44/85
f 4/20/86 30/47/86 51/45/86
f 9/46/87 29/44/87 51/45/87
f 22/31/88 52/51/88 31/48/88
f 32/49/89 52/51/89 22/31/89
f 10/50/90 31/48/90 52/51/90
f 2/6/91 23/32/91 53/52/91
f 11/34/92 33/53/92 53/52/92
f 26/37/93 53/52/93 33/53/93
f 3/7/94 25/36/94 54/54/94
f 34/56/95 54/54/95 25/36/95
f 28/55/96 54/54/96 34/56/96
f 4/20/97 27/41/97 55/58/97
f 35/59/98 55/58/98 27/41/98
f 30/47/99 55/58/99 35/59/99
f 5/25/100 29/44/100 56/60/100
f 36/61/101 56/60/101 29/44/101
f 32/49/102 56/60/102 36/61/102
f 6/13/103 31/48/103 57/62/103
f 37/63/104 57/62/104 31/48/104
f 11/34/105 24/33/105 57/62/105
f 7/38/106 33/53/106 58/64/106
f 39/66/107 58/64/107 33/53/107
f 38/65/108 58/64/108 39/66/108
f 34/56/109 59/69/109 40/68/109
f 7/38/110 38/71/110 59/69/110
f 12/70/111 40/68/111 59/69/111
f 9/46/112 35/59/112 60/72/112
f 8/43/113 40/74/113 60/72/113
f 41/73/114 60/72/114 40/74/114
f 10/50/115 36/61/115 61/76/115
f 41/78/116 61/76/116 36/61/116
f 12/79/117 42/77/117 61/76/117
f 37/63/118 62/81/118 39/80/118
f 10/50/119 42/82/119 62/81/119
f 39/80/120 62/81/120 42/82/120
