# Blender v2.90.0 OBJ File: 'House_walltop.blend'
# www.blender.org
mtllib House_walltop.mtl
o WallTop_Wall_top
v -0.001423 -0.000469 0.184125
v -0.001423 4.004644 0.184125
v -0.001424 -0.000469 -0.184125
v -0.001424 4.004644 -0.184125
v 0.212816 -0.000469 0.184125
v 0.212816 4.004644 0.184125
v 0.212816 -0.000469 -0.184125
v 0.212816 4.004644 -0.184125
v 3.901423 2.000470 -0.100003
v 3.901423 0.000470 -0.100003
v 3.901423 2.000470 0.099997
v 3.901423 0.000470 0.099997
v 0.001423 0.000470 0.100000
v 0.001423 4.000470 -0.100000
v 0.001423 4.000470 0.100000
v 0.001423 0.000470 -0.100000
v 3.315952 2.301551 0.220348
v 2.896058 2.517477 0.220348
v 3.315951 2.301551 -0.230500
v 2.896057 2.517477 -0.230499
v -0.001423 0.491412 -0.225424
v -0.001423 0.942260 -0.225424
v -0.001423 0.491412 0.225424
v -0.001423 0.942260 0.225424
vt 0.625000 0.625000
vt 0.875000 0.750000
vt 0.625000 0.750000
vt 0.375000 1.000000
vt 0.375000 0.750000
vt 0.375000 0.625000
vt 0.125000 0.750000
vt 0.125000 0.625000
vt 0.625000 0.000000
vt 0.375000 0.125000
vt 0.375000 0.000000
vt 0.875000 0.625000
vt 0.625000 1.000000
vt 0.625000 0.125000
vt 0.625000 0.250000
vt 0.375000 0.500000
vt 0.375000 0.250000
vt 0.625000 0.750000
vt 0.375000 1.000000
vt 0.375000 0.750000
vt 0.125000 0.750000
vt 0.125000 0.500000
vt 0.875000 0.500000
vt 0.625000 0.500000
vt 0.375000 0.375000
vt 0.626297 0.498206
vt 0.373508 0.499074
vt 0.626297 0.751794
vt 0.373508 0.750926
vt 0.250000 0.500000
vt 0.250000 0.750000
vt 0.750000 0.500000
vt 0.375000 0.875000
vt 0.625000 1.000000
vt 0.875000 0.750000
vt 0.625000 0.375000
vt 0.750000 0.750000
vt 0.625000 0.875000
vn 0.4563 0.8898 0.0000
vn 1.0000 0.0000 0.0000
vn 0.0000 -1.0000 0.0000
vn -0.0000 0.0000 -1.0000
vn 0.0000 0.0000 1.0000
vn 0.0000 1.0000 0.0000
vn -0.0007 -0.0014 -1.0000
vn 0.4573 0.8893 -0.0000
vn 0.4790 -0.8778 -0.0000
vn -0.4776 0.8786 0.0000
vn 0.0007 0.0014 1.0000
vn -0.0018 0.0000 -1.0000
vn 0.0018 0.0000 1.0000
usemtl Plater_wallTop
s off
f 14/1/1 11/2/1 9/3/1
f 9/3/2 12/4/2 10/5/2
f 16/6/3 12/7/3 13/8/3
f 16/6/4 9/3/4 10/5/4
f 11/9/5 13/10/5 12/11/5
f 14/1/1 15/12/1 11/2/1
f 9/3/2 11/13/2 12/4/2
f 16/6/3 10/5/3 12/7/3
f 16/6/4 14/1/4 9/3/4
f 11/9/5 15/14/5 13/10/5
usemtl Wood_wallTop
f 4/15/4 7/16/4 3/17/4
f 6/18/5 1/19/5 5/20/5
f 7/16/3 1/21/3 3/22/3
f 4/23/6 6/18/6 8/24/6
f 21/25/7 20/26/7 19/27/7
f 19/27/8 18/28/8 17/29/8
f 21/30/9 17/29/9 23/31/9
f 22/32/10 18/28/10 20/26/10
f 18/28/11 23/33/11 17/29/11
f 8/24/2 5/20/2 7/16/2
f 4/15/4 8/24/4 7/16/4
f 6/18/5 2/34/5 1/19/5
f 7/16/3 5/20/3 1/21/3
f 4/23/6 2/35/6 6/18/6
f 21/25/12 22/36/12 20/26/12
f 19/27/8 20/26/8 18/28/8
f 21/30/9 19/27/9 17/29/9
f 22/32/10 24/37/10 18/28/10
f 18/28/13 24/38/13 23/33/13
f 8/24/2 6/18/2 5/20/2
