# Blender v2.90.0 OBJ File: 'Pie.blend'
# www.blender.org
mtllib Pie.mtl
o Pie_Circle
v -0.000000 -0.014687 -0.429031
v -0.371552 -0.014687 -0.214515
v -0.371552 -0.014687 0.214515
v 0.000000 -0.014687 0.429031
v 0.371552 -0.014687 0.214515
v 0.371552 -0.014687 -0.214515
v -0.000000 0.161518 -0.493266
v -0.427181 0.161518 -0.246633
v -0.427181 0.161518 0.246633
v 0.000000 0.161518 0.493266
v 0.427181 0.161518 0.246633
v 0.427181 0.161518 -0.246633
v -0.470205 0.161518 -0.271473
v -0.000000 0.161518 -0.542946
v -0.470205 0.161518 0.271473
v 0.000000 0.161518 0.542946
v 0.470205 0.161518 0.271473
v 0.470205 0.161518 -0.271473
v -0.345604 0.353183 -0.199535
v -0.000000 0.353183 -0.399069
v -0.345604 0.353183 0.199535
v 0.000000 0.353183 0.399069
v 0.345604 0.353183 0.199535
v 0.345604 0.353183 -0.199535
v -0.157055 0.505576 -0.090676
v -0.000000 0.505576 -0.181351
v -0.157055 0.505576 0.090676
v -0.000000 0.505576 0.181351
v 0.157055 0.505576 0.090676
v 0.157055 0.505576 -0.090676
v -0.418171 0.237913 -0.241431
v -0.000000 0.237913 -0.482862
v 0.418171 0.237913 -0.241431
v 0.418171 0.237913 0.241431
v 0.000000 0.237913 0.482862
v -0.418171 0.237913 0.241431
v -0.000000 0.207072 -0.538325
v 0.466203 0.207072 -0.269162
v 0.000000 0.207072 0.538325
v -0.466203 0.207072 -0.269162
v 0.466203 0.207072 0.269162
v -0.466203 0.207072 0.269162
v 0.082739 0.459442 -0.176385
v 0.084933 0.469564 -0.184240
v 0.137757 0.355168 -0.295389
v 0.139951 0.365290 -0.303243
v 0.107008 0.461493 -0.166962
v 0.109202 0.471615 -0.174817
v 0.162025 0.357219 -0.285966
v 0.164220 0.367341 -0.293820
v -0.109321 0.459442 -0.161265
v -0.114950 0.469564 -0.167166
v -0.183488 0.355168 -0.269376
v -0.189118 0.365290 -0.275277
v -0.088818 0.461493 -0.177309
v -0.094448 0.471615 -0.183209
v -0.162985 0.357219 -0.285420
v -0.168615 0.367341 -0.291320
v -0.193608 0.459442 0.021765
v -0.201449 0.469564 0.024004
v -0.323809 0.355168 0.037135
v -0.331651 0.365290 0.039374
v -0.198273 0.461493 -0.003847
v -0.206115 0.471615 -0.001608
v -0.328475 0.357219 0.011522
v -0.336317 0.367341 0.013761
v -0.075270 0.459442 0.179700
v -0.077133 0.469564 0.187639
v -0.125250 0.355168 0.300905
v -0.127113 0.365290 0.308845
v -0.099913 0.461493 0.171303
v -0.101776 0.471615 0.179242
v -0.149892 0.357219 0.292508
v -0.151755 0.367341 0.300448
v 0.102714 0.459442 0.165552
v 0.108100 0.469564 0.171675
v 0.172451 0.355168 0.276572
v 0.177838 0.365290 0.282695
v 0.081579 0.461493 0.180754
v 0.086966 0.471615 0.186877
v 0.151317 0.357219 0.291774
v 0.156703 0.367341 0.297897
v 0.194807 0.459442 -0.002815
v 0.202829 0.469564 -0.004280
v 0.325886 0.355168 -0.005438
v 0.333909 0.365290 -0.006902
v 0.196957 0.461493 0.023130
v 0.204980 0.471615 0.021665
v 0.328037 0.357219 0.020507
v 0.336059 0.367341 0.019042
vt 0.625000 0.000000
vt 0.375000 0.250000
vt 0.375000 0.000000
vt 0.625000 0.250000
vt 0.375000 0.500000
vt 0.625000 0.500000
vt 0.375000 0.750000
vt 0.625000 1.000000
vt 0.375000 1.000000
vt 0.125000 0.750000
vt 0.125000 0.500000
vt 0.875000 0.500000
vt 0.625000 0.750000
vt 0.625000 0.000000
vt 0.375000 0.250000
vt 0.375000 0.000000
vt 0.625000 0.250000
vt 0.375000 0.500000
vt 0.625000 0.500000
vt 0.375000 0.750000
vt 0.625000 1.000000
vt 0.375000 1.000000
vt 0.125000 0.750000
vt 0.125000 0.500000
vt 0.875000 0.750000
vt 0.625000 0.750000
vt 0.375000 0.000000
vt 0.625000 0.250000
vt 0.375000 0.250000
vt 0.375000 0.500000
vt 0.625000 0.750000
vt 0.375000 0.750000
vt 0.375000 1.000000
vt 0.125000 0.750000
vt 0.125000 0.500000
vt 0.875000 0.500000
vt 0.625000 0.500000
vt 0.625000 0.000000
vt 0.375000 0.250000
vt 0.375000 0.000000
vt 0.625000 0.500000
vt 0.375000 0.500000
vt 0.375000 0.750000
vt 0.625000 1.000000
vt 0.375000 1.000000
vt 0.125000 0.750000
vt 0.125000 0.500000
vt 0.875000 0.500000
vt 0.625000 0.750000
vt 0.375000 0.000000
vt 0.625000 0.250000
vt 0.375000 0.250000
vt 0.375000 0.500000
vt 0.625000 0.500000
vt 0.375000 0.750000
vt 0.625000 1.000000
vt 0.375000 1.000000
vt 0.125000 0.750000
vt 0.125000 0.500000
vt 0.875000 0.750000
vt 0.625000 0.750000
vt 0.375000 0.000000
vt 0.625000 0.250000
vt 0.375000 0.250000
vt 0.375000 0.500000
vt 0.625000 0.750000
vt 0.375000 0.750000
vt 0.625000 1.000000
vt 0.375000 1.000000
vt 0.125000 0.750000
vt 0.125000 0.500000
vt 0.625000 0.500000
vt 0.875000 0.750000
vt 0.875000 0.750000
vt 0.875000 0.500000
vt 0.625000 0.000000
vt 0.625000 1.000000
vt 0.875000 0.750000
vt 0.625000 0.250000
vt 0.875000 0.750000
vt 0.625000 0.000000
vt 0.875000 0.500000
vt 0.625000 0.000000
vt 0.875000 0.500000
vt 0.000000 0.000000
vt 0.000000 0.000000
vt 0.000000 0.000000
vt 0.000000 0.000000
vt 0.000000 0.000000
vt 0.000000 0.000000
vt 0.000000 0.000000
vt 0.000000 0.000000
vt 0.000000 0.000000
vt 0.000000 0.000000
vt 0.000000 0.000000
vt 0.000000 0.000000
vt 0.000000 0.000000
vt 0.000000 0.000000
vt 0.000000 0.000000
vt 0.000000 0.000000
vt 0.000000 0.000000
vt 0.000000 0.000000
vt 0.000000 0.000000
vt 0.000000 0.000000
vt 0.000000 0.000000
vt 0.000000 0.000000
vt 0.000000 0.000000
vt 0.000000 0.000000
vt 0.000000 0.000000
vt 0.000000 0.000000
vt 0.000000 0.000000
vt 0.000000 0.000000
vt 0.000000 0.000000
vt 0.000000 0.000000
vt 0.000000 0.000000
vt 0.000000 0.000000
vt 0.000000 0.000000
vt 0.000000 0.000000
vt 0.000000 0.000000
vt 0.000000 0.000000
vt 0.000000 0.000000
vt 0.000000 0.000000
vt 0.000000 0.000000
vt 0.000000 0.000000
vt 0.000000 0.000000
vt 0.000000 0.000000
vn -0.9293 -0.0785 -0.3608
vn 0.3284 -0.6225 -0.7104
vn 0.9293 0.0785 0.3608
vn -0.3284 0.6225 0.7104
vn -0.1688 -0.7787 0.6043
vn 0.1688 0.7787 -0.6043
vn -0.7851 -0.0785 0.6144
vn -0.4427 -0.6225 -0.6454
vn 0.7851 0.0785 -0.6144
vn 0.4427 0.6225 0.6454
vn 0.4331 -0.7787 0.4539
vn -0.4331 0.7787 -0.4539
vn 0.1787 -0.0785 0.9808
vn -0.7772 -0.6225 0.0918
vn -0.1787 0.0785 -0.9808
vn 0.7772 0.6225 -0.0918
vn 0.6033 -0.7787 -0.1723
vn -0.6033 0.7787 0.1723
vn 0.9436 -0.0785 0.3215
vn -0.2984 -0.6225 0.7235
vn -0.9436 0.0785 -0.3216
vn 0.2984 0.6225 -0.7235
vn 0.1433 -0.7787 -0.6108
vn -0.1433 0.7787 0.6108
vn 0.8093 -0.0785 -0.5821
vn 0.4163 -0.6225 0.6627
vn -0.8093 0.0785 0.5821
vn -0.4163 0.6225 -0.6627
vn -0.4144 -0.7787 -0.4711
vn 0.4144 0.7787 0.4711
vn -0.0823 -0.0785 -0.9935
vn 0.7825 -0.6225 -0.0157
vn 0.0823 0.0785 0.9935
vn -0.7825 0.6225 0.0157
vn -0.6172 -0.7787 0.1127
vn 0.6172 0.7787 -0.1127
vn -0.7772 -0.6225 0.0917
vn 0.7772 0.6225 -0.0917
vn 0.9436 -0.0785 0.3216
vn -0.4231 0.5328 -0.7329
vn 0.6286 0.7777 0.0000
vn 0.4231 0.5328 -0.7329
vn 0.4231 0.5328 0.7329
vn -0.8463 0.5328 0.0000
vn 0.8463 0.5328 0.0000
vn -0.4231 0.5328 0.7329
vn 0.0000 1.0000 0.0000
vn -0.3143 0.7777 0.5444
vn -0.3143 0.7777 -0.5444
vn 0.3143 0.7777 -0.5444
vn 0.3143 0.7777 0.5444
vn -0.6286 0.7777 0.0000
vn 0.0000 -1.0000 0.0000
vn 0.4768 -0.3011 -0.8258
vn 0.4768 -0.3011 0.8258
vn -0.9536 -0.3011 0.0000
vn 0.9536 -0.3011 0.0000
vn -0.4768 -0.3011 0.8258
vn -0.4768 -0.3011 -0.8258
vn -0.2701 0.8415 0.4679
vn 0.5403 0.8415 0.0000
vn -0.5403 0.8415 0.0000
vn 0.2701 0.8415 0.4679
vn 0.2701 0.8415 -0.4679
vn -0.2701 0.8415 -0.4679
vn -0.4981 0.0875 -0.8627
vn 0.4981 0.0875 -0.8627
vn 0.4981 0.0875 0.8627
vn -0.9962 0.0875 0.0000
vn 0.9962 0.0875 0.0000
vn -0.4981 0.0875 0.8627
usemtl Comfit_Pie
s off
f 44/1/1 45/2/1 43/3/1
f 46/4/2 49/5/2 45/2/2
f 50/6/3 47/7/3 49/5/3
f 47/7/4 44/8/4 43/9/4
f 49/5/5 43/10/5 45/11/5
f 46/12/6 48/13/6 50/6/6
f 52/14/7 53/15/7 51/16/7
f 54/17/8 57/18/8 53/15/8
f 58/19/9 55/20/9 57/18/9
f 55/20/10 52/21/10 51/22/10
f 57/18/11 51/23/11 53/24/11
f 58/19/12 52/25/12 56/26/12
f 59/27/13 62/28/13 61/29/13
f 62/28/14 65/30/14 61/29/14
f 65/30/15 64/31/15 63/32/15
f 64/31/16 59/33/16 63/32/16
f 65/30/17 59/34/17 61/35/17
f 62/36/18 64/31/18 66/37/18
f 68/38/19 69/39/19 67/40/19
f 69/39/20 74/41/20 73/42/20
f 74/41/21 71/43/21 73/42/21
f 71/43/22 68/44/22 67/45/22
f 73/42/23 67/46/23 69/47/23
f 70/48/24 72/49/24 74/41/24
f 75/50/25 78/51/25 77/52/25
f 78/51/26 81/53/26 77/52/26
f 82/54/27 79/55/27 81/53/27
f 79/55/28 76/56/28 75/57/28
f 81/53/29 75/58/29 77/59/29
f 82/54/30 76/60/30 80/61/30
f 83/62/31 86/63/31 85/64/31
f 86/63/32 89/65/32 85/64/32
f 89/65/33 88/66/33 87/67/33
f 87/67/34 84/68/34 83/69/34
f 89/65/35 83/70/35 85/71/35
f 90/72/36 84/73/36 88/66/36
f 44/1/1 46/4/1 45/2/1
f 46/4/2 50/6/2 49/5/2
f 50/6/3 48/13/3 47/7/3
f 47/7/4 48/13/4 44/8/4
f 49/5/5 47/7/5 43/10/5
f 46/12/6 44/74/6 48/13/6
f 52/14/7 54/17/7 53/15/7
f 54/17/8 58/19/8 57/18/8
f 58/19/9 56/26/9 55/20/9
f 55/20/10 56/26/10 52/21/10
f 57/18/11 55/20/11 51/23/11
f 58/19/12 54/75/12 52/25/12
f 59/27/13 60/76/13 62/28/13
f 62/28/37 66/37/37 65/30/37
f 65/30/15 66/37/15 64/31/15
f 64/31/38 60/77/38 59/33/38
f 65/30/17 63/32/17 59/34/17
f 62/36/18 60/78/18 64/31/18
f 68/38/39 70/79/39 69/39/39
f 69/39/20 70/79/20 74/41/20
f 74/41/21 72/49/21 71/43/21
f 71/43/22 72/49/22 68/44/22
f 73/42/23 71/43/23 67/46/23
f 70/48/24 68/80/24 72/49/24
f 75/50/25 76/81/25 78/51/25
f 78/51/26 82/54/26 81/53/26
f 82/54/27 80/61/27 79/55/27
f 79/55/28 80/61/28 76/56/28
f 81/53/29 79/55/29 75/58/29
f 82/54/30 78/82/30 76/60/30
f 83/62/31 84/83/31 86/63/31
f 86/63/32 90/72/32 89/65/32
f 89/65/33 90/72/33 88/66/33
f 87/67/34 88/66/34 84/68/34
f 89/65/35 87/67/35 83/70/35
f 90/72/36 86/84/36 84/73/36
usemtl Mass_Pie
f 31/85/40 20/86/40 32/87/40
f 24/88/41 29/89/41 23/90/41
f 32/87/42 24/88/42 33/91/42
f 34/92/43 22/93/43 35/94/43
f 36/95/44 19/96/44 31/85/44
f 33/91/45 23/90/45 34/92/45
f 35/94/46 21/97/46 36/95/46
f 27/98/47 29/89/47 26/99/47
f 22/93/48 27/98/48 21/97/48
f 20/86/49 25/100/49 26/99/49
f 20/86/50 30/101/50 24/88/50
f 23/90/51 28/102/51 22/93/51
f 21/97/52 25/100/52 19/96/52
f 31/85/40 19/96/40 20/86/40
f 24/88/41 30/101/41 29/89/41
f 32/87/42 20/86/42 24/88/42
f 34/92/43 23/90/43 22/93/43
f 36/95/44 21/97/44 19/96/44
f 33/91/45 24/88/45 23/90/45
f 35/94/46 22/93/46 21/97/46
f 26/99/47 25/100/47 27/98/47
f 27/98/47 28/102/47 29/89/47
f 29/89/47 30/101/47 26/99/47
f 22/93/48 28/102/48 27/98/48
f 20/86/49 19/96/49 25/100/49
f 20/86/50 26/99/50 30/101/50
f 23/90/51 29/89/51 28/102/51
f 21/97/52 27/98/52 25/100/52
usemtl Iron_Pie
f 4/103/53 3/104/53 1/105/53
f 9/106/53 13/107/53 8/108/53
f 1/105/54 12/109/54 6/110/54
f 5/111/55 10/112/55 4/103/55
f 3/104/56 8/108/56 2/113/56
f 6/110/57 11/114/57 5/111/57
f 3/104/58 10/112/58 9/106/58
f 2/113/59 7/115/59 1/105/59
f 12/109/53 17/116/53 11/114/53
f 9/106/53 16/117/53 15/118/53
f 8/108/53 14/119/53 7/115/53
f 7/115/53 18/120/53 12/109/53
f 10/112/53 17/116/53 16/117/53
f 42/121/60 35/94/60 36/95/60
f 38/122/61 34/92/61 41/123/61
f 40/124/62 36/95/62 31/85/62
f 39/125/63 34/92/63 35/94/63
f 38/122/64 32/87/64 33/91/64
f 40/124/65 32/87/65 37/126/65
f 14/119/66 40/124/66 37/126/66
f 14/119/67 38/122/67 18/120/67
f 16/117/68 41/123/68 39/125/68
f 13/107/69 42/121/69 40/124/69
f 18/120/70 41/123/70 17/116/70
f 15/118/71 39/125/71 42/121/71
f 3/104/53 2/113/53 1/105/53
f 1/105/53 6/110/53 5/111/53
f 5/111/53 4/103/53 1/105/53
f 9/106/53 15/118/53 13/107/53
f 1/105/54 7/115/54 12/109/54
f 5/111/55 11/114/55 10/112/55
f 3/104/56 9/106/56 8/108/56
f 6/110/57 12/109/57 11/114/57
f 3/104/58 4/103/58 10/112/58
f 2/113/59 8/108/59 7/115/59
f 12/109/53 18/120/53 17/116/53
f 9/106/53 10/112/53 16/117/53
f 8/108/53 13/107/53 14/119/53
f 7/115/53 14/119/53 18/120/53
f 10/112/53 11/114/53 17/116/53
f 42/121/60 39/125/60 35/94/60
f 38/122/61 33/91/61 34/92/61
f 40/124/62 42/121/62 36/95/62
f 39/125/63 41/123/63 34/92/63
f 38/122/64 37/126/64 32/87/64
f 40/124/65 31/85/65 32/87/65
f 14/119/66 13/107/66 40/124/66
f 14/119/67 37/126/67 38/122/67
f 16/117/68 17/116/68 41/123/68
f 13/107/69 15/118/69 42/121/69
f 18/120/70 38/122/70 41/123/70
f 15/118/71 16/117/71 39/125/71
