# Blender v2.90.0 OBJ File: 'Roof.blend'
# www.blender.org
mtllib Roof.mtl
o Roof_Cube.098
v 4.027957 -0.737799 2.003416
v 0.001019 -0.737799 2.003416
v 4.027957 1.509730 -1.955894
v 0.001019 1.509730 -1.955894
v 0.000000 -1.023954 1.985800
v 4.026939 -1.023954 1.985800
v 4.026938 1.023954 -1.985800
v 0.000000 1.023954 -1.985800
v 4.013580 -0.729913 1.830702
v 0.016936 -0.729913 1.830702
v 1.007753 -0.729913 1.830702
v 2.014488 -0.729913 1.830702
v 3.021222 -0.729913 1.830702
v 4.013580 -1.284034 2.775993
v 0.016936 -1.284034 2.775993
v 1.007753 -1.284034 2.775993
v 2.014488 -1.284034 2.775993
v 3.021222 -1.284034 2.775993
v 1.047233 -0.729913 1.830702
v 1.047233 -1.284034 2.775993
v 2.049831 -0.729913 1.830702
v 2.049831 -1.284034 2.775993
v 3.060505 -0.729913 1.830702
v 3.060505 -1.284034 2.775993
v 2.049831 -0.654766 1.874753
v 2.049831 -1.208887 2.820043
v 3.021222 -1.208887 2.820044
v 3.021222 -0.654766 1.874753
v 1.047233 -0.654766 1.874753
v 1.047233 -1.208887 2.820043
v 2.014488 -1.208887 2.820043
v 2.014488 -0.654766 1.874753
v 0.016936 -0.654766 1.874753
v 0.016936 -1.208887 2.820043
v 1.007753 -1.208887 2.820043
v 1.007753 -0.654766 1.874753
v 3.060505 -0.654766 1.874753
v 3.060505 -1.208887 2.820044
v 4.013580 -1.208887 2.820044
v 4.013580 -0.654766 1.874753
v 4.013580 -0.717900 1.814352
v 0.016936 -0.717900 1.814351
v 4.013580 1.517959 -1.955388
v 0.016936 1.517959 -1.955388
v 3.021223 -0.717900 1.814352
v 2.014488 -0.717900 1.814352
v 1.007753 -0.717900 1.814352
v 1.007753 1.517959 -1.955388
v 2.014488 1.517959 -1.955388
v 3.021222 1.517959 -1.955388
v 4.013580 0.958994 -1.012953
v 4.013580 0.400030 -0.070518
v 4.013580 -0.158935 0.871917
v 0.016936 -0.158935 0.871917
v 0.016936 0.400030 -0.070518
v 0.016936 0.958994 -1.012953
v 1.007753 -0.158935 0.871916
v 1.007753 0.400030 -0.070518
v 1.007753 0.958994 -1.012953
v 2.014488 -0.158935 0.871916
v 2.014488 0.400030 -0.070518
v 2.014488 0.958994 -1.012953
v 3.021223 -0.158935 0.871917
v 3.021223 0.400030 -0.070518
v 3.021222 0.958994 -1.012953
v 1.047233 -0.717900 1.814352
v 1.047233 1.517959 -1.955388
v 1.047233 0.958994 -1.012953
v 1.047233 0.400030 -0.070518
v 1.047233 -0.158935 0.871916
v 2.049832 -0.717900 1.814352
v 2.049831 1.517959 -1.955388
v 2.049831 0.958994 -1.012953
v 2.049832 0.400030 -0.070518
v 2.049832 -0.158935 0.871916
v 3.060505 1.517959 -1.955388
v 3.060506 -0.717900 1.814352
v 3.060505 0.958994 -1.012953
v 3.060505 0.400030 -0.070518
v 3.060506 -0.158935 0.871917
v 4.013580 0.945413 -0.990055
v 0.016936 0.945413 -0.990055
v 1.007753 0.945413 -0.990055
v 2.014488 0.945413 -0.990055
v 3.021222 0.945413 -0.990055
v 1.047233 0.945413 -0.990055
v 2.049831 0.945413 -0.990055
v 3.060505 0.945413 -0.990055
v 4.013580 0.380111 -0.036936
v 0.016936 0.380111 -0.036936
v 1.007753 0.380111 -0.036936
v 2.014488 0.380111 -0.036936
v 3.021223 0.380111 -0.036936
v 1.047233 0.380111 -0.036936
v 2.049832 0.380111 -0.036936
v 3.060505 0.380111 -0.036936
v 4.013580 -0.176508 0.901545
v 0.016936 -0.176508 0.901544
v 1.007753 -0.176508 0.901544
v 2.014488 -0.176508 0.901544
v 3.021223 -0.176508 0.901544
v 1.047233 -0.176508 0.901544
v 2.049832 -0.176508 0.901544
v 3.060506 -0.176508 0.901544
v 3.060506 -0.101587 0.945980
v 3.060506 -0.642979 1.858788
v 4.013580 -0.642979 1.858788
v 4.013580 -0.101587 0.945980
v 0.016936 -0.101587 0.945980
v 0.016936 -0.642979 1.858787
v 1.007753 -0.642979 1.858788
v 1.007753 -0.101587 0.945980
v 1.047233 -0.101587 0.945980
v 1.047233 -0.642979 1.858788
v 2.014488 -0.642979 1.858788
v 2.014488 -0.101587 0.945980
v 2.049832 -0.101587 0.945980
v 2.049832 -0.642979 1.858788
v 3.021223 -0.642979 1.858788
v 3.021223 -0.101587 0.945980
v 2.049831 1.592880 -1.910952
v 2.049831 1.033915 -0.968517
v 3.021222 1.033915 -0.968517
v 3.021222 1.592880 -1.910952
v 2.049831 1.020334 -0.945619
v 2.049832 0.474950 -0.026082
v 3.021223 0.474950 -0.026082
v 3.021222 1.020334 -0.945619
v 2.049832 0.455032 0.007500
v 2.049832 -0.084015 0.916353
v 3.021223 -0.084015 0.916353
v 3.021223 0.455032 0.007500
v 1.047233 1.592880 -1.910952
v 1.047233 1.033915 -0.968517
v 2.014488 1.033915 -0.968517
v 2.014488 1.592880 -1.910952
v 1.047233 1.020334 -0.945619
v 1.047233 0.474950 -0.026082
v 2.014488 0.474950 -0.026082
v 2.014488 1.020334 -0.945619
v 1.047233 0.455032 0.007500
v 1.047233 -0.084015 0.916353
v 2.014488 -0.084015 0.916353
v 2.014488 0.455032 0.007500
v 0.016936 1.592880 -1.910952
v 0.016936 1.033915 -0.968517
v 1.007753 1.033915 -0.968517
v 1.007753 1.592880 -1.910952
v 0.016936 1.020334 -0.945619
v 0.016936 0.474950 -0.026082
v 1.007753 0.474950 -0.026082
v 1.007753 1.020334 -0.945619
v 0.016936 0.455032 0.007500
v 0.016936 -0.084015 0.916352
v 1.007753 -0.084015 0.916353
v 1.007753 0.455032 0.007500
v 3.060505 1.592880 -1.910952
v 3.060505 1.033915 -0.968517
v 4.013580 1.033915 -0.968517
v 4.013580 1.592880 -1.910952
v 3.060505 1.020334 -0.945619
v 3.060505 0.474950 -0.026082
v 4.013580 0.474950 -0.026082
v 4.013580 1.020334 -0.945619
v 3.060505 0.455032 0.007500
v 3.060506 -0.084015 0.916353
v 4.013580 -0.084015 0.916353
v 4.013580 0.455032 0.007500
vt 0.875000 0.750000
vt 0.625000 0.625000
vt 0.875000 0.625000
vt 0.600000 0.750000
vt 0.625000 1.000000
vt 0.600000 1.000000
vt 0.625000 0.000000
vt 0.600000 0.125000
vt 0.600000 0.000000
vt 0.625000 0.750000
vt 0.600000 0.625000
vt 0.625000 0.125000
vt 0.812500 0.656250
vt 0.810049 0.625000
vt 0.812500 0.625000
vt 0.750000 0.656250
vt 0.747806 0.625000
vt 0.750000 0.625000
vt 0.687500 0.656250
vt 0.685061 0.625000
vt 0.687500 0.625000
vt 0.747806 0.656250
vt 0.687500 0.625000
vt 0.747806 0.625000
vt 0.747806 0.656250
vt 0.687500 0.656250
vt 0.810049 0.656250
vt 0.750000 0.625000
vt 0.810049 0.625000
vt 0.810049 0.656250
vt 0.750000 0.656250
vt 0.875000 0.656250
vt 0.812500 0.625000
vt 0.875000 0.625000
vt 0.875000 0.656250
vt 0.875000 0.625000
vt 0.812500 0.656250
vt 0.685061 0.656250
vt 0.625000 0.625000
vt 0.685061 0.625000
vt 0.685061 0.656250
vt 0.625000 0.656250
vt 0.625000 0.656250
vt 0.625000 0.625000
vt 0.812500 0.718750
vt 0.810049 0.688614
vt 0.812500 0.688614
vt 0.812500 0.687500
vt 0.810049 0.657009
vt 0.812500 0.657009
vt 0.812500 0.656250
vt 0.810049 0.625000
vt 0.812500 0.625000
vt 0.812500 0.750000
vt 0.810049 0.719732
vt 0.812500 0.719732
vt 0.750000 0.718750
vt 0.747806 0.688614
vt 0.750000 0.688614
vt 0.750000 0.687500
vt 0.747806 0.657009
vt 0.750000 0.657009
vt 0.750000 0.656250
vt 0.747806 0.625000
vt 0.750000 0.625000
vt 0.750000 0.750000
vt 0.747806 0.719732
vt 0.750000 0.719732
vt 0.687500 0.718750
vt 0.685061 0.688614
vt 0.687500 0.688614
vt 0.687500 0.687500
vt 0.685061 0.657009
vt 0.687500 0.657009
vt 0.687500 0.656250
vt 0.685061 0.625000
vt 0.687500 0.625000
vt 0.687500 0.750000
vt 0.685061 0.719732
vt 0.687500 0.719732
vt 0.685061 0.656250
vt 0.747806 0.656250
vt 0.810049 0.656250
vt 0.625000 0.656250
vt 0.875000 0.657009
vt 0.875000 0.656250
vt 0.685061 0.687500
vt 0.747806 0.687500
vt 0.810049 0.687500
vt 0.625000 0.687500
vt 0.875000 0.688614
vt 0.875000 0.687500
vt 0.685061 0.718750
vt 0.747806 0.718750
vt 0.810049 0.718750
vt 0.875000 0.719732
vt 0.875000 0.718750
vt 0.625000 0.718750
vt 0.685061 0.750000
vt 0.625000 0.719732
vt 0.685061 0.719732
vt 0.685061 0.750000
vt 0.625000 0.750000
vt 0.625000 0.750000
vt 0.625000 0.719732
vt 0.875000 0.750000
vt 0.812500 0.719732
vt 0.875000 0.719732
vt 0.875000 0.750000
vt 0.812500 0.750000
vt 0.810049 0.750000
vt 0.750000 0.719732
vt 0.810049 0.719732
vt 0.810049 0.750000
vt 0.750000 0.750000
vt 0.747806 0.750000
vt 0.687500 0.719732
vt 0.747806 0.719732
vt 0.747806 0.750000
vt 0.687500 0.750000
vt 0.747806 0.656250
vt 0.687500 0.625000
vt 0.747806 0.625000
vt 0.687500 0.656250
vt 0.747806 0.687500
vt 0.687500 0.657009
vt 0.747806 0.657009
vt 0.687500 0.687500
vt 0.747806 0.718750
vt 0.687500 0.688614
vt 0.747806 0.688614
vt 0.687500 0.718750
vt 0.810049 0.656250
vt 0.750000 0.625000
vt 0.810049 0.625000
vt 0.750000 0.656250
vt 0.810049 0.687500
vt 0.750000 0.657009
vt 0.810049 0.657009
vt 0.750000 0.687500
vt 0.810049 0.718750
vt 0.750000 0.688614
vt 0.810049 0.688614
vt 0.750000 0.718750
vt 0.875000 0.656250
vt 0.812500 0.625000
vt 0.875000 0.625000
vt 0.875000 0.625000
vt 0.812500 0.656250
vt 0.875000 0.687500
vt 0.812500 0.657009
vt 0.875000 0.657009
vt 0.812500 0.687500
vt 0.875000 0.718750
vt 0.812500 0.688614
vt 0.875000 0.688614
vt 0.812500 0.718750
vt 0.685061 0.656250
vt 0.625000 0.625000
vt 0.685061 0.625000
vt 0.625000 0.656250
vt 0.625000 0.625000
vt 0.685061 0.687500
vt 0.625000 0.657009
vt 0.685061 0.657009
vt 0.625000 0.687500
vt 0.625000 0.657009
vt 0.685061 0.718750
vt 0.625000 0.688614
vt 0.685061 0.688614
vt 0.625000 0.718750
vt 0.625000 0.688614
vn 0.0000 0.8697 0.4937
vn 0.0000 -0.0614 0.9981
vn -1.0000 0.0034 0.0018
vn 1.0000 -0.0020 -0.0012
vn 0.0000 0.0614 -0.9981
vn 0.0000 -0.8888 -0.4583
vn -1.0000 0.0020 0.0012
vn 1.0000 -0.0034 -0.0018
vn 0.0000 0.8627 0.5057
vn -1.0000 0.0000 0.0000
vn -0.0000 -0.5057 0.8627
vn 1.0000 0.0000 0.0000
vn 0.0000 0.5057 -0.8627
vn 0.0000 0.8601 0.5101
vn 0.0000 -0.5101 0.8601
vn 0.0000 0.5101 -0.8601
vn 0.0000 -0.8627 -0.5057
vn 0.0000 -0.8601 -0.5101
usemtl Wood_Roof
s off
f 2/1/1 3/2/1 4/3/1
f 6/4/2 2/5/2 5/6/2
f 2/7/3 8/8/3 5/9/3
f 1/10/4 7/11/4 3/2/4
f 4/12/5 7/11/5 8/8/5
f 5/9/6 7/11/6 6/4/6
f 2/1/1 1/10/1 3/2/1
f 6/4/2 1/10/2 2/5/2
f 2/7/7 4/12/7 8/8/7
f 1/10/8 6/4/8 7/11/8
f 4/12/5 3/2/5 7/11/5
f 5/9/6 8/8/6 7/11/6
usemtl Tile_Roof
f 16/13/9 19/14/9 11/15/9
f 17/16/9 21/17/9 12/18/9
f 18/19/9 23/20/9 13/21/9
f 26/22/9 28/23/9 25/24/9
f 22/25/10 25/24/10 21/17/10
f 27/26/11 22/25/11 18/19/11
f 28/23/12 18/19/12 13/21/12
f 25/24/13 13/21/13 21/17/13
f 30/27/9 32/28/9 29/29/9
f 20/30/10 29/29/10 19/14/10
f 31/31/11 20/30/11 17/16/11
f 32/28/12 17/16/12 12/18/12
f 29/29/13 12/18/13 19/14/13
f 34/32/9 36/33/9 33/34/9
f 15/35/10 33/34/10 10/36/10
f 35/37/11 15/35/11 16/13/11
f 36/33/12 16/13/12 11/15/12
f 33/34/13 11/15/13 10/36/13
f 38/38/9 40/39/9 37/40/9
f 24/41/10 37/40/10 23/20/10
f 39/42/11 24/41/11 14/43/11
f 40/39/12 14/43/12 9/44/12
f 37/40/13 9/44/13 23/20/13
f 57/45/14 94/46/14 91/47/14
f 58/48/14 86/49/14 83/50/14
f 59/51/14 67/52/14 48/53/14
f 47/54/14 102/55/14 99/56/14
f 60/57/14 95/58/14 92/59/14
f 61/60/14 87/61/14 84/62/14
f 62/63/14 72/64/14 49/65/14
f 46/66/14 103/67/14 100/68/14
f 63/69/14 96/70/14 93/71/14
f 64/72/14 88/73/14 85/74/14
f 65/75/14 76/76/14 50/77/14
f 45/78/14 104/79/14 101/80/14
f 85/74/14 78/81/14 65/75/14
f 84/62/14 73/82/14 62/63/14
f 83/50/14 68/83/14 59/51/14
f 88/73/14 51/84/14 78/81/14
f 82/85/14 59/51/14 56/86/14
f 86/49/14 62/63/14 68/83/14
f 87/61/14 65/75/14 73/82/14
f 93/71/14 79/87/14 64/72/14
f 92/59/14 74/88/14 61/60/14
f 91/47/14 69/89/14 58/48/14
f 96/70/14 52/90/14 79/87/14
f 90/91/14 58/48/14 55/92/14
f 94/46/14 61/60/14 69/89/14
f 95/58/14 64/72/14 74/88/14
f 101/80/14 80/93/14 63/69/14
f 100/68/14 75/94/14 60/57/14
f 99/56/14 70/95/14 57/45/14
f 103/67/14 63/69/14 75/94/14
f 102/55/14 60/57/14 70/95/14
f 98/96/14 57/45/14 54/97/14
f 104/79/14 53/98/14 80/93/14
f 106/99/14 108/100/14 105/101/14
f 77/102/10 105/101/10 104/79/10
f 107/103/15 77/102/15 41/104/15
f 108/100/12 41/104/12 97/105/12
f 105/101/16 97/105/16 104/79/16
f 110/106/14 112/107/14 109/108/14
f 42/109/10 109/108/10 98/96/10
f 111/110/15 42/109/15 47/54/15
f 112/107/12 47/54/12 99/56/12
f 109/108/16 99/56/16 98/96/16
f 114/111/14 116/112/14 113/113/14
f 66/114/10 113/113/10 102/55/10
f 115/115/15 66/114/15 46/66/15
f 116/112/12 46/66/12 100/68/12
f 113/113/16 100/68/16 102/55/16
f 118/116/14 120/117/14 117/118/14
f 71/119/10 117/118/10 103/67/10
f 119/120/15 71/119/15 45/78/15
f 120/117/12 45/78/12 101/80/12
f 117/118/16 101/80/16 103/67/16
f 122/121/14 124/122/14 121/123/14
f 122/121/10 72/64/10 73/82/10
f 123/124/15 73/82/15 65/75/15
f 124/122/12 65/75/12 50/77/12
f 121/123/16 50/77/16 72/64/16
f 126/125/14 128/126/14 125/127/14
f 126/125/10 87/61/10 74/88/10
f 127/128/15 74/88/15 64/72/15
f 128/126/12 64/72/12 85/74/12
f 125/127/16 85/74/16 87/61/16
f 130/129/14 132/130/14 129/131/14
f 75/94/10 129/131/10 95/58/10
f 131/132/15 75/94/15 63/69/15
f 132/130/12 63/69/12 93/71/12
f 129/131/16 93/71/16 95/58/16
f 134/133/14 136/134/14 133/135/14
f 134/133/10 67/52/10 68/83/10
f 135/136/15 68/83/15 62/63/15
f 49/65/12 135/136/12 62/63/12
f 133/135/16 49/65/16 67/52/16
f 138/137/14 140/138/14 137/139/14
f 138/137/10 86/49/10 69/89/10
f 139/140/15 69/89/15 61/60/15
f 84/62/12 139/140/12 61/60/12
f 137/139/16 84/62/16 86/49/16
f 142/141/14 144/142/14 141/143/14
f 70/95/10 141/143/10 94/46/10
f 143/144/15 70/95/15 60/57/15
f 144/142/12 60/57/12 92/59/12
f 141/143/16 92/59/16 94/46/16
f 146/145/14 148/146/14 145/147/14
f 146/145/10 44/148/10 56/86/10
f 147/149/15 56/86/15 59/51/15
f 48/53/12 147/149/12 59/51/12
f 145/147/16 48/53/16 44/148/16
f 150/150/14 152/151/14 149/152/14
f 150/150/10 82/85/10 55/92/10
f 151/153/15 55/92/15 58/48/15
f 83/50/12 151/153/12 58/48/12
f 149/152/16 83/50/16 82/85/16
f 154/154/14 156/155/14 153/156/14
f 54/97/10 153/156/10 90/91/10
f 155/157/15 54/97/15 57/45/15
f 156/155/12 57/45/12 91/47/12
f 153/156/16 91/47/16 90/91/16
f 158/158/14 160/159/14 157/160/14
f 78/81/10 157/160/10 76/76/10
f 159/161/15 78/81/15 51/84/15
f 160/159/12 51/84/12 43/162/12
f 157/160/16 43/162/16 76/76/16
f 162/163/14 164/164/14 161/165/14
f 162/163/10 88/73/10 79/87/10
f 163/166/15 79/87/15 52/90/15
f 81/167/12 163/166/12 52/90/12
f 161/165/16 81/167/16 88/73/16
f 166/168/14 168/169/14 165/170/14
f 166/168/10 96/70/10 80/93/10
f 167/171/15 80/93/15 53/98/15
f 168/169/12 53/98/12 89/172/12
f 165/170/16 89/172/16 96/70/16
f 20/30/17 16/13/17 19/14/17
f 72/64/18 50/77/18 81/167/18
f 16/13/9 20/30/9 19/14/9
f 17/16/9 22/25/9 21/17/9
f 18/19/9 24/41/9 23/20/9
f 26/22/9 27/26/9 28/23/9
f 22/25/10 26/22/10 25/24/10
f 27/26/11 26/22/11 22/25/11
f 28/23/12 27/26/12 18/19/12
f 25/24/13 28/23/13 13/21/13
f 30/27/9 31/31/9 32/28/9
f 20/30/10 30/27/10 29/29/10
f 31/31/11 30/27/11 20/30/11
f 32/28/12 31/31/12 17/16/12
f 29/29/13 32/28/13 12/18/13
f 34/32/9 35/37/9 36/33/9
f 15/35/10 34/32/10 33/34/10
f 35/37/11 34/32/11 15/35/11
f 36/33/12 35/37/12 16/13/12
f 33/34/13 36/33/13 11/15/13
f 38/38/9 39/42/9 40/39/9
f 24/41/10 38/38/10 37/40/10
f 39/42/11 38/38/11 24/41/11
f 40/39/12 39/42/12 14/43/12
f 37/40/13 40/39/13 9/44/13
f 57/45/14 70/95/14 94/46/14
f 58/48/14 69/89/14 86/49/14
f 59/51/14 68/83/14 67/52/14
f 47/54/14 66/114/14 102/55/14
f 60/57/14 75/94/14 95/58/14
f 61/60/14 74/88/14 87/61/14
f 62/63/14 73/82/14 72/64/14
f 46/66/14 71/119/14 103/67/14
f 63/69/14 80/93/14 96/70/14
f 64/72/14 79/87/14 88/73/14
f 65/75/14 78/81/14 76/76/14
f 45/78/14 77/102/14 104/79/14
f 85/74/14 88/73/14 78/81/14
f 84/62/14 87/61/14 73/82/14
f 83/50/14 86/49/14 68/83/14
f 88/73/14 81/167/14 51/84/14
f 82/85/14 83/50/14 59/51/14
f 86/49/14 84/62/14 62/63/14
f 87/61/14 85/74/14 65/75/14
f 93/71/14 96/70/14 79/87/14
f 92/59/14 95/58/14 74/88/14
f 91/47/14 94/46/14 69/89/14
f 96/70/14 89/172/14 52/90/14
f 90/91/14 91/47/14 58/48/14
f 94/46/14 92/59/14 61/60/14
f 95/58/14 93/71/14 64/72/14
f 101/80/14 104/79/14 80/93/14
f 100/68/14 103/67/14 75/94/14
f 99/56/14 102/55/14 70/95/14
f 103/67/14 101/80/14 63/69/14
f 102/55/14 100/68/14 60/57/14
f 98/96/14 99/56/14 57/45/14
f 104/79/14 97/105/14 53/98/14
f 106/99/14 107/103/14 108/100/14
f 77/102/10 106/99/10 105/101/10
f 107/103/15 106/99/15 77/102/15
f 108/100/12 107/103/12 41/104/12
f 105/101/16 108/100/16 97/105/16
f 110/106/14 111/110/14 112/107/14
f 42/109/10 110/106/10 109/108/10
f 111/110/15 110/106/15 42/109/15
f 112/107/12 111/110/12 47/54/12
f 109/108/16 112/107/16 99/56/16
f 114/111/14 115/115/14 116/112/14
f 66/114/10 114/111/10 113/113/10
f 115/115/15 114/111/15 66/114/15
f 116/112/12 115/115/12 46/66/12
f 113/113/16 116/112/16 100/68/16
f 118/116/14 119/120/14 120/117/14
f 71/119/10 118/116/10 117/118/10
f 119/120/15 118/116/15 71/119/15
f 120/117/12 119/120/12 45/78/12
f 117/118/16 120/117/16 101/80/16
f 122/121/14 123/124/14 124/122/14
f 122/121/10 121/123/10 72/64/10
f 123/124/15 122/121/15 73/82/15
f 124/122/12 123/124/12 65/75/12
f 121/123/16 124/122/16 50/77/16
f 126/125/14 127/128/14 128/126/14
f 126/125/10 125/127/10 87/61/10
f 127/128/15 126/125/15 74/88/15
f 128/126/12 127/128/12 64/72/12
f 125/127/16 128/126/16 85/74/16
f 130/129/14 131/132/14 132/130/14
f 75/94/10 130/129/10 129/131/10
f 131/132/15 130/129/15 75/94/15
f 132/130/12 131/132/12 63/69/12
f 129/131/16 132/130/16 93/71/16
f 134/133/14 135/136/14 136/134/14
f 134/133/10 133/135/10 67/52/10
f 135/136/15 134/133/15 68/83/15
f 49/65/12 136/134/12 135/136/12
f 133/135/16 136/134/16 49/65/16
f 138/137/14 139/140/14 140/138/14
f 138/137/10 137/139/10 86/49/10
f 139/140/15 138/137/15 69/89/15
f 84/62/12 140/138/12 139/140/12
f 137/139/16 140/138/16 84/62/16
f 142/141/14 143/144/14 144/142/14
f 70/95/10 142/141/10 141/143/10
f 143/144/15 142/141/15 70/95/15
f 144/142/12 143/144/12 60/57/12
f 141/143/16 144/142/16 92/59/16
f 146/145/14 147/149/14 148/146/14
f 146/145/10 145/147/10 44/148/10
f 147/149/15 146/145/15 56/86/15
f 48/53/12 148/146/12 147/149/12
f 145/147/16 148/146/16 48/53/16
f 150/150/14 151/153/14 152/151/14
f 150/150/10 149/152/10 82/85/10
f 151/153/15 150/150/15 55/92/15
f 83/50/12 152/151/12 151/153/12
f 149/152/16 152/151/16 83/50/16
f 154/154/14 155/157/14 156/155/14
f 54/97/10 154/154/10 153/156/10
f 155/157/15 154/154/15 54/97/15
f 156/155/12 155/157/12 57/45/12
f 153/156/16 156/155/16 91/47/16
f 158/158/14 159/161/14 160/159/14
f 78/81/10 158/158/10 157/160/10
f 159/161/15 158/158/15 78/81/15
f 160/159/12 159/161/12 51/84/12
f 157/160/16 160/159/16 43/162/16
f 162/163/14 163/166/14 164/164/14
f 162/163/10 161/165/10 88/73/10
f 163/166/15 162/163/15 79/87/15
f 81/167/12 164/164/12 163/166/12
f 161/165/16 164/164/16 81/167/16
f 166/168/14 167/171/14 168/169/14
f 166/168/10 165/170/10 96/70/10
f 167/171/15 166/168/15 80/93/15
f 168/169/12 167/171/12 53/98/12
f 165/170/16 168/169/16 89/172/16
f 23/20/17 9/44/17 24/41/17
f 9/44/17 14/43/17 24/41/17
f 24/41/17 18/19/17 13/21/17
f 18/19/17 22/25/17 13/21/17
f 12/18/17 21/17/17 22/25/17
f 21/17/17 13/21/17 22/25/17
f 13/21/17 23/20/17 24/41/17
f 22/25/17 17/16/17 12/18/17
f 17/16/17 20/30/17 19/14/17
f 19/14/17 12/18/17 17/16/17
f 15/35/17 10/36/17 11/15/17
f 15/35/17 11/15/17 16/13/17
f 11/15/17 19/14/17 16/13/17
f 66/114/18 47/54/18 98/96/18
f 47/54/18 42/109/18 98/96/18
f 66/114/18 98/96/18 54/97/18
f 54/97/18 90/91/18 46/66/18
f 46/66/18 90/91/18 89/172/18
f 46/66/18 66/114/18 54/97/18
f 77/102/18 45/78/18 97/105/18
f 45/78/18 71/119/18 53/98/18
f 89/172/18 71/119/18 46/66/18
f 97/105/18 41/104/18 77/102/18
f 71/119/18 89/172/18 53/98/18
f 55/92/18 82/85/18 49/65/18
f 82/85/18 56/86/18 67/52/18
f 55/92/18 52/90/18 89/172/18
f 90/91/18 55/92/18 89/172/18
f 53/98/18 97/105/18 45/78/18
f 81/167/18 52/90/18 72/64/18
f 49/65/18 82/85/18 67/52/18
f 52/90/18 55/92/18 49/65/18
f 56/86/18 44/148/18 48/53/18
f 49/65/18 72/64/18 52/90/18
f 56/86/18 48/53/18 67/52/18
f 43/162/18 51/84/18 76/76/18
f 51/84/18 81/167/18 50/77/18
f 50/77/18 76/76/18 51/84/18
