# Blender v2.90.0 OBJ File: 'Showcase01_bakery.blend'
# www.blender.org
mtllib Showcase01_bakery.mtl
o Showcase01_Bakery_Cube.007
v 1.134596 0.817129 -0.209492
v 1.161871 0.817129 -0.182216
v 1.134596 0.789854 -0.182216
v -1.167135 0.817129 -0.182216
v -1.139860 0.817129 -0.209492
v -1.139860 0.789854 -0.182216
v 1.134596 0.789854 0.227537
v 1.161871 0.817129 0.227537
v 1.134596 0.817129 0.254812
v -1.139860 0.789854 0.227537
v -1.139860 0.817129 0.254812
v -1.167135 0.817129 0.227537
v 1.134596 0.923206 -0.209492
v 1.134596 0.950481 -0.182216
v 1.161871 0.923206 -0.182216
v -1.139860 0.950481 -0.182216
v -1.139860 0.923206 -0.209492
v -1.167135 0.923206 -0.182216
v 1.134596 0.950481 0.227537
v 1.134596 0.923206 0.254812
v 1.161871 0.923206 0.227537
v -1.167135 0.923206 0.227537
v -1.139860 0.923206 0.254812
v -1.139860 0.950481 0.227537
v 1.023527 0.894588 -0.182286
v 1.023527 -1.434419 -0.182286
v 1.023527 0.894588 -0.021659
v 1.023527 -1.434419 -0.021659
v 0.862900 0.894588 -0.182286
v 0.862900 -1.434419 -0.182286
v 0.862900 0.894588 -0.021659
v 0.862900 -1.434419 -0.021659
v -0.839213 0.894588 -0.182286
v -0.839213 -1.434419 -0.182286
v -0.839213 0.894588 -0.021658
v -0.839213 -1.434419 -0.021658
v -0.999840 0.894588 -0.182286
v -0.999840 -1.434419 -0.182286
v -0.999840 0.894588 -0.021658
v -0.999840 -1.434419 -0.021658
v 1.134596 -0.803243 -0.209491
v 1.161871 -0.803243 -0.182216
v 1.134596 -0.830519 -0.182216
v -1.167135 -0.803244 -0.182216
v -1.139860 -0.803244 -0.209491
v -1.139860 -0.830519 -0.182216
v 1.134596 -0.830519 0.227537
v 1.161871 -0.803243 0.227537
v 1.134596 -0.803243 0.254812
v -1.139860 -0.830519 0.227537
v -1.139860 -0.803244 0.254812
v -1.167135 -0.803244 0.227537
v 1.134596 -0.697167 -0.209491
v 1.134596 -0.669891 -0.182216
v 1.161871 -0.697167 -0.182216
v -1.139860 -0.669892 -0.182216
v -1.139860 -0.697167 -0.209491
v -1.167135 -0.697167 -0.182216
v 1.134596 -0.669891 0.227537
v 1.134596 -0.697167 0.254812
v 1.161871 -0.697167 0.227537
v -1.167135 -0.697167 0.227537
v -1.139860 -0.697167 0.254812
v -1.139860 -0.669892 0.227537
v 1.134596 0.006943 -0.209491
v 1.161871 0.006943 -0.182216
v 1.134596 -0.020332 -0.182216
v -1.167135 0.006943 -0.182216
v -1.139860 0.006943 -0.209491
v -1.139860 -0.020332 -0.182216
v 1.134596 -0.020332 0.227537
v 1.161871 0.006943 0.227537
v 1.134596 0.006943 0.254812
v -1.139860 -0.020332 0.227537
v -1.139860 0.006943 0.254812
v -1.167135 0.006943 0.227537
v 1.134596 0.113020 -0.209491
v 1.134596 0.140295 -0.182216
v 1.161871 0.113020 -0.182216
v -1.139860 0.140295 -0.182216
v -1.139860 0.113020 -0.209491
v -1.167135 0.113020 -0.182216
v 1.134596 0.140295 0.227537
v 1.134596 0.113020 0.254812
v 1.161871 0.113020 0.227537
v -1.167135 0.113020 0.227537
v -1.139860 0.113020 0.254812
v -1.139860 0.140295 0.227537
vt 0.332549 0.514686
vt 0.167451 0.735314
vt 0.167451 0.514686
vt 0.622072 0.014686
vt 0.377928 0.235314
vt 0.377928 0.014686
vt 0.622072 0.792451
vt 0.377928 0.957549
vt 0.377928 0.792451
vt 0.832549 0.514686
vt 0.667451 0.735314
vt 0.667451 0.514686
vt 0.622072 0.514686
vt 0.377928 0.735314
vt 0.377928 0.514686
vt 0.622072 0.292451
vt 0.377928 0.457549
vt 0.377928 0.292451
vt 0.875000 0.500000
vt 0.625000 0.750000
vt 0.625000 0.500000
vt 0.375000 1.000000
vt 0.375000 0.750000
vt 0.625000 0.000000
vt 0.375000 0.250000
vt 0.375000 0.000000
vt 0.375000 0.500000
vt 0.125000 0.750000
vt 0.125000 0.500000
vt 0.625000 0.250000
vt 0.875000 0.500000
vt 0.625000 0.750000
vt 0.625000 0.500000
vt 0.375000 1.000000
vt 0.375000 0.750000
vt 0.625000 0.000000
vt 0.375000 0.250000
vt 0.375000 0.000000
vt 0.375000 0.500000
vt 0.125000 0.750000
vt 0.125000 0.500000
vt 0.625000 0.250000
vt 0.332549 0.514686
vt 0.167451 0.735314
vt 0.167451 0.514686
vt 0.622072 0.014686
vt 0.377928 0.235314
vt 0.377928 0.014686
vt 0.622072 0.792451
vt 0.377928 0.957549
vt 0.377928 0.792451
vt 0.832549 0.514686
vt 0.667451 0.735314
vt 0.667451 0.514686
vt 0.622072 0.514686
vt 0.377928 0.735314
vt 0.377928 0.514686
vt 0.622072 0.292451
vt 0.377928 0.457549
vt 0.377928 0.292451
vt 0.332549 0.514686
vt 0.167451 0.735314
vt 0.167451 0.514686
vt 0.622072 0.014686
vt 0.377928 0.235314
vt 0.377928 0.014686
vt 0.622072 0.792451
vt 0.377928 0.957549
vt 0.377928 0.792451
vt 0.832549 0.514686
vt 0.667451 0.735314
vt 0.667451 0.514686
vt 0.622072 0.514686
vt 0.377928 0.735314
vt 0.377928 0.514686
vt 0.377928 0.292451
vt 0.622072 0.457549
vt 0.377928 0.457549
vt 0.332549 0.735314
vt 0.622072 0.235314
vt 0.622072 0.957549
vt 0.832549 0.735314
vt 0.622072 0.735314
vt 0.622072 0.457549
vt 0.875000 0.750000
vt 0.625000 1.000000
vt 0.875000 0.750000
vt 0.625000 1.000000
vt 0.332549 0.735314
vt 0.622072 0.235314
vt 0.622072 0.957549
vt 0.832549 0.735314
vt 0.622072 0.735314
vt 0.622072 0.457549
vt 0.332549 0.735314
vt 0.622072 0.235314
vt 0.622072 0.957549
vt 0.832549 0.735314
vt 0.622072 0.735314
vt 0.622072 0.292451
vt 0.625000 0.457549
vt 0.622072 0.500000
vt 0.332549 0.500000
vt 0.375000 0.514686
vt 0.625000 0.735314
vt 0.622072 0.750000
vt 0.377928 0.750000
vt 0.375000 0.792451
vt 0.375000 0.792451
vt 0.622072 0.250000
vt 0.622072 0.250000
vt 0.625000 0.235314
vt 0.377928 0.250000
vt 0.375000 0.235314
vt 0.622072 0.000000
vt 0.625000 0.014686
vt 0.167451 0.750000
vt 0.125000 0.735314
vt 0.125000 0.514686
vt 0.377928 0.000000
vt 0.625000 0.957549
vt 0.625000 0.792451
vt 0.625000 0.292451
vt 0.625000 0.457549
vt 0.622072 0.500000
vt 0.332549 0.500000
vt 0.375000 0.514686
vt 0.625000 0.735314
vt 0.622072 0.750000
vt 0.377928 0.750000
vt 0.375000 0.792451
vt 0.375000 0.792451
vt 0.622072 0.250000
vt 0.622072 0.250000
vt 0.625000 0.235314
vt 0.377928 0.250000
vt 0.375000 0.235314
vt 0.622072 0.000000
vt 0.625000 0.014686
vt 0.167451 0.750000
vt 0.125000 0.735314
vt 0.125000 0.514686
vt 0.377928 0.000000
vt 0.625000 0.957549
vt 0.625000 0.792451
vt 0.625000 0.292451
vt 0.625000 0.457549
vt 0.622072 0.500000
vt 0.332549 0.500000
vt 0.375000 0.514686
vt 0.625000 0.735314
vt 0.622072 0.750000
vt 0.377928 0.750000
vt 0.375000 0.792451
vt 0.375000 0.792451
vt 0.622072 0.250000
vt 0.622072 0.250000
vt 0.625000 0.235314
vt 0.377928 0.250000
vt 0.375000 0.235314
vt 0.622072 0.000000
vt 0.625000 0.014686
vt 0.167451 0.750000
vt 0.125000 0.735314
vt 0.125000 0.514686
vt 0.377928 0.000000
vt 0.625000 0.957549
vt 0.625000 0.792451
vt 0.625000 0.292451
vt 0.167451 0.500000
vt 0.332549 0.750000
vt 0.167451 0.500000
vt 0.332549 0.750000
vt 0.167451 0.500000
vt 0.332549 0.750000
vn -1.0000 0.0000 0.0000
vn -0.0000 1.0000 0.0000
vn -0.0000 0.0000 1.0000
vn 1.0000 0.0000 0.0000
vn 0.0000 -1.0000 0.0000
vn 0.0000 0.0000 -1.0000
vn 0.5774 -0.5773 -0.5773
vn -0.5774 -0.5773 -0.5773
vn 0.5774 -0.5774 0.5773
vn -0.5774 -0.5774 0.5773
vn 0.5774 0.5773 -0.5773
vn -0.5774 0.5773 -0.5773
vn 0.5774 0.5774 0.5773
vn -0.5774 0.5774 0.5773
vn -0.7071 0.7071 0.0000
vn -0.7071 0.0000 -0.7071
vn 0.0000 -0.7071 -0.7071
vn -0.0000 0.7071 0.7071
vn 0.0000 -0.7071 0.7071
vn -0.0000 0.7071 -0.7071
vn 0.7071 0.0000 0.7071
vn 0.7071 -0.7071 0.0000
vn -0.7071 0.0000 0.7071
vn 0.7071 0.7071 0.0000
vn 0.7071 0.0000 -0.7071
vn -0.7071 -0.7071 0.0000
vn 0.5773 -0.5773 -0.5774
vn -0.5774 -0.5774 -0.5773
vn 0.5774 -0.5773 0.5774
vn -0.5774 -0.5773 0.5773
vn 0.5773 0.5774 -0.5773
vn -0.5773 0.5774 -0.5773
vn 0.5774 0.5774 0.5774
vn -0.5774 0.5774 0.5774
vn 0.5774 -0.5774 -0.5773
vn -0.5774 -0.5773 -0.5774
vn -0.5774 -0.5773 0.5774
vn -0.5774 0.5773 -0.5774
vn -0.5774 0.5773 0.5774
usemtl Wood_Showcase
s off
f 4/1/1 22/2/1 18/3/1
f 19/4/2 16/5/2 24/6/2
f 9/7/3 23/8/3 11/9/3
f 15/10/4 8/11/4 2/12/4
f 3/13/5 10/14/5 6/15/5
f 13/16/6 5/17/6 17/18/6
f 29/19/2 27/20/2 25/21/2
f 27/20/3 32/22/3 28/23/3
f 31/24/1 30/25/1 32/26/1
f 26/27/5 32/28/5 30/29/5
f 25/21/4 28/23/4 26/27/4
f 29/30/6 26/27/6 30/25/6
f 37/31/2 35/32/2 33/33/2
f 35/32/3 40/34/3 36/35/3
f 39/36/1 38/37/1 40/38/1
f 34/39/5 40/40/5 38/41/5
f 33/33/4 36/35/4 34/39/4
f 37/42/6 34/39/6 38/37/6
f 44/43/1 62/44/1 58/45/1
f 59/46/2 56/47/2 64/48/2
f 49/49/3 63/50/3 51/51/3
f 55/52/4 48/53/4 42/54/4
f 43/55/5 50/56/5 46/57/5
f 53/58/6 45/59/6 57/60/6
f 68/61/1 86/62/1 82/63/1
f 83/64/2 80/65/2 88/66/2
f 73/67/3 87/68/3 75/69/3
f 79/70/4 72/71/4 66/72/4
f 67/73/5 74/74/5 70/75/5
f 81/76/6 65/77/6 69/78/6
f 4/1/1 12/79/1 22/2/1
f 19/4/2 14/80/2 16/5/2
f 9/7/3 20/81/3 23/8/3
f 15/10/4 21/82/4 8/11/4
f 3/13/5 7/83/5 10/14/5
f 13/16/6 1/84/6 5/17/6
f 29/19/2 31/85/2 27/20/2
f 27/20/3 31/86/3 32/22/3
f 31/24/1 29/30/1 30/25/1
f 26/27/5 28/23/5 32/28/5
f 25/21/4 27/20/4 28/23/4
f 29/30/6 25/21/6 26/27/6
f 37/31/2 39/87/2 35/32/2
f 35/32/3 39/88/3 40/34/3
f 39/36/1 37/42/1 38/37/1
f 34/39/5 36/35/5 40/40/5
f 33/33/4 35/32/4 36/35/4
f 37/42/6 33/33/6 34/39/6
f 44/43/1 52/89/1 62/44/1
f 59/46/2 54/90/2 56/47/2
f 49/49/3 60/91/3 63/50/3
f 55/52/4 61/92/4 48/53/4
f 43/55/5 47/93/5 50/56/5
f 53/58/6 41/94/6 45/59/6
f 68/61/1 76/95/1 86/62/1
f 83/64/2 78/96/2 80/65/2
f 73/67/3 84/97/3 87/68/3
f 79/70/4 85/98/4 72/71/4
f 67/73/5 71/99/5 74/74/5
f 81/76/6 77/100/6 65/77/6
usemtl WoodScreen_Showcase
f 1/84/7 2/101/7 3/102/7
f 4/1/8 5/103/8 6/104/8
f 7/83/9 8/105/9 9/106/9
f 10/107/10 11/108/10 12/109/10
f 13/110/11 14/111/11 15/112/11
f 16/5/12 17/113/12 18/114/12
f 19/4/13 20/115/13 21/116/13
f 22/2/14 23/117/14 24/118/14
f 22/2/15 16/119/15 18/3/15
f 18/3/16 5/103/16 4/1/16
f 6/15/17 1/84/17 3/13/17
f 20/115/18 24/6/18 23/120/18
f 11/9/19 7/83/19 9/7/19
f 17/18/20 14/80/20 13/16/20
f 21/121/21 9/7/21 8/122/21
f 8/11/22 3/13/22 2/12/22
f 12/79/23 23/117/23 22/2/23
f 15/112/24 19/4/24 21/116/24
f 2/101/25 13/16/25 15/123/25
f 4/1/26 10/14/26 12/79/26
f 41/94/27 42/124/27 43/125/27
f 44/43/28 45/126/28 46/127/28
f 47/93/29 48/128/29 49/129/29
f 50/130/30 51/131/30 52/132/30
f 53/133/31 54/134/31 55/135/31
f 56/47/32 57/136/32 58/137/32
f 59/46/33 60/138/33 61/139/33
f 62/44/34 63/140/34 64/141/34
f 62/44/15 56/142/15 58/45/15
f 58/45/16 45/126/16 44/43/16
f 46/57/17 41/94/17 43/55/17
f 60/138/18 64/48/18 63/143/18
f 51/51/19 47/93/19 49/49/19
f 57/60/20 54/90/20 53/58/20
f 61/144/21 49/49/21 48/145/21
f 48/53/22 43/55/22 42/54/22
f 52/89/23 63/140/23 62/44/23
f 55/135/24 59/46/24 61/139/24
f 42/124/25 53/58/25 55/146/25
f 44/43/26 50/56/26 52/89/26
f 65/77/35 66/147/35 67/148/35
f 68/61/36 69/149/36 70/150/36
f 71/99/9 72/151/9 73/152/9
f 74/153/37 75/154/37 76/155/37
f 77/156/31 78/157/31 79/158/31
f 80/65/38 81/159/38 82/160/38
f 83/64/13 84/161/13 85/162/13
f 86/62/39 87/163/39 88/164/39
f 86/62/15 80/165/15 82/63/15
f 82/63/16 69/149/16 68/61/16
f 70/75/17 65/77/17 67/73/17
f 84/161/18 88/66/18 87/166/18
f 75/69/19 71/99/19 73/67/19
f 81/76/20 78/96/20 77/100/20
f 85/167/21 73/67/21 72/168/21
f 72/71/22 67/73/22 66/72/22
f 76/95/23 87/163/23 86/62/23
f 79/158/24 83/64/24 85/162/24
f 66/147/25 77/100/25 79/169/25
f 68/61/26 74/74/26 76/95/26
f 22/2/15 24/118/15 16/119/15
f 18/3/16 17/170/16 5/103/16
f 6/15/17 5/17/17 1/84/17
f 20/115/18 19/4/18 24/6/18
f 11/9/19 10/14/19 7/83/19
f 17/18/20 16/5/20 14/80/20
f 21/121/21 20/81/21 9/7/21
f 8/11/22 7/83/22 3/13/22
f 12/79/23 11/171/23 23/117/23
f 15/112/24 14/80/24 19/4/24
f 2/101/25 1/84/25 13/16/25
f 4/1/26 6/15/26 10/14/26
f 62/44/15 64/141/15 56/142/15
f 58/45/16 57/172/16 45/126/16
f 46/57/17 45/59/17 41/94/17
f 60/138/18 59/46/18 64/48/18
f 51/51/19 50/56/19 47/93/19
f 57/60/20 56/47/20 54/90/20
f 61/144/21 60/91/21 49/49/21
f 48/53/22 47/93/22 43/55/22
f 52/89/23 51/173/23 63/140/23
f 55/135/24 54/90/24 59/46/24
f 42/124/25 41/94/25 53/58/25
f 44/43/26 46/57/26 50/56/26
f 86/62/15 88/164/15 80/165/15
f 82/63/16 81/174/16 69/149/16
f 70/75/17 69/78/17 65/77/17
f 84/161/18 83/64/18 88/66/18
f 75/69/19 74/74/19 71/99/19
f 81/76/20 80/65/20 78/96/20
f 85/167/21 84/97/21 73/67/21
f 72/71/22 71/99/22 67/73/22
f 76/95/23 75/175/23 87/163/23
f 79/158/24 78/96/24 83/64/24
f 66/147/25 65/77/25 77/100/25
f 68/61/26 70/75/26 74/74/26
