# Blender v2.90.0 OBJ File: 'Window_topSmall.blend'
# www.blender.org
mtllib Window_topSmall.mtl
o SmallWall_03_Cube.013
v 1.770014 1.589945 0.099999
v 1.770014 0.424723 0.099999
v 0.839640 1.589945 0.100000
v 0.839640 0.424723 0.100000
v 1.770014 1.589945 -0.100001
v 1.770014 0.424723 -0.100001
v 0.839640 1.589945 -0.100000
v 0.839640 0.424723 -0.100000
v 2.604827 0.007334 -0.100001
v 0.004827 0.007334 -0.100000
v 2.604827 2.007334 0.099999
v 2.604827 0.007334 0.099999
v 0.004827 2.007334 -0.100000
v 0.004827 2.007334 0.100000
v 0.004827 0.007334 0.100000
v 2.604827 2.007334 -0.100001
v 1.635669 1.455599 0.128916
v 1.635669 0.559069 0.128916
v 0.973986 1.455599 0.128917
v 0.973986 0.559069 0.128917
v 1.635669 1.455599 -0.128918
v 1.635669 0.559069 -0.128918
v 0.973986 1.455599 -0.128917
v 0.973986 0.559069 -0.128917
v 1.770014 1.589945 0.128916
v 1.770014 0.424723 0.128916
v 0.839640 1.589945 0.128917
v 0.839640 0.424723 0.128917
v 1.770014 1.589945 -0.128918
v 1.770014 0.424723 -0.128918
v 0.839640 1.589945 -0.128917
v 0.839640 0.424723 -0.128917
v 0.970294 0.537881 0.062706
v 0.970293 0.718879 0.028359
v 0.970293 0.532440 0.034038
v 0.970294 0.713439 -0.000310
v 1.301882 0.537881 0.062706
v 1.301882 0.718879 0.028359
v 1.301882 0.532440 0.034038
v 1.301882 0.713439 -0.000310
v 0.970294 0.722109 0.062706
v 0.970293 0.903108 0.028359
v 0.970293 0.716669 0.034038
v 0.970294 0.897667 -0.000310
v 1.301882 0.722109 0.062706
v 1.301882 0.903108 0.028359
v 1.301882 0.716669 0.034038
v 1.301882 0.897667 -0.000310
v 0.970294 0.906338 0.062706
v 0.970293 1.087336 0.028359
v 0.970293 0.900898 0.034038
v 0.970294 1.081896 -0.000310
v 1.301882 0.906338 0.062706
v 1.301882 1.087336 0.028359
v 1.301882 0.900898 0.034038
v 1.301882 1.081896 -0.000310
v 0.970294 1.090567 0.062706
v 0.970293 1.271565 0.028359
v 0.970293 1.085126 0.034038
v 0.970294 1.266125 -0.000310
v 1.301882 1.090567 0.062706
v 1.301882 1.271565 0.028359
v 1.301882 1.085126 0.034038
v 1.301882 1.266125 -0.000310
v 0.970294 1.274795 0.062706
v 0.970293 1.455794 0.028359
v 0.970293 1.269355 0.034038
v 0.970294 1.450353 -0.000310
v 1.301882 1.274795 0.062706
v 1.301882 1.455794 0.028359
v 1.301882 1.269355 0.034038
v 1.301882 1.450353 -0.000310
v 1.639361 0.537881 0.062706
v 1.639361 0.718879 0.028359
v 1.639361 0.532440 0.034038
v 1.639361 0.713439 -0.000310
v 1.307773 0.537881 0.062706
v 1.307773 0.718879 0.028359
v 1.307773 0.532440 0.034038
v 1.307773 0.713439 -0.000310
v 1.639361 0.722109 0.062706
v 1.639361 0.903108 0.028359
v 1.639361 0.716669 0.034038
v 1.639361 0.897667 -0.000310
v 1.307773 0.722109 0.062706
v 1.307773 0.903108 0.028359
v 1.307773 0.716669 0.034038
v 1.307773 0.897667 -0.000310
v 1.639361 0.906338 0.062706
v 1.639361 1.087336 0.028359
v 1.639361 0.900898 0.034038
v 1.639361 1.081896 -0.000310
v 1.307773 0.906338 0.062706
v 1.307773 1.087336 0.028359
v 1.307773 0.900898 0.034038
v 1.307773 1.081896 -0.000310
v 1.639361 1.090567 0.062706
v 1.639361 1.271565 0.028359
v 1.639361 1.085126 0.034038
v 1.639361 1.266125 -0.000310
v 1.307773 1.090567 0.062706
v 1.307773 1.271565 0.028359
v 1.307773 1.085126 0.034038
v 1.307773 1.266125 -0.000310
v 1.639361 1.274795 0.062706
v 1.639361 1.455794 0.028359
v 1.639361 1.269355 0.034038
v 1.639361 1.450353 -0.000310
v 1.307773 1.274795 0.062706
v 1.307773 1.455794 0.028359
v 1.307773 1.269355 0.034038
v 1.307773 1.450353 -0.000310
v 1.639361 0.537881 -0.062708
v 1.639361 0.718879 -0.028360
v 1.639361 0.532440 -0.034039
v 1.639361 0.713439 0.000309
v 1.307773 0.537881 -0.062708
v 1.307773 0.718879 -0.028360
v 1.307773 0.532440 -0.034039
v 1.307773 0.713439 0.000309
v 1.639361 0.722109 -0.062708
v 1.639361 0.903108 -0.028360
v 1.639361 0.716669 -0.034039
v 1.639361 0.897667 0.000309
v 1.307773 0.722109 -0.062708
v 1.307773 0.903108 -0.028360
v 1.307773 0.716669 -0.034039
v 1.307773 0.897667 0.000309
v 1.639361 0.906338 -0.062708
v 1.639361 1.087336 -0.028360
v 1.639361 0.900898 -0.034039
v 1.639361 1.081896 0.000309
v 1.307773 0.906338 -0.062708
v 1.307773 1.087336 -0.028360
v 1.307773 0.900898 -0.034039
v 1.307773 1.081896 0.000309
v 1.639361 1.090567 -0.062708
v 1.639361 1.271565 -0.028360
v 1.639361 1.085126 -0.034039
v 1.639361 1.266125 0.000309
v 1.307773 1.090567 -0.062708
v 1.307773 1.271565 -0.028360
v 1.307773 1.085126 -0.034039
v 1.307773 1.266125 0.000309
v 1.639361 1.274795 -0.062708
v 1.639361 1.455794 -0.028360
v 1.639361 1.269355 -0.034039
v 1.639361 1.450353 0.000309
v 1.307773 1.274795 -0.062708
v 1.307773 1.455794 -0.028360
v 1.307773 1.269355 -0.034039
v 1.307773 1.450353 0.000309
v 0.970293 0.537881 -0.062707
v 0.970293 0.718879 -0.028360
v 0.970293 0.532440 -0.034039
v 0.970293 0.713439 0.000309
v 1.301882 0.537881 -0.062708
v 1.301882 0.718879 -0.028360
v 1.301882 0.532440 -0.034039
v 1.301882 0.713439 0.000309
v 0.970293 0.722109 -0.062707
v 0.970293 0.903108 -0.028360
v 0.970293 0.716669 -0.034039
v 0.970293 0.897667 0.000309
v 1.301882 0.722109 -0.062708
v 1.301882 0.903108 -0.028360
v 1.301882 0.716669 -0.034039
v 1.301882 0.897667 0.000309
v 0.970293 0.906338 -0.062707
v 0.970293 1.087336 -0.028360
v 0.970293 0.900898 -0.034039
v 0.970293 1.081896 0.000309
v 1.301882 0.906338 -0.062708
v 1.301882 1.087336 -0.028360
v 1.301882 0.900898 -0.034039
v 1.301882 1.081896 0.000309
v 0.970293 1.090567 -0.062707
v 0.970293 1.271565 -0.028360
v 0.970293 1.085126 -0.034039
v 0.970293 1.266125 0.000309
v 1.301882 1.090567 -0.062708
v 1.301882 1.271565 -0.028360
v 1.301882 1.085126 -0.034039
v 1.301882 1.266125 0.000309
v 0.970293 1.274795 -0.062707
v 0.970293 1.455794 -0.028360
v 0.970293 1.269355 -0.034039
v 0.970293 1.450353 0.000309
v 1.301882 1.274795 -0.062708
v 1.301882 1.455794 -0.028360
v 1.301882 1.269355 -0.034039
v 1.301882 1.450353 0.000309
v 2.609654 0.000000 -0.162006
v -0.000000 0.000000 -0.162005
v 2.609654 2.014668 0.162003
v 2.609654 0.000000 0.162003
v -0.000000 2.014668 -0.162005
v 0.000000 2.014668 0.162005
v 0.000000 0.000000 0.162005
v 2.609654 2.014668 -0.162006
v 2.410936 0.199435 -0.162006
v 0.198718 0.199435 -0.162005
v 2.410936 1.815232 0.162004
v 2.410936 0.199435 0.162004
v 0.198718 1.815232 -0.162005
v 0.198719 1.815232 0.162005
v 0.198719 0.199435 0.162005
v 2.410936 1.815232 -0.162006
vt 0.875000 0.500000
vt 0.625000 0.750000
vt 0.625000 0.500000
vt 0.560413 0.549682
vt 0.560413 0.049682
vt 0.560413 0.200318
vt 0.375000 0.500000
vt 0.125000 0.750000
vt 0.125000 0.500000
vt 0.439587 0.200318
vt 0.439587 0.549682
vt 0.375000 0.000000
vt 0.439587 0.049682
vt 0.625000 0.000000
vt 0.560413 0.700318
vt 0.375000 0.750000
vt 0.439587 0.700318
vt 0.375000 0.250000
vt 0.625000 0.250000
vt 0.625000 0.000000
vt 0.375000 0.250000
vt 0.375000 0.000000
vt 0.625000 0.250000
vt 0.375000 0.500000
vt 0.625000 0.500000
vt 0.375000 0.750000
vt 0.625000 0.750000
vt 0.375000 1.000000
vt 0.125000 0.750000
vt 0.125000 0.500000
vt 0.875000 0.500000
vt 0.625000 0.000000
vt 0.375000 0.250000
vt 0.375000 0.000000
vt 0.625000 0.250000
vt 0.375000 0.500000
vt 0.625000 0.500000
vt 0.375000 0.750000
vt 0.625000 0.750000
vt 0.375000 1.000000
vt 0.125000 0.750000
vt 0.125000 0.500000
vt 0.875000 0.500000
vt 0.375000 0.000000
vt 0.625000 0.250000
vt 0.375000 0.250000
vt 0.375000 0.500000
vt 0.625000 0.500000
vt 0.375000 0.750000
vt 0.625000 0.750000
vt 0.375000 1.000000
vt 0.125000 0.750000
vt 0.125000 0.500000
vt 0.875000 0.500000
vt 0.625000 0.000000
vt 0.375000 0.250000
vt 0.375000 0.000000
vt 0.625000 0.250000
vt 0.375000 0.500000
vt 0.625000 0.500000
vt 0.375000 0.750000
vt 0.625000 0.750000
vt 0.375000 1.000000
vt 0.125000 0.750000
vt 0.125000 0.500000
vt 0.875000 0.500000
vt 0.625000 0.000000
vt 0.375000 0.250000
vt 0.375000 0.000000
vt 0.625000 0.250000
vt 0.375000 0.500000
vt 0.625000 0.750000
vt 0.375000 0.750000
vt 0.375000 1.000000
vt 0.125000 0.750000
vt 0.125000 0.500000
vt 0.875000 0.500000
vt 0.625000 0.500000
vt 0.375000 0.000000
vt 0.625000 0.250000
vt 0.625000 0.000000
vt 0.375000 0.500000
vt 0.375000 0.250000
vt 0.375000 0.750000
vt 0.625000 0.500000
vt 0.375000 1.000000
vt 0.625000 0.750000
vt 0.125000 0.750000
vt 0.125000 0.500000
vt 0.875000 0.500000
vt 0.375000 0.250000
vt 0.625000 0.000000
vt 0.375000 0.000000
vt 0.375000 0.500000
vt 0.625000 0.250000
vt 0.375000 0.750000
vt 0.625000 0.500000
vt 0.375000 1.000000
vt 0.625000 0.750000
vt 0.125000 0.750000
vt 0.125000 0.500000
vt 0.875000 0.500000
vt 0.375000 0.000000
vt 0.625000 0.250000
vt 0.625000 0.000000
vt 0.375000 0.500000
vt 0.375000 0.250000
vt 0.375000 0.750000
vt 0.625000 0.500000
vt 0.375000 1.000000
vt 0.625000 0.750000
vt 0.125000 0.750000
vt 0.125000 0.500000
vt 0.875000 0.500000
vt 0.375000 0.250000
vt 0.625000 0.000000
vt 0.375000 0.000000
vt 0.375000 0.500000
vt 0.625000 0.250000
vt 0.375000 0.750000
vt 0.625000 0.500000
vt 0.375000 1.000000
vt 0.625000 0.750000
vt 0.125000 0.750000
vt 0.125000 0.500000
vt 0.875000 0.500000
vt 0.375000 0.250000
vt 0.625000 0.000000
vt 0.375000 0.000000
vt 0.375000 0.500000
vt 0.625000 0.250000
vt 0.625000 0.750000
vt 0.625000 0.500000
vt 0.375000 1.000000
vt 0.375000 0.750000
vt 0.125000 0.750000
vt 0.125000 0.500000
vt 0.875000 0.500000
vt 0.375000 0.000000
vt 0.625000 0.250000
vt 0.375000 0.250000
vt 0.375000 0.500000
vt 0.625000 0.500000
vt 0.375000 0.750000
vt 0.625000 0.750000
vt 0.375000 1.000000
vt 0.125000 0.750000
vt 0.125000 0.500000
vt 0.875000 0.500000
vt 0.625000 0.000000
vt 0.375000 0.250000
vt 0.375000 0.000000
vt 0.625000 0.250000
vt 0.375000 0.500000
vt 0.625000 0.750000
vt 0.375000 0.750000
vt 0.375000 1.000000
vt 0.125000 0.750000
vt 0.125000 0.500000
vt 0.875000 0.500000
vt 0.625000 0.500000
vt 0.375000 0.000000
vt 0.625000 0.250000
vt 0.375000 0.250000
vt 0.375000 0.500000
vt 0.625000 0.500000
vt 0.375000 0.750000
vt 0.625000 0.750000
vt 0.375000 1.000000
vt 0.125000 0.750000
vt 0.125000 0.500000
vt 0.875000 0.500000
vt 0.625000 0.000000
vt 0.375000 0.250000
vt 0.375000 0.000000
vt 0.625000 0.250000
vt 0.375000 0.500000
vt 0.625000 0.500000
vt 0.375000 0.750000
vt 0.625000 0.750000
vt 0.375000 1.000000
vt 0.125000 0.750000
vt 0.125000 0.500000
vt 0.875000 0.500000
vt 0.625000 0.000000
vt 0.375000 0.250000
vt 0.375000 0.000000
vt 0.625000 0.250000
vt 0.375000 0.500000
vt 0.625000 0.750000
vt 0.375000 0.750000
vt 0.375000 1.000000
vt 0.125000 0.750000
vt 0.125000 0.500000
vt 0.875000 0.500000
vt 0.625000 0.500000
vt 0.375000 0.250000
vt 0.625000 0.000000
vt 0.375000 0.000000
vt 0.375000 0.500000
vt 0.625000 0.250000
vt 0.375000 0.750000
vt 0.625000 0.500000
vt 0.375000 1.000000
vt 0.625000 0.750000
vt 0.125000 0.500000
vt 0.875000 0.500000
vt 0.375000 0.250000
vt 0.625000 0.000000
vt 0.375000 0.000000
vt 0.375000 0.500000
vt 0.625000 0.250000
vt 0.375000 0.750000
vt 0.625000 0.500000
vt 0.375000 1.000000
vt 0.625000 0.750000
vt 0.125000 0.500000
vt 0.875000 0.500000
vt 0.375000 0.000000
vt 0.625000 0.250000
vt 0.625000 0.000000
vt 0.375000 0.500000
vt 0.375000 0.250000
vt 0.375000 0.750000
vt 0.625000 0.500000
vt 0.375000 1.000000
vt 0.625000 0.750000
vt 0.125000 0.500000
vt 0.875000 0.500000
vt 0.375000 0.000000
vt 0.625000 0.250000
vt 0.625000 0.000000
vt 0.375000 0.500000
vt 0.375000 0.250000
vt 0.375000 0.750000
vt 0.625000 0.500000
vt 0.375000 1.000000
vt 0.625000 0.750000
vt 0.125000 0.500000
vt 0.875000 0.500000
vt 0.375000 0.250000
vt 0.625000 0.000000
vt 0.375000 0.000000
vt 0.375000 0.500000
vt 0.625000 0.250000
vt 0.625000 0.750000
vt 0.625000 0.500000
vt 0.375000 0.750000
vt 0.625000 1.000000
vt 0.125000 0.500000
vt 0.875000 0.500000
vt 0.875000 0.750000
vt 0.625000 1.000000
vt 0.875000 0.750000
vt 0.625000 1.000000
vt 0.875000 0.750000
vt 0.625000 0.000000
vt 0.625000 1.000000
vt 0.875000 0.750000
vt 0.625000 1.000000
vt 0.875000 0.750000
vt 0.625000 1.000000
vt 0.875000 0.750000
vt 0.625000 1.000000
vt 0.875000 0.750000
vt 0.625000 1.000000
vt 0.875000 0.750000
vt 0.625000 1.000000
vt 0.875000 0.750000
vt 0.625000 1.000000
vt 0.875000 0.750000
vt 0.625000 1.000000
vt 0.875000 0.750000
vt 0.625000 0.000000
vt 0.625000 1.000000
vt 0.875000 0.750000
vt 0.625000 1.000000
vt 0.875000 0.750000
vt 0.625000 0.000000
vt 0.625000 1.000000
vt 0.875000 0.750000
vt 0.625000 1.000000
vt 0.875000 0.750000
vt 0.625000 1.000000
vt 0.875000 0.750000
vt 0.625000 1.000000
vt 0.125000 0.750000
vt 0.875000 0.750000
vt 0.625000 1.000000
vt 0.125000 0.750000
vt 0.875000 0.750000
vt 0.625000 1.000000
vt 0.125000 0.750000
vt 0.875000 0.750000
vt 0.625000 1.000000
vt 0.125000 0.750000
vt 0.875000 0.750000
vt 0.375000 1.000000
vt 0.125000 0.750000
vt 0.875000 0.750000
vt 0.560413 0.549682
vt 0.560413 0.049682
vt 0.560413 0.200318
vt 0.439587 0.200318
vt 0.439587 0.549682
vt 0.439587 0.700318
vt 0.560413 0.700318
vt 0.439587 0.049682
vt 0.560413 0.549682
vt 0.560413 0.049682
vt 0.560413 0.700318
vt 0.439587 0.200318
vt 0.439587 0.549682
vt 0.439587 0.700318
vt 0.439587 0.049682
vt 0.560413 0.200318
vt 0.625000 0.500000
vt 0.875000 0.750000
vt 0.625000 0.750000
vt 0.375000 0.500000
vt 0.125000 0.750000
vt 0.125000 0.500000
vt 0.625000 0.750000
vt 0.875000 0.500000
vt 0.625000 0.500000
vt 0.375000 1.000000
vt 0.375000 0.750000
vt 0.125000 0.500000
vt 0.375000 0.500000
vt 0.625000 0.250000
vt 0.375000 0.250000
vt 0.625000 1.000000
vt 0.375000 1.000000
vt 0.625000 0.250000
vt 0.875000 0.750000
vt 0.375000 0.750000
vt 0.875000 0.500000
vt 0.625000 1.000000
vt 0.125000 0.750000
vt 0.375000 0.250000
vn 0.0000 1.0000 0.0000
vn 0.0000 -1.0000 0.0000
vn -1.0000 0.0000 0.0000
vn -0.0000 0.0000 -1.0000
vn 0.0000 0.0000 1.0000
vn 1.0000 0.0000 -0.0000
vn 0.0000 -0.1864 -0.9825
vn 0.0000 0.1864 0.9825
vn 0.0000 -0.9825 0.1864
vn 0.0000 0.9825 -0.1864
vn 0.0000 -0.1864 0.9825
vn -0.0000 0.1864 -0.9825
vn -0.0000 -0.9825 -0.1864
vn 0.0000 0.9825 0.1864
usemtl Plaster_SmallWall03
s off
f 16/1/1 14/2/1 11/3/1
f 1/4/2 7/5/2 5/6/2
f 12/7/2 10/8/2 9/9/2
f 1/4/3 6/10/3 2/11/3
f 6/10/4 10/12/4 8/13/4
f 2/11/5 11/3/5 1/4/5
f 8/13/4 13/14/4 7/5/4
f 3/15/5 15/16/5 4/17/5
f 5/6/4 9/18/4 6/10/4
f 1/4/5 14/2/5 3/15/5
f 7/5/4 16/19/4 5/6/4
f 4/17/5 12/7/5 2/11/5
f 4/17/6 7/5/6 3/15/6
f 2/11/1 8/13/1 4/17/1
f 34/20/3 35/21/3 33/22/3
f 36/23/7 39/24/7 35/21/7
f 40/25/6 37/26/6 39/24/6
f 38/27/8 33/28/8 37/26/8
f 39/24/9 33/29/9 35/30/9
f 36/31/10 38/27/10 40/25/10
f 42/32/3 43/33/3 41/34/3
f 44/35/7 47/36/7 43/33/7
f 48/37/6 45/38/6 47/36/6
f 46/39/8 41/40/8 45/38/8
f 47/36/9 41/41/9 43/42/9
f 44/43/10 46/39/10 48/37/10
f 49/44/3 52/45/3 51/46/3
f 52/45/7 55/47/7 51/46/7
f 56/48/6 53/49/6 55/47/6
f 54/50/8 49/51/8 53/49/8
f 55/47/9 49/52/9 51/53/9
f 52/54/10 54/50/10 56/48/10
f 58/55/3 59/56/3 57/57/3
f 60/58/7 63/59/7 59/56/7
f 64/60/6 61/61/6 63/59/6
f 62/62/8 57/63/8 61/61/8
f 63/59/9 57/64/9 59/65/9
f 60/66/10 62/62/10 64/60/10
f 66/67/3 67/68/3 65/69/3
f 68/70/7 71/71/7 67/68/7
f 71/71/6 70/72/6 69/73/6
f 70/72/8 65/74/8 69/73/8
f 71/71/9 65/75/9 67/76/9
f 68/77/10 70/72/10 72/78/10
f 73/79/6 76/80/6 74/81/6
f 79/82/7 76/80/7 75/83/7
f 77/84/3 80/85/3 79/82/3
f 73/86/8 78/87/8 77/84/8
f 73/88/9 79/82/9 75/89/9
f 78/87/10 76/90/10 80/85/10
f 83/91/6 82/92/6 81/93/6
f 87/94/7 84/95/7 83/91/7
f 85/96/3 88/97/3 87/94/3
f 81/98/8 86/99/8 85/96/8
f 81/100/9 87/94/9 83/101/9
f 86/99/10 84/102/10 88/97/10
f 89/103/6 92/104/6 90/105/6
f 95/106/7 92/104/7 91/107/7
f 93/108/3 96/109/3 95/106/3
f 89/110/8 94/111/8 93/108/8
f 89/112/9 95/106/9 91/113/9
f 94/111/10 92/114/10 96/109/10
f 99/115/6 98/116/6 97/117/6
f 103/118/7 100/119/7 99/115/7
f 101/120/3 104/121/3 103/118/3
f 97/122/8 102/123/8 101/120/8
f 97/124/9 103/118/9 99/125/9
f 102/123/10 100/126/10 104/121/10
f 107/127/6 106/128/6 105/129/6
f 111/130/7 108/131/7 107/127/7
f 111/130/3 110/132/3 112/133/3
f 105/134/8 110/132/8 109/135/8
f 105/136/9 111/130/9 107/137/9
f 110/132/10 108/138/10 112/133/10
f 113/139/6 116/140/6 115/141/6
f 116/140/11 119/142/11 115/141/11
f 120/143/3 117/144/3 119/142/3
f 118/145/12 113/146/12 117/144/12
f 119/142/13 113/147/13 115/148/13
f 116/149/14 118/145/14 120/143/14
f 122/150/6 123/151/6 121/152/6
f 124/153/11 127/154/11 123/151/11
f 127/154/3 126/155/3 125/156/3
f 126/155/12 121/157/12 125/156/12
f 127/154/13 121/158/13 123/159/13
f 124/160/14 126/155/14 128/161/14
f 129/162/6 132/163/6 131/164/6
f 132/163/11 135/165/11 131/164/11
f 136/166/3 133/167/3 135/165/3
f 134/168/12 129/169/12 133/167/12
f 135/165/13 129/170/13 131/171/13
f 132/172/14 134/168/14 136/166/14
f 138/173/6 139/174/6 137/175/6
f 140/176/11 143/177/11 139/174/11
f 144/178/3 141/179/3 143/177/3
f 142/180/12 137/181/12 141/179/12
f 143/177/13 137/182/13 139/183/13
f 140/184/14 142/180/14 144/178/14
f 146/185/6 147/186/6 145/187/6
f 148/188/11 151/189/11 147/186/11
f 151/189/3 150/190/3 149/191/3
f 150/190/12 145/192/12 149/191/12
f 151/189/13 145/193/13 147/194/13
f 148/195/14 150/190/14 152/196/14
f 155/197/3 154/198/3 153/199/3
f 159/200/11 156/201/11 155/197/11
f 157/202/6 160/203/6 159/200/6
f 153/204/12 158/205/12 157/202/12
f 155/206/13 157/202/13 159/200/13
f 158/205/14 156/207/14 160/203/14
f 163/208/3 162/209/3 161/210/3
f 167/211/11 164/212/11 163/208/11
f 165/213/6 168/214/6 167/211/6
f 161/215/12 166/216/12 165/213/12
f 163/217/13 165/213/13 167/211/13
f 166/216/14 164/218/14 168/214/14
f 169/219/3 172/220/3 170/221/3
f 175/222/11 172/220/11 171/223/11
f 173/224/6 176/225/6 175/222/6
f 169/226/12 174/227/12 173/224/12
f 171/228/13 173/224/13 175/222/13
f 174/227/14 172/229/14 176/225/14
f 177/230/3 180/231/3 178/232/3
f 183/233/11 180/231/11 179/234/11
f 181/235/6 184/236/6 183/233/6
f 177/237/12 182/238/12 181/235/12
f 179/239/13 181/235/13 183/233/13
f 182/238/14 180/240/14 184/236/14
f 187/241/3 186/242/3 185/243/3
f 191/244/11 188/245/11 187/241/11
f 191/244/6 190/246/6 192/247/6
f 189/248/12 186/249/12 190/246/12
f 187/250/13 189/248/13 191/244/13
f 190/246/14 188/251/14 192/247/14
f 16/1/1 13/252/1 14/2/1
f 1/4/2 3/15/2 7/5/2
f 12/7/2 15/16/2 10/8/2
f 1/4/3 5/6/3 6/10/3
f 6/10/4 9/18/4 10/12/4
f 2/11/5 12/7/5 11/3/5
f 8/13/4 10/12/4 13/14/4
f 3/15/5 14/2/5 15/16/5
f 5/6/4 16/19/4 9/18/4
f 1/4/5 11/3/5 14/2/5
f 7/5/4 13/14/4 16/19/4
f 4/17/5 15/16/5 12/7/5
f 4/17/6 8/13/6 7/5/6
f 2/11/1 6/10/1 8/13/1
f 34/20/3 36/23/3 35/21/3
f 36/23/7 40/25/7 39/24/7
f 40/25/6 38/27/6 37/26/6
f 38/27/8 34/253/8 33/28/8
f 39/24/9 37/26/9 33/29/9
f 36/31/10 34/254/10 38/27/10
f 42/32/3 44/35/3 43/33/3
f 44/35/7 48/37/7 47/36/7
f 48/37/6 46/39/6 45/38/6
f 46/39/8 42/255/8 41/40/8
f 47/36/9 45/38/9 41/41/9
f 44/43/10 42/256/10 46/39/10
f 49/44/3 50/257/3 52/45/3
f 52/45/7 56/48/7 55/47/7
f 56/48/6 54/50/6 53/49/6
f 54/50/8 50/258/8 49/51/8
f 55/47/9 53/49/9 49/52/9
f 52/54/10 50/259/10 54/50/10
f 58/55/3 60/58/3 59/56/3
f 60/58/7 64/60/7 63/59/7
f 64/60/6 62/62/6 61/61/6
f 62/62/8 58/260/8 57/63/8
f 63/59/9 61/61/9 57/64/9
f 60/66/10 58/261/10 62/62/10
f 66/67/3 68/70/3 67/68/3
f 68/70/7 72/78/7 71/71/7
f 71/71/6 72/78/6 70/72/6
f 70/72/8 66/262/8 65/74/8
f 71/71/9 69/73/9 65/75/9
f 68/77/10 66/263/10 70/72/10
f 73/79/6 75/83/6 76/80/6
f 79/82/7 80/85/7 76/80/7
f 77/84/3 78/87/3 80/85/3
f 73/86/8 74/264/8 78/87/8
f 73/88/9 77/84/9 79/82/9
f 78/87/10 74/265/10 76/90/10
f 83/91/6 84/95/6 82/92/6
f 87/94/7 88/97/7 84/95/7
f 85/96/3 86/99/3 88/97/3
f 81/98/8 82/266/8 86/99/8
f 81/100/9 85/96/9 87/94/9
f 86/99/10 82/267/10 84/102/10
f 89/103/6 91/107/6 92/104/6
f 95/106/7 96/109/7 92/104/7
f 93/108/3 94/111/3 96/109/3
f 89/110/8 90/268/8 94/111/8
f 89/112/9 93/108/9 95/106/9
f 94/111/10 90/269/10 92/114/10
f 99/115/6 100/119/6 98/116/6
f 103/118/7 104/121/7 100/119/7
f 101/120/3 102/123/3 104/121/3
f 97/122/8 98/270/8 102/123/8
f 97/124/9 101/120/9 103/118/9
f 102/123/10 98/271/10 100/126/10
f 107/127/6 108/131/6 106/128/6
f 111/130/7 112/133/7 108/131/7
f 111/130/3 109/135/3 110/132/3
f 105/134/8 106/272/8 110/132/8
f 105/136/9 109/135/9 111/130/9
f 110/132/10 106/273/10 108/138/10
f 113/139/6 114/274/6 116/140/6
f 116/140/11 120/143/11 119/142/11
f 120/143/3 118/145/3 117/144/3
f 118/145/12 114/275/12 113/146/12
f 119/142/13 117/144/13 113/147/13
f 116/149/14 114/276/14 118/145/14
f 122/150/6 124/153/6 123/151/6
f 124/153/11 128/161/11 127/154/11
f 127/154/3 128/161/3 126/155/3
f 126/155/12 122/277/12 121/157/12
f 127/154/13 125/156/13 121/158/13
f 124/160/14 122/278/14 126/155/14
f 129/162/6 130/279/6 132/163/6
f 132/163/11 136/166/11 135/165/11
f 136/166/3 134/168/3 133/167/3
f 134/168/12 130/280/12 129/169/12
f 135/165/13 133/167/13 129/170/13
f 132/172/14 130/281/14 134/168/14
f 138/173/6 140/176/6 139/174/6
f 140/176/11 144/178/11 143/177/11
f 144/178/3 142/180/3 141/179/3
f 142/180/12 138/282/12 137/181/12
f 143/177/13 141/179/13 137/182/13
f 140/184/14 138/283/14 142/180/14
f 146/185/6 148/188/6 147/186/6
f 148/188/11 152/196/11 151/189/11
f 151/189/3 152/196/3 150/190/3
f 150/190/12 146/284/12 145/192/12
f 151/189/13 149/191/13 145/193/13
f 148/195/14 146/285/14 150/190/14
f 155/197/3 156/201/3 154/198/3
f 159/200/11 160/203/11 156/201/11
f 157/202/6 158/205/6 160/203/6
f 153/204/12 154/286/12 158/205/12
f 155/206/13 153/287/13 157/202/13
f 158/205/14 154/288/14 156/207/14
f 163/208/3 164/212/3 162/209/3
f 167/211/11 168/214/11 164/212/11
f 165/213/6 166/216/6 168/214/6
f 161/215/12 162/289/12 166/216/12
f 163/217/13 161/290/13 165/213/13
f 166/216/14 162/291/14 164/218/14
f 169/219/3 171/223/3 172/220/3
f 175/222/11 176/225/11 172/220/11
f 173/224/6 174/227/6 176/225/6
f 169/226/12 170/292/12 174/227/12
f 171/228/13 169/293/13 173/224/13
f 174/227/14 170/294/14 172/229/14
f 177/230/3 179/234/3 180/231/3
f 183/233/11 184/236/11 180/231/11
f 181/235/6 182/238/6 184/236/6
f 177/237/12 178/295/12 182/238/12
f 179/239/13 177/296/13 181/235/13
f 182/238/14 178/297/14 180/240/14
f 187/241/3 188/245/3 186/242/3
f 191/244/11 192/247/11 188/245/11
f 191/244/6 189/248/6 190/246/6
f 189/248/12 185/298/12 186/249/12
f 187/250/13 185/299/13 189/248/13
f 190/246/14 186/300/14 188/251/14
usemtl Wood_SmallWall03
f 17/301/2 23/302/2 21/303/2
f 17/301/3 22/304/3 18/305/3
f 20/306/6 23/302/6 19/307/6
f 18/305/1 24/308/1 20/306/1
f 25/309/1 31/310/1 27/311/1
f 30/312/6 25/309/6 26/313/6
f 31/310/3 28/314/3 27/311/3
f 32/315/2 26/313/2 28/314/2
f 24/308/4 30/312/4 32/315/4
f 18/305/5 25/309/5 17/301/5
f 23/302/4 32/315/4 31/310/4
f 19/307/5 28/314/5 20/306/5
f 21/303/4 30/312/4 22/304/4
f 19/307/5 25/309/5 27/311/5
f 23/302/4 29/316/4 21/303/4
f 18/305/5 28/314/5 26/313/5
f 195/317/1 197/318/1 198/319/1
f 196/320/2 194/321/2 193/322/2
f 206/323/2 208/324/2 203/325/2
f 202/326/6 206/323/6 207/327/6
f 201/328/1 207/327/1 204/329/1
f 204/329/3 208/330/3 201/331/3
f 194/321/4 201/328/4 193/322/4
f 195/317/5 204/329/5 196/320/5
f 197/332/4 202/326/4 194/333/4
f 198/319/5 207/327/5 206/323/5
f 200/334/4 201/331/4 208/330/4
f 198/319/5 203/325/5 195/317/5
f 197/318/4 208/324/4 205/335/4
f 196/320/5 207/327/5 199/336/5
f 17/301/2 19/307/2 23/302/2
f 17/301/3 21/303/3 22/304/3
f 20/306/6 24/308/6 23/302/6
f 18/305/1 22/304/1 24/308/1
f 25/309/1 29/316/1 31/310/1
f 30/312/6 29/316/6 25/309/6
f 31/310/3 32/315/3 28/314/3
f 32/315/2 30/312/2 26/313/2
f 24/308/4 22/304/4 30/312/4
f 18/305/5 26/313/5 25/309/5
f 23/302/4 24/308/4 32/315/4
f 19/307/5 27/311/5 28/314/5
f 21/303/4 29/316/4 30/312/4
f 19/307/5 17/301/5 25/309/5
f 23/302/4 31/310/4 29/316/4
f 18/305/5 20/306/5 28/314/5
f 195/317/1 200/337/1 197/318/1
f 196/320/2 199/336/2 194/321/2
f 206/323/2 205/335/2 208/324/2
f 202/326/6 205/338/6 206/323/6
f 201/328/1 202/339/1 207/327/1
f 204/329/3 203/325/3 208/330/3
f 194/321/4 202/339/4 201/328/4
f 195/317/5 203/325/5 204/329/5
f 197/332/4 205/338/4 202/326/4
f 198/319/5 199/336/5 207/327/5
f 200/334/4 193/340/4 201/331/4
f 198/319/5 206/323/5 203/325/5
f 197/318/4 200/337/4 208/324/4
f 196/320/5 204/329/5 207/327/5
