# Blender v2.90.0 OBJ File: 'Window02_topSmall.blend'
# www.blender.org
mtllib Window02_topSmall.mtl
o SmallWindow_02_Cube.013
v 1.736487 1.479925 0.092792
v 1.736487 0.398684 0.092792
v 0.873168 1.479925 0.092792
v 0.873168 0.398684 0.092792
v 1.736487 1.479925 -0.092794
v 1.736487 0.398684 -0.092794
v 0.873168 1.479925 -0.092793
v 0.873168 0.398684 -0.092793
v 2.604827 0.007334 -0.100001
v 0.004827 0.007334 -0.100000
v 2.604827 2.007334 0.099999
v 2.604827 0.007334 0.099999
v 0.004827 2.007334 -0.100000
v 0.004827 2.007334 0.100000
v 0.004827 0.007334 0.100000
v 2.604827 2.007334 -0.100001
v 1.304827 2.007334 0.099999
v 1.304827 2.007334 -0.100001
v 1.304827 1.653144 0.092792
v 1.304827 1.653144 -0.092793
v 2.609654 0.000000 -0.162006
v -0.000000 0.000000 -0.162005
v 2.609654 2.014668 0.162003
v 2.609654 0.000000 0.162003
v -0.000000 2.014668 -0.162005
v 0.000000 2.014668 0.162005
v 0.000000 0.000000 0.162005
v 2.609654 2.014668 -0.162006
v 2.410936 0.199435 -0.162006
v 0.198718 0.199435 -0.162005
v 2.410936 1.815233 0.162004
v 2.410936 0.199435 0.162004
v 0.198718 1.815233 -0.162005
v 0.198719 1.815233 0.162005
v 0.198719 0.199435 0.162005
v 2.410936 1.815233 -0.162006
v 1.595665 1.384696 0.146760
v 1.616282 0.518888 0.146760
v 1.013989 1.384696 0.146761
v 0.993372 0.518888 0.146761
v 1.595665 1.384696 -0.146762
v 1.616282 0.518888 -0.146762
v 1.013989 1.384696 -0.146762
v 0.993372 0.518888 -0.146762
v 1.304827 1.483144 0.146761
v 1.304827 1.483144 -0.146762
v 1.736487 1.479925 0.146760
v 1.736487 0.398684 0.146760
v 0.873168 1.479925 0.146761
v 0.873168 0.398684 0.146761
v 1.736487 1.479925 -0.146763
v 1.736487 0.398684 -0.146763
v 0.873168 1.479925 -0.146761
v 0.873168 0.398684 -0.146761
v 1.304827 1.653144 0.146761
v 1.304827 1.653144 -0.146762
v 0.976696 0.498591 0.009914
v 0.976696 1.519274 0.009914
v 0.976696 0.498591 -0.009915
v 0.976696 1.519274 -0.009915
v 1.632958 0.498591 0.009914
v 1.632958 1.519274 0.009914
v 1.632958 0.498591 -0.009915
v 1.632958 1.519274 -0.009915
v 0.977349 1.028753 0.025252
v 1.632305 1.028753 0.025252
v 0.977349 1.028753 -0.025253
v 1.632305 1.028753 -0.025253
v 0.977349 0.942129 0.025252
v 1.632305 0.942129 0.025252
v 0.977349 0.942129 -0.025253
v 1.632305 0.942129 -0.025253
v 1.338211 1.555039 0.042179
v 1.338211 0.415843 0.042179
v 1.338211 1.555039 -0.042180
v 1.338212 0.415843 -0.042180
v 1.271443 1.555039 0.042179
v 1.271443 0.415843 0.042179
v 1.271443 1.555039 -0.042180
v 1.271443 0.415843 -0.042180
vt 0.625000 0.500000
vt 0.875000 0.750000
vt 0.625000 0.750000
vt 0.375000 1.000000
vt 0.375000 0.750000
vt 0.375000 0.500000
vt 0.125000 0.750000
vt 0.125000 0.500000
vt 0.625000 0.250000
vt 0.375000 0.250000
vt 0.625000 0.750000
vt 0.875000 0.500000
vt 0.625000 0.500000
vt 0.375000 1.000000
vt 0.375000 0.750000
vt 0.125000 0.750000
vt 0.375000 0.500000
vt 0.125000 0.500000
vt 0.625000 0.250000
vt 0.375000 0.250000
vt 0.625000 1.000000
vt 0.875000 0.500000
vt 0.875000 0.750000
vt 0.560413 0.625000
vt 0.560413 0.049682
vt 0.560413 0.125000
vt 0.560413 0.549682
vt 0.439587 0.200318
vt 0.439587 0.549682
vt 0.439587 0.700318
vt 0.560413 0.700318
vt 0.439587 0.049682
vt 0.560413 0.200318
vt 0.560413 0.625000
vt 0.560413 0.049682
vt 0.560413 0.700318
vt 0.439587 0.200318
vt 0.560413 0.549682
vt 0.439587 0.549682
vt 0.439587 0.700318
vt 0.439587 0.049682
vt 0.560413 0.125000
vt 0.560413 0.200318
vt 0.625000 0.000000
vt 0.375000 0.250000
vt 0.375000 0.000000
vt 0.625000 0.500000
vt 0.375000 0.750000
vt 0.375000 0.500000
vt 0.125000 0.750000
vt 0.125000 0.500000
vt 0.875000 0.500000
vt 0.625000 0.750000
vt 0.625000 0.000000
vt 0.375000 0.250000
vt 0.375000 0.000000
vt 0.625000 0.250000
vt 0.375000 0.500000
vt 0.625000 0.500000
vt 0.375000 0.750000
vt 0.625000 0.750000
vt 0.375000 1.000000
vt 0.125000 0.750000
vt 0.125000 0.500000
vt 0.875000 0.500000
vt 0.625000 0.000000
vt 0.375000 0.250000
vt 0.375000 0.000000
vt 0.625000 0.250000
vt 0.375000 0.500000
vt 0.625000 0.500000
vt 0.375000 0.750000
vt 0.625000 0.750000
vt 0.375000 1.000000
vt 0.125000 0.750000
vt 0.125000 0.500000
vt 0.875000 0.750000
vt 0.625000 1.000000
vt 0.625000 0.250000
vt 0.875000 0.750000
vt 0.625000 1.000000
vt 0.875000 0.750000
vt 0.625000 1.000000
vt 0.875000 0.500000
vt 0.625000 0.625000
vt 0.875000 0.750000
vt 0.625000 0.750000
vt 0.375000 1.000000
vt 0.375000 0.750000
vt 0.560413 0.625000
vt 0.560413 0.049682
vt 0.560413 0.125000
vt 0.375000 0.500000
vt 0.125000 0.750000
vt 0.125000 0.500000
vt 0.560413 0.549682
vt 0.439587 0.200318
vt 0.439587 0.549682
vt 0.625000 0.250000
vt 0.375000 0.250000
vt 0.375000 0.000000
vt 0.439587 0.049682
vt 0.625000 0.500000
vt 0.625000 0.000000
vt 0.560413 0.700318
vt 0.439587 0.700318
vt 0.560413 0.200318
vt 0.625000 0.125000
vt 0.875000 0.625000
vt 0.625000 1.000000
vt 0.875000 0.500000
vt 0.375000 1.000000
vt 0.625000 1.000000
vn 0.0000 1.0000 -0.0000
vn -1.0000 0.0000 0.0000
vn 0.0000 -1.0000 0.0000
vn 1.0000 0.0000 0.0000
vn -0.0000 0.0000 -1.0000
vn 0.0000 0.0000 1.0000
vn 0.3206 -0.9472 0.0000
vn -0.9997 -0.0238 0.0000
vn 0.9997 -0.0238 0.0000
vn -0.3206 -0.9472 0.0000
vn -0.3724 0.9281 0.0000
vn 0.3724 0.9281 0.0000
vn 0.3724 -0.9281 0.0000
vn -0.0000 0.0184 -0.9998
vn -0.0083 0.0000 1.0000
vn 0.0083 0.0000 -1.0000
vn 0.0083 0.0000 1.0000
vn -0.0083 0.0000 -1.0000
vn -0.0082 -0.0203 0.9998
vn 0.0082 -0.0203 -0.9998
vn 0.0000 0.0184 0.9998
vn -0.0000 -0.0137 -0.9999
vn 0.0000 -0.0137 0.9999
vn -0.3724 -0.9281 0.0000
vn -0.0082 -0.0203 -0.9998
vn 0.0082 -0.0203 0.9998
usemtl Wood_SmallWindow02
s off
f 23/1/1 25/2/1 26/3/1
f 26/3/2 22/4/2 27/5/2
f 24/6/3 22/7/3 21/8/3
f 28/9/4 24/6/4 21/10/4
f 34/11/3 36/12/3 31/13/3
f 30/14/4 34/11/4 35/15/4
f 30/16/1 32/17/1 29/18/1
f 32/17/2 36/19/2 29/20/2
f 22/7/5 29/18/5 21/8/5
f 23/1/6 32/17/6 24/6/6
f 25/21/5 30/14/5 22/4/5
f 27/5/6 34/11/6 26/3/6
f 21/10/5 36/19/5 28/9/5
f 26/3/6 31/13/6 23/1/6
f 28/22/5 33/23/5 25/2/5
f 24/6/6 35/15/6 27/5/6
f 45/24/7 43/25/7 46/26/7
f 37/27/8 42/28/8 38/29/8
f 40/30/9 43/25/9 39/31/9
f 38/29/1 44/32/1 40/30/1
f 37/27/10 46/26/10 41/33/10
f 55/34/11 53/35/11 49/36/11
f 52/37/4 47/38/4 48/39/4
f 53/35/2 50/40/2 49/36/2
f 54/41/3 48/39/3 50/40/3
f 47/38/12 56/42/12 55/34/12
f 42/28/5 54/41/5 44/32/5
f 38/29/6 47/38/6 37/27/6
f 44/32/5 53/35/5 43/25/5
f 40/30/6 49/36/6 50/40/6
f 42/28/5 51/43/5 52/37/5
f 39/31/6 55/34/6 49/36/6
f 41/33/5 56/42/5 51/43/5
f 38/29/6 50/40/6 48/39/6
f 37/27/6 55/34/6 45/24/6
f 43/25/5 56/42/5 46/26/5
f 58/44/2 59/45/2 57/46/2
f 64/47/4 61/48/4 63/49/4
f 63/49/3 57/50/3 59/51/3
f 60/52/1 62/53/1 64/47/1
f 66/54/1 67/55/1 65/56/1
f 68/57/5 71/58/5 67/55/5
f 72/59/3 69/60/3 71/58/3
f 70/61/6 65/62/6 69/60/6
f 71/58/2 65/63/2 67/64/2
f 68/65/4 70/61/4 72/59/4
f 74/66/4 75/67/4 73/68/4
f 76/69/5 79/70/5 75/67/5
f 80/71/2 77/72/2 79/70/2
f 78/73/6 73/74/6 77/72/6
f 79/70/1 73/75/1 75/76/1
f 80/71/3 74/77/3 78/73/3
f 23/1/1 28/22/1 25/2/1
f 26/3/2 25/21/2 22/4/2
f 24/6/3 27/5/3 22/7/3
f 28/9/4 23/1/4 24/6/4
f 34/11/3 33/23/3 36/12/3
f 30/14/4 33/78/4 34/11/4
f 30/16/1 35/15/1 32/17/1
f 32/17/2 31/13/2 36/19/2
f 22/7/5 30/16/5 29/18/5
f 23/1/6 31/13/6 32/17/6
f 25/21/5 33/78/5 30/14/5
f 27/5/6 35/15/6 34/11/6
f 21/10/5 29/20/5 36/19/5
f 26/3/6 34/11/6 31/13/6
f 28/22/5 36/12/5 33/23/5
f 24/6/6 32/17/6 35/15/6
f 45/24/7 39/31/7 43/25/7
f 37/27/8 41/33/8 42/28/8
f 40/30/9 44/32/9 43/25/9
f 38/29/1 42/28/1 44/32/1
f 37/27/10 45/24/10 46/26/10
f 55/34/11 56/42/11 53/35/11
f 52/37/4 51/43/4 47/38/4
f 53/35/2 54/41/2 50/40/2
f 54/41/3 52/37/3 48/39/3
f 47/38/12 51/43/12 56/42/12
f 42/28/5 52/37/5 54/41/5
f 38/29/6 48/39/6 47/38/6
f 44/32/5 54/41/5 53/35/5
f 40/30/6 39/31/6 49/36/6
f 42/28/5 41/33/5 51/43/5
f 39/31/6 45/24/6 55/34/6
f 41/33/5 46/26/5 56/42/5
f 38/29/6 40/30/6 50/40/6
f 37/27/6 47/38/6 55/34/6
f 43/25/5 53/35/5 56/42/5
f 58/44/2 60/79/2 59/45/2
f 64/47/4 62/53/4 61/48/4
f 63/49/3 61/48/3 57/50/3
f 60/52/1 58/80/1 62/53/1
f 66/54/1 68/57/1 67/55/1
f 68/57/5 72/59/5 71/58/5
f 72/59/3 70/61/3 69/60/3
f 70/61/6 66/81/6 65/62/6
f 71/58/2 69/60/2 65/63/2
f 68/65/4 66/82/4 70/61/4
f 74/66/4 76/69/4 75/67/4
f 76/69/5 80/71/5 79/70/5
f 80/71/2 78/73/2 77/72/2
f 78/73/6 74/83/6 73/74/6
f 79/70/1 77/72/1 73/75/1
f 80/71/3 76/84/3 74/77/3
usemtl Plaster_SmallWindow02
f 17/85/1 13/86/1 14/87/1
f 14/87/2 10/88/2 15/89/2
f 19/90/13 7/91/13 20/92/13
f 12/93/3 10/94/3 9/95/3
f 1/96/2 6/97/2 2/98/2
f 16/99/4 12/93/4 9/100/4
f 6/97/14 10/101/14 8/102/14
f 1/96/15 12/93/15 11/103/15
f 7/91/16 10/101/16 13/104/16
f 3/105/17 15/89/17 4/106/17
f 5/107/18 9/100/18 6/97/18
f 1/96/19 17/85/19 19/90/19
f 7/91/20 18/108/20 20/92/20
f 4/106/21 12/93/21 2/98/21
f 4/106/4 7/91/4 3/105/4
f 2/98/1 8/102/1 4/106/1
f 5/107/22 18/108/22 16/99/22
f 3/105/23 17/85/23 14/87/23
f 1/96/24 20/92/24 5/107/24
f 11/103/1 18/109/1 17/85/1
f 17/85/1 18/109/1 13/86/1
f 14/87/2 13/110/2 10/88/2
f 19/90/13 3/105/13 7/91/13
f 12/93/3 15/89/3 10/94/3
f 1/96/2 5/107/2 6/97/2
f 16/99/4 11/103/4 12/93/4
f 6/97/14 9/100/14 10/101/14
f 1/96/15 2/98/15 12/93/15
f 7/91/16 8/102/16 10/101/16
f 3/105/17 14/87/17 15/89/17
f 5/107/18 16/99/18 9/100/18
f 1/96/23 11/103/23 17/85/23
f 7/91/22 13/104/22 18/108/22
f 4/106/21 15/89/21 12/93/21
f 4/106/4 8/102/4 7/91/4
f 2/98/1 6/97/1 8/102/1
f 5/107/25 20/92/25 18/108/25
f 3/105/26 19/90/26 17/85/26
f 1/96/24 19/90/24 20/92/24
f 11/103/1 16/111/1 18/109/1
usemtl Glass_SmallWindow02
f 60/79/5 63/49/5 59/45/5
f 62/53/6 57/112/6 61/48/6
f 60/79/5 64/47/5 63/49/5
f 62/53/6 58/113/6 57/112/6
